<svg width="24" height="24" viewBox="0 0 24 24" fill="none" xmlns="http://www.w3.org/2000/svg">
<path d="M14.2718 10.445C16.4591 11.3405 18 13.4903 18 16C18 19.3137 15.3137 22 12 22C8.68629 22 6 19.3137 6 16C6 13.651 7.34983 11.6173 9.31612 10.6323M14.2718 10.445C13.7959 10.2502 13.2894 10.1147 12.7615 10.0479M14.2718 10.445L18 2M12.7615 10.0479C12.5121 10.0163 12.258 10 12 10C11.0353 10 10.1237 10.2277 9.31612 10.6323M12.7615 10.0479L8.835 2M9.31612 10.6323L5 2M14.36 2L13.32 4.5M10.5 15L12.5 13.5V18.5" stroke="#141C25" stroke-width="1.5" stroke-linecap="round" stroke-linejoin="round"/>
</svg>
