<svg width="24" height="24" viewBox="0 0 24 24" fill="none" xmlns="http://www.w3.org/2000/svg">
<path d="M5.75 8.5H4M5.75 8.5C6.7165 8.5 7.5 9.2835 7.5 10.25C7.5 11.2165 6.7165 12 5.75 12H3M5.75 8.5C6.7165 8.5 7.5 7.7165 7.5 6.75C7.5 5.7835 6.7165 5 5.75 5H3M21 15C21 18.3137 16.9706 21 12 21C7.02944 21 3 18.3137 3 15M14 5H13C11.3431 5 10 6.34315 10 8V9.5M10 9.5V10C10 11.1046 10.8954 12 12 12H12.5C13.6046 12 14.5 11.1046 14.5 10V9.5C14.5 8.39543 13.6046 7.5 12.5 7.5H12C10.8954 7.5 10 8.39543 10 9.5ZM17 7C17 5.89543 17.8954 5 19 5H19.5C20.6046 5 21.5 5.89543 21.5 7V10C21.5 11.1046 20.6046 12 19.5 12H19C17.8954 12 17 11.1046 17 10V7Z" stroke="#141C25" stroke-width="1.5" stroke-linecap="round" stroke-linejoin="round"/>
</svg>
