<svg width="24" height="24" viewBox="0 0 24 24" fill="none" xmlns="http://www.w3.org/2000/svg">
<path d="M12 16.0001C14.2092 16.0001 16 14.2092 16 12.0001C16 9.79091 14.2092 8.00005 12 8.00005C9.79088 8.00005 8.00002 9.79091 8.00002 12.0001C8.00002 14.2092 9.79088 16.0001 12 16.0001ZM12 16.0001V21M8.40004 10.0001L3.52846 7.29362M20.5 7.27782L15.6 10.0001M21 16.647L21 7.35309C21 7.13519 20.8819 6.93442 20.6914 6.8286L12.2914 2.16193C12.1102 2.06126 11.8898 2.06126 11.7086 2.16193L3.30861 6.8286C3.11814 6.93442 3 7.13519 3 7.35309L3.00002 16.647C3.00002 16.8649 3.11815 17.0657 3.30863 17.1715L11.7086 21.8382C11.8898 21.9388 12.1102 21.9388 12.2914 21.8382L20.6914 17.1715C20.8819 17.0657 21 16.8649 21 16.647Z" stroke="#141C25" stroke-width="1.5" stroke-linecap="round" stroke-linejoin="round"/>
</svg>
