<svg width="24" height="24" viewBox="0 0 24 24" fill="none" xmlns="http://www.w3.org/2000/svg">
<path d="M2 17C2.55228 17 3 16.5523 3 16C3 15.4477 2.55228 15 2 15C1.44772 15 1 15.4477 1 16C1 16.5523 1.44772 17 2 17Z" fill="#141C25"/>
<path d="M12 17C12.5523 17 13 16.5523 13 16C13 15.4477 12.5523 15 12 15C11.4477 15 11 15.4477 11 16C11 16.5523 11.4477 17 12 17Z" fill="#141C25"/>
<path d="M22 16C22 10.4772 17.5228 6 12 6C7.89936 6 4.3752 8.46819 2.83209 12M2 16H12M3 16C3 16.5523 2.55228 17 2 17C1.44772 17 1 16.5523 1 16C1 15.4477 1.44772 15 2 15C2.55228 15 3 15.4477 3 16ZM13 16C13 16.5523 12.5523 17 12 17C11.4477 17 11 16.5523 11 16C11 15.4477 11.4477 15 12 15C12.5523 15 13 15.4477 13 16Z" stroke="#141C25" stroke-width="1.5" stroke-linecap="round" stroke-linejoin="round"/>
</svg>
