<svg width="24" height="24" viewBox="0 0 24 24" fill="none" xmlns="http://www.w3.org/2000/svg">
<path d="M18 4H21M9.99999 20C9.99999 20 16.5 17.5 12 12C7.49999 6.5 14 4 14 4M3 20H6M11 20C11 20.5523 10.5523 21 10 21C9.44772 21 9 20.5523 9 20C9 19.4477 9.44772 19 10 19C10.5523 19 11 19.4477 11 20ZM15 4C15 4.55228 14.5523 5 14 5C13.4477 5 13 4.55228 13 4C13 3.44772 13.4477 3 14 3C14.5523 3 15 3.44772 15 4Z" stroke="#141C25" stroke-width="1.5" stroke-linecap="round" stroke-linejoin="round"/>
</svg>
