<svg width="24" height="24" viewBox="0 0 24 24" fill="none" xmlns="http://www.w3.org/2000/svg">
<path d="M20.5 16.7223L12.2914 12.1619C12.1102 12.0613 11.8899 12.0613 11.7087 12.1619L3.50002 16.7223M3.52846 7.29362L11.7087 11.8382C11.8899 11.9388 12.1102 11.9388 12.2914 11.8382L20.5 7.27782M12 12.0001V3.00005M12 22V19.5M13 16.0001C13 16.5523 12.5523 17.0001 12 17.0001C11.4477 17.0001 11 16.5523 11 16.0001C11 15.4478 11.4477 15.0001 12 15.0001C12.5523 15.0001 13 15.4478 13 16.0001ZM21 16.647L21 7.35309C21 7.13519 20.8819 6.93442 20.6914 6.8286L12.2914 2.16193C12.1102 2.06126 11.8898 2.06126 11.7086 2.16193L3.30861 6.8286C3.11814 6.93442 3 7.13519 3 7.35309L3.00002 16.647C3.00002 16.8649 3.11815 17.0657 3.30863 17.1715L11.7086 21.8382C11.8898 21.9388 12.1102 21.9388 12.2914 21.8382L20.6914 17.1715C20.8819 17.0657 21 16.8649 21 16.647Z" stroke="#141C25" stroke-width="1.5" stroke-linecap="round" stroke-linejoin="round"/>
</svg>
