<svg width="24" height="24" viewBox="0 0 24 24" fill="none" xmlns="http://www.w3.org/2000/svg">
<path d="M2.5 9.00004L12.727 11.9221C12.8998 11.9714 13.0857 11.9407 13.2334 11.8385L19.5 7.50004M13 20.5V12M16.5 14.01L16.51 13.9989M22 17.01L22.01 16.9989M20 15.5764V7.77966C20 7.6024 19.9216 7.43421 19.7859 7.32021L13.7747 2.27142C13.5809 2.10862 13.3057 2.08498 13.087 2.21233L2.29813 8.49315C2.11354 8.60061 2 8.7981 2 9.01168L2.00002 21.3127C2.00002 21.6763 2.32083 21.9563 2.68109 21.9072L12.8652 20.5184C12.954 20.5063 13.0388 20.4745 13.1137 20.4253L19.7295 16.0778C19.8983 15.9669 20 15.7784 20 15.5764Z" stroke="#141C25" stroke-width="1.5" stroke-linecap="round" stroke-linejoin="round"/>
</svg>
