<svg width="24" height="24" viewBox="0 0 24 24" fill="none" xmlns="http://www.w3.org/2000/svg">
<path d="M21.75 17C21.75 16.5858 21.4142 16.25 21 16.25C20.5858 16.25 20.25 16.5858 20.25 17H21H21.75ZM17 20.25C16.5858 20.25 16.25 20.5858 16.25 21C16.25 21.4142 16.5858 21.75 17 21.75V21V20.25ZM21.75 7C21.75 6.58579 21.4142 6.25 21 6.25C20.5858 6.25 20.25 6.58579 20.25 7H21H21.75ZM20.25 9C20.25 9.41421 20.5858 9.75 21 9.75C21.4142 9.75 21.75 9.41421 21.75 9H21H20.25ZM21.75 12C21.75 11.5858 21.4142 11.25 21 11.25C20.5858 11.25 20.25 11.5858 20.25 12H21H21.75ZM20.25 14C20.25 14.4142 20.5858 14.75 21 14.75C21.4142 14.75 21.75 14.4142 21.75 14H21H20.25ZM7 20.25C6.58579 20.25 6.25 20.5858 6.25 21C6.25 21.4142 6.58579 21.75 7 21.75V21V20.25ZM9 21.75C9.41421 21.75 9.75 21.4142 9.75 21C9.75 20.5858 9.41421 20.25 9 20.25V21V21.75ZM12 20.25C11.5858 20.25 11.25 20.5858 11.25 21C11.25 21.4142 11.5858 21.75 12 21.75V21V20.25ZM14 21.75C14.4142 21.75 14.75 21.4142 14.75 21C14.75 20.5858 14.4142 20.25 14 20.25V21V21.75ZM3 3.6H2.25V21.3328H3H3.75V3.6H3ZM21.2318 3V2.25H3.6V3V3.75H21.2318V3ZM3 3.6H3.75C3.75 3.68284 3.68284 3.75 3.6 3.75V3V2.25C2.85442 2.25 2.25 2.85441 2.25 3.6H3ZM21 20.4H21.75V17H21H20.25V20.4H21ZM17 21V21.75H20.4V21V20.25H17V21ZM21 20.4H20.25C20.25 20.3172 20.3172 20.25 20.4 20.25V21V21.75C21.1456 21.75 21.75 21.1456 21.75 20.4H21ZM21 7H20.25V9H21H21.75V7H21ZM21 12H20.25V14H21H21.75V12H21ZM7 21V21.75H9V21V20.25H7V21ZM12 21V21.75H14V21V20.25H12V21ZM4 3H3.25C3.25 3.13807 3.13807 3.25 3 3.25V4V4.75C3.9665 4.75 4.75 3.9665 4.75 3H4ZM3 4V3.25C2.86193 3.25 2.75 3.13807 2.75 3H2H1.25C1.25 3.9665 2.0335 4.75 3 4.75V4ZM2 3H2.75C2.75 2.86193 2.86193 2.75 3 2.75V2V1.25C2.0335 1.25 1.25 2.0335 1.25 3H2ZM3 2V2.75C3.13807 2.75 3.25 2.86193 3.25 3H4H4.75C4.75 2.0335 3.9665 1.25 3 1.25V2ZM4 21H3.25C3.25 21.1381 3.13807 21.25 3 21.25V22V22.75C3.9665 22.75 4.75 21.9665 4.75 21H4ZM3 22V21.25C2.86193 21.25 2.75 21.1381 2.75 21H2H1.25C1.25 21.9665 2.0335 22.75 3 22.75V22ZM2 21H2.75C2.75 20.8619 2.86193 20.75 3 20.75V20V19.25C2.0335 19.25 1.25 20.0335 1.25 21H2ZM3 20V20.75C3.13807 20.75 3.25 20.8619 3.25 21H4H4.75C4.75 20.0335 3.9665 19.25 3 19.25V20ZM22 3H21.25C21.25 3.13807 21.1381 3.25 21 3.25V4V4.75C21.9665 4.75 22.75 3.9665 22.75 3H22ZM21 4V3.25C20.8619 3.25 20.75 3.13807 20.75 3H20H19.25C19.25 3.9665 20.0335 4.75 21 4.75V4ZM20 3H20.75C20.75 2.86193 20.8619 2.75 21 2.75V2V1.25C20.0335 1.25 19.25 2.0335 19.25 3H20ZM21 2V2.75C21.1381 2.75 21.25 2.86193 21.25 3H22H22.75C22.75 2.0335 21.9665 1.25 21 1.25V2Z" fill="#141C25"/>
</svg>
