<svg width="24" height="24" viewBox="0 0 24 24" fill="none" xmlns="http://www.w3.org/2000/svg">
<path d="M11.6914 11.8286L3.8914 7.49527C3.49149 7.27309 3.00002 7.56227 3.00002 8.01976V16.647C3.00002 16.8649 3.11815 17.0657 3.30863 17.1715L11.1086 21.5048C11.5086 21.727 12 21.4378 12 20.9803V12.3531C12 12.1352 11.8819 11.9344 11.6914 11.8286Z" fill="#141C25"/>
<path d="M3.00002 16.647L3 7.35309C3 7.13519 3.11814 6.93442 3.30861 6.8286L11.7086 2.16193C11.8898 2.06126 12.1102 2.06126 12.2914 2.16193L20.6914 6.8286C20.8819 6.93442 21 7.13519 21 7.35309L21 16.647C21 16.8649 20.8819 17.0657 20.6914 17.1715L12.2914 21.8382C12.1102 21.9388 11.8898 21.9388 11.7086 21.8382L3.30863 17.1715M3.00002 16.647C3.00002 16.8649 3.11815 17.0657 3.30863 17.1715M3.00002 16.647V8.01976C3.00002 7.56227 3.49149 7.27309 3.8914 7.49527L11.6914 11.8286C11.8819 11.9344 12 12.1352 12 12.3531V20.9803C12 21.4378 11.5086 21.727 11.1086 21.5048L3.30863 17.1715M3.52846 7.29362L11.7087 11.8382C11.8899 11.9388 12.1102 11.9388 12.2914 11.8382L20.5 7.27782M12 21V12.0001" stroke="#141C25" stroke-width="1.5" stroke-linecap="round" stroke-linejoin="round"/>
</svg>
