<svg width="24" height="24" viewBox="0 0 24 24" fill="none" xmlns="http://www.w3.org/2000/svg">
<path d="M12 21L12 12" stroke="#141C25" stroke-width="1.5" stroke-linecap="round" stroke-linejoin="round"/>
<path d="M21 7.35309L21 16.647C21 16.8649 20.8819 17.0657 20.6914 17.1715L12.2914 21.8382C12.1102 21.9388 11.8898 21.9388 11.7086 21.8382L3.30863 17.1715C3.11815 17.0657 3.00002 16.8649 3.00002 16.647L3 7.35309C3 7.13519 3.11814 6.93442 3.30861 6.8286L11.7086 2.16193C11.8898 2.06126 12.1102 2.06126 12.2914 2.16193L20.6914 6.8286C20.8819 6.93442 21 7.13519 21 7.35309Z" stroke="#141C25" stroke-width="1.5" stroke-linecap="round" stroke-linejoin="round"/>
<path d="M12.5 11.0001V21C12.5 21.2762 12.2762 21.5 12 21.5C11.7239 21.5 11.5 21.2762 11.5 21V11.0001C11.5 10.7239 11.7239 10.5001 12 10.5001C12.2762 10.5001 12.5 10.7239 12.5 11.0001Z" stroke="#141C25" stroke-width="1.5" stroke-linecap="round" stroke-linejoin="round"/>
</svg>
