<svg width="24" height="24" viewBox="0 0 24 24" fill="none" xmlns="http://www.w3.org/2000/svg">
<path d="M12 21C11.4477 21 11 21.4478 11 22C11 22.5523 11.4477 23 12 23C12.5523 23 13 22.5523 13 22C13 21.4478 12.5523 21 12 21ZM12 21V12.0001M3.52844 7.29362L11.7086 11.8382C11.8898 11.9388 12.1102 11.9388 12.2914 11.8382L20.5 7.27782M4 7.00005C4 7.55234 3.55228 8.00005 3 8.00005C2.44772 8.00005 2 7.55234 2 7.00005C2 6.44777 2.44772 6.00005 3 6.00005C3.55228 6.00005 4 6.44777 4 7.00005ZM4 17.0001C4 17.5523 3.55228 18.0001 3 18.0001C2.44772 18.0001 2 17.5523 2 17.0001C2 16.4478 2.44772 16.0001 3 16.0001C3.55228 16.0001 4 16.4478 4 17.0001ZM21 16.647L21 7.35309C21 7.13519 20.8818 6.93442 20.6914 6.8286L12.2914 2.16193C12.1102 2.06126 11.8898 2.06126 11.7086 2.16193L3.3086 6.8286C3.11812 6.93442 2.99998 7.13519 2.99998 7.35309L3 16.647C3 16.8649 3.11814 17.0657 3.30861 17.1715L11.7086 21.8382C11.8898 21.9388 12.1102 21.9388 12.2914 21.8382L20.6914 17.1715C20.8819 17.0657 21 16.8649 21 16.647Z" stroke="#141C25" stroke-width="1.5" stroke-linecap="round" stroke-linejoin="round"/>
</svg>
