<svg width="24" height="24" viewBox="0 0 24 24" fill="none" xmlns="http://www.w3.org/2000/svg">
<path d="M12.5 12.1605L16.5 12L16 16.5M11.8333 12L13.5 9.53846L10.8333 8L9.5 9.84615M3 5V19C3 20.1046 3.89543 21 5 21H19C20.1046 21 21 20.1046 21 19V5C21 3.89543 20.1046 3 19 3H5C3.89543 3 3 3.89543 3 5ZM15.5 7.5C15.2239 7.5 15 7.27614 15 7C15 6.72386 15.2239 6.5 15.5 6.5C15.7761 6.5 16 6.72386 16 7C16 7.27614 15.7761 7.5 15.5 7.5ZM7.5 15C7.5 16.6569 8.84315 18 10.5 18C12.1569 18 13.5 16.6569 13.5 15C13.5 13.3431 12.1569 12 10.5 12C8.84315 12 7.5 13.3431 7.5 15Z" stroke="#141C25" stroke-width="1.5" stroke-linecap="round" stroke-linejoin="round"/>
</svg>
