<svg width="24" height="24" viewBox="0 0 24 24" fill="none" xmlns="http://www.w3.org/2000/svg">
<path d="M14.7753 3.17334C15.1704 3.29746 15.5914 3.07772 15.7155 2.68254C15.8397 2.28736 15.6199 1.86638 15.2247 1.74227L15 2.4578L14.7753 3.17334ZM22.535 9.8508C22.4526 9.44487 22.0567 9.18259 21.6508 9.26499C21.2448 9.34739 20.9826 9.74326 21.065 10.1492L21.8 10L22.535 9.8508ZM17.1 14.95C17.3485 14.6186 17.2814 14.1485 16.95 13.9C16.6186 13.6515 16.1485 13.7186 15.9 14.05L16.5 14.5L17.1 14.95ZM8.1 14.05C7.85147 13.7186 7.38137 13.6515 7.05 13.9C6.71863 14.1485 6.65147 14.6186 6.9 14.95L7.5 14.5L8.1 14.05ZM20.25 2.5C20.25 2.08579 19.9142 1.75 19.5 1.75C19.0858 1.75 18.75 2.08579 18.75 2.5H19.5H20.25ZM18.75 7.5C18.75 7.91421 19.0858 8.25 19.5 8.25C19.9142 8.25 20.25 7.91421 20.25 7.5H19.5H18.75ZM22 5.75C22.4142 5.75 22.75 5.41421 22.75 5C22.75 4.58579 22.4142 4.25 22 4.25V5V5.75ZM17 4.25C16.5858 4.25 16.25 4.58579 16.25 5C16.25 5.41421 16.5858 5.75 17 5.75V5V4.25ZM15.4425 9.50827C15.1654 9.81616 15.1904 10.2904 15.4983 10.5675C15.8062 10.8446 16.2804 10.8196 16.5575 10.5117L16 10.01L15.4425 9.50827ZM16.5675 10.5006C16.8446 10.1927 16.8196 9.71852 16.5117 9.44142C16.2038 9.16433 15.7296 9.18928 15.4525 9.49716L16.01 9.99889L16.5675 10.5006ZM8.44253 9.50827C8.16544 9.81616 8.19039 10.2904 8.49827 10.5675C8.80616 10.8446 9.28037 10.8196 9.55747 10.5117L9 10.01L8.44253 9.50827ZM9.56747 10.5006C9.84456 10.1927 9.81961 9.71852 9.51173 9.44142C9.20385 9.16433 8.72963 9.18928 8.45253 9.49716L9.01 9.99889L9.56747 10.5006ZM2 12H1.25C1.25 17.9371 6.06294 22.75 12 22.75V22V21.25C6.89137 21.25 2.75 17.1086 2.75 12H2ZM12 22V22.75C17.9371 22.75 22.75 17.9371 22.75 12H22H21.25C21.25 17.1086 17.1086 21.25 12 21.25V22ZM12 2V1.25C6.06294 1.25 1.25 6.06294 1.25 12H2H2.75C2.75 6.89137 6.89137 2.75 12 2.75V2ZM15 2.4578L15.2247 1.74227C14.2058 1.42224 13.1223 1.25 12 1.25V2V2.75C12.9681 2.75 13.9001 2.89847 14.7753 3.17334L15 2.4578ZM22 12H22.75C22.75 11.2647 22.6761 10.5459 22.535 9.8508L21.8 10L21.065 10.1492C21.1862 10.7466 21.25 11.3655 21.25 12H22ZM16.5 14.5C15.9 14.05 15.9002 14.0497 15.9004 14.0495C15.9005 14.0494 15.9007 14.0491 15.9008 14.049C15.901 14.0486 15.9012 14.0484 15.9014 14.0481C15.9018 14.0476 15.9021 14.0472 15.9023 14.0469C15.9028 14.0464 15.9028 14.0463 15.9026 14.0466C15.902 14.0473 15.9001 14.0498 15.8968 14.0539C15.8901 14.0622 15.8779 14.0772 15.8602 14.0978C15.8248 14.1392 15.7675 14.2031 15.6884 14.2822C15.5299 14.4407 15.2864 14.6577 14.959 14.876C14.3069 15.3106 13.3243 15.75 12 15.75V16.5V17.25C13.6757 17.25 14.9431 16.6894 15.791 16.124C16.2136 15.8423 16.5326 15.5593 16.7491 15.3428C16.8575 15.2344 16.9408 15.1421 16.9991 15.074C17.0283 15.04 17.0513 15.012 17.0681 14.991C17.0765 14.9805 17.0833 14.9717 17.0886 14.9649C17.0913 14.9614 17.0936 14.9585 17.0955 14.956C17.0964 14.9547 17.0973 14.9536 17.098 14.9526C17.0984 14.9521 17.0988 14.9517 17.0991 14.9512C17.0992 14.951 17.0995 14.9507 17.0996 14.9506C17.0998 14.9503 17.1 14.95 16.5 14.5ZM12 16.5V15.75C10.6757 15.75 9.69305 15.3106 9.04103 14.876C8.71357 14.6577 8.4701 14.4407 8.31158 14.2822C8.23251 14.2031 8.1752 14.1392 8.13975 14.0978C8.12205 14.0772 8.10988 14.0622 8.10323 14.0539C8.09991 14.0498 8.09798 14.0473 8.09744 14.0466C8.09717 14.0463 8.09725 14.0464 8.09767 14.0469C8.09789 14.0472 8.09819 14.0476 8.09857 14.0481C8.09877 14.0484 8.09898 14.0486 8.09922 14.049C8.09934 14.0491 8.09954 14.0494 8.09959 14.0495C8.09979 14.0497 8.1 14.05 7.5 14.5C6.9 14.95 6.90022 14.9503 6.90044 14.9506C6.90052 14.9507 6.90075 14.951 6.90092 14.9512C6.90124 14.9517 6.9016 14.9521 6.90197 14.9526C6.90273 14.9536 6.90358 14.9547 6.90452 14.956C6.90642 14.9585 6.90869 14.9614 6.91135 14.9649C6.91667 14.9717 6.92353 14.9805 6.93193 14.991C6.94872 15.012 6.9717 15.04 7.00087 15.074C7.05918 15.1421 7.14249 15.2344 7.25092 15.3428C7.4674 15.5593 7.78643 15.8423 8.20897 16.124C9.05695 16.6894 10.3243 17.25 12 17.25V16.5ZM19.5 2.5H18.75V5H19.5H20.25V2.5H19.5ZM19.5 5H18.75V7.5H19.5H20.25V5H19.5ZM22 5V4.25H19.5V5V5.75H22V5ZM19.5 5V4.25H17V5V5.75H19.5V5ZM16 10.01L16.5575 10.5117L16.5675 10.5006L16.01 9.99889L15.4525 9.49716L15.4425 9.50827L16 10.01ZM9 10.01L9.55747 10.5117L9.56747 10.5006L9.01 9.99889L8.45253 9.49716L8.44253 9.50827L9 10.01Z" fill="#141C25"/>
</svg>
