<svg width="24" height="24" viewBox="0 0 24 24" fill="none" xmlns="http://www.w3.org/2000/svg">
<path d="M9 20L8.47648 20.5371L9 21.0474L9.52352 20.5371L9 20ZM16 18.25C15.5858 18.25 15.25 18.5858 15.25 19C15.25 19.4142 15.5858 19.75 16 19.75V19V18.25ZM22 19.75C22.4142 19.75 22.75 19.4142 22.75 19C22.75 18.5858 22.4142 18.25 22 18.25V19V19.75ZM19.75 16C19.75 15.5858 19.4142 15.25 19 15.25C18.5858 15.25 18.25 15.5858 18.25 16H19H19.75ZM18.25 22C18.25 22.4142 18.5858 22.75 19 22.75C19.4142 22.75 19.75 22.4142 19.75 22H19H18.25ZM16 9.2H15.25C15.25 10.0022 14.8868 11.0386 14.2484 12.205C13.6204 13.3521 12.7738 14.5407 11.9127 15.6247C11.0538 16.7059 10.193 17.6674 9.54593 18.3594C9.22277 18.7051 8.95388 18.9824 8.76642 19.1728C8.67272 19.2679 8.59943 19.3412 8.54995 19.3904C8.52522 19.415 8.50645 19.4335 8.49406 19.4457C8.48786 19.4518 8.48327 19.4563 8.48032 19.4592C8.47884 19.4606 8.47778 19.4617 8.47714 19.4623C8.47682 19.4626 8.47661 19.4628 8.4765 19.4629C8.47644 19.463 8.47644 19.463 8.47641 19.463C8.47643 19.463 8.47648 19.4629 9 20C9.52352 20.5371 9.52362 20.537 9.52375 20.5368C9.52383 20.5368 9.52399 20.5366 9.52414 20.5364C9.52446 20.5361 9.52488 20.5357 9.52541 20.5352C9.52646 20.5342 9.52794 20.5327 9.52983 20.5309C9.53361 20.5272 9.53905 20.5218 9.5461 20.5149C9.5602 20.501 9.58074 20.4808 9.60727 20.4544C9.66034 20.4017 9.73744 20.3245 9.83514 20.2253C10.0305 20.0269 10.3085 19.7402 10.6416 19.3839C11.307 18.6723 12.1962 17.6794 13.0873 16.5577C13.9762 15.4387 14.8796 14.1758 15.5641 12.9252C16.2382 11.6938 16.75 10.386 16.75 9.2H16ZM9 20C9.52352 19.4629 9.52357 19.463 9.52359 19.463C9.52356 19.463 9.52356 19.463 9.5235 19.4629C9.52339 19.4628 9.52318 19.4626 9.52286 19.4623C9.52222 19.4617 9.52116 19.4606 9.51968 19.4592C9.51673 19.4563 9.51214 19.4518 9.50594 19.4457C9.49355 19.4335 9.47478 19.415 9.45005 19.3904C9.40057 19.3412 9.32728 19.2679 9.23358 19.1728C9.04612 18.9824 8.77723 18.7051 8.45407 18.3594C7.80699 17.6674 6.94615 16.7059 6.08725 15.6247C5.22616 14.5407 4.37955 13.3521 3.75164 12.205C3.11319 11.0386 2.75 10.0022 2.75 9.2H2H1.25C1.25 10.386 1.76181 11.6938 2.43586 12.9252C3.12045 14.1758 4.02384 15.4387 4.91275 16.5577C5.80385 17.6794 6.69301 18.6723 7.35843 19.3839C7.69152 19.7402 7.9695 20.0269 8.16486 20.2253C8.26256 20.3245 8.33966 20.4017 8.39273 20.4544C8.41926 20.4808 8.4398 20.501 8.4539 20.5149C8.46095 20.5218 8.46639 20.5272 8.47017 20.5309C8.47206 20.5327 8.47354 20.5342 8.47459 20.5352C8.47512 20.5357 8.47554 20.5361 8.47586 20.5364C8.47601 20.5366 8.47617 20.5368 8.47625 20.5368C8.47638 20.537 8.47648 20.5371 9 20ZM2 9.2H2.75C2.75 5.61771 5.568 2.75 9 2.75V2V1.25C4.70002 1.25 1.25 4.82939 1.25 9.2H2ZM9 2V2.75C12.432 2.75 15.25 5.61771 15.25 9.2H16H16.75C16.75 4.82939 13.3 1.25 9 1.25V2ZM10 9H9.25C9.25 9.13807 9.13807 9.25 9 9.25V10V10.75C9.9665 10.75 10.75 9.9665 10.75 9H10ZM9 10V9.25C8.86193 9.25 8.75 9.13807 8.75 9H8H7.25C7.25 9.9665 8.0335 10.75 9 10.75V10ZM8 9H8.75C8.75 8.86193 8.86193 8.75 9 8.75V8V7.25C8.0335 7.25 7.25 8.0335 7.25 9H8ZM9 8V8.75C9.13807 8.75 9.25 8.86193 9.25 9H10H10.75C10.75 8.0335 9.9665 7.25 9 7.25V8ZM16 19V19.75H19V19V18.25H16V19ZM19 19V19.75H22V19V18.25H19V19ZM19 19H19.75V16H19H18.25V19H19ZM19 19H18.25V22H19H19.75V19H19Z" fill="#141C25"/>
</svg>
