<svg width="24" height="24" viewBox="0 0 24 24" fill="none" xmlns="http://www.w3.org/2000/svg">
<path d="M8.99991 12H11.9999M11.9999 12H14.9999M11.9999 12V8.99995M11.9999 12V15M2.47363 6.84636V17.1535C2.47363 17.3679 2.58799 17.566 2.77363 17.6732L11.6999 22.8267C11.8856 22.9339 12.1143 22.9339 12.2999 22.8267L21.2262 17.6732C21.4118 17.566 21.5262 17.3679 21.5262 17.1535V6.84636C21.5262 6.632 21.4118 6.43393 21.2262 6.32675L12.2999 1.17316C12.1143 1.06598 11.8856 1.06598 11.6999 1.17316L2.77363 6.32675C2.58799 6.43393 2.47363 6.632 2.47363 6.84636Z" stroke="#141C25" stroke-width="1.5" stroke-linecap="round" stroke-linejoin="round"/>
</svg>
