<svg width="24" height="24" viewBox="0 0 24 24" fill="none" xmlns="http://www.w3.org/2000/svg">
<path d="M14.1206 9.87847C15.2921 11.05 15.2921 12.9495 14.1206 14.1211M14.1206 9.87847C12.949 8.70689 11.0495 8.70689 9.87794 9.87847M14.1206 9.87847C14.1206 9.87847 14.112 7.07629 15.5354 5.63591C16.9454 4.22735 18.3292 2.77142 19.778 4.22169C21.1548 5.59985 19.7929 7.03103 18.3638 8.46434C16.9623 9.87006 14.1206 9.87847 14.1206 9.87847ZM14.1206 14.1211C12.949 15.2927 11.0495 15.2927 9.87794 14.1211M14.1206 14.1211C14.1206 14.1211 16.9235 14.112 18.3638 15.5354C19.7724 16.9454 21.2283 18.3292 19.778 19.778C18.3999 21.1548 16.9687 19.7929 15.5354 18.3638C14.1297 16.9623 14.1206 14.1211 14.1206 14.1211ZM9.87794 14.1211C8.70637 12.9495 8.70637 11.05 9.87794 9.87847M9.87794 14.1211C9.87794 14.1211 9.88774 16.9235 8.46434 18.3638C7.05436 19.7724 5.67056 21.2283 4.22169 19.778C2.84496 18.3999 4.20685 16.9687 5.63591 15.5354C7.03739 14.1297 9.87794 14.1211 9.87794 14.1211ZM9.87794 9.87847C9.87794 9.87847 7.07629 9.88774 5.63591 8.46434C4.22735 7.05437 2.77142 5.67056 4.22169 4.2217C5.59985 2.84496 7.03103 4.20685 8.46434 5.63591C9.87006 7.03739 9.87794 9.87847 9.87794 9.87847Z" stroke="#141C25" stroke-width="1.5" stroke-miterlimit="1.5" stroke-linecap="round" stroke-linejoin="round"/>
</svg>
