<svg width="24" height="24" viewBox="0 0 24 24" fill="none" xmlns="http://www.w3.org/2000/svg">
<g clip-path="url(#clip0_1030_32481)">
<path d="M14.9996 11.9995C14.9996 13.6564 13.6565 14.9995 11.9996 14.9995M14.9996 11.9995C14.9996 10.3427 13.6565 8.99951 11.9996 8.99951M14.9996 11.9995C14.9996 11.9995 16.975 10.012 19 10C20.993 10.001 23.001 9.95 23 12C22.999 13.948 21.024 13.997 19 14C17.015 14.003 14.9996 11.9995 14.9996 11.9995ZM11.9996 14.9995C10.3428 14.9995 8.99963 13.6564 8.99963 11.9995M11.9996 14.9995C11.9996 14.9995 13.988 16.975 14 19C13.999 20.993 14.05 23.001 12 23C10.052 22.999 10.003 21.024 10 19C9.997 17.015 11.9996 14.9995 11.9996 14.9995ZM8.99963 11.9995C8.99963 10.3427 10.3428 8.99951 11.9996 8.99951M8.99963 11.9995C8.99963 11.9995 7.025 13.988 5 14C3.007 13.999 0.999 14.05 1 12C1.001 10.052 2.976 10.003 5 10C6.985 9.997 8.99963 11.9995 8.99963 11.9995ZM11.9996 8.99951C11.9996 8.99951 10.012 7.025 10 5C10.001 3.007 9.95 0.999 12 1C13.948 1.001 13.997 2.976 14 5C14.003 6.985 11.9996 8.99951 11.9996 8.99951Z" stroke="#141C25" stroke-width="1.5" stroke-miterlimit="1.5" stroke-linecap="round" stroke-linejoin="round"/>
</g>
<defs>
<clipPath id="clip0_1030_32481">
<rect width="24" height="24" fill="white"/>
</clipPath>
</defs>
</svg>
