<svg width="24" height="24" viewBox="0 0 24 24" fill="none" xmlns="http://www.w3.org/2000/svg">
<path d="M15.1492 1.465C14.7433 1.3826 14.3474 1.64488 14.265 2.05081C14.1826 2.45675 14.4449 2.85262 14.8508 2.93502L15 2.20001L15.1492 1.465ZM14.8508 21.0649C14.4449 21.1473 14.1826 21.5432 14.265 21.9491C14.3474 22.355 14.7433 22.6173 15.1492 22.5349L15 21.7999L14.8508 21.0649ZM15.1809 8.27215C14.7789 8.17223 14.3721 8.4171 14.2721 8.81908C14.1722 9.22106 14.4171 9.62793 14.8191 9.72785L15 9L15.1809 8.27215ZM14.8191 14.2721C14.4171 14.372 14.1722 14.7789 14.2721 15.1809C14.372 15.5829 14.7789 15.8278 15.1809 15.7279L15 15L14.8191 14.2721ZM1 1.25C0.585786 1.25 0.25 1.58579 0.25 2C0.25 2.41421 0.585786 2.75 1 2.75V2V1.25ZM11 2H11.75C11.75 1.58579 11.4142 1.25 11 1.25V2ZM11 22V22.75C11.4142 22.75 11.75 22.4142 11.75 22H11ZM1 21.25C0.585786 21.25 0.25 21.5858 0.25 22C0.25 22.4142 0.585786 22.75 1 22.75V22V21.25ZM7 7.75C7.41421 7.75 7.75 7.41421 7.75 7C7.75 6.58579 7.41421 6.25 7 6.25V7V7.75ZM15 2.20001L14.8508 2.93502C19.0726 3.79201 22.25 7.52577 22.25 12H23H23.75C23.75 6.79835 20.0564 2.46109 15.1492 1.465L15 2.20001ZM23 12H22.25C22.25 16.4742 19.0726 20.2079 14.8508 21.0649L15 21.7999L15.1492 22.5349C20.0564 21.5389 23.75 17.2016 23.75 12H23ZM15 9L14.8191 9.72785C15.5437 9.90797 16.25 10.771 16.25 12H17H17.75C17.75 10.267 16.7385 8.65931 15.1809 8.27215L15 9ZM17 12H16.25C16.25 13.229 15.5437 14.0921 14.8191 14.2721L15 15L15.1809 15.7279C16.7385 15.3407 17.75 13.733 17.75 12H17ZM1 2V2.75H11V2V1.25H1V2ZM11 2H10.25V22H11H11.75V2H11ZM11 22V21.25H1V22V22.75H11V22ZM4 15.5H3.25C3.25 15.9142 2.91421 16.25 2.5 16.25V17V17.75C3.74265 17.75 4.75 16.7426 4.75 15.5H4ZM2.5 17V16.25C2.08579 16.25 1.75 15.9142 1.75 15.5H1H0.25C0.25 16.7426 1.25735 17.75 2.5 17.75V17ZM1 15.5H1.75C1.75 15.0858 2.08579 14.75 2.5 14.75V14V13.25C1.25735 13.25 0.25 14.2574 0.25 15.5H1ZM2.5 14V14.75C2.91421 14.75 3.25 15.0858 3.25 15.5H4H4.75C4.75 14.2574 3.74265 13.25 2.5 13.25V14ZM4 15.5H4.75V7.6H4H3.25V15.5H4ZM4 7.6H4.75C4.75 7.68284 4.68284 7.75 4.6 7.75V7V6.25C3.85442 6.25 3.25 6.85442 3.25 7.6H4ZM4.6 7V7.75H7V7V6.25H4.6V7Z" fill="#141C25"/>
</svg>
