<svg width="24" height="24" viewBox="0 0 24 24" fill="none" xmlns="http://www.w3.org/2000/svg">
<path d="M22 12.75C22.4142 12.75 22.75 12.4142 22.75 12C22.75 11.5858 22.4142 11.25 22 11.25V12V12.75ZM22 12V11.25H2V12V12.75H22V12ZM8 5H7.25V19H8H8.75V5H8ZM10 21V21.75H14V21V20.25H10V21ZM16 19H16.75V5H16H15.25V19H16ZM14 3V2.25H10V3V3.75H14V3ZM16 5H16.75C16.75 3.48122 15.5188 2.25 14 2.25V3V3.75C14.6904 3.75 15.25 4.30964 15.25 5H16ZM14 21V21.75C15.5188 21.75 16.75 20.5188 16.75 19H16H15.25C15.25 19.6904 14.6904 20.25 14 20.25V21ZM8 19H7.25C7.25 20.5188 8.48122 21.75 10 21.75V21V20.25C9.30964 20.25 8.75 19.6904 8.75 19H8ZM8 5H8.75C8.75 4.30964 9.30964 3.75 10 3.75V3V2.25C8.48122 2.25 7.25 3.48122 7.25 5H8Z" fill="#141C25"/>
</svg>
