<svg width="24" height="24" viewBox="0 0 24 24" fill="none" xmlns="http://www.w3.org/2000/svg">
<path d="M2.25 22C2.25 22.4142 2.58579 22.75 3 22.75C3.41421 22.75 3.75 22.4142 3.75 22H3H2.25ZM20.25 22C20.25 22.4142 20.5858 22.75 21 22.75C21.4142 22.75 21.75 22.4142 21.75 22H21H20.25ZM3 22H3.75V2H3H2.25V22H3ZM21 22H21.75V2H21H20.25V22H21ZM9 16V16.75H15V16V15.25H9V16ZM17 14H17.75V10H17H16.25V14H17ZM15 8V7.25H9V8V8.75H15V8ZM7 10H6.25V14H7H7.75V10H7ZM9 8V7.25C7.48122 7.25 6.25 8.48122 6.25 10H7H7.75C7.75 9.30964 8.30964 8.75 9 8.75V8ZM17 10H17.75C17.75 8.48122 16.5188 7.25 15 7.25V8V8.75C15.6904 8.75 16.25 9.30964 16.25 10H17ZM15 16V16.75C16.5188 16.75 17.75 15.5188 17.75 14H17H16.25C16.25 14.6904 15.6904 15.25 15 15.25V16ZM9 16V15.25C8.30964 15.25 7.75 14.6904 7.75 14H7H6.25C6.25 15.5188 7.48122 16.75 9 16.75V16Z" fill="#141C25"/>
</svg>
