<svg width="24" height="24" viewBox="0 0 24 24" fill="none" xmlns="http://www.w3.org/2000/svg">
<path d="M11.25 22C11.25 22.4142 11.5858 22.75 12 22.75C12.4142 22.75 12.75 22.4142 12.75 22H12H11.25ZM12 22H12.75V2H12H11.25V22H12ZM5 16V16.75H19V16V15.25H5V16ZM21 14H21.75V10H21H20.25V14H21ZM19 8V7.25H5V8V8.75H19V8ZM3 10H2.25V14H3H3.75V10H3ZM5 8V7.25C3.48122 7.25 2.25 8.48122 2.25 10H3H3.75C3.75 9.30964 4.30964 8.75 5 8.75V8ZM21 10H21.75C21.75 8.48122 20.5188 7.25 19 7.25V8V8.75C19.6904 8.75 20.25 9.30964 20.25 10H21ZM19 16V16.75C20.5188 16.75 21.75 15.5188 21.75 14H21H20.25C20.25 14.6904 19.6904 15.25 19 15.25V16ZM5 16V15.25C4.30964 15.25 3.75 14.6904 3.75 14H3H2.25C2.25 15.5188 3.48122 16.75 5 16.75V16Z" fill="#141C25"/>
</svg>
