<svg width="24" height="24" viewBox="0 0 24 24" fill="none" xmlns="http://www.w3.org/2000/svg">
<path d="M22 3.75C22.4142 3.75 22.75 3.41421 22.75 3C22.75 2.58579 22.4142 2.25 22 2.25V3V3.75ZM22 21.75C22.4142 21.75 22.75 21.4142 22.75 21C22.75 20.5858 22.4142 20.25 22 20.25V21V21.75ZM22 3V2.25H2V3V3.75H22V3ZM22 21V20.25H2V21V21.75H22V21ZM8 9H7.25V15H8H8.75V9H8ZM10 17V17.75H14V17V16.25H10V17ZM16 15H16.75V9H16H15.25V15H16ZM14 7V6.25H10V7V7.75H14V7ZM16 9H16.75C16.75 7.48122 15.5188 6.25 14 6.25V7V7.75C14.6904 7.75 15.25 8.30964 15.25 9H16ZM14 17V17.75C15.5188 17.75 16.75 16.5188 16.75 15H16H15.25C15.25 15.6904 14.6904 16.25 14 16.25V17ZM8 15H7.25C7.25 16.5188 8.48122 17.75 10 17.75V17V16.25C9.30964 16.25 8.75 15.6904 8.75 15H8ZM8 9H8.75C8.75 8.30964 9.30964 7.75 10 7.75V7V6.25C8.48122 6.25 7.25 7.48122 7.25 9H8Z" fill="#141C25"/>
</svg>
