<svg width="24" height="24" viewBox="0 0 24 24" fill="none" xmlns="http://www.w3.org/2000/svg">
<path d="M15 9C15 9 16 10.125 16 12C16 13.875 15 15 15 15M12 12.01L12.01 11.9989M17 7C17 7 19 8.78571 19 12C19 15.2143 17 17 17 17M9 9C9 9 8 10.125 8 12C8 13.875 9 15 9 15M7 7C7 7 5 8.78571 5 12C5 15.2143 7 17 7 17M2 9V15C2 18.3137 4.68629 21 8 21H16C19.3137 21 22 18.3137 22 15V9C22 5.68629 19.3137 3 16 3H8C4.68629 3 2 5.68629 2 9Z" stroke="#141C25" stroke-width="1.5" stroke-linecap="round" stroke-linejoin="round"/>
</svg>
