<svg width="24" height="24" viewBox="0 0 24 24" fill="none" xmlns="http://www.w3.org/2000/svg">
<path d="M12.2783 5.69629C14.7599 4.70362 16.9907 4.32358 18.5576 5.05469C20.0269 5.74036 21.25 7.59331 21.25 12C21.25 16.374 20.0366 18.8597 18.4062 20.1641C16.7673 21.4752 14.524 21.7399 12.1475 21.2646L12 21.2354L11.8525 21.2646C9.47603 21.7399 7.23271 21.4752 5.59375 20.1641C3.96336 18.8597 2.75 16.374 2.75 12C2.75001 7.5273 3.75766 5.70979 5.08496 5.0459C5.77932 4.69872 6.67775 4.59765 7.82031 4.72949C8.96151 4.86118 10.2782 5.21708 11.7627 5.71191L12.0234 5.79883L12.2783 5.69629Z" stroke="#141C25" stroke-width="1.5"/>
<path d="M12 5.5C12 3 11 2 9 2" stroke="#141C25" stroke-width="1.5" stroke-linecap="round" stroke-linejoin="round"/>
</svg>
