<svg width="24" height="24" viewBox="0 0 24 24" fill="none" xmlns="http://www.w3.org/2000/svg">
<path d="M18.2856 12L20.3483 13.3126C21.5833 14.0986 21.5833 15.9014 20.3483 16.6873L14.1473 20.6334C12.8371 21.4672 11.1626 21.4672 9.85234 20.6334L3.65135 16.6873C2.41635 15.9014 2.41635 14.0986 3.65135 13.3127L5.71413 12M3.65135 10.6873L9.85234 14.6334C11.1626 15.4672 12.8371 15.4672 14.1473 14.6334L20.3483 10.6873C21.5833 9.90139 21.5833 8.09856 20.3483 7.31265L14.1473 3.36657C12.8371 2.53276 11.1626 2.53276 9.85234 3.36656L3.65135 7.31265C2.41635 8.09856 2.41635 9.90139 3.65135 10.6873Z" stroke="#141C25" stroke-width="1.5"/>
</svg>
