<svg width="24" height="24" viewBox="0 0 24 24" fill="none" xmlns="http://www.w3.org/2000/svg">
<path d="M15.8571 12.7C16.5714 12.7 18 12.7 18 10.6C18 8.5 16.5714 8.5 15.8571 8.5H13V12.7M15.8571 12.7H13M15.8571 12.7L18 15.5M13 12.7V15.5M6.07143 13L8 8.5L9.92857 13M6.07143 13L5 15.5M6.07143 13H9.92857M11 15.5L9.92857 13M2 9V15C2 18.3137 4.68629 21 8 21H16C19.3137 21 22 18.3137 22 15V9C22 5.68629 19.3137 3 16 3H8C4.68629 3 2 5.68629 2 9Z" stroke="#141C25" stroke-width="1.5" stroke-linecap="round" stroke-linejoin="round"/>
</svg>
