<svg width="24" height="24" viewBox="0 0 24 24" fill="none" xmlns="http://www.w3.org/2000/svg">
<path d="M12.8276 17.6238L13.138 18.3066L13.138 18.3066L12.8276 17.6238ZM21.6483 13.6144L21.9586 14.2972L21.9586 14.2972L21.6483 13.6144ZM2.35172 13.6144L2.66207 12.9316L2.66207 12.9316L2.35172 13.6144ZM11.1724 17.6238L11.4827 16.941L11.4827 16.941L11.1724 17.6238ZM9.8 9L9.51154 8.30769L9.50052 8.31228L9.48965 8.31723L9.8 9ZM2.35172 12.3856L2.66207 13.0684L2.66207 13.0684L2.35172 12.3856ZM21.6483 12.3856L21.3379 13.0684L21.3379 13.0684L21.6483 12.3856ZM14.2 9L14.5104 8.31723L14.4995 8.31228L14.4885 8.30769L14.2 9ZM2.35378 17.6592L2.04601 18.3431L2.04601 18.3431L2.35378 17.6592ZM11.1793 21.6307L11.487 20.9467L11.487 20.9467L11.1793 21.6307ZM12.8207 21.6307L12.513 20.9467L12.513 20.9467L12.8207 21.6307ZM21.6462 17.6592L21.954 18.3431L21.954 18.3431L21.6462 17.6592ZM16 12.25C15.5858 12.25 15.25 12.5858 15.25 13C15.25 13.4142 15.5858 13.75 16 13.75V13V12.25ZM17 13.75C17.4142 13.75 17.75 13.4142 17.75 13C17.75 12.5858 17.4142 12.25 17 12.25V13V13.75ZM12.8276 17.6238L13.138 18.3066L21.9586 14.2972L21.6483 13.6144L21.3379 12.9316L12.5173 16.941L12.8276 17.6238ZM22 12.9318H21.25V13.0682H22H22.75V12.9318H22ZM2.35172 13.6144L2.04137 14.2972L10.862 18.3066L11.1724 17.6238L11.4827 16.941L2.66207 12.9316L2.35172 13.6144ZM2 12.9318H1.25V13.0682H2H2.75V12.9318H2ZM9.8 9L9.48965 8.31723L2.04137 11.7028L2.35172 12.3856L2.66207 13.0684L10.1104 9.68277L9.8 9ZM21.6483 12.3856L21.9586 11.7028L14.5104 8.31723L14.2 9L13.8896 9.68277L21.3379 13.0684L21.6483 12.3856ZM9.8 9L10.0885 9.69231L11.2885 9.19231L11 8.5L10.7115 7.80769L9.51154 8.30769L9.8 9ZM14.2 9L14.4885 8.30769L13.2885 7.80769L13 8.5L12.7115 9.19231L13.9115 9.69231L14.2 9ZM2.35172 13.6144L2.66207 12.9316C2.71562 12.956 2.75 13.0094 2.75 13.0682H2H1.25C1.25 13.5976 1.55942 14.0781 2.04137 14.2972L2.35172 13.6144ZM2 12.9318H2.75C2.75 12.9906 2.71562 13.044 2.66207 13.0684L2.35172 12.3856L2.04137 11.7028C1.55942 11.9219 1.25 12.4024 1.25 12.9318H2ZM21.6483 13.6144L21.9586 14.2972C22.4406 14.0781 22.75 13.5976 22.75 13.0682H22H21.25C21.25 13.0094 21.2844 12.956 21.3379 12.9316L21.6483 13.6144ZM22 12.9318H22.75C22.75 12.4024 22.4406 11.9219 21.9586 11.7028L21.6483 12.3856L21.3379 13.0684C21.2844 13.044 21.25 12.9906 21.25 12.9318H22ZM12.8276 17.6238L12.5173 16.941C12.1886 17.0904 11.8114 17.0904 11.4827 16.941L11.1724 17.6238L10.862 18.3066C11.5851 18.6352 12.4149 18.6352 13.138 18.3066L12.8276 17.6238ZM2.35378 17.6592L2.04601 18.3431L10.8715 22.3146L11.1793 21.6307L11.487 20.9467L2.66155 16.9753L2.35378 17.6592ZM12.8207 21.6307L13.1285 22.3146L21.954 18.3431L21.6462 17.6592L21.3384 16.9753L12.513 20.9467L12.8207 21.6307ZM22 17.112H22.75V13H22H21.25V17.112H22ZM2 13H1.25V17.112H2H2.75V13H2ZM21.6462 17.6592L21.954 18.3431C22.4384 18.1251 22.75 17.6433 22.75 17.112H22H21.25C21.25 17.053 21.2846 16.9995 21.3384 16.9753L21.6462 17.6592ZM11.1793 21.6307L10.8715 22.3146C11.5892 22.6376 12.4108 22.6376 13.1285 22.3146L12.8207 21.6307L12.513 20.9467C12.1867 21.0935 11.8133 21.0935 11.487 20.9467L11.1793 21.6307ZM2.35378 17.6592L2.66156 16.9753C2.71538 16.9995 2.75 17.053 2.75 17.112H2H1.25C1.25 17.6433 1.56156 18.1251 2.04601 18.3431L2.35378 17.6592ZM9 5H8.25C8.25 7.07107 9.92893 8.75 12 8.75V8V7.25C10.7574 7.25 9.75 6.24264 9.75 5H9ZM12 8V8.75C14.0711 8.75 15.75 7.07107 15.75 5H15H14.25C14.25 6.24264 13.2426 7.25 12 7.25V8ZM15 5H15.75C15.75 2.92893 14.0711 1.25 12 1.25V2V2.75C13.2426 2.75 14.25 3.75736 14.25 5H15ZM12 2V1.25C9.92893 1.25 8.25 2.92893 8.25 5H9H9.75C9.75 3.75736 10.7574 2.75 12 2.75V2ZM11 8H10.25V13H11H11.75V8H11ZM13 13H13.75V8H13H12.25V13H13ZM12 14V14.75C12.9665 14.75 13.75 13.9665 13.75 13H13H12.25C12.25 13.1381 12.1381 13.25 12 13.25V14ZM11 13H10.25C10.25 13.9665 11.0335 14.75 12 14.75V14V13.25C11.8619 13.25 11.75 13.1381 11.75 13H11ZM16 13V13.75H17V13V12.25H16V13Z" fill="#141C25"/>
</svg>
