<svg width="24" height="24" viewBox="0 0 24 24" fill="none" xmlns="http://www.w3.org/2000/svg">
<path d="M4.40434 13.61C3.51517 13.1448 3 12.5925 3 12C3 10.3432 7.02944 9.00005 12 9.00005C16.9706 9.00005 21 10.3432 21 12C21 12.7145 20.2508 13.3706 19 13.8858M12 11.01L12.01 10.9989M16.8827 6.00005C16.878 4.97707 16.6199 4.25314 16.0856 3.98088C14.6093 3.22869 11.5832 6.20917 9.32664 10.638C7.07005 15.0668 6.43747 19.2668 7.91374 20.019C8.44117 20.2877 9.16642 20.08 9.98372 19.5M9.60092 4.25169C8.94056 3.86584 8.35718 3.75493 7.91369 3.98091C6.43742 4.7331 7.06999 8.93313 9.32658 13.3619C11.5832 17.7907 14.6092 20.7712 16.0855 20.019C17.3977 19.3504 17.0438 15.9577 15.3641 12.1016" stroke="#141C25" stroke-width="1.5" stroke-linecap="round" stroke-linejoin="round"/>
</svg>
