<svg width="24" height="24" viewBox="0 0 24 24" fill="none" xmlns="http://www.w3.org/2000/svg">
<path d="M8 8.5L8.70631 8.24775C8.5997 7.94925 8.31696 7.75 8 7.75C7.68304 7.75 7.4003 7.94925 7.29369 8.24775L8 8.5ZM4.79369 15.2477C4.65438 15.6378 4.85767 16.067 5.24775 16.2063C5.63783 16.3456 6.06699 16.1423 6.20631 15.7523L5.5 15.5L4.79369 15.2477ZM9.88631 13.7817L10.5926 13.5294L10.5926 13.5294L9.88631 13.7817ZM9.79369 15.7523C9.93301 16.1423 10.3622 16.3456 10.7523 16.2063C11.1423 16.067 11.3456 15.6378 11.2063 15.2477L10.5 15.5L9.79369 15.7523ZM13 8.5V7.75C12.5858 7.75 12.25 8.08579 12.25 8.5H13ZM12.25 15.5C12.25 15.9142 12.5858 16.25 13 16.25C13.4142 16.25 13.75 15.9142 13.75 15.5H13H12.25ZM17.4044 15.9558C17.6561 16.2848 18.1269 16.3473 18.4558 16.0956C18.7848 15.8439 18.8473 15.3731 18.5956 15.0442L18 15.5L17.4044 15.9558ZM8 8.5L7.29369 8.24775L5.40738 13.5294L6.11369 13.7817L6.81999 14.0339L8.70631 8.75225L8 8.5ZM6.11369 13.7817L5.40738 13.5294L4.79369 15.2477L5.5 15.5L6.20631 15.7523L6.81999 14.0339L6.11369 13.7817ZM8 8.5L7.29369 8.75225L9.18001 14.0339L9.88631 13.7817L10.5926 13.5294L8.70631 8.24775L8 8.5ZM9.88631 13.7817L9.18001 14.0339L9.79369 15.7523L10.5 15.5L11.2063 15.2477L10.5926 13.5294L9.88631 13.7817ZM6.11369 13.7817V14.5317H9.88631V13.7817V13.0317H6.11369V13.7817ZM13 8.5V9.25H15.8571V8.5V7.75H13V8.5ZM15.8571 8.5V9.25C16.2421 9.25 16.5717 9.26518 16.8163 9.40902C16.9745 9.50207 17.25 9.73935 17.25 10.6H18H18.75C18.75 9.36065 18.3112 8.54793 17.5766 8.11598C16.9283 7.73482 16.1865 7.75 15.8571 7.75V8.5ZM18 10.6H17.25C17.25 11.4606 16.9745 11.6979 16.8163 11.791C16.5717 11.9348 16.2421 11.95 15.8571 11.95V12.7V13.45C16.1865 13.45 16.9283 13.4652 17.5766 13.084C18.3112 12.6521 18.75 11.8394 18.75 10.6H18ZM13 12.7H12.25V15.5H13H13.75V12.7H13ZM15.8571 12.7V11.95H13V12.7V13.45H15.8571V12.7ZM13 8.5H12.25V12.7H13H13.75V8.5H13ZM15.8571 12.7L15.2615 13.1558L17.4044 15.9558L18 15.5L18.5956 15.0442L16.4527 12.2442L15.8571 12.7ZM2 5.6H1.25V18.4H2H2.75V5.6H2ZM2.6 19V19.75H21.4V19V18.25H2.6V19ZM22 18.4H22.75V5.6H22H21.25V18.4H22ZM21.4 5V4.25H2.6V5V5.75H21.4V5ZM22 5.6H22.75C22.75 4.85442 22.1456 4.25 21.4 4.25V5V5.75C21.3172 5.75 21.25 5.68284 21.25 5.6H22ZM21.4 19V19.75C22.1456 19.75 22.75 19.1456 22.75 18.4H22H21.25C21.25 18.3172 21.3172 18.25 21.4 18.25V19ZM2 18.4H1.25C1.25 19.1456 1.85442 19.75 2.6 19.75V19V18.25C2.68284 18.25 2.75 18.3172 2.75 18.4H2ZM2 5.6H2.75C2.75 5.68284 2.68284 5.75 2.6 5.75V5V4.25C1.85442 4.25 1.25 4.85441 1.25 5.6H2Z" fill="#141C25"/>
</svg>
