<svg width="24" height="24" viewBox="0 0 24 24" fill="none" xmlns="http://www.w3.org/2000/svg">
<path d="M2.76902 13L2.13696 9.71331C2.0658 9.34327 2.34935 9 2.72617 9H21.2734C21.6502 9 21.9338 9.34327 21.8626 9.71331L21.2306 13M2.76902 13H21.2306M2.76902 13L3.3844 17M21.2306 13L20.6152 17M20.6152 17L20.0781 20.4912C20.033 20.7839 19.7812 21 19.485 21H4.51454C4.2184 21 3.96655 20.7839 3.92152 20.4912L3.3844 17M20.6152 17H3.3844M7.99979 9V5C7.99979 3.89543 8.89522 3 9.99979 3H13.9998C15.1044 3 15.9998 3.89543 15.9998 5V9" stroke="#141C25" stroke-width="1.5"/>
</svg>
