<svg width="24" height="24" viewBox="0 0 24 24" fill="none" xmlns="http://www.w3.org/2000/svg">
<path d="M4.99979 8H2.72617C2.34935 8 2.0658 8.34327 2.13696 8.71331L2.76902 12M4.99979 8H18.9998M4.99979 8V6C4.99979 4.89543 5.89522 4 6.99979 4H16.9998C18.1044 4 18.9998 4.89543 18.9998 6V8M18.9998 8H21.2734C21.6502 8 21.9338 8.34327 21.8626 8.71331L21.2306 12M2.76902 12H21.2306M2.76902 12L3.3844 16M21.2306 12L20.6152 16M20.6152 16L20.0781 19.4912C20.033 19.7839 19.7812 20 19.485 20H4.51454C4.2184 20 3.96655 19.7839 3.92152 19.4912L3.3844 16M20.6152 16H3.3844" stroke="#141C25" stroke-width="1.5"/>
</svg>
