<svg width="24" height="24" viewBox="0 0 24 24" fill="none" xmlns="http://www.w3.org/2000/svg">
<path d="M7.05246 7C6.88659 7.5832 6.8 8.19542 6.8 8.81739C6.8 15.9594 4 18 4 18H18M8 4.6402C9.01963 3.59 10.4025 3 11.8445 3C13.2865 3 14.6694 3.59 15.6891 4.6402C16.7087 5.69041 17.2815 7.11479 17.2815 8.6C17.2815 15.1333 20 17 20 17M13.73 20C13.5542 20.3031 13.3019 20.5547 12.9982 20.7295C12.6946 20.9044 12.3504 20.9965 12 20.9965C11.6496 20.9965 11.3054 20.9044 11.0018 20.7295C10.6982 20.5547 10.4458 20.3031 10.27 20M4 4L21 21" stroke="#141C25" stroke-width="1.5" stroke-linecap="round" stroke-linejoin="round"/>
</svg>
