<svg width="24" height="24" viewBox="0 0 24 24" fill="none" xmlns="http://www.w3.org/2000/svg">
<path d="M19 15L15 7.5H14.5M8.5 7.5H14.5M8.5 7.5L5 15M8.5 7.5L12 14L15 14M8.5 7.5C8.16667 6.5 7 4.5 5 4.5M14.5 7.5L16.5 4.5M16.5 4.5L14 4.5M16.5 4.5L18.5 4.5M9 15C9 17.2091 7.20914 19 5 19C2.79086 19 1 17.2091 1 15C1 12.7909 2.79086 11 5 11C7.20914 11 9 12.7909 9 15ZM23 15C23 17.2091 21.2091 19 19 19C16.7909 19 15 17.2091 15 15C15 12.7909 16.7909 11 19 11C21.2091 11 23 12.7909 23 15Z" stroke="#141C25" stroke-width="1.5" stroke-linecap="round" stroke-linejoin="round"/>
</svg>
