<svg width="24" height="24" viewBox="0 0 24 24" fill="none" xmlns="http://www.w3.org/2000/svg">
<path d="M8.99219 12.25C8.57797 12.25 8.24219 12.5858 8.24219 13C8.24219 13.4142 8.57797 13.75 8.99219 13.75V13V12.25ZM14.9922 13.75C15.4064 13.75 15.7422 13.4142 15.7422 13C15.7422 12.5858 15.4064 12.25 14.9922 12.25V13V13.75ZM16.9614 20.1649L17.3335 20.8161L17.3335 20.8161L16.9614 20.1649ZM7.03861 20.1649L6.6665 20.8161L6.66651 20.8161L7.03861 20.1649ZM4.73838 17.0378L3.99495 17.1369L4.73838 17.0378ZM6.71873 19.9821L7.09084 19.331L7.09084 19.3309L6.71873 19.9821ZM19.2616 17.0378L20.005 17.1369L19.2616 17.0378ZM17.2813 19.9821L16.9092 19.3309L16.9092 19.331L17.2813 19.9821ZM20.9608 4.2939L20.2174 4.19478L20.9608 4.2939ZM20.7687 3.81499L21.2037 3.20403L20.7687 3.81499ZM3.03919 4.2939L3.78261 4.19478L3.03919 4.2939ZM3.23133 3.81499L2.79633 3.20403L2.79633 3.20403L3.23133 3.81499ZM20.9608 4.2939L20.2174 4.19478L18.5182 16.9387L19.2616 17.0378L20.005 17.1369L21.7042 4.39303L20.9608 4.2939ZM4.73838 17.0378L5.4818 16.9387L3.78261 4.19478L3.03919 4.2939L2.29577 4.39303L3.99495 17.1369L4.73838 17.0378ZM17.2813 19.9821L16.9092 19.331L16.5893 19.5137L16.9614 20.1649L17.3335 20.8161L17.6534 20.6333L17.2813 19.9821ZM7.03861 20.1649L7.41072 19.5137L7.09084 19.331L6.71873 19.9821L6.34663 20.6333L6.6665 20.8161L7.03861 20.1649ZM3.23133 3.81499L3.66634 4.42595C4.20656 4.04131 6.43085 2.75 12 2.75V2V1.25C6.19754 1.25 3.64785 2.59774 2.79633 3.20403L3.23133 3.81499ZM12 2V2.75C17.5691 2.75 19.7934 4.04131 20.3337 4.42595L20.7687 3.81499L21.2037 3.20403C20.3521 2.59774 17.8025 1.25 12 1.25V2ZM16.9614 20.1649L16.5893 19.5137C13.7455 21.1387 10.2545 21.1387 7.41071 19.5137L7.03861 20.1649L6.66651 20.8161C9.97141 22.7046 14.0286 22.7046 17.3335 20.8161L16.9614 20.1649ZM4.73838 17.0378L3.99495 17.1369C4.19074 18.6053 5.06041 19.8983 6.34663 20.6333L6.71873 19.9821L7.09084 19.3309C6.21079 18.8281 5.61576 17.9434 5.4818 16.9387L4.73838 17.0378ZM19.2616 17.0378L18.5182 16.9387C18.3842 17.9434 17.7892 18.8281 16.9092 19.3309L17.2813 19.9821L17.6534 20.6333C18.9396 19.8983 19.8093 18.6053 20.005 17.1369L19.2616 17.0378ZM20.9608 4.2939L21.7042 4.39303C21.7592 3.98112 21.6199 3.5004 21.2037 3.20403L20.7687 3.81499L20.3337 4.42595C20.2219 4.34636 20.2119 4.2362 20.2174 4.19478L20.9608 4.2939ZM3.03919 4.2939L3.78261 4.19478C3.78813 4.2362 3.77811 4.34636 3.66634 4.42595L3.23133 3.81499L2.79633 3.20403C2.38008 3.5004 2.24085 3.98112 2.29577 4.39303L3.03919 4.2939ZM3 5L2.46012 5.5206C2.88145 5.95754 3.46812 6.29782 4.11888 6.56776C4.77771 6.84105 5.54912 7.06133 6.3834 7.23436C8.05205 7.58045 10.0334 7.74998 12 7.74998C13.9666 7.74998 15.948 7.58044 17.6166 7.23435C18.4509 7.06132 19.2223 6.84104 19.8811 6.56775C20.5319 6.29781 21.1186 5.95753 21.5399 5.52061L21 5L20.4601 4.47939C20.2386 4.70912 19.861 4.95217 19.3064 5.18222C18.7599 5.40893 18.0848 5.60531 17.312 5.76561C15.7663 6.08618 13.8905 6.24998 12 6.24998C10.1095 6.24998 8.23367 6.0862 6.68803 5.76562C5.91516 5.60533 5.24015 5.40894 4.69362 5.18223C4.13902 4.95218 3.76141 4.70913 3.53988 4.4794L3 5ZM8.99219 13V13.75H14.9922V13V12.25H8.99219V13Z" fill="#141C25"/>
</svg>
