<svg width="24" height="24" viewBox="0 0 24 24" fill="none" xmlns="http://www.w3.org/2000/svg">
<path d="M3 5C5.57143 7.66666 18.4286 7.66662 21 5M12 2C6.3142 2 3.9272 3.31953 3.23133 3.81499C3.0791 3.92338 3.01449 4.10866 3.03919 4.2939L4.73838 17.0378C4.90325 18.2744 5.6356 19.3632 6.71873 19.9821L7.03861 20.1649C10.1129 21.9217 13.8871 21.9217 16.9614 20.1649L17.2813 19.9821C18.3644 19.3632 19.0968 18.2744 19.2616 17.0378L20.9608 4.2939C20.9855 4.10866 20.9209 3.92338 20.7687 3.81499C20.0728 3.31952 17.6858 2 12 2Z" stroke="#141C25" stroke-width="1.5"/>
</svg>
