<svg width="24" height="24" viewBox="0 0 24 24" fill="none" xmlns="http://www.w3.org/2000/svg">
<path d="M7.00022 17H17.0002M9.00022 12H15.0002M12.0002 3V2M9.05743 9.75C8.63787 7.82527 10.6332 4.83327 11.5546 3.58151C11.7795 3.27594 12.2209 3.27594 12.4458 3.58151C13.3673 4.83327 15.3626 7.82527 14.943 9.75C14.5488 11.5583 12.9812 12 12.0002 12C11.0193 12 9.45161 11.5583 9.05743 9.75ZM6.20022 22H17.8002C18.2947 22 18.5846 21.434 18.2997 21.0299C16.9841 19.1641 14.2373 15.044 13.8074 12.5964C13.75 12.27 13.4816 12 13.1502 12L10.8503 12C10.5189 12 10.2504 12.27 10.1931 12.5964C9.76315 15.044 7.01629 19.1641 5.70072 21.0299C5.41581 21.434 5.7058 22 6.20022 22Z" stroke="#141C25" stroke-width="1.5" stroke-linecap="round"/>
</svg>
