<svg width="24" height="24" viewBox="0 0 24 24" fill="none" xmlns="http://www.w3.org/2000/svg">
<path d="M16.75 7.75L15.8123 15.7201C15.7768 16.0223 15.5207 16.25 15.2165 16.25H8.78355C8.4793 16.25 8.22321 16.0223 8.18766 15.7201L7.32884 8.4201C7.28687 8.06341 7.56557 7.75 7.92473 7.75H16.75ZM16.75 7.75H20.4999M19.0657 19.4744L20.9157 4.67442C20.9605 4.31631 20.6812 4 20.3203 4H3.67968C3.31878 4 3.03955 4.31631 3.08431 4.67442L4.93431 19.4744C4.97184 19.7747 5.22708 20 5.52968 20H18.4703C18.7729 20 19.0282 19.7747 19.0657 19.4744Z" stroke="#141C25" stroke-width="1.5" stroke-linecap="round" stroke-linejoin="round"/>
</svg>
