<svg width="24" height="24" viewBox="0 0 24 24" fill="none" xmlns="http://www.w3.org/2000/svg">
<path d="M9 9.6L11.8235 12M11.8235 12L11.8571 12.0286M11.8235 12L11.8571 11.9714M11.8235 12L9 14.4M11.8571 12.0286L15 14.7L11.8571 18V12.0286ZM11.8571 12.0286V11.9714M11.8571 11.9714V6L15 9.3L11.8571 11.9714ZM2 9V15C2 18.3137 4.68629 21 8 21H16C19.3137 21 22 18.3137 22 15V9C22 5.68629 19.3137 3 16 3H8C4.68629 3 2 5.68629 2 9Z" stroke="#141C25" stroke-width="1.5" stroke-linecap="round" stroke-linejoin="round"/>
</svg>
