<svg width="24" height="24" viewBox="0 0 24 24" fill="none" xmlns="http://www.w3.org/2000/svg">
<path d="M11.3068 8L12.0274 8.2078L10.6571 7.62531L11.3068 8ZM13.9981 11L14.6478 10.6253C14.5277 10.4171 14.3151 10.279 14.076 10.2541C13.8369 10.2291 13.6004 10.3202 13.4398 10.4992L13.9981 11ZM11.9999 3L12.4478 2.39842C12.182 2.20053 11.8178 2.20053 11.552 2.39842L11.9999 3ZM19.9214 17.6537C20.3215 17.5464 20.5589 17.1352 20.4517 16.7351C20.3445 16.335 19.9333 16.0976 19.5332 16.2048L19.7273 16.9292L19.9214 17.6537ZM4.07835 20.3459C3.67825 20.4531 3.44081 20.8643 3.54802 21.2644C3.65522 21.6645 4.06648 21.902 4.46658 21.7948L4.27246 21.0703L4.07835 20.3459ZM4.46659 16.2048C4.06649 16.0976 3.65523 16.335 3.54803 16.7351C3.44082 17.1352 3.67826 17.5464 4.07836 17.6536L4.27247 16.9292L4.46659 16.2048ZM11.8058 19.7242C12.2059 19.8314 12.6171 19.594 12.7243 19.1939C12.8315 18.7938 12.5941 18.3825 12.194 18.2753L11.9999 18.9998L11.8058 19.7242ZM16.0577 19.3106C15.6576 19.2034 15.2464 19.4408 15.1391 19.8409C15.0319 20.241 15.2694 20.6523 15.6695 20.7595L15.8636 20.035L16.0577 19.3106ZM19.5332 21.7948C19.9333 21.902 20.3445 21.6645 20.4517 21.2644C20.5589 20.8643 20.3215 20.4531 19.9214 20.3459L19.7273 21.0703L19.5332 21.7948ZM12.0757 16V15.25C11.2545 15.25 10.6419 15.1503 10.2555 14.9429C10.0769 14.847 9.96186 14.7361 9.88701 14.6096C9.81168 14.4824 9.74988 14.2934 9.74988 14H8.99988H8.24988C8.24988 14.5115 8.36022 14.975 8.59618 15.3737C8.83262 15.7731 9.16807 16.0616 9.54607 16.2645C10.2729 16.6546 11.1982 16.75 12.0757 16.75V16ZM8.99988 14H9.74988C9.74988 12.1223 10.7679 10.4356 11.9564 8.37469L11.3068 8L10.6571 7.62531C9.53872 9.56445 8.24988 11.6347 8.24988 14H8.99988ZM11.3068 8L10.5861 7.7922C10.4588 8.23387 10.4115 8.86529 10.4373 9.48427C10.4632 10.1088 10.5672 10.8166 10.8029 11.4043C11.0232 11.9532 11.4725 12.6556 12.3214 12.7314C13.1111 12.8019 13.8593 12.2779 14.5564 11.5008L13.9981 11L13.4398 10.4992C12.7912 11.2221 12.4822 11.2398 12.4548 11.2373C12.4514 11.237 12.4501 11.2368 12.446 11.2347C12.4403 11.2318 12.4239 11.2221 12.3985 11.1961C12.3431 11.1395 12.269 11.03 12.1951 10.8457C12.0463 10.475 11.9581 9.95375 11.936 9.42198C11.9136 8.88471 11.9625 8.43279 12.0274 8.2078L11.3068 8ZM13.9981 11L13.3484 11.3747C14.2916 13.0101 14.3607 13.9717 14.153 14.4528C13.9788 14.8566 13.4372 15.25 12.0757 15.25V16V16.75C13.6045 16.75 14.9853 16.3101 15.5303 15.0472C16.0419 13.8616 15.627 12.3233 14.6478 10.6253L13.9981 11ZM16.9999 10.3125H16.2499C16.2499 11.9868 15.82 13.2111 15.1201 14.0073C14.4319 14.79 13.4031 15.25 11.9999 15.25V16V16.75C13.7526 16.75 15.2238 16.1611 16.2466 14.9976C17.2577 13.8475 17.7499 12.2281 17.7499 10.3125H16.9999ZM11.9999 16V15.25C10.5967 15.25 9.56786 14.79 8.87969 14.0073C8.17978 13.2111 7.74988 11.9868 7.74988 10.3125H6.99988H6.24988C6.24988 12.2281 6.74202 13.8475 7.75313 14.9976C8.77598 16.1611 10.2472 16.75 11.9999 16.75V16ZM6.99988 10.3125H7.74988C7.74988 8.82199 8.8178 7.17965 10.0556 5.81368C10.6547 5.15255 11.2563 4.59646 11.709 4.20522C11.9348 4.01006 12.1223 3.8571 12.2521 3.75382C12.3169 3.7022 12.3673 3.66308 12.4007 3.63737C12.4174 3.62452 12.4299 3.61504 12.4379 3.60903C12.4418 3.60603 12.4447 3.60389 12.4463 3.60265C12.4472 3.60202 12.4477 3.60162 12.448 3.60144C12.4481 3.60135 12.4481 3.60132 12.4481 3.60134C12.4481 3.60135 12.448 3.60141 12.448 3.60142C12.4479 3.60149 12.4478 3.60158 11.9999 3C11.552 2.39842 11.5518 2.39854 11.5517 2.39867C11.5516 2.39873 11.5514 2.39888 11.5512 2.399C11.5509 2.39925 11.5505 2.39956 11.55 2.39992C11.549 2.40064 11.5477 2.4016 11.5462 2.40278C11.543 2.40514 11.5387 2.4084 11.5332 2.41255C11.5222 2.42085 11.5066 2.4327 11.4867 2.44799C11.4469 2.47858 11.3899 2.52293 11.318 2.58012C11.1744 2.69445 10.9712 2.86036 10.7282 3.07029C10.2435 3.48923 9.59501 4.08817 8.94412 4.80643C7.68196 6.19925 6.24988 8.21316 6.24988 10.3125H6.99988ZM11.9999 3C11.552 3.60158 11.5519 3.60149 11.5518 3.60142C11.5518 3.60141 11.5517 3.60135 11.5517 3.60134C11.5516 3.60132 11.5517 3.60135 11.5518 3.60144C11.552 3.60162 11.5526 3.60202 11.5534 3.60265C11.5551 3.60389 11.5579 3.60603 11.5619 3.60903C11.5698 3.61504 11.5823 3.62452 11.599 3.63737C11.6325 3.66308 11.6828 3.7022 11.7477 3.75382C11.8775 3.8571 12.0649 4.01006 12.2907 4.20522C12.7435 4.59646 13.345 5.15255 13.9441 5.81368C15.182 7.17965 16.2499 8.82199 16.2499 10.3125H16.9999H17.7499C17.7499 8.21316 16.3178 6.19925 15.0556 4.80643C14.4047 4.08817 13.7563 3.48923 13.2715 3.07029C13.0286 2.86036 12.8254 2.69445 12.6817 2.58012C12.6099 2.52293 12.5528 2.47858 12.513 2.44799C12.4931 2.4327 12.4775 2.42085 12.4666 2.41255C12.4611 2.4084 12.4567 2.40514 12.4536 2.40278C12.452 2.4016 12.4507 2.40064 12.4498 2.39992C12.4493 2.39956 12.4489 2.39925 12.4485 2.399C12.4484 2.39888 12.4482 2.39873 12.4481 2.39867C12.4479 2.39854 12.4478 2.39842 11.9999 3ZM19.7273 16.9292L19.5332 16.2048L4.07835 20.3459L4.27246 21.0703L4.46658 21.7948L19.9214 17.6537L19.7273 16.9292ZM4.27247 16.9292L4.07836 17.6536L11.8058 19.7242L11.9999 18.9998L12.194 18.2753L4.46659 16.2048L4.27247 16.9292ZM15.8636 20.035L15.6695 20.7595L19.5332 21.7948L19.7273 21.0703L19.9214 20.3459L16.0577 19.3106L15.8636 20.035Z" fill="#141C25"/>
</svg>
