<svg width="24" height="24" viewBox="0 0 24 24" fill="none" xmlns="http://www.w3.org/2000/svg">
<path d="M4 20.0099L4.01 19.9988M4 16.0099L4.01 15.9988M4 8.00989L4.01 7.99878M4 4.00989L4.01 3.99878M8 4.00989L8.01 3.99878M16 4.00989L16.01 3.99878M20 4.00989L20.01 3.99878M20 8.00989L20.01 7.99878M8 20.0099L8.01 19.9988M16 20.0099L16.01 19.9988M20 20.0099L20.01 19.9988M20 16.0099L20.01 15.9988M4 11.9999H12M12 11.9999H20M12 11.9999V3.99989M12 11.9999V19.9999" stroke="#141C25" stroke-width="1.5" stroke-linecap="round" stroke-linejoin="round"/>
</svg>
