<svg width="24" height="24" viewBox="0 0 24 24" fill="none" xmlns="http://www.w3.org/2000/svg">
<path d="M3.35632 17.6584L3.05171 18.3438L3.05171 18.3438L3.35632 17.6584ZM11.7563 21.3917L12.0609 20.7064L12.0609 20.7064L11.7563 21.3917ZM12.2437 21.3917L11.9391 20.7064L11.9391 20.7064L12.2437 21.3917ZM20.6437 17.6584L20.9483 18.3438L20.9483 18.3438L20.6437 17.6584ZM12.2437 2.60835L11.9391 3.29371L11.9391 3.29371L12.2437 2.60835ZM20.6437 6.34169L20.9483 5.65633L20.9483 5.65633L20.6437 6.34169ZM3.35632 6.34169L3.05171 5.65633L3.05171 5.65633L3.35632 6.34169ZM11.7563 2.60835L12.0609 3.29371L12.0609 3.29371L11.7563 2.60835ZM7.8046 3.81469C7.42609 3.64646 6.98287 3.81693 6.81464 4.19545C6.64641 4.57396 6.81688 5.01718 7.1954 5.18541L7.5 4.50005L7.8046 3.81469ZM16.1437 8.34169L16.4483 7.65633L16.4483 7.65633L16.1437 8.34169ZM15.75 12.5001C15.75 12.9143 16.0858 13.2501 16.5 13.2501C16.9142 13.2501 17.25 12.9143 17.25 12.5001H16.5H15.75ZM3 6.50005L2.6954 7.18541L11.6954 11.1854L12 10.5001L12.3046 9.81469L3.3046 5.81469L3 6.50005ZM12 21.5H12.75V10.5001H12H11.25V21.5H12ZM12 10.5001L12.3046 11.1854L21.3046 7.18541L21 6.50005L20.6954 5.81469L11.6954 9.81469L12 10.5001ZM3 6.88997H2.25V17.1101H3H3.75V6.88997H3ZM21 17.1101H21.75V6.88997H21H20.25V17.1101H21ZM3.35632 17.6584L3.05171 18.3438L11.4517 22.0771L11.7563 21.3917L12.0609 20.7064L3.66092 16.9731L3.35632 17.6584ZM12.2437 21.3917L12.5483 22.0771L20.9483 18.3438L20.6437 17.6584L20.3391 16.9731L11.9391 20.7064L12.2437 21.3917ZM12.2437 2.60835L11.9391 3.29371L20.3391 7.02705L20.6437 6.34169L20.9483 5.65633L12.5483 1.923L12.2437 2.60835ZM3.35632 6.34169L3.66092 7.02705L12.0609 3.29371L11.7563 2.60835L11.4517 1.923L3.05171 5.65633L3.35632 6.34169ZM12.2437 2.60835L12.5483 1.923C12.1992 1.76786 11.8008 1.76786 11.4517 1.923L11.7563 2.60835L12.0609 3.29371C12.0221 3.31095 11.9779 3.31095 11.9391 3.29371L12.2437 2.60835ZM11.7563 21.3917L11.4517 22.0771C11.8008 22.2322 12.1992 22.2322 12.5483 22.0771L12.2437 21.3917L11.9391 20.7064C11.9779 20.6892 12.0221 20.6892 12.0609 20.7064L11.7563 21.3917ZM21 6.88997H21.75C21.75 6.35647 21.4358 5.873 20.9483 5.65633L20.6437 6.34169L20.3391 7.02705C20.2849 7.00297 20.25 6.94925 20.25 6.88997H21ZM3 6.88997H3.75C3.75 6.94925 3.71509 7.00297 3.66092 7.02705L3.35632 6.34169L3.05171 5.65633C2.56419 5.87301 2.25 6.35647 2.25 6.88997H3ZM21 17.1101H20.25C20.25 17.0508 20.2849 16.9971 20.3391 16.9731L20.6437 17.6584L20.9483 18.3438C21.4358 18.1271 21.75 17.6436 21.75 17.1101H21ZM3 17.1101H2.25C2.25 17.6436 2.56419 18.1271 3.05171 18.3438L3.35632 17.6584L3.66092 16.9731C3.71509 16.9971 3.75 17.0508 3.75 17.1101H3ZM7.5 4.50005L7.1954 5.18541L15.8391 9.02705L16.1437 8.34169L16.4483 7.65633L7.8046 3.81469L7.5 4.50005ZM16.5 12.5001H17.25V8.88997H16.5H15.75V12.5001H16.5ZM16.1437 8.34169L15.8391 9.02705C15.7849 9.00297 15.75 8.94925 15.75 8.88997H16.5H17.25C17.25 8.35647 16.9358 7.873 16.4483 7.65633L16.1437 8.34169Z" fill="#141C25"/>
</svg>
