<svg width="24" height="24" viewBox="0 0 24 24" fill="none" xmlns="http://www.w3.org/2000/svg">
<path d="M18.3556 17.7273H8.48901M18.3556 17.7273V21H8.48901V17.7273M18.3556 17.7273C18.9037 16.8182 20 13.9091 20 9.54545C20 4.09091 17.8074 3 13.4223 3C9.03715 3 7.39273 4.09091 7.39273 7.90909M8.48901 17.7273C5.20016 15.5455 3.55573 10.0909 4.10387 8.45455C4.54239 7.14545 6.47916 7.54545 7.39273 7.90909M7.39273 7.90909C7.75816 8.27273 8.81799 9 10.1335 9H15.0668M7.39273 7.90909C7.39273 11.7273 9.03725 12.2727 10.1335 12.2727" stroke="#141C25" stroke-width="1.5" stroke-linecap="round" stroke-linejoin="round"/>
</svg>
