<svg width="24" height="24" viewBox="0 0 24 24" fill="none" xmlns="http://www.w3.org/2000/svg">
<path d="M6.99996 14C5.34311 14 3.99996 15.3431 3.99996 17C3.99996 18.6569 5.34311 20 6.99996 20C7.3506 20 7.68718 19.9398 7.99996 19.8293M4.26388 15.6046C2.92426 14.9582 2 13.587 2 12C2 10.7883 2.53874 9.70251 3.38974 8.96898M3.42049 8.8882C3.15486 8.49109 2.99996 8.01363 2.99996 7.5C2.99996 6.11929 4.11925 5 5.49996 5C6.06288 5 6.58234 5.18604 7.00021 5.5M12 4.5C12 3.11929 10.8807 2 9.49996 2C8.11925 2 6.99996 3.11929 6.99996 4.5C6.99996 4.88103 7.0852 5.24215 7.23766 5.56533M12 4.5V20M12 4.5C12 3.11929 13.1193 2 14.5 2C15.8807 2 17 3.11929 17 4.5C17 4.88103 16.9148 5.24215 16.7623 5.56533M12 20C12 21.1046 11.1045 22 9.99996 22C8.89539 22 7.99996 21.1046 7.99996 20M12 20C12 21.1046 12.8954 22 14 22M12 7C12 8.65685 13.3431 10 15 10M20.6102 8.96898C21.4612 9.70251 22 10.7883 22 12C22 12.7031 21.8186 13.3638 21.5 13.9379M20.5795 8.8882C20.8451 8.49109 21 8.01363 21 7.5C21 6.11929 19.8807 5 18.5 5C17.9371 5 17.4176 5.18604 16.9998 5.5M18.6666 16L17 19H21L19.3333 22" stroke="#141C25" stroke-width="1.5" stroke-linecap="round" stroke-linejoin="round"/>
</svg>
