<svg width="24" height="24" viewBox="0 0 24 24" fill="none" xmlns="http://www.w3.org/2000/svg">
<path d="M10 9.01L10.01 8.99889M14 9.01L14.01 8.99889M10 13.01L10.01 12.9989M14 13.01L14.01 12.9989M10 17.01L10.01 16.9989M14 17.01L14.01 16.9989M6 5.6V20.4C6 20.7314 6.26863 21 6.6 21H17.4C17.7314 21 18 20.7314 18 20.4V3.6C18 3.26863 17.7314 3 17.4 3H12.6C12.2686 3 12 3.26863 12 3.6V5H6.6C6.26863 5 6 5.26863 6 5.6Z" stroke="#141C25" stroke-width="1.5" stroke-linecap="round" stroke-linejoin="round"/>
</svg>
