<svg width="24" height="24" viewBox="0 0 24 24" fill="none" xmlns="http://www.w3.org/2000/svg">
<path d="M15.4428 15.508C15.1655 15.8157 15.1902 16.29 15.498 16.5672C15.8057 16.8445 16.28 16.8198 16.5572 16.512L16 16.01L15.4428 15.508ZM16.5672 16.5009C16.8445 16.1932 16.8198 15.7189 16.512 15.4417C16.2043 15.1644 15.73 15.1891 15.4528 15.4969L16.01 15.9989L16.5672 16.5009ZM5.44279 15.508C5.16554 15.8157 5.19025 16.29 5.49799 16.5672C5.80573 16.8445 6.27996 16.8198 6.55721 16.512L6 16.01L5.44279 15.508ZM6.56721 16.5009C6.84446 16.1932 6.81975 15.7189 6.51201 15.4417C6.20427 15.1644 5.73004 15.1891 5.45279 15.4969L6.01 15.9989L6.56721 16.5009ZM19.25 22C19.25 22.4142 19.5858 22.75 20 22.75C20.4142 22.75 20.75 22.4142 20.75 22H20H19.25ZM18 8H17.25C17.25 8.41421 17.5858 8.75 18 8.75V8ZM18 2V1.25C17.5858 1.25 17.25 1.58579 17.25 2H18ZM22 2H22.75C22.75 1.58579 22.4142 1.25 22 1.25V2ZM22 8V8.75C22.4142 8.75 22.75 8.41421 22.75 8H22ZM16 20.75C16.4142 20.75 16.75 20.4142 16.75 20C16.75 19.5858 16.4142 19.25 16 19.25V20V20.75ZM16 12.75C16.4142 12.75 16.75 12.4142 16.75 12C16.75 11.5858 16.4142 11.25 16 11.25V12V12.75ZM14 8.75C14.4142 8.75 14.75 8.41421 14.75 8C14.75 7.58579 14.4142 7.25 14 7.25V8V8.75ZM6 7.25C5.58579 7.25 5.25 7.58579 5.25 8C5.25 8.41421 5.58579 8.75 6 8.75V8V7.25ZM14 2.75C14.4142 2.75 14.75 2.41421 14.75 2C14.75 1.58579 14.4142 1.25 14 1.25V2V2.75ZM1.25 8C1.25 8.41421 1.58579 8.75 2 8.75C2.41421 8.75 2.75 8.41421 2.75 8H2H1.25ZM4.25 20C4.25 19.5858 3.91421 19.25 3.5 19.25C3.08579 19.25 2.75 19.5858 2.75 20H3.5H4.25ZM8.25 20C8.25 19.5858 7.91421 19.25 7.5 19.25C7.08579 19.25 6.75 19.5858 6.75 20H7.5H8.25ZM15.25 20C15.25 19.5858 14.9142 19.25 14.5 19.25C14.0858 19.25 13.75 19.5858 13.75 20H14.5H15.25ZM16 23.25C16.4142 23.25 16.75 22.9142 16.75 22.5C16.75 22.0858 16.4142 21.75 16 21.75V22.5V23.25ZM16 16.01L16.5572 16.512L16.5672 16.5009L16.01 15.9989L15.4528 15.4969L15.4428 15.508L16 16.01ZM6 16.01L6.55721 16.512L6.56721 16.5009L6.01 15.9989L5.45279 15.4969L5.44279 15.508L6 16.01ZM20 8V7.25H18V8V8.75H20V8ZM18 8H18.75V2H18H17.25V8H18ZM18 2V2.75H22V2V1.25H18V2ZM22 2H21.25V8H22H22.75V2H22ZM22 8V7.25H20V8V8.75H22V8ZM16 20V19.25H2.6V20V20.75H16V20ZM2.6 20V19.25C2.68282 19.25 2.75 19.3172 2.75 19.4H2H1.25C1.25 20.1456 1.85444 20.75 2.6 20.75V20ZM2 19.4H2.75V12.6H2H1.25V19.4H2ZM2 12.6H2.75C2.75 12.6828 2.68282 12.75 2.6 12.75V12V11.25C1.85444 11.25 1.25 11.8544 1.25 12.6H2ZM2.6 12V12.75H16V12V11.25H2.6V12ZM14 8V7.25H6V8V8.75H14V8ZM14 2V1.25H6V2V2.75H14V2ZM6 2V1.25C3.37665 1.25 1.25 3.37665 1.25 6H2H2.75C2.75 4.20507 4.20507 2.75 6 2.75V2ZM2 6H1.25V8H2H2.75V6H2ZM3.5 20H2.75V21.9H3.5H4.25V20H3.5ZM3.5 21.9H2.75C2.75 22.6456 3.35444 23.25 4.1 23.25V22.5V21.75C4.18282 21.75 4.25 21.8172 4.25 21.9H3.5ZM4.1 22.5V23.25H6.9V22.5V21.75H4.1V22.5ZM6.9 22.5V23.25C7.64556 23.25 8.25 22.6456 8.25 21.9H7.5H6.75C6.75 21.8172 6.81718 21.75 6.9 21.75V22.5ZM7.5 21.9H8.25V20H7.5H6.75V21.9H7.5ZM14.5 20H13.75V21.9H14.5H15.25V20H14.5ZM14.5 21.9H13.75C13.75 22.6456 14.3544 23.25 15.1 23.25V22.5V21.75C15.1828 21.75 15.25 21.8172 15.25 21.9H14.5ZM15.1 22.5V23.25H16V22.5V21.75H15.1V22.5ZM20 22H20.75V8H20H19.25V22H20Z" fill="#141C25"/>
</svg>
