<svg width="24" height="24" viewBox="0 0 24 24" fill="none" xmlns="http://www.w3.org/2000/svg">
<path d="M6.44279 15.508C6.16554 15.8157 6.19025 16.29 6.49799 16.5672C6.80573 16.8445 7.27996 16.8198 7.55721 16.512L7 16.01L6.44279 15.508ZM7.56721 16.5009C7.84446 16.1932 7.81975 15.7189 7.51201 15.4417C7.20427 15.1644 6.73004 15.1891 6.45279 15.4969L7.01 15.9989L7.56721 16.5009ZM16.4428 15.508C16.1655 15.8157 16.1902 16.29 16.498 16.5672C16.8057 16.8445 17.28 16.8198 17.5572 16.512L17 16.01L16.4428 15.508ZM17.5672 16.5009C17.8445 16.1932 17.8198 15.7189 17.512 15.4417C17.2043 15.1644 16.73 15.1891 16.4528 15.4969L17.01 15.9989L17.5672 16.5009ZM3 12V11.25C2.58579 11.25 2.25 11.5858 2.25 12H3ZM21 12H21.75C21.75 11.5858 21.4142 11.25 21 11.25V12ZM20.25 8C20.25 8.41421 20.5858 8.75 21 8.75C21.4142 8.75 21.75 8.41421 21.75 8H21H20.25ZM2.25 8C2.25 8.41421 2.58579 8.75 3 8.75C3.41421 8.75 3.75 8.41421 3.75 8H3H2.25ZM7 7.25C6.58579 7.25 6.25 7.58579 6.25 8C6.25 8.41421 6.58579 8.75 7 8.75V8V7.25ZM17 8.75C17.4142 8.75 17.75 8.41421 17.75 8C17.75 7.58579 17.4142 7.25 17 7.25V8V8.75ZM5.25 20C5.25 19.5858 4.91421 19.25 4.5 19.25C4.08579 19.25 3.75 19.5858 3.75 20H4.5H5.25ZM9.25 20C9.25 19.5858 8.91421 19.25 8.5 19.25C8.08579 19.25 7.75 19.5858 7.75 20H8.5H9.25ZM16.25 20C16.25 19.5858 15.9142 19.25 15.5 19.25C15.0858 19.25 14.75 19.5858 14.75 20H15.5H16.25ZM20.25 20C20.25 19.5858 19.9142 19.25 19.5 19.25C19.0858 19.25 18.75 19.5858 18.75 20H19.5H20.25ZM7 16.01L7.55721 16.512L7.56721 16.5009L7.01 15.9989L6.45279 15.4969L6.44279 15.508L7 16.01ZM17 16.01L17.5572 16.512L17.5672 16.5009L17.01 15.9989L16.4528 15.4969L16.4428 15.508L17 16.01ZM3 12V12.75H21V12V11.25H3V12ZM21 12H20.25V19H21H21.75V12H21ZM21 19H20.25C20.25 19.1381 20.1381 19.25 20 19.25V20V20.75C20.9665 20.75 21.75 19.9665 21.75 19H21ZM20 20V19.25H4V20V20.75H20V20ZM4 20V19.25C3.86192 19.25 3.75 19.1381 3.75 19H3H2.25C2.25 19.9665 3.03352 20.75 4 20.75V20ZM3 19H3.75V12H3H2.25V19H3ZM21 8H21.75V6H21H20.25V8H21ZM21 6H21.75C21.75 3.37664 19.6233 1.25 17 1.25V2V2.75C18.7949 2.75 20.25 4.20508 20.25 6H21ZM17 2V1.25H7V2V2.75H17V2ZM7 2V1.25C4.37665 1.25 2.25 3.37665 2.25 6H3H3.75C3.75 4.20507 5.20507 2.75 7 2.75V2ZM3 6H2.25V8H3H3.75V6H3ZM7 8V8.75H17V8V7.25H7V8ZM4.5 20H3.75V21.9H4.5H5.25V20H4.5ZM4.5 21.9H3.75C3.75 22.6456 4.35444 23.25 5.1 23.25V22.5V21.75C5.18282 21.75 5.25 21.8172 5.25 21.9H4.5ZM5.1 22.5V23.25H7.9V22.5V21.75H5.1V22.5ZM7.9 22.5V23.25C8.64556 23.25 9.25 22.6456 9.25 21.9H8.5H7.75C7.75 21.8172 7.81718 21.75 7.9 21.75V22.5ZM8.5 21.9H9.25V20H8.5H7.75V21.9H8.5ZM15.5 20H14.75V21.9H15.5H16.25V20H15.5ZM15.5 21.9H14.75C14.75 22.6456 15.3544 23.25 16.1 23.25V22.5V21.75C16.1828 21.75 16.25 21.8172 16.25 21.9H15.5ZM16.1 22.5V23.25H18.9V22.5V21.75H16.1V22.5ZM18.9 22.5V23.25C19.6456 23.25 20.25 22.6456 20.25 21.9H19.5H18.75C18.75 21.8172 18.8172 21.75 18.9 21.75V22.5ZM19.5 21.9H20.25V20H19.5H18.75V21.9H19.5Z" fill="#141C25"/>
</svg>
