<svg width="24" height="24" viewBox="0 0 24 24" fill="none" xmlns="http://www.w3.org/2000/svg">
<g clip-path="url(#clip0_1030_32401)">
<path d="M15 7H19M15 15.5H19M15 18.5H19M5 7H7M7 7H9M7 7V5M7 7V9M5.58579 18.4142L7 17M7 17L8.41421 15.5858M7 17L5.58579 15.5858M7 17L8.41421 18.4142M1 3V21C1 22.1046 1.89543 23 3 23H21C22.1046 23 23 22.1046 23 21V3C23 1.89543 22.1046 1 21 1H3C1.89543 1 1 1.89543 1 3Z" stroke="#141C25" stroke-width="1.5" stroke-linecap="round" stroke-linejoin="round"/>
</g>
<defs>
<clipPath id="clip0_1030_32401">
<rect width="24" height="24" fill="white"/>
</clipPath>
</defs>
</svg>
