<svg width="24" height="24" viewBox="0 0 24 24" fill="none" xmlns="http://www.w3.org/2000/svg">
<path d="M7 8.51724H12M12 8.51724H15.2143M12 8.51724V7M15.2143 8.51724H17M15.2143 8.51724C14.6282 10.5922 13.4009 12.5536 12 14.2773M12 14.2773C10.84 15.7047 9.561 16.9691 8.42857 18M12 14.2773C11.2857 13.4483 10.2857 12.1069 10 11.5M12 14.2773L14.1429 16.4828M22 12C22 17.5228 17.5228 22 12 22C10.1786 22 8.47087 21.513 7 20.6622L2.5 21.5L3.33782 17C2.48697 15.5291 2 13.8214 2 12C2 6.47715 6.47715 2 12 2C17.5228 2 22 6.47715 22 12Z" stroke="#141C25" stroke-width="1.5" stroke-linecap="round" stroke-linejoin="round"/>
</svg>
