<svg width="24" height="24" viewBox="0 0 24 24" fill="none" xmlns="http://www.w3.org/2000/svg">
<path d="M8 4V6.4C8 6.73137 8.26863 7 8.6 7H16.2515C16.4106 7 16.5632 7.06321 16.6757 7.17574L19.8243 10.3243C19.9368 10.4368 20 10.5894 20 10.7485V21.4C20 21.7314 19.7314 22 19.4 22H12M8 4V2M8 4H6M8 4H10M8 22V17M8 13.01L8.01 12.9989M12 11.2485V21.4C12 21.7314 11.7314 22 11.4 22H4.6C4.26863 22 4 21.7314 4 21.4V11.2485C4 11.0894 4.06321 10.9368 4.17574 10.8243L7.57574 7.42426C7.81005 7.18995 8.18995 7.18995 8.42426 7.42426L11.8243 10.8243C11.9368 10.9368 12 11.0894 12 11.2485Z" stroke="#141C25" stroke-width="1.5" stroke-linecap="round" stroke-linejoin="round"/>
</svg>
