<svg width="24" height="24" viewBox="0 0 24 24" fill="none" xmlns="http://www.w3.org/2000/svg">
<path d="M20 17.6073C21.4937 17.0221 23 15.6889 23 13C23 9 19.6667 8 18 8C18 6 18 2 12 2C6 2 6 6 6 8C4.33333 8 1 9 1 13C1 15.6889 2.50628 17.0221 4 17.6073M7.58058 19.4874L9.34835 21.2552C10.9104 22.8173 13.4431 22.8173 15.0052 21.2552L15.3588 20.9017M7.58058 19.4874L7.93413 21.9623L10.0554 19.841L7.58058 19.4874ZM16.2981 16.9016L14.5303 15.1339C12.9682 13.5718 10.4355 13.5718 8.87345 15.1339L8.5199 15.4874M16.2981 16.9016L15.9445 14.4268L13.8232 16.5481L16.2981 16.9016Z" stroke="#141C25" stroke-width="1.5" stroke-linecap="round" stroke-linejoin="round"/>
</svg>
