<svg width="24" height="24" viewBox="0 0 24 24" fill="none" xmlns="http://www.w3.org/2000/svg">
<g clip-path="url(#clip0_1030_32543)">
<path d="M18 13C19.6667 13 23 14 23 18C23 22 19.6667 23 18 23H6C4.33333 23 1 22 1 18C1 14 4.33333 13 6 13M19 9H20M12 2V1M18.5 3.5L17.5 4.5M5.5 3.5L6.5 4.5M4 9H5M15 9C15 10.6569 13.6569 12 12 12C10.3431 12 9 10.6569 9 9C9 7.34315 10.3431 6 12 6C13.6569 6 15 7.34315 15 9Z" stroke="#141C25" stroke-width="1.5" stroke-linecap="round" stroke-linejoin="round"/>
</g>
<defs>
<clipPath id="clip0_1030_32543">
<rect width="24" height="24" fill="white"/>
</clipPath>
</defs>
</svg>
