<svg width="24" height="24" viewBox="0 0 24 24" fill="none" xmlns="http://www.w3.org/2000/svg">
<path d="M10 17H9.33334C8.22877 17 7.33334 16.1047 7.33334 15.0002L7.33333 13.1111C7.33333 12.5556 6 12 6 12C6 12 7.33333 11.4444 7.33334 10.8889L7.33334 8.99998C7.33334 7.89541 8.22877 7 9.33334 7H10M14 17H14.6667C15.7712 17 16.6667 16.1047 16.6667 15.0002L16.6667 13.1111C16.6667 12.5556 18 12 18 12C18 12 16.6667 11.4444 16.6667 10.8889L16.6667 8.99998C16.6667 7.89541 15.7712 7 14.6667 7H14M21 20.4V3.6C21 3.26863 20.7314 3 20.4 3H3.6C3.26863 3 3 3.26863 3 3.6V20.4C3 20.7314 3.26863 21 3.6 21H20.4C20.7314 21 21 20.7314 21 20.4Z" stroke="#141C25" stroke-width="1.5" stroke-linecap="round" stroke-linejoin="round"/>
</svg>
