<svg width="24" height="24" viewBox="0 0 24 24" fill="none" xmlns="http://www.w3.org/2000/svg">
<path d="M15 8.49999C14.315 7.815 13.1087 7.33855 12 7.30871M12 7.30871C10.6809 7.27322 9.5 7.86998 9.5 9.5C9.5 12.5 15 11 15 14C15 15.711 13.5362 16.4462 12 16.391M12 7.30871V5.49999M12 16.391C10.8428 16.3494 9.64448 15.8593 9 15M12 16.391V18.5M22 12C22 17.5228 17.5228 22 12 22C6.47715 22 2 17.5228 2 12C2 6.47715 6.47715 2 12 2C17.5228 2 22 6.47715 22 12Z" stroke="#141C25" stroke-width="1.5" stroke-linecap="round" stroke-linejoin="round"/>
</svg>
