<svg width="24" height="24" viewBox="0 0 24 24" fill="none" xmlns="http://www.w3.org/2000/svg">
<path d="M2 12C2 17.5228 6.47715 22 12 22M2 12C2 6.47715 6.47715 2 12 2M2 12H8M12 22C17.5228 22 22 17.5228 22 12M12 22V16M22 12C22 6.47715 17.5228 2 12 2M22 12H16M12 2V8M8 12C8 14.2091 9.79086 16 12 16M8 12C8 9.79086 9.79086 8 12 8M12 16C14.2091 16 16 14.2091 16 12M16 12C16 9.79086 14.2091 8 12 8M4.92893 4.92893L9.17157 9.17157M14.8284 14.8284L19.0711 19.0711M4.92893 19.0711L9.17157 14.8284M14.8284 9.17157L19.0711 4.92893" stroke="#141C25" stroke-width="1.5" stroke-linecap="round" stroke-linejoin="round"/>
</svg>
