<svg width="24" height="24" viewBox="0 0 24 24" fill="none" xmlns="http://www.w3.org/2000/svg">
<path d="M6.99995 13.1611L12.4643 7.69668C12.8549 7.30616 13.488 7.30616 13.8786 7.69668L15.9999 9.818C16.3904 10.2085 16.3904 10.8417 15.9999 11.2322L14.071 13.1611M6.99995 13.1611L4.82758 15.3334C4.73423 15.4268 4.66028 15.5377 4.61001 15.6598L3.58199 18.1564C3.07432 19.3893 4.30723 20.6222 5.54013 20.1146L8.03676 19.0865C8.15884 19.0363 8.26976 18.9623 8.36312 18.869L14.071 13.1611M6.99995 13.1611H14.071M15.9993 5.57542L13.8779 3.4541M15.9993 5.57542L17.4135 4.16121C17.804 3.77068 18.4372 3.77068 18.8277 4.16121L19.5348 4.86832C19.9253 5.25884 19.9253 5.892 19.5348 6.28253L18.1206 7.69674M15.9993 5.57542L18.1206 7.69674M20.2419 9.81806L18.1206 7.69674" stroke="#141C25" stroke-width="1.5" stroke-linecap="round" stroke-linejoin="round"/>
</svg>
