<svg width="24" height="24" viewBox="0 0 24 24" fill="none" xmlns="http://www.w3.org/2000/svg">
<path d="M15.9999 5.57518L13.8785 3.45386M15.9999 5.57518L17.4141 4.16096C17.8046 3.77044 18.4378 3.77044 18.8283 4.16096L19.5354 4.86807C19.9259 5.2586 19.9259 5.89176 19.5354 6.28228L18.1212 7.6965M15.9999 5.57518L18.1212 7.6965M20.2425 9.81782L18.1212 7.6965M15.9999 9.81782L13.8786 7.6965C13.488 7.30597 12.8549 7.30597 12.4643 7.6965L4.82758 15.3333C4.73423 15.4266 4.66028 15.5375 4.61001 15.6596L3.58199 18.1562C3.07432 19.3891 4.30723 20.622 5.54013 20.1144L8.03676 19.0864C8.15884 19.0361 8.26976 18.9621 8.36312 18.8688L15.9999 11.232C16.3904 10.8415 16.3904 10.2083 15.9999 9.81782Z" stroke="#141C25" stroke-width="1.5" stroke-linecap="round" stroke-linejoin="round"/>
</svg>
