<svg width="24" height="24" viewBox="0 0 24 24" fill="none" xmlns="http://www.w3.org/2000/svg">
<path d="M20.25 22C20.25 22.4142 20.5858 22.75 21 22.75C21.4142 22.75 21.75 22.4142 21.75 22H21H20.25ZM21 22H21.75V2H21H20.25V22H21ZM5 16V16.75H15V16V15.25H5V16ZM17 14H17.75V10H17H16.25V14H17ZM15 8V7.25H5V8V8.75H15V8ZM3 10H2.25V14H3H3.75V10H3ZM5 8V7.25C3.48122 7.25 2.25 8.48122 2.25 10H3H3.75C3.75 9.30964 4.30964 8.75 5 8.75V8ZM17 10H17.75C17.75 8.48122 16.5188 7.25 15 7.25V8V8.75C15.6904 8.75 16.25 9.30964 16.25 10H17ZM15 16V16.75C16.5188 16.75 17.75 15.5188 17.75 14H17H16.25C16.25 14.6904 15.6904 15.25 15 15.25V16ZM5 16V15.25C4.30964 15.25 3.75 14.6904 3.75 14H3H2.25C2.25 15.5188 3.48122 16.75 5 16.75V16Z" fill="#141C25"/>
</svg>
