<svg width="24" height="24" viewBox="0 0 24 24" fill="none" xmlns="http://www.w3.org/2000/svg">
<path d="M5.21186 15.1114L2.52486 12.4244C2.29054 12.19 2.29054 11.8101 2.52486 11.5758L5.21186 8.88882C5.44618 8.6545 5.82608 8.6545 6.06039 8.88882L8.7474 11.5758C8.98171 11.8101 8.98171 12.19 8.7474 12.4244L6.06039 15.1114C5.82608 15.3457 5.44618 15.3457 5.21186 15.1114Z" stroke="#141C25" stroke-width="1.5"/>
<path d="M11.5758 21.4753L8.88882 18.7883C8.6545 18.554 8.6545 18.1741 8.88882 17.9398L11.5758 15.2528C11.8101 15.0185 12.19 15.0185 12.4244 15.2528L15.1114 17.9398C15.3457 18.1741 15.3457 18.554 15.1114 18.7883L12.4244 21.4753C12.19 21.7096 11.8101 21.7096 11.5758 21.4753Z" stroke="#141C25" stroke-width="1.5"/>
<path d="M11.5758 8.7474L8.88882 6.06039C8.6545 5.82608 8.6545 5.44618 8.88882 5.21186L11.5758 2.52486C11.8101 2.29054 12.19 2.29054 12.4244 2.52486L15.1114 5.21186C15.3457 5.44618 15.3457 5.82608 15.1114 6.06039L12.4244 8.7474C12.19 8.98171 11.8101 8.98171 11.5758 8.7474Z" stroke="#141C25" stroke-width="1.5"/>
<path d="M17.9398 15.1114L15.2528 12.4244C15.0185 12.19 15.0185 11.8101 15.2528 11.5758L17.9398 8.88882C18.1741 8.6545 18.554 8.6545 18.7883 8.88882L21.4753 11.5758C21.7096 11.8101 21.7096 12.19 21.4753 12.4244L18.7883 15.1114C18.554 15.3457 18.1741 15.3457 17.9398 15.1114Z" stroke="#141C25" stroke-width="1.5"/>
</svg>
