<svg width="24" height="24" viewBox="0 0 24 24" fill="none" xmlns="http://www.w3.org/2000/svg">
<path d="M2.25 22C2.25 22.4142 2.58579 22.75 3 22.75C3.41421 22.75 3.75 22.4142 3.75 22H3H2.25ZM3 22H3.75V2H3H2.25V22H3ZM9 16V16.75H19V16V15.25H9V16ZM21 14H21.75V10H21H20.25V14H21ZM19 8V7.25H9V8V8.75H19V8ZM7 10H6.25V14H7H7.75V10H7ZM9 8V7.25C7.48122 7.25 6.25 8.48122 6.25 10H7H7.75C7.75 9.30964 8.30964 8.75 9 8.75V8ZM21 10H21.75C21.75 8.48122 20.5188 7.25 19 7.25V8V8.75C19.6904 8.75 20.25 9.30964 20.25 10H21ZM19 16V16.75C20.5188 16.75 21.75 15.5188 21.75 14H21H20.25C20.25 14.6904 19.6904 15.25 19 15.25V16ZM9 16V15.25C8.30964 15.25 7.75 14.6904 7.75 14H7H6.25C6.25 15.5188 7.48122 16.75 9 16.75V16Z" fill="#141C25"/>
</svg>
