<svg width="24" height="24" viewBox="0 0 24 24" fill="none" xmlns="http://www.w3.org/2000/svg">
<path d="M22.0028 3V7.49704C22.0028 7.77482 21.7776 8 21.4998 8C21.2999 8 21.12 7.88104 21.034 7.70059C19.4262 4.32948 15.9866 2 12.0028 2C6.81746 2 2.55391 5.94668 2.05219 11M12 11L12 8M2.05078 21V16.503C2.05078 16.2252 2.27597 16 2.55375 16C2.75366 16 2.93357 16.119 3.01963 16.2994C4.62737 19.6705 8.06704 22 12.0508 22C17.2361 22 21.4997 18.0533 22.0014 13M17 15L17 9.99999C17 8.89543 16.1045 8 15 8H9C7.89543 8 7 8.89543 7 10V15C7 16.1046 7.89543 17 9 17H15C16.1046 17 17 16.1046 17 15Z" stroke="#141C25" stroke-width="1.5" stroke-linecap="round" stroke-linejoin="round"/>
</svg>
