<svg width="24" height="24" viewBox="0 0 24 24" fill="none" xmlns="http://www.w3.org/2000/svg">
<path d="M2.25 21C2.25 21.4142 2.58579 21.75 3 21.75C3.41421 21.75 3.75 21.4142 3.75 21H3H2.25ZM3 15.25C2.58579 15.25 2.25 15.5858 2.25 16C2.25 16.4142 2.58579 16.75 3 16.75V16V15.25ZM3 6.25C2.58579 6.25 2.25 6.58579 2.25 7C2.25 7.41421 2.58579 7.75 3 7.75V7V6.25ZM18.75 7C18.75 6.58579 18.4142 6.25 18 6.25C17.5858 6.25 17.25 6.58579 17.25 7H18H18.75ZM14.75 7C14.75 6.58579 14.4142 6.25 14 6.25C13.5858 6.25 13.25 6.58579 13.25 7H14H14.75ZM10.75 7C10.75 6.58579 10.4142 6.25 10 6.25C9.58579 6.25 9.25 6.58579 9.25 7H10H10.75ZM6.75 7C6.75 6.58579 6.41421 6.25 6 6.25C5.58579 6.25 5.25 6.58579 5.25 7H6H6.75ZM3 18.25C2.58579 18.25 2.25 18.5858 2.25 19C2.25 19.4142 2.58579 19.75 3 19.75V19V18.25ZM20.25 21C20.25 21.4142 20.5858 21.75 21 21.75C21.4142 21.75 21.75 21.4142 21.75 21H21H20.25ZM3 21H3.75V5H3H2.25V21H3ZM21 16V15.25H3V16V16.75H21V16ZM21 7V6.25H3V7V7.75H21V7ZM18 7H17.25V16H18H18.75V7H18ZM14 7H13.25V16H14H14.75V7H14ZM10 7H9.25V16H10H10.75V7H10ZM6 7H5.25V16H6H6.75V7H6ZM21 19V18.25H3V19V19.75H21V19ZM21 21H21.75V5H21H20.25V21H21ZM22 4H21.25C21.25 4.13807 21.1381 4.25 21 4.25V5V5.75C21.9665 5.75 22.75 4.9665 22.75 4H22ZM21 5V4.25C20.8619 4.25 20.75 4.13807 20.75 4H20H19.25C19.25 4.9665 20.0335 5.75 21 5.75V5ZM20 4H20.75C20.75 3.86193 20.8619 3.75 21 3.75V3V2.25C20.0335 2.25 19.25 3.0335 19.25 4H20ZM21 3V3.75C21.1381 3.75 21.25 3.86193 21.25 4H22H22.75C22.75 3.0335 21.9665 2.25 21 2.25V3ZM4 4H3.25C3.25 4.13807 3.13807 4.25 3 4.25V5V5.75C3.9665 5.75 4.75 4.9665 4.75 4H4ZM3 5V4.25C2.86193 4.25 2.75 4.13807 2.75 4H2H1.25C1.25 4.9665 2.0335 5.75 3 5.75V5ZM2 4H2.75C2.75 3.86193 2.86193 3.75 3 3.75V3V2.25C2.0335 2.25 1.25 3.0335 1.25 4H2ZM3 3V3.75C3.13807 3.75 3.25 3.86193 3.25 4H4H4.75C4.75 3.0335 3.9665 2.25 3 2.25V3Z" fill="#141C25"/>
</svg>
