<svg width="24" height="24" viewBox="0 0 24 24" fill="none" xmlns="http://www.w3.org/2000/svg">
<g clip-path="url(#clip0_1030_31269)">
<path d="M19 13.5V18.6518C19 18.8671 18.8846 19.0659 18.6977 19.1728L12.2977 22.8299C12.1132 22.9353 11.8868 22.9353 11.7023 22.8299L5.30234 19.1728C5.11539 19.0659 5.00002 18.8671 5.00002 18.6518L5 13M12 22.5V17M1.52471 8.30608L12.4881 14.7014C12.7718 14.8669 13.1349 14.7704 13.3212 14.4999C16.1699 10.3631 19.8199 12.6364 22.6702 8.5126C22.8602 8.23763 22.764 7.86235 22.4753 7.69392L11.5119 1.29861C11.2282 1.1331 10.8651 1.22959 10.6788 1.50013C7.83008 5.63686 4.18014 3.36356 1.32984 7.4874C1.13978 7.76238 1.23597 8.13765 1.52471 8.30608Z" stroke="#141C25" stroke-width="1.5" stroke-linecap="round" stroke-linejoin="round"/>
</g>
<defs>
<clipPath id="clip0_1030_31269">
<rect width="24" height="24" fill="white"/>
</clipPath>
</defs>
</svg>
