<svg width="24" height="24" viewBox="0 0 24 24" fill="none" xmlns="http://www.w3.org/2000/svg">
<path d="M6.29589 14C5.83338 14.9485 5.45344 15.9512 5.16405 17M14 6.29589C13.1177 6.72612 12.2822 7.22779 11.5 7.79447M2 19.5C2 20.8807 3.11929 22 4.5 22C5.88071 22 7 20.8807 7 19.5C7 18.1193 5.88071 17 4.5 17C3.11929 17 2 18.1193 2 19.5ZM7 9.5C7 10.8807 8.11929 12 9.5 12C10.8807 12 12 10.8807 12 9.5C12 8.11929 10.8807 7 9.5 7C8.11929 7 7 8.11929 7 9.5ZM17 4.5C17 5.88071 18.1193 7 19.5 7C20.8807 7 22 5.88071 22 4.5C22 3.11929 20.8807 2 19.5 2C18.1193 2 17 3.11929 17 4.5Z" stroke="#141C25" stroke-width="1.5" stroke-linecap="round" stroke-linejoin="round"/>
</svg>
