<svg width="24" height="24" viewBox="0 0 24 24" fill="none" xmlns="http://www.w3.org/2000/svg">
<path d="M20 5V19" stroke="#141C25" stroke-width="1.5" stroke-linecap="round" stroke-linejoin="round"/>
<path d="M20 5C20.75 5 20.75 4.99901 20.75 4.99801C20.75 4.99766 20.75 4.99664 20.75 4.99594C20.75 4.99454 20.75 4.99308 20.75 4.99158C20.7499 4.98857 20.7499 4.98536 20.7498 4.98196C20.7497 4.97514 20.7494 4.96754 20.7491 4.95917C20.7483 4.94242 20.7471 4.9226 20.7451 4.8999C20.7411 4.85452 20.7339 4.79756 20.7211 4.73076C20.6956 4.59695 20.6481 4.42413 20.5604 4.22665C20.3826 3.8266 20.0507 3.35054 19.45 2.9C18.263 2.00971 16.0721 1.25 12 1.25V2V2.75C15.9279 2.75 17.737 3.49029 18.55 4.1C18.9493 4.39946 19.1174 4.6734 19.1896 4.83585C19.2269 4.91962 19.2419 4.98118 19.2476 5.01143C19.2505 5.02666 19.2511 5.03415 19.251 5.03271C19.2509 5.03199 19.2507 5.02901 19.2504 5.02362C19.2503 5.02093 19.2502 5.01762 19.2501 5.0137C19.2501 5.01173 19.2501 5.00961 19.25 5.00733C19.25 5.00619 19.25 5.00501 19.25 5.00378C19.25 5.00317 19.25 5.00223 19.25 5.00192C19.25 5.00097 19.25 5 20 5ZM12 2V1.25C7.92788 1.25 5.73705 2.00971 4.55 2.9C3.94928 3.35054 3.61744 3.8266 3.43964 4.22665C3.35187 4.42413 3.30436 4.59695 3.27887 4.73076C3.26615 4.79756 3.25893 4.85452 3.2549 4.8999C3.25288 4.9226 3.25166 4.94242 3.25094 4.95917C3.25058 4.96754 3.25034 4.97514 3.2502 4.98196C3.25013 4.98536 3.25008 4.98857 3.25005 4.99158C3.25003 4.99308 3.25002 4.99454 3.25001 4.99594C3.25001 4.99664 3.25 4.99766 3.25 4.99801C3.25 4.99901 3.25 5 4 5C4.75 5 4.75 5.00097 4.75 5.00192C4.75 5.00223 4.74999 5.00317 4.74999 5.00378C4.74998 5.00501 4.74997 5.00619 4.74996 5.00733C4.74994 5.00961 4.7499 5.01173 4.74986 5.0137C4.74978 5.01762 4.74967 5.02093 4.74955 5.02362C4.74932 5.02901 4.74907 5.03199 4.74901 5.03271C4.74888 5.03415 4.74948 5.02666 4.75238 5.01143C4.75814 4.98118 4.77313 4.91962 4.81036 4.83585C4.88256 4.6734 5.05072 4.39946 5.45 4.1C6.26295 3.49029 8.07212 2.75 12 2.75V2ZM4 5C3.25 5 3.25 5.00099 3.25 5.00199C3.25 5.00234 3.25001 5.00336 3.25001 5.00406C3.25002 5.00546 3.25003 5.00692 3.25005 5.00842C3.25008 5.01143 3.25013 5.01464 3.2502 5.01804C3.25034 5.02486 3.25058 5.03246 3.25094 5.04083C3.25166 5.05758 3.25288 5.0774 3.2549 5.1001C3.25893 5.14548 3.26615 5.20244 3.27887 5.26924C3.30436 5.40305 3.35187 5.57587 3.43964 5.77335C3.61744 6.1734 3.94928 6.64946 4.55 7.1C5.73705 7.99029 7.92788 8.75 12 8.75V8V7.25C8.07212 7.25 6.26295 6.50971 5.45 5.9C5.05072 5.60054 4.88256 5.3266 4.81036 5.16415C4.77313 5.08038 4.75814 5.01882 4.75238 4.98857C4.74948 4.97334 4.74888 4.96585 4.74901 4.96729C4.74907 4.96801 4.74932 4.97099 4.74955 4.97638C4.74967 4.97907 4.74978 4.98238 4.74986 4.9863C4.7499 4.98827 4.74994 4.99039 4.74996 4.99267C4.74997 4.99381 4.74998 4.99499 4.74999 4.99622C4.74999 4.99683 4.75 4.99777 4.75 4.99808C4.75 4.99903 4.75 5 4 5ZM12 8V8.75C16.0721 8.75 18.263 7.99029 19.45 7.1C20.0507 6.64946 20.3826 6.1734 20.5604 5.77335C20.6481 5.57587 20.6956 5.40305 20.7211 5.26924C20.7339 5.20244 20.7411 5.14548 20.7451 5.1001C20.7471 5.0774 20.7483 5.05758 20.7491 5.04083C20.7494 5.03246 20.7497 5.02486 20.7498 5.01804C20.7499 5.01464 20.7499 5.01143 20.75 5.00842C20.75 5.00692 20.75 5.00546 20.75 5.00406C20.75 5.00336 20.75 5.00234 20.75 5.00199C20.75 5.00099 20.75 5 20 5C19.25 5 19.25 4.99903 19.25 4.99808C19.25 4.99777 19.25 4.99683 19.25 4.99622C19.25 4.99499 19.25 4.99381 19.25 4.99267C19.2501 4.99039 19.2501 4.98827 19.2501 4.9863C19.2502 4.98238 19.2503 4.97907 19.2504 4.97638C19.2507 4.97099 19.2509 4.96801 19.251 4.96729C19.2511 4.96585 19.2505 4.97334 19.2476 4.98857C19.2419 5.01882 19.2269 5.08038 19.1896 5.16415C19.1174 5.3266 18.9493 5.60054 18.55 5.9C17.737 6.50971 15.9279 7.25 12 7.25V8ZM20 19C20.75 19 20.75 18.999 20.75 18.998C20.75 18.9977 20.75 18.9966 20.75 18.9959C20.75 18.9945 20.75 18.9931 20.75 18.9916C20.7499 18.9886 20.7499 18.9854 20.7498 18.982C20.7497 18.9751 20.7494 18.9675 20.7491 18.9592C20.7483 18.9424 20.7471 18.9226 20.7451 18.8999C20.7411 18.8545 20.7339 18.7976 20.7211 18.7308C20.6956 18.5969 20.6481 18.4241 20.5604 18.2266C20.3826 17.8266 20.0507 17.3505 19.45 16.9C18.263 16.0097 16.0721 15.25 12 15.25V16V16.75C15.9279 16.75 17.737 17.4903 18.55 18.1C18.9493 18.3995 19.1174 18.6734 19.1896 18.8359C19.2269 18.9196 19.2419 18.9812 19.2476 19.0114C19.2505 19.0267 19.2511 19.0342 19.251 19.0327C19.2509 19.032 19.2507 19.029 19.2504 19.0236C19.2503 19.0209 19.2502 19.0176 19.2501 19.0137C19.2501 19.0117 19.2501 19.0096 19.25 19.0073C19.25 19.0062 19.25 19.005 19.25 19.0038C19.25 19.0032 19.25 19.0022 19.25 19.0019C19.25 19.001 19.25 19 20 19ZM12 16V15.25C7.92788 15.25 5.73705 16.0097 4.55 16.9C3.94928 17.3505 3.61744 17.8266 3.43964 18.2266C3.35187 18.4241 3.30436 18.5969 3.27887 18.7308C3.26615 18.7976 3.25893 18.8545 3.2549 18.8999C3.25288 18.9226 3.25166 18.9424 3.25094 18.9592C3.25058 18.9675 3.25034 18.9751 3.2502 18.982C3.25013 18.9854 3.25008 18.9886 3.25005 18.9916C3.25003 18.9931 3.25002 18.9945 3.25001 18.9959C3.25001 18.9966 3.25 18.9977 3.25 18.998C3.25 18.999 3.25 19 4 19C4.75 19 4.75 19.001 4.75 19.0019C4.75 19.0022 4.74999 19.0032 4.74999 19.0038C4.74998 19.005 4.74997 19.0062 4.74996 19.0073C4.74994 19.0096 4.7499 19.0117 4.74986 19.0137C4.74978 19.0176 4.74967 19.0209 4.74955 19.0236C4.74932 19.029 4.74907 19.032 4.74901 19.0327C4.74888 19.0342 4.74948 19.0267 4.75238 19.0114C4.75814 18.9812 4.77313 18.9196 4.81036 18.8359C4.88256 18.6734 5.05072 18.3995 5.45 18.1C6.26295 17.4903 8.07212 16.75 12 16.75V16ZM4 19C3.25 19 3.25 19.001 3.25 19.002C3.25 19.0023 3.25001 19.0034 3.25001 19.0041C3.25002 19.0055 3.25003 19.0069 3.25005 19.0084C3.25008 19.0114 3.25013 19.0146 3.2502 19.018C3.25034 19.0249 3.25058 19.0325 3.25094 19.0408C3.25166 19.0576 3.25288 19.0774 3.2549 19.1001C3.25893 19.1455 3.26615 19.2024 3.27887 19.2692C3.30436 19.4031 3.35187 19.5759 3.43964 19.7734C3.61744 20.1734 3.94928 20.6495 4.55 21.1C5.73705 21.9903 7.92788 22.75 12 22.75V22V21.25C8.07212 21.25 6.26295 20.5097 5.45 19.9C5.05072 19.6005 4.88256 19.3266 4.81036 19.1641C4.77313 19.0804 4.75814 19.0188 4.75238 18.9886C4.74948 18.9733 4.74888 18.9658 4.74901 18.9673C4.74907 18.968 4.74932 18.971 4.74955 18.9764C4.74967 18.9791 4.74978 18.9824 4.74986 18.9863C4.7499 18.9883 4.74994 18.9904 4.74996 18.9927C4.74997 18.9938 4.74998 18.995 4.74999 18.9962C4.74999 18.9968 4.75 18.9978 4.75 18.9981C4.75 18.999 4.75 19 4 19ZM12 22V22.75C16.0721 22.75 18.263 21.9903 19.45 21.1C20.0507 20.6495 20.3826 20.1734 20.5604 19.7734C20.6481 19.5759 20.6956 19.4031 20.7211 19.2692C20.7339 19.2024 20.7411 19.1455 20.7451 19.1001C20.7471 19.0774 20.7483 19.0576 20.7491 19.0408C20.7494 19.0325 20.7497 19.0249 20.7498 19.018C20.7499 19.0146 20.7499 19.0114 20.75 19.0084C20.75 19.0069 20.75 19.0055 20.75 19.0041C20.75 19.0034 20.75 19.0023 20.75 19.002C20.75 19.001 20.75 19 20 19C19.25 19 19.25 18.999 19.25 18.9981C19.25 18.9978 19.25 18.9968 19.25 18.9962C19.25 18.995 19.25 18.9938 19.25 18.9927C19.2501 18.9904 19.2501 18.9883 19.2501 18.9863C19.2502 18.9824 19.2503 18.9791 19.2504 18.9764C19.2507 18.971 19.2509 18.968 19.251 18.9673C19.2511 18.9658 19.2505 18.9733 19.2476 18.9886C19.2419 19.0188 19.2269 19.0804 19.1896 19.1641C19.1174 19.3266 18.9493 19.6005 18.55 19.9C17.737 20.5097 15.9279 21.25 12 21.25V22ZM4 5H3.25V19H4H4.75V5H4Z" fill="#141C25"/>
</svg>
