<svg width="24" height="24" viewBox="0 0 24 24" fill="none" xmlns="http://www.w3.org/2000/svg">
<path d="M12 6.01L12.01 5.99889M16 8.01L16.01 7.99889M8 8.01L8.01 7.99889M18 12.01L18.01 11.9989M6 12.01L6.01 11.9989M17 16.01L17.01 15.9989M7 16.01L7.01 15.9989M12 16L13 10M12 16C10.3431 16 9 17.3431 9 19C9 20.6569 10.3431 22 12 22C13.6569 22 15 20.6569 15 19C15 17.3431 13.6569 16 12 16ZM8.5 19.001H4C2.74418 17.3295 2 15.2516 2 13C2 7.47715 6.47715 3 12 3C17.5228 3 22 7.47715 22 13C22 15.2516 21.2558 17.3295 20 19.001L15.5 19" stroke="#141C25" stroke-width="1.5" stroke-linecap="round" stroke-linejoin="round"/>
</svg>
