<svg width="24" height="24" viewBox="0 0 24 24" fill="none" xmlns="http://www.w3.org/2000/svg">
<path d="M12 4V8M12 4C6.47715 4 2 8.47715 2 14C2 16.2516 2.74418 18.3295 4 20.001H8.5M12 4C17.5228 4 22 8.47715 22 14C22 16.2516 21.2558 18.3295 20 20.001L15.5 20M4 8L6.5 10.5M17.5 10.5L20 8M3 17H6M12 17L13 11M12 17C10.3431 17 9 18.3431 9 20C9 21.6569 10.3431 23 12 23C13.6569 23 15 21.6569 15 20C15 18.3431 13.6569 17 12 17ZM18 17H21" stroke="#141C25" stroke-width="1.5" stroke-linecap="round" stroke-linejoin="round"/>
</svg>
