<svg width="24" height="24" viewBox="0 0 24 24" fill="none" xmlns="http://www.w3.org/2000/svg">
<path fill-rule="evenodd" clip-rule="evenodd" d="M2.68018 8.25C2.68018 8.05109 2.75919 7.86032 2.89985 7.71967C3.0405 7.57902 3.23126 7.5 3.43018 7.5H4.38218C5.31218 7.5 6.08418 8.244 6.08418 9.188V15.75C6.08418 15.9489 6.00516 16.1397 5.86451 16.2803C5.72385 16.421 5.53309 16.5 5.33418 16.5C5.13526 16.5 4.9445 16.421 4.80385 16.2803C4.66319 16.1397 4.58418 15.9489 4.58418 15.75V9.188C4.58327 9.16239 4.57733 9.1372 4.56669 9.11389C4.55604 9.09057 4.54091 9.06959 4.52215 9.05213C4.50339 9.03467 4.48137 9.02108 4.45735 9.01213C4.43333 9.00319 4.40779 8.99906 4.38218 9H3.43018C3.23126 9 3.0405 8.92098 2.89985 8.78033C2.75919 8.63968 2.68018 8.44891 2.68018 8.25ZM8.39418 8.25C8.39418 8.05109 8.47319 7.86032 8.61385 7.71967C8.7545 7.57902 8.94526 7.5 9.14418 7.5H12.0012C12.9312 7.5 13.7042 8.244 13.7042 9.188V11.062C13.7042 12.006 12.9302 12.75 12.0012 12.75H10.0962C10.0706 12.7491 10.045 12.7532 10.021 12.7621C9.99698 12.7711 9.97496 12.7847 9.9562 12.8021C9.93744 12.8196 9.92231 12.8406 9.91166 12.8639C9.90102 12.8872 9.89508 12.9124 9.89418 12.938V14.812C9.89418 14.905 9.97418 15 10.0962 15H12.9542C13.1531 15 13.3439 15.079 13.4845 15.2197C13.6252 15.3603 13.7042 15.5511 13.7042 15.75C13.7042 15.9489 13.6252 16.1397 13.4845 16.2803C13.3439 16.421 13.1531 16.5 12.9542 16.5H10.0962C9.87363 16.5011 9.65306 16.4582 9.44707 16.374C9.24107 16.2898 9.05369 16.1658 8.89564 16.0091C8.73758 15.8525 8.61194 15.6662 8.52589 15.461C8.43985 15.2557 8.39509 15.0355 8.39418 14.813V12.937C8.39418 11.994 9.16718 11.25 10.0962 11.25H12.0012C12.0268 11.2511 12.0524 11.2471 12.0764 11.2383C12.1005 11.2294 12.1226 11.216 12.1415 11.1986C12.1603 11.1812 12.1756 11.1603 12.1863 11.137C12.1971 11.1138 12.2031 11.0886 12.2042 11.063V9.187C12.2031 9.1613 12.197 9.13605 12.1862 9.11272C12.1754 9.08938 12.1601 9.06842 12.1411 9.05104C12.1221 9.03366 12.0999 9.0202 12.0757 9.01144C12.0516 9.00268 12.0259 8.99879 12.0002 9H9.14418C8.94526 9 8.7545 8.92098 8.61385 8.78033C8.47319 8.63968 8.39418 8.44891 8.39418 8.25ZM16.0132 8.25C16.0132 8.05109 16.0922 7.86032 16.2328 7.71967C16.3735 7.57902 16.5643 7.5 16.7632 7.5H19.6202C20.5502 7.5 21.3232 8.244 21.3232 9.188V14.812C21.3232 15.756 20.5492 16.5 19.6202 16.5H16.7632C16.5643 16.5 16.3735 16.421 16.2328 16.2803C16.0922 16.1397 16.0132 15.9489 16.0132 15.75C16.0132 15.5511 16.0922 15.3603 16.2328 15.2197C16.3735 15.079 16.5643 15 16.7632 15H19.6202C19.6458 15.0011 19.6714 14.9971 19.6954 14.9883C19.7195 14.9794 19.7416 14.966 19.7605 14.9486C19.7793 14.9312 19.7946 14.9103 19.8053 14.887C19.8161 14.8638 19.8221 14.8386 19.8232 14.813V12.75H16.7632C16.5643 12.75 16.3735 12.671 16.2328 12.5303C16.0922 12.3897 16.0132 12.1989 16.0132 12C16.0132 11.8011 16.0922 11.6103 16.2328 11.4697C16.3735 11.329 16.5643 11.25 16.7632 11.25H19.8232V9.188C19.8223 9.1623 19.8163 9.13703 19.8056 9.11365C19.7949 9.09027 19.7797 9.06923 19.7608 9.05176C19.7419 9.03429 19.7198 9.02072 19.6957 9.01183C19.6715 9.00295 19.6459 8.99893 19.6202 9H16.7632C16.5643 9 16.3735 8.92098 16.2328 8.78033C16.0922 8.63968 16.0132 8.44891 16.0132 8.25Z" fill="#141C25"/>
</svg>
