<svg width="24" height="24" viewBox="0 0 24 24" fill="none" xmlns="http://www.w3.org/2000/svg">
<path d="M16.3571 12C17.0714 12 18.5 12 18.5 10C18.5 8 17.0714 8 16.3571 8H13.5V12M16.3571 12H13.5M16.3571 12C17.0714 12 18.5 12 18.5 14C18.5 16 17.0714 16 16.3571 16H13.5V12M2 9V15C2 18.3137 4.68629 21 8 21H16C19.3137 21 22 18.3137 22 15V9C22 5.68629 19.3137 3 16 3H8C4.68629 3 2 5.68629 2 9ZM5.5 8H8.35714C9.07143 8 10.5 8 10.5 10V14C10.5 16 9.07143 16 8.35714 16H5.5V8Z" stroke="#141C25" stroke-width="1.5" stroke-linecap="round" stroke-linejoin="round"/>
</svg>
