<svg width="24" height="24" viewBox="0 0 24 24" fill="none" xmlns="http://www.w3.org/2000/svg">
<path d="M4 6V12M4 6C4 6 4 3 11 3C18 3 18 6 18 6M4 6C4 6 4 9 11 9C18 9 18 6 18 6M4 12C4 12 4 15 11 15C11.5925 15 12.1349 14.9785 12.6313 14.9392M4 12V18C4 18 4 21 11 21M18 12V6M22.6663 17.6667C22.0476 16.097 20.6344 15 18.9901 15C17.2317 15 15.7376 16.2545 15.1967 18M22.6663 17.6667L20.9951 17.6667M22.6663 17.6667C22.8506 17.6667 23.0001 17.5173 23.0001 17.333V15.4445M15.3337 20.3333C15.9524 21.903 17.3656 23 19.0099 23C20.7683 23 22.2624 21.7455 22.8033 20M15.3337 20.3333L17.0049 20.3333M15.3337 20.3333C15.1494 20.3333 14.9999 20.4827 14.9999 20.667V22.5555" stroke="#141C25" stroke-width="1.5" stroke-linecap="round" stroke-linejoin="round"/>
</svg>
