<svg width="24" height="24" viewBox="0 0 24 24" fill="none" xmlns="http://www.w3.org/2000/svg">
<path d="M11 21.75C11.4142 21.75 11.75 21.4142 11.75 21C11.75 20.5858 11.4142 20.25 11 20.25V21V21.75ZM14.25 21C14.25 21.4142 14.5858 21.75 15 21.75C15.4142 21.75 15.75 21.4142 15.75 21H15H14.25ZM15.75 19C15.75 18.5858 15.4142 18.25 15 18.25C14.5858 18.25 14.25 18.5858 14.25 19H15H15.75ZM17.25 21C17.25 21.4142 17.5858 21.75 18 21.75C18.4142 21.75 18.75 21.4142 18.75 21H18H17.25ZM18.75 17C18.75 16.5858 18.4142 16.25 18 16.25C17.5858 16.25 17.25 16.5858 17.25 17H18H18.75ZM20.25 21C20.25 21.4142 20.5858 21.75 21 21.75C21.4142 21.75 21.75 21.4142 21.75 21H21H20.25ZM21.75 15C21.75 14.5858 21.4142 14.25 21 14.25C20.5858 14.25 20.25 14.5858 20.25 15H21H21.75ZM4 6H3.25V12H4H4.75V6H4ZM4 12C3.25 12 3.25 12.0009 3.25 12.0017C3.25 12.0021 3.25001 12.0029 3.25001 12.0036C3.25001 12.0048 3.25002 12.0061 3.25003 12.0074C3.25006 12.0101 3.2501 12.013 3.25016 12.0161C3.25027 12.0222 3.25046 12.0291 3.25074 12.0368C3.25132 12.0522 3.25231 12.0706 3.25397 12.0918C3.25727 12.1343 3.26324 12.1884 3.27388 12.2522C3.29516 12.3799 3.33524 12.5474 3.41037 12.7406C3.56229 13.1312 3.85119 13.6103 4.38691 14.0694C5.453 14.9832 7.41026 15.75 11 15.75V15V14.25C7.58974 14.25 6.047 13.5168 5.36309 12.9306C5.02381 12.6397 4.87521 12.3688 4.80838 12.1969C4.77414 12.1089 4.75953 12.042 4.75347 12.0056C4.75044 11.9874 4.74956 11.977 4.74945 11.9755C4.7494 11.9748 4.74953 11.9764 4.74968 11.9804C4.74976 11.9824 4.74984 11.985 4.7499 11.9883C4.74993 11.9899 4.74995 11.9917 4.74997 11.9937C4.74998 11.9946 4.74999 11.9956 4.74999 11.9967C4.74999 11.9972 4.75 11.9981 4.75 11.9983C4.75 11.9992 4.75 12 4 12ZM18 12H18.75V6H18H17.25V12H18ZM11 15V15.75C14.5897 15.75 16.547 14.9832 17.6131 14.0694C18.1488 13.6103 18.4377 13.1312 18.5896 12.7406C18.6648 12.5474 18.7048 12.3799 18.7261 12.2522C18.7368 12.1884 18.7427 12.1343 18.746 12.0918C18.7477 12.0706 18.7487 12.0522 18.7493 12.0368C18.7495 12.0291 18.7497 12.0222 18.7498 12.0161C18.7499 12.013 18.7499 12.0101 18.75 12.0074C18.75 12.0061 18.75 12.0048 18.75 12.0036C18.75 12.0029 18.75 12.0021 18.75 12.0017C18.75 12.0009 18.75 12 18 12C17.25 12 17.25 11.9992 17.25 11.9983C17.25 11.9981 17.25 11.9972 17.25 11.9967C17.25 11.9956 17.25 11.9946 17.25 11.9937C17.25 11.9917 17.2501 11.9899 17.2501 11.9883C17.2502 11.985 17.2502 11.9824 17.2503 11.9804C17.2505 11.9764 17.2506 11.9748 17.2505 11.9755C17.2504 11.977 17.2496 11.9874 17.2465 12.0056C17.2405 12.042 17.2259 12.1089 17.1916 12.1969C17.1248 12.3688 16.9762 12.6397 16.6369 12.9306C15.953 13.5168 14.4103 14.25 11 14.25V15ZM18 6C18.75 6 18.75 5.99913 18.75 5.99825C18.75 5.99794 18.75 5.99705 18.75 5.99643C18.75 5.99519 18.75 5.9939 18.75 5.99256C18.7499 5.98989 18.7499 5.98701 18.7498 5.98394C18.7497 5.9778 18.7495 5.97087 18.7493 5.96319C18.7487 5.94782 18.7477 5.92941 18.746 5.90815C18.7427 5.86565 18.7368 5.81164 18.7261 5.74779C18.7048 5.62009 18.6648 5.45261 18.5896 5.25942C18.4377 4.86876 18.1488 4.38974 17.6131 3.93056C16.547 3.01677 14.5897 2.25 11 2.25V3V3.75C14.4103 3.75 15.953 4.48323 16.6369 5.06944C16.9762 5.36026 17.1248 5.63124 17.1916 5.80308C17.2259 5.89114 17.2405 5.95804 17.2465 5.99439C17.2496 6.01258 17.2504 6.02302 17.2505 6.02447C17.2506 6.02518 17.2505 6.02361 17.2503 6.0196C17.2502 6.01759 17.2502 6.01497 17.2501 6.01171C17.2501 6.01008 17.25 6.00829 17.25 6.00634C17.25 6.00537 17.25 6.00435 17.25 6.00329C17.25 6.00277 17.25 6.00194 17.25 6.00168C17.25 6.00084 17.25 6 18 6ZM11 3V2.25C7.41026 2.25 5.453 3.01677 4.38691 3.93056C3.85119 4.38974 3.56229 4.86876 3.41037 5.25942C3.33524 5.45261 3.29516 5.62009 3.27388 5.74779C3.26324 5.81164 3.25727 5.86565 3.25397 5.90815C3.25231 5.92941 3.25132 5.94782 3.25074 5.96319C3.25046 5.97087 3.25027 5.9778 3.25016 5.98394C3.2501 5.98701 3.25006 5.98989 3.25003 5.99256C3.25002 5.9939 3.25001 5.99519 3.25001 5.99643C3.25001 5.99705 3.25 5.99794 3.25 5.99825C3.25 5.99913 3.25 6 4 6C4.75 6 4.75 6.00084 4.75 6.00168C4.75 6.00194 4.74999 6.00277 4.74999 6.00329C4.74999 6.00435 4.74998 6.00537 4.74997 6.00634C4.74995 6.00829 4.74993 6.01008 4.7499 6.01171C4.74984 6.01497 4.74976 6.01759 4.74968 6.0196C4.74953 6.02361 4.7494 6.02518 4.74945 6.02447C4.74956 6.02302 4.75044 6.01258 4.75347 5.99439C4.75953 5.95804 4.77414 5.89114 4.80838 5.80308C4.87521 5.63124 5.02381 5.36026 5.36309 5.06944C6.047 4.48323 7.58974 3.75 11 3.75V3ZM4 6C3.25 6 3.25 6.00087 3.25 6.00175C3.25 6.00206 3.25001 6.00295 3.25001 6.00357C3.25001 6.00481 3.25002 6.0061 3.25003 6.00744C3.25006 6.01011 3.2501 6.01299 3.25016 6.01606C3.25027 6.0222 3.25046 6.02913 3.25074 6.03681C3.25132 6.05218 3.25231 6.07059 3.25397 6.09185C3.25727 6.13435 3.26324 6.18836 3.27388 6.25221C3.29516 6.37991 3.33524 6.54739 3.41037 6.74058C3.56229 7.13124 3.85119 7.61026 4.38691 8.06944C5.453 8.98323 7.41026 9.75 11 9.75V9V8.25C7.58974 8.25 6.047 7.51677 5.36309 6.93056C5.02381 6.63974 4.87521 6.36876 4.80838 6.19692C4.77414 6.10886 4.75953 6.04196 4.75347 6.00561C4.75044 5.98742 4.74956 5.97698 4.74945 5.97553C4.7494 5.97482 4.74953 5.97639 4.74968 5.9804C4.74976 5.98241 4.74984 5.98503 4.7499 5.98829C4.74993 5.98992 4.74995 5.99171 4.74997 5.99366C4.74998 5.99463 4.74999 5.99565 4.74999 5.99671C4.74999 5.99723 4.75 5.99806 4.75 5.99832C4.75 5.99916 4.75 6 4 6ZM11 9V9.75C14.5897 9.75 16.547 8.98323 17.6131 8.06944C18.1488 7.61026 18.4377 7.13124 18.5896 6.74058C18.6648 6.54739 18.7048 6.37991 18.7261 6.25221C18.7368 6.18836 18.7427 6.13435 18.746 6.09185C18.7477 6.07059 18.7487 6.05218 18.7493 6.03681C18.7495 6.02913 18.7497 6.0222 18.7498 6.01606C18.7499 6.01299 18.7499 6.01011 18.75 6.00744C18.75 6.0061 18.75 6.00481 18.75 6.00357C18.75 6.00295 18.75 6.00206 18.75 6.00175C18.75 6.00087 18.75 6 18 6C17.25 6 17.25 5.99916 17.25 5.99832C17.25 5.99806 17.25 5.99723 17.25 5.99671C17.25 5.99565 17.25 5.99463 17.25 5.99366C17.25 5.99171 17.2501 5.98992 17.2501 5.98829C17.2502 5.98503 17.2502 5.98241 17.2503 5.9804C17.2505 5.97639 17.2506 5.97482 17.2505 5.97553C17.2504 5.97698 17.2496 5.98742 17.2465 6.00561C17.2405 6.04196 17.2259 6.10886 17.1916 6.19692C17.1248 6.36876 16.9762 6.63974 16.6369 6.93056C15.953 7.51677 14.4103 8.25 11 8.25V9ZM4 18C3.25 18 3.25 18.0009 3.25 18.0017C3.25 18.0021 3.25001 18.0029 3.25001 18.0036C3.25001 18.0048 3.25002 18.0061 3.25003 18.0074C3.25006 18.0101 3.2501 18.013 3.25016 18.0161C3.25027 18.0222 3.25046 18.0291 3.25074 18.0368C3.25132 18.0522 3.25231 18.0706 3.25397 18.0918C3.25727 18.1343 3.26324 18.1884 3.27388 18.2522C3.29516 18.3799 3.33524 18.5474 3.41037 18.7406C3.56229 19.1312 3.85119 19.6103 4.38691 20.0694C5.453 20.9832 7.41026 21.75 11 21.75V21V20.25C7.58974 20.25 6.047 19.5168 5.36309 18.9306C5.02381 18.6397 4.87521 18.3688 4.80838 18.1969C4.77414 18.1089 4.75953 18.042 4.75347 18.0056C4.75044 17.9874 4.74956 17.977 4.74945 17.9755C4.7494 17.9748 4.74953 17.9764 4.74968 17.9804C4.74976 17.9824 4.74984 17.985 4.7499 17.9883C4.74993 17.9899 4.74995 17.9917 4.74997 17.9937C4.74998 17.9946 4.74999 17.9956 4.74999 17.9967C4.74999 17.9972 4.75 17.9981 4.75 17.9983C4.75 17.9992 4.75 18 4 18ZM4 12H3.25V18H4H4.75V12H4ZM15 21H15.75V19H15H14.25V21H15ZM18 21H18.75V17H18H17.25V21H18ZM21 21H21.75V15H21H20.25V21H21Z" fill="#141C25"/>
</svg>
