<svg width="24" height="24" viewBox="0 0 24 24" fill="none" xmlns="http://www.w3.org/2000/svg">
<path d="M20.5 20.5L22 22M4 6V12M4 6C4 6 4 3 11 3C18 3 18 6 18 6M4 6C4 6 4 9 11 9C18 9 18 6 18 6M4 12C4 12 4 15 11 15C18 15 18 12 18 12V6M4 12V18C4 18 4 21 11 21M18.5 21C17.1193 21 16 19.8807 16 18.5C16 17.1193 17.1193 16 18.5 16C19.8807 16 21 17.1193 21 18.5C21 19.1892 20.7211 19.8132 20.2701 20.2654C19.8175 20.7192 19.1916 21 18.5 21Z" stroke="#141C25" stroke-width="1.5" stroke-linecap="round" stroke-linejoin="round"/>
</svg>
