<svg width="24" height="24" viewBox="0 0 24 24" fill="none" xmlns="http://www.w3.org/2000/svg">
<path d="M10.05 16.25C9.63579 16.25 9.3 16.5858 9.3 17C9.3 17.4142 9.63579 17.75 10.05 17.75V17V16.25ZM1 5.25C0.585786 5.25 0.25 5.58579 0.25 6C0.25 6.41421 0.585786 6.75 1 6.75V6V5.25ZM5.65 17.75C6.06421 17.75 6.4 17.4142 6.4 17C6.4 16.5858 6.06421 16.25 5.65 16.25V17V17.75ZM3.75 11.5C3.75 11.0858 3.41421 10.75 3 10.75C2.58579 10.75 2.25 11.0858 2.25 11.5H3H3.75ZM2 8.25C1.58579 8.25 1.25 8.58579 1.25 9C1.25 9.41421 1.58579 9.75 2 9.75V9V8.25ZM6 9.75C6.41421 9.75 6.75 9.41421 6.75 9C6.75 8.58579 6.41421 8.25 6 8.25V9V9.75ZM15 8.25C14.5858 8.25 14.25 8.58579 14.25 9C14.25 9.41421 14.5858 9.75 15 9.75V9V8.25ZM22.9483 13.3836L23.6336 13.079L23.6336 13.079L22.9483 13.3836ZM21.1584 9.35632L20.473 9.66092L20.473 9.66092L21.1584 9.35632ZM20.5 16.25C20.0858 16.25 19.75 16.5858 19.75 17C19.75 17.4142 20.0858 17.75 20.5 17.75V17V16.25ZM10 17H9.25C9.25 17.6904 8.69036 18.25 8 18.25V19V19.75C9.51878 19.75 10.75 18.5188 10.75 17H10ZM8 19V18.25C7.30964 18.25 6.75 17.6904 6.75 17H6H5.25C5.25 18.5188 6.48122 19.75 8 19.75V19ZM6 17H6.75C6.75 16.3096 7.30964 15.75 8 15.75V15V14.25C6.48122 14.25 5.25 15.4812 5.25 17H6ZM8 15V15.75C8.69036 15.75 9.25 16.3096 9.25 17H10H10.75C10.75 15.4812 9.51878 14.25 8 14.25V15ZM20 17H19.25C19.25 17.6904 18.6904 18.25 18 18.25V19V19.75C19.5188 19.75 20.75 18.5188 20.75 17H20ZM18 19V18.25C17.3096 18.25 16.75 17.6904 16.75 17H16H15.25C15.25 18.5188 16.4812 19.75 18 19.75V19ZM16 17H16.75C16.75 16.3096 17.3096 15.75 18 15.75V15V14.25C16.4812 14.25 15.25 15.4812 15.25 17H16ZM18 15V15.75C18.6904 15.75 19.25 16.3096 19.25 17H20H20.75C20.75 15.4812 19.5188 14.25 18 14.25V15ZM15 17H15.75V6.6H15H14.25V17H15ZM10.05 17V17.75H15V17V16.25H10.05V17ZM14.4 6V5.25H1V6V6.75H14.4V6ZM15 6.6H15.75C15.75 5.85442 15.1456 5.25 14.4 5.25V6V6.75C14.3172 6.75 14.25 6.68284 14.25 6.6H15ZM3.6 17V17.75H5.65V17V16.25H3.6V17ZM3 11.5H2.25V16.4H3H3.75V11.5H3ZM3.6 17V16.25C3.68284 16.25 3.75 16.3172 3.75 16.4H3H2.25C2.25 17.1456 2.85442 17.75 3.6 17.75V17ZM2 9V9.75H6V9V8.25H2V9ZM20.6101 9V8.25H15V9V9.75H20.6101V9ZM23 16.4H23.75V13.6273H23H22.25V16.4H23ZM22.9483 13.3836L23.6336 13.079L21.8437 9.05171L21.1584 9.35632L20.473 9.66092L22.2629 13.6882L22.9483 13.3836ZM20.5 17V17.75H22.4V17V16.25H20.5V17ZM23 13.6273H23.75C23.75 13.4384 23.7104 13.2517 23.6336 13.079L22.9483 13.3836L22.2629 13.6882C22.2544 13.6691 22.25 13.6483 22.25 13.6273H23ZM20.6101 9V9.75C20.5508 9.75 20.4971 9.71509 20.473 9.66092L21.1584 9.35632L21.8437 9.05171C21.627 8.56419 21.1436 8.25 20.6101 8.25V9ZM23 16.4H22.25C22.25 16.3172 22.3172 16.25 22.4 16.25V17V17.75C23.1456 17.75 23.75 17.1456 23.75 16.4H23ZM15 17V17.75H16V17V16.25H15V17Z" fill="#141C25"/>
</svg>
