<svg width="24" height="24" viewBox="0 0 24 24" fill="none" xmlns="http://www.w3.org/2000/svg">
<path d="M3.29583 20.6016L9.65979 14.2376M9.65979 14.2376C10.2456 14.8234 11.1953 14.8234 11.7811 14.2376C12.3669 13.6518 12.3669 12.7021 11.7811 12.1163C11.1953 11.5305 10.2456 11.5305 9.65979 12.1163C9.074 12.7021 9.074 13.6518 9.65979 14.2376ZM17.7915 11.0556L20.6199 8.22718C21.401 7.44613 21.401 6.1798 20.6199 5.39876L18.4986 3.27744C17.7176 2.49639 16.4512 2.49639 15.6702 3.27744L12.8418 6.10586M15.769 17.1232L17.6742 11.4074C17.7461 11.1918 17.69 10.9541 17.5293 10.7934L13.1246 6.38871C12.9533 6.21743 12.6959 6.16594 12.4719 6.25816L7.08528 8.47618C6.92404 8.54257 6.79966 8.67583 6.74452 8.84125L2.95314 20.2154C2.79964 20.6759 3.22804 21.1186 3.69333 20.9803L15.3708 17.5086C15.5584 17.4528 15.7071 17.3089 15.769 17.1232Z" stroke="#141C25" stroke-width="1.5" stroke-linecap="round" stroke-linejoin="round"/>
</svg>
