<svg width="24" height="24" viewBox="0 0 24 24" fill="none" xmlns="http://www.w3.org/2000/svg">
<path d="M5.75 3C5.75 2.58579 5.41421 2.25 5 2.25C4.58579 2.25 4.25 2.58579 4.25 3H5H5.75ZM19.75 3C19.75 2.58579 19.4142 2.25 19 2.25C18.5858 2.25 18.25 2.58579 18.25 3H19H19.75ZM5.91849 12.5905L5.51292 13.2213L5.91849 12.5905ZM5 21L5.40557 21.6309L17.5686 13.8118L17.163 13.1809L16.7575 12.55L4.59443 20.3691L5 21ZM5 3H4.25V10.9081H5H5.75V3H5ZM19 3H18.25V9.8162H19H19.75V3H19ZM19 21L19.4056 20.3691L6.32405 11.9596L5.91849 12.5905L5.51292 13.2213L18.5944 21.6309L19 21ZM20 12L20 11.25L4 11.25L4 12L4 12.75L20 12.75L20 12ZM19 4L19 3.25L5 3.25L5 4L5 4.75L19 4.75L19 4ZM19 7L19 6.25L5 6.25L5 7L5 7.75L19 7.75L19 7ZM5 10.9081H4.25C4.25 11.8438 4.72581 12.7153 5.51292 13.2213L5.91849 12.5905L6.32405 11.9596C5.96628 11.7296 5.75 11.3334 5.75 10.9081H5ZM17.163 13.1809L17.5686 13.8118C18.9282 12.9378 19.75 11.4324 19.75 9.8162H19H18.25C18.25 10.9221 17.6877 11.952 16.7575 12.55L17.163 13.1809Z" fill="#141C25"/>
</svg>
