<svg width="24" height="24" viewBox="0 0 24 24" fill="none" xmlns="http://www.w3.org/2000/svg">
<path d="M12 21V17M12 17C12 14.2386 9.76142 12 7 12H3M12 17C12 14.2386 14.2386 12 17 12H21M12 2V22M12 2C13.5621 3.5621 14.4379 4.43785 16 5.99995M12 2C10.4379 3.5621 9.5621 4.43785 8 5.99995M6 7.99995C4.4379 9.56205 3.5621 10.4379 2 12C3.5621 13.5621 4.4379 14.4379 6 16M18 7.99995C19.5621 9.56205 20.4379 10.4379 22 12C20.4379 13.5621 19.5621 14.4379 18 16" stroke="#141C25" stroke-width="1.5" stroke-linecap="round" stroke-linejoin="round"/>
</svg>
