<svg width="24" height="24" viewBox="0 0 24 24" fill="none" xmlns="http://www.w3.org/2000/svg">
<path d="M14 15L15.5 16.5M16 2V5.4C16 5.73137 16.2686 6 16.6 6H20M11.5 15.5C9.84315 15.5 8.5 14.1569 8.5 12.5C8.5 10.8431 9.84315 9.5 11.5 9.5C13.1569 9.5 14.5 10.8431 14.5 12.5C14.5 13.327 14.1654 14.0758 13.6241 14.6185C13.081 15.163 12.3299 15.5 11.5 15.5ZM4 2.6V21.4C4 21.7314 4.26863 22 4.6 22H19.4C19.7314 22 20 21.7314 20 21.4V5.74853C20 5.5894 19.9368 5.43679 19.8243 5.32426L16.6757 2.17574C16.5632 2.06321 16.4106 2 16.2515 2H4.6C4.26863 2 4 2.26863 4 2.6Z" stroke="#141C25" stroke-width="1.5" stroke-linecap="round" stroke-linejoin="round"/>
</svg>
