<svg width="24" height="24" viewBox="0 0 24 24" fill="none" xmlns="http://www.w3.org/2000/svg">
<path d="M20.5 20.5L22 22M20 12V5.74853C20 5.5894 19.9368 5.43679 19.8243 5.32426L16.6757 2.17574C16.5632 2.06321 16.4106 2 16.2515 2H4.6C4.26863 2 4 2.26863 4 2.6V21.4C4 21.7314 4.26863 22 4.6 22H11M16 2V5.4C16 5.73137 16.2686 6 16.6 6H20M18 21C16.3431 21 15 19.6569 15 18C15 16.3431 16.3431 15 18 15C19.6569 15 21 16.3431 21 18C21 18.827 20.6654 19.5758 20.1241 20.1185C19.581 20.663 18.8299 21 18 21Z" stroke="#141C25" stroke-width="1.5" stroke-linecap="round" stroke-linejoin="round"/>
</svg>
