<svg width="24" height="24" viewBox="0 0 24 24" fill="none" xmlns="http://www.w3.org/2000/svg">
<path d="M16 2V5.4C16 5.73137 16.2686 6 16.6 6H20M4 2.6V21.4C4 21.7314 4.26863 22 4.6 22H19.4C19.7314 22 20 21.7314 20 21.4V5.74853C20 5.5894 19.9368 5.43679 19.8243 5.32426L16.6757 2.17574C16.5632 2.06321 16.4106 2 16.2515 2H4.6C4.26863 2 4 2.26863 4 2.6ZM10.6349 10.4151L11.674 8.21211C11.8073 7.9293 12.1927 7.9293 12.326 8.21211L13.3651 10.4151L15.6886 10.7706C15.9867 10.8162 16.1055 11.1997 15.8897 11.4198L14.2087 13.1334L14.6054 15.5543C14.6564 15.8652 14.3446 16.1022 14.0778 15.9554L12 14.8118L9.92219 15.9554C9.65544 16.1022 9.34363 15.8652 9.39458 15.5543L9.7913 13.1334L8.1103 11.4198C7.89447 11.1997 8.01329 10.8162 8.31141 10.7706L10.6349 10.4151Z" stroke="#141C25" stroke-width="1.5" stroke-linecap="round" stroke-linejoin="round"/>
</svg>
