<svg width="24" height="24" viewBox="0 0 24 24" fill="none" xmlns="http://www.w3.org/2000/svg">
<path d="M6 17.25C5.58579 17.25 5.25 17.5858 5.25 18C5.25 18.4142 5.58579 18.75 6 18.75L6 18L6 17.25ZM18 18.75C18.4142 18.75 18.75 18.4142 18.75 18C18.75 17.5858 18.4142 17.25 18 17.25L18 18L18 18.75ZM12 14L11.4697 14.5303C11.7626 14.8232 12.2374 14.8232 12.5303 14.5303L12 14ZM16.0303 11.0303C16.3232 10.7374 16.3232 10.2626 16.0303 9.96967C15.7374 9.67678 15.2626 9.67678 14.9697 9.96967L15.5 10.5L16.0303 11.0303ZM9.03033 9.96967C8.73744 9.67678 8.26256 9.67678 7.96967 9.96967C7.67678 10.2626 7.67678 10.7374 7.96967 11.0303L8.5 10.5L9.03033 9.96967ZM6 18L6 18.75L18 18.75L18 18L18 17.25L6 17.25L6 18ZM12 6H11.25V14H12H12.75V6H12ZM12 14L12.5303 14.5303L16.0303 11.0303L15.5 10.5L14.9697 9.96967L11.4697 13.4697L12 14ZM12 14L12.5303 13.4697L9.03033 9.96967L8.5 10.5L7.96967 11.0303L11.4697 14.5303L12 14ZM3 3.6H2.25V20.4H3H3.75V3.6H3ZM3.6 21V21.75H20.4V21V20.25H3.6V21ZM21 20.4H21.75V3.6H21H20.25V20.4H21ZM20.4 3V2.25H3.6V3V3.75H20.4V3ZM21 3.6H21.75C21.75 2.85442 21.1456 2.25 20.4 2.25V3V3.75C20.3172 3.75 20.25 3.68284 20.25 3.6H21ZM20.4 21V21.75C21.1456 21.75 21.75 21.1456 21.75 20.4H21H20.25C20.25 20.3172 20.3172 20.25 20.4 20.25V21ZM3 20.4H2.25C2.25 21.1456 2.85442 21.75 3.6 21.75V21V20.25C3.68284 20.25 3.75 20.3172 3.75 20.4H3ZM3 3.6H3.75C3.75 3.68284 3.68284 3.75 3.6 3.75V3V2.25C2.85442 2.25 2.25 2.85441 2.25 3.6H3Z" fill="#141C25"/>
</svg>
