<svg width="24" height="24" viewBox="0 0 24 24" fill="none" xmlns="http://www.w3.org/2000/svg">
<path d="M6.9998 10.4999L4.99571 13.172C4.41825 13.9419 4.47107 15.014 5.1214 15.7234L8.9053 19.8513C9.28412 20.2646 9.81806 20.4999 10.3787 20.4999H14.9998C17.3998 20.4999 18.9998 18.9998 18.9998 16.4999V7.92844C18.9998 5.64272 15.9998 5.64267 15.9998 7.92838M15.9998 7.92838V8.49981M15.9998 7.92838V7.02702C15.9998 4.7413 12.9998 4.7413 12.9998 7.02702M12.9998 7.02702V6.49994C12.9998 4.21423 9.9998 4.2142 9.9998 6.49992M12.9998 7.02702V8.49994M9.9998 6.49992V8.49992M9.9998 6.49992V6.38356C9.9998 5.55513 9.32823 4.99993 8.4998 4.99993C7.67137 4.99993 6.9998 5.6715 6.9998 6.49993V13.4999" stroke="#141C25" stroke-width="1.5" stroke-linecap="round" stroke-linejoin="round"/>
</svg>
