<svg width="24" height="24" viewBox="0 0 24 24" fill="none" xmlns="http://www.w3.org/2000/svg">
<path d="M14.5 12.5L14.926 8.66626C14.9655 8.31084 14.6872 8 14.3296 8H9.67036C9.31275 8 9.03454 8.31084 9.07403 8.66626L9.9407 16.4663C9.97446 16.7701 10.2313 17 10.537 17H11M8.99993 8.00001L4.49993 4.50001M9.50012 15.5L4.5 19.5M15 8L19.5 4.5M21.6665 16.6667C21.0477 15.097 19.6346 14 17.9903 14C16.2319 14 14.7378 15.2545 14.1969 17M22.0002 14.55V16.1723C22.0002 16.5036 21.7316 16.7723 21.4002 16.7723H19.9952M14.3337 19.3333C14.9525 20.903 16.3657 22 18.01 22C19.7684 22 21.2624 20.7455 21.8033 19M14.0001 21.45V19.8277C14.0001 19.4964 14.2687 19.2277 14.6001 19.2277H16.005M7 4.5C7 5.88071 5.88071 7 4.5 7C3.11929 7 2 5.88071 2 4.5C2 3.11929 3.11929 2 4.5 2C5.88071 2 7 3.11929 7 4.5ZM7 19.5C7 20.8807 5.88071 22 4.5 22C3.11929 22 2 20.8807 2 19.5C2 18.1193 3.11929 17 4.5 17C5.88071 17 7 18.1193 7 19.5ZM22 4.5C22 5.88071 20.8807 7 19.5 7C18.1193 7 17 5.88071 17 4.5C17 3.11929 18.1193 2 19.5 2C20.8807 2 22 3.11929 22 4.5Z" stroke="#141C25" stroke-width="1.5" stroke-linecap="round" stroke-linejoin="round"/>
</svg>
