<svg width="24" height="24" viewBox="0 0 24 24" fill="none" xmlns="http://www.w3.org/2000/svg">
<path d="M9.07403 8.66626L9.81944 8.58344L9.81944 8.58344L9.07403 8.66626ZM9.9407 16.4663L10.6861 16.3834L10.6861 16.3834L9.9407 16.4663ZM14.926 8.66626L14.1806 8.58343L14.1806 8.58344L14.926 8.66626ZM13.5046 14.6672C13.4588 15.0789 13.7555 15.4497 14.1672 15.4954C14.5789 15.5412 14.9497 15.2445 14.9954 14.8328L14.25 14.75L13.5046 14.6672ZM11 17.75C11.4142 17.75 11.75 17.4142 11.75 17C11.75 16.5858 11.4142 16.25 11 16.25V17V17.75ZM23.75 19C23.75 18.5858 23.4142 18.25 23 18.25C22.5858 18.25 22.25 18.5858 22.25 19H23H23.75ZM22.25 21C22.25 21.4142 22.5858 21.75 23 21.75C23.4142 21.75 23.75 21.4142 23.75 21H23H22.25ZM15.75 19C15.75 18.5858 15.4142 18.25 15 18.25C14.5858 18.25 14.25 18.5858 14.25 19H15H15.75ZM14.25 21C14.25 21.4142 14.5858 21.75 15 21.75C15.4142 21.75 15.75 21.4142 15.75 21H15H14.25ZM14.3296 8V7.25H9.67036V8V8.75H14.3296V8ZM9.07403 8.66626L8.32862 8.74908L9.19528 16.5491L9.9407 16.4663L10.6861 16.3834L9.81944 8.58344L9.07403 8.66626ZM10.537 17V17.75H11V17V16.25H10.537V17ZM9.67036 8V7.25C8.86574 7.25 8.23976 7.94939 8.32862 8.74908L9.07403 8.66626L9.81944 8.58344C9.82931 8.67229 9.75976 8.75 9.67036 8.75V8ZM14.3296 8V8.75C14.2402 8.75 14.1707 8.67229 14.1806 8.58343L14.926 8.66626L15.6714 8.74908C15.7602 7.94939 15.1343 7.25 14.3296 7.25V8ZM9.9407 16.4663L9.19528 16.5491C9.27125 17.2328 9.84913 17.75 10.537 17.75V17V16.25C10.6135 16.25 10.6777 16.3075 10.6861 16.3834L9.9407 16.4663ZM7 4.5H6.25C6.25 5.4665 5.4665 6.25 4.5 6.25V7V7.75C6.29493 7.75 7.75 6.29493 7.75 4.5H7ZM4.5 7V6.25C3.5335 6.25 2.75 5.4665 2.75 4.5H2H1.25C1.25 6.29493 2.70507 7.75 4.5 7.75V7ZM2 4.5H2.75C2.75 3.5335 3.5335 2.75 4.5 2.75V2V1.25C2.70507 1.25 1.25 2.70507 1.25 4.5H2ZM4.5 2V2.75C5.4665 2.75 6.25 3.5335 6.25 4.5H7H7.75C7.75 2.70507 6.29493 1.25 4.5 1.25V2ZM8.99993 8.00001L9.46039 7.408L4.96039 3.908L4.49993 4.50001L4.03948 5.09202L8.53948 8.59202L8.99993 8.00001ZM9.50012 15.5L9.03161 14.9144L4.03149 18.9143L4.5 19.5L4.96851 20.0857L9.96863 16.0857L9.50012 15.5ZM15 8L15.4605 8.59201L19.9605 5.09201L19.5 4.5L19.0395 3.90799L14.5395 7.40799L15 8ZM7 19.5H6.25C6.25 20.4665 5.4665 21.25 4.5 21.25V22V22.75C6.29493 22.75 7.75 21.2949 7.75 19.5H7ZM4.5 22V21.25C3.5335 21.25 2.75 20.4665 2.75 19.5H2H1.25C1.25 21.2949 2.70507 22.75 4.5 22.75V22ZM2 19.5H2.75C2.75 18.5335 3.5335 17.75 4.5 17.75V17V16.25C2.70507 16.25 1.25 17.7051 1.25 19.5H2ZM4.5 17V17.75C5.4665 17.75 6.25 18.5335 6.25 19.5H7H7.75C7.75 17.7051 6.29493 16.25 4.5 16.25V17ZM22 4.5H21.25C21.25 5.4665 20.4665 6.25 19.5 6.25V7V7.75C21.2949 7.75 22.75 6.29493 22.75 4.5H22ZM19.5 7V6.25C18.5335 6.25 17.75 5.4665 17.75 4.5H17H16.25C16.25 6.29493 17.7051 7.75 19.5 7.75V7ZM17 4.5H17.75C17.75 3.5335 18.5335 2.75 19.5 2.75V2V1.25C17.7051 1.25 16.25 2.70507 16.25 4.5H17ZM19.5 2V2.75C20.4665 2.75 21.25 3.5335 21.25 4.5H22H22.75C22.75 2.70507 21.2949 1.25 19.5 1.25V2ZM23 19H22.25V21H23H23.75V19H23ZM15 19H14.25V21H15H15.75V19H15ZM13 17.6H12.25V22.4H13H13.75V17.6H13ZM13.6 23V23.75H20.4V23V22.25H13.6V23ZM21 22.4H21.75V17.6H21H20.25V22.4H21ZM20.4 17V16.25H13.6V17V17.75H20.4V17ZM21 17.6H21.75C21.75 16.8544 21.1456 16.25 20.4 16.25V17V17.75C20.3172 17.75 20.25 17.6828 20.25 17.6H21ZM20.4 23V23.75C21.1456 23.75 21.75 23.1456 21.75 22.4H21H20.25C20.25 22.3172 20.3172 22.25 20.4 22.25V23ZM13 22.4H12.25C12.25 23.1456 12.8544 23.75 13.6 23.75V23V22.25C13.6828 22.25 13.75 22.3172 13.75 22.4H13ZM13 17.6H13.75C13.75 17.6828 13.6828 17.75 13.6 17.75V17V16.25C12.8544 16.25 12.25 16.8544 12.25 17.6H13ZM14.25 14.75L14.9954 14.8328L15.6714 8.74908L14.926 8.66626L14.1806 8.58344L13.5046 14.6672L14.25 14.75Z" fill="#141C25"/>
</svg>
