<svg width="24" height="24" viewBox="0 0 24 24" fill="none" xmlns="http://www.w3.org/2000/svg">
<path d="M8.99993 8.00001L4.49993 4.50001M9.50012 15.5L4.5 19.5M15 8L19.5 4.5M14.5 15.5L19.5 19.5M10.537 17H13.463C13.7687 17 14.0255 16.7701 14.0593 16.4663L14.926 8.66626C14.9655 8.31084 14.6872 8 14.3296 8H9.67036C9.31275 8 9.03454 8.31084 9.07403 8.66626L9.9407 16.4663C9.97446 16.7701 10.2313 17 10.537 17ZM7 4.5C7 5.88071 5.88071 7 4.5 7C3.11929 7 2 5.88071 2 4.5C2 3.11929 3.11929 2 4.5 2C5.88071 2 7 3.11929 7 4.5ZM7 19.5C7 20.8807 5.88071 22 4.5 22C3.11929 22 2 20.8807 2 19.5C2 18.1193 3.11929 17 4.5 17C5.88071 17 7 18.1193 7 19.5ZM22 4.5C22 5.88071 20.8807 7 19.5 7C18.1193 7 17 5.88071 17 4.5C17 3.11929 18.1193 2 19.5 2C20.8807 2 22 3.11929 22 4.5ZM22 19.5C22 20.8807 20.8807 22 19.5 22C18.1193 22 17 20.8807 17 19.5C17 18.1193 18.1193 17 19.5 17C20.8807 17 22 18.1193 22 19.5Z" stroke="#141C25" stroke-width="1.5" stroke-miterlimit="1.5" stroke-linecap="round" stroke-linejoin="round"/>
</svg>
