<svg width="24" height="24" viewBox="0 0 24 24" fill="none" xmlns="http://www.w3.org/2000/svg">
<path d="M4 19V5C4 3.89543 4.89543 3 6 3H19.4C19.7314 3 20 3.26863 20 3.6V16.7143M4 19C4 20.1046 4.89543 21 6 21H20M4 19C4 17.8954 4.89543 17 6 17H20M13 9C10.9 10.8824 10 14 10 14M12.6677 12.4372L12.8022 12.4246C14.5683 12.2586 15.8589 10.693 15.6847 8.92761L15.43 6.34668C15.4111 6.15523 15.2406 6.01462 15.049 6.03262L12.0634 6.31316C10.3715 6.47213 9.13527 7.97192 9.30214 9.66303C9.469 11.3541 10.9758 12.5962 12.6677 12.4372Z" stroke="#141C25" stroke-width="1.5" stroke-linecap="round" stroke-linejoin="round"/>
</svg>
