<svg width="24" height="24" viewBox="0 0 24 24" fill="none" xmlns="http://www.w3.org/2000/svg">
<path d="M21.75 5C21.75 4.58579 21.4142 4.25 21 4.25C20.5858 4.25 20.25 4.58579 20.25 5H21H21.75ZM20.25 9C20.25 9.41421 20.5858 9.75 21 9.75C21.4142 9.75 21.75 9.41421 21.75 9H21H20.25ZM11.8223 11.3642C12.0234 11.0021 11.893 10.5455 11.5309 10.3444C11.1688 10.1432 10.7122 10.2737 10.511 10.6358L11.1667 11L11.8223 11.3642ZM9.5 14L8.84438 13.6358C8.71533 13.8681 8.71883 14.1513 8.8536 14.3803C8.98836 14.6094 9.23426 14.75 9.5 14.75V14ZM13.5 14L14.1556 14.3642C14.2847 14.1319 14.2812 13.8487 14.1464 13.6197C14.0116 13.3906 13.7657 13.25 13.5 13.25V14ZM11.1777 16.6358C10.9766 16.9979 11.107 17.4545 11.4691 17.6556C11.8312 17.8568 12.2878 17.7263 12.489 17.3642L11.8333 17L11.1777 16.6358ZM21 5H20.25V9H21H21.75V5H21ZM5 9H4.25V19H5H5.75V9H5ZM7 21V21.75H16V21V20.25H7V21ZM18 19H18.75V9H18H17.25V19H18ZM16 7V6.25H7V7V7.75H16V7ZM18 9H18.75C18.75 7.48122 17.5188 6.25 16 6.25V7V7.75C16.6904 7.75 17.25 8.30964 17.25 9H18ZM16 21V21.75C17.5188 21.75 18.75 20.5188 18.75 19H18H17.25C17.25 19.6904 16.6904 20.25 16 20.25V21ZM5 19H4.25C4.25 20.5188 5.48122 21.75 7 21.75V21V20.25C6.30964 20.25 5.75 19.6904 5.75 19H5ZM5 9H5.75C5.75 8.30964 6.30964 7.75 7 7.75V7V6.25C5.48122 6.25 4.25 7.48122 4.25 9H5ZM5 5H4.25V10H5H5.75V5H5ZM18 10H18.75V5H18H17.25V10H18ZM16 3V2.25H7V3V3.75H16V3ZM18 5H18.75C18.75 3.48122 17.5188 2.25 16 2.25V3V3.75C16.6904 3.75 17.25 4.30964 17.25 5H18ZM5 5H5.75C5.75 4.30964 6.30964 3.75 7 3.75V3V2.25C5.48122 2.25 4.25 3.48122 4.25 5H5ZM11.1667 11L10.511 10.6358L8.84438 13.6358L9.5 14L10.1556 14.3642L11.8223 11.3642L11.1667 11ZM9.5 14V14.75H13.5V14V13.25H9.5V14ZM13.5 14L12.8444 13.6358L11.1777 16.6358L11.8333 17L12.489 17.3642L14.1556 14.3642L13.5 14Z" fill="#141C25"/>
</svg>
