<svg width="24" height="24" viewBox="0 0 24 24" fill="none" xmlns="http://www.w3.org/2000/svg">
<path d="M9 21H4C2.89543 21 2 20.1046 2 19V5C2 3.89543 2.89543 3 4 3H20C21.1046 3 22 3.89543 22 5V11M12 21V16.3615C12 15.8518 12.1003 15.3624 12.2845 14.9077M14.2222 12.7345C15.0167 12.2705 15.9721 12 17 12C19.2795 12 21.2027 13.3306 21.8046 15.15M22 17.8154V21M19 22V16.8529C19 15.8296 18.1046 15 17 15C15.8954 15 15 15.8296 15 16.8529V17.6471M15 19.8235V22M2 7H22M5 5.01L5.01 4.99889M8 5.01L8.01 4.99889M11 5.01L11.01 4.99889" stroke="#141C25" stroke-width="1.5" stroke-linecap="round" stroke-linejoin="round"/>
</svg>
