<svg width="24" height="24" viewBox="0 0 24 24" fill="none" xmlns="http://www.w3.org/2000/svg">
<path d="M7 16V11.3615C7 10.8518 7.10026 10.3624 7.28451 9.90769M9.22222 7.73446C10.0167 7.27055 10.9721 7 12 7C14.2795 7 16.2027 8.33062 16.8046 10.15M17 12.8154V16M14 17V11.8529C14 10.8296 13.1046 10 12 10C10.8954 10 10 10.8296 10 11.8529V12.6471M10 14.8235V17M21 20.4V3.6C21 3.26863 20.7314 3 20.4 3H3.6C3.26863 3 3 3.26863 3 3.6V20.4C3 20.7314 3.26863 21 3.6 21H20.4C20.7314 21 21 20.7314 21 20.4Z" stroke="#141C25" stroke-width="1.5" stroke-linecap="round" stroke-linejoin="round"/>
</svg>
