<svg width="24" height="24" viewBox="0 0 24 24" fill="none" xmlns="http://www.w3.org/2000/svg">
<path d="M7 3.51555C8.4301 2.55827 10.1499 2 12 2C16.1031 2 19.5649 4.74572 20.6482 8.5M21 14V22M3 22V11C3 9.94809 3.18046 8.93834 3.51212 8M18 22V11.3C18 7.82061 15.3137 5 12 5C8.68629 5 6 7.82061 6 11.3V14M6 18V22M9 22V11.15C9 9.4103 10.3431 8 12 8C12.8653 8 13.645 8.38466 14.1926 9M15 14V22M12 18.5V22M12 11V14" stroke="#141C25" stroke-width="1.5" stroke-linecap="round" stroke-linejoin="round"/>
</svg>
