<svg width="24" height="24" viewBox="0 0 24 24" fill="none" xmlns="http://www.w3.org/2000/svg">
<path d="M18.5 15.7501C18.9142 15.7501 19.25 15.4143 19.25 15.0001C19.25 14.5859 18.9142 14.2501 18.5 14.2501V15.0001V15.7501ZM16 4.75013C16.4142 4.75013 16.75 4.41435 16.75 4.00013C16.75 3.58592 16.4142 3.25013 16 3.25013V4.00013V4.75013ZM8 3.25013C7.58579 3.25013 7.25 3.58592 7.25 4.00013C7.25 4.41435 7.58579 4.75013 8 4.75013V4.00013V3.25013ZM3 19.0001H2.25H3ZM3.48149 17.4384L4.05093 17.9265L4.05093 17.9265L3.48149 17.4384ZM8.51851 11.5619L7.94907 11.0738L7.94907 11.0738L8.51851 11.5619ZM9.75 4.50013C9.75 4.08592 9.41421 3.75013 9 3.75013C8.58579 3.75013 8.25 4.08592 8.25 4.50013H9H9.75ZM15.75 4.50013C15.75 4.08592 15.4142 3.75013 15 3.75013C14.5858 3.75013 14.25 4.08592 14.25 4.50013H15H15.75ZM15.4815 11.5619L14.912 12.05L14.912 12.05L15.4815 11.5619ZM20.5185 17.4384L19.9491 17.9265L19.9491 17.9265L20.5185 17.4384ZM11.4425 8.50841C11.1654 8.81629 11.1904 9.29051 11.4983 9.5676C11.8062 9.8447 12.2804 9.81974 12.5575 9.51186L12 9.01013L11.4425 8.50841ZM12.5675 9.50075C12.8446 9.19287 12.8196 8.71865 12.5117 8.44156C12.2038 8.16446 11.7296 8.18942 11.4525 8.4973L12.01 8.99902L12.5675 9.50075ZM10.4425 1.5084C10.1654 1.81628 10.1904 2.2905 10.4983 2.5676C10.8061 2.8447 11.2804 2.81974 11.5575 2.51186L11 2.01013L10.4425 1.5084ZM11.5675 2.50075C11.8446 2.19287 11.8196 1.71866 11.5117 1.44156C11.2039 1.16446 10.7296 1.18941 10.4525 1.49729L11.01 1.99902L11.5675 2.50075ZM18.5 15.0001V14.2501H5.5V15.0001V15.7501H18.5V15.0001ZM16 4.00013V3.25013H8V4.00013V4.75013H16V4.00013ZM19 21.0001V20.2501H5V21.0001V21.7501H19V21.0001ZM3 19.0001H3.75V18.74H3H2.25V19.0001H3ZM3.48149 17.4384L4.05093 17.9265L9.08796 12.05L8.51851 11.5619L7.94907 11.0738L2.91204 16.9503L3.48149 17.4384ZM9 10.2603H9.75V4.50013H9H8.25V10.2603H9ZM15 4.50013H14.25V10.2603H15H15.75V4.50013H15ZM15.4815 11.5619L14.912 12.05L19.9491 17.9265L20.5185 17.4384L21.088 16.9503L16.0509 11.0738L15.4815 11.5619ZM21 18.74H20.25V19.0001H21H21.75V18.74H21ZM20.5185 17.4384L19.9491 17.9265C20.1433 18.153 20.25 18.4416 20.25 18.74H21H21.75C21.75 18.0835 21.5152 17.4487 21.088 16.9503L20.5185 17.4384ZM8.51851 11.5619L9.08796 12.05C9.51517 11.5515 9.75 10.9167 9.75 10.2603H9H8.25C8.25 10.5587 8.14326 10.8472 7.94907 11.0738L8.51851 11.5619ZM3 18.74H3.75C3.75 18.4416 3.85674 18.153 4.05093 17.9265L3.48149 17.4384L2.91204 16.9503C2.48483 17.4487 2.25 18.0835 2.25 18.74H3ZM15 10.2603H14.25C14.25 10.9167 14.4848 11.5515 14.912 12.05L15.4815 11.5619L16.0509 11.0738C15.8567 10.8472 15.75 10.5587 15.75 10.2603H15ZM5 21.0001V20.2501C4.30964 20.2501 3.75 19.6905 3.75 19.0001H3H2.25C2.25 20.5189 3.48122 21.7501 5 21.7501V21.0001ZM19 21.0001V21.7501C20.5188 21.7501 21.75 20.5189 21.75 19.0001H21H20.25C20.25 19.6905 19.6904 20.2501 19 20.2501V21.0001ZM12 9.01013L12.5575 9.51186L12.5675 9.50075L12.01 8.99902L11.4525 8.4973L11.4425 8.50841L12 9.01013ZM11 2.01013L11.5575 2.51186L11.5675 2.50075L11.01 1.99902L10.4525 1.49729L10.4425 1.5084L11 2.01013Z" fill="#141C25"/>
</svg>
