<svg width="24" height="24" viewBox="0 0 24 24" fill="none" xmlns="http://www.w3.org/2000/svg">
<path d="M4.11531 14.015C3.95712 15.3856 3.95975 16.6716 4.01186 17.6796C4.07722 18.9441 5.05594 19.9228 6.32038 19.9881C7.32837 20.0402 8.61441 20.0429 9.98496 19.8847M4.11531 14.015C4.39362 11.6037 5.16975 8.93076 7.05013 7.05038C8.93051 5.17 11.6035 4.39386 14.0148 4.11555M4.11531 14.015L9.98496 19.8847M9.98496 19.8847C12.3963 19.6064 15.0692 18.8303 16.9496 16.9499C18.83 15.0695 19.6061 12.3966 19.8845 9.9852M14.0148 4.11555C15.3854 3.95737 16.6714 3.96 17.6794 4.0121C18.9438 4.07747 19.9225 5.05619 19.9879 6.32062C20.04 7.32861 20.0426 8.61465 19.8845 9.9852M14.0148 4.11555L19.8845 9.9852M9.17145 14.8286L10.5857 13.4143M10.5857 13.4143L9.17145 12.0001M10.5857 13.4143L11.9999 14.8286M10.5857 13.4143L13.4141 10.5859M13.4141 10.5859L14.8283 9.1717M13.4141 10.5859L11.9999 9.1717M13.4141 10.5859L14.8283 12.0001" stroke="#141C25" stroke-width="1.5" stroke-linecap="round" stroke-linejoin="round"/>
</svg>
