<svg width="24" height="24" viewBox="0 0 24 24" fill="none" xmlns="http://www.w3.org/2000/svg">
<path d="M20.4978 5.00049V10.503M3.5 5.00049V10.503M20.4978 13.5015V19.004M3.5 13.5015V19.004M4.99902 20.5015H10.4999M4.99902 3.50342H10.4999M13.498 20.499H18.9989M13.498 3.50098H18.9989M2 2.00098H4.9984V4.99938H2V2.00098ZM2 10.502H4.9984V13.5004H2V10.502ZM2 19.001H4.9984V21.9994H2V19.001ZM18.999 2.00195H21.9974V5.00035H18.999V2.00195ZM10.499 2H13.4974V4.9984H10.499V2ZM18.999 10.5029H21.9974V13.5013H18.999V10.5029ZM18.999 19.002H21.9974V22.0004H18.999V19.002ZM10.499 19H13.4974V21.9984H10.499V19Z" stroke="#141C25" stroke-width="1.5" stroke-miterlimit="1.5" stroke-linecap="round" stroke-linejoin="round"/>
</svg>
