<svg width="24" height="24" viewBox="0 0 24 24" fill="none" xmlns="http://www.w3.org/2000/svg">
<path d="M17.5 17.5C20 21 23.9487 18.4151 23 15C21.5754 9.87113 20.8002 7.01556 20.3969 5.50793C20.1598 4.62136 19.3562 4 18.4385 4H5.56161C4.64388 4 3.84406 4.62481 3.62092 5.515C2.78156 8.86349 2.03266 11.8016 1.14421 15C0.195562 18.4151 4.14421 21 6.64421 17.5M18.0001 8.5L18.0112 8.51M16.49 7L16.5012 7.01M16.49 10L16.5012 10.01M15.0001 8.5L15.0112 8.51M7.00004 7V10M5.50004 8.5H8.50004M10 14C10 15.1046 9.10461 16 8.00004 16C6.89547 16 6.00004 15.1046 6.00004 14C6.00004 12.8954 6.89547 12 8.00004 12C9.10461 12 10 12.8954 10 14ZM18 14C18 15.1046 17.1046 16 16 16C14.8955 16 14 15.1046 14 14C14 12.8954 14.8955 12 16 12C17.1046 12 18 12.8954 18 14Z" stroke="#141C25" stroke-width="1.5" stroke-linecap="round" stroke-linejoin="round"/>
</svg>
