<svg width="24" height="24" viewBox="0 0 24 24" fill="none" xmlns="http://www.w3.org/2000/svg">
<path d="M18 16.9999C16.8954 16.9999 16 17.8953 16 18.9999C16 20.1044 16.8954 20.9999 18 20.9999C19.1046 20.9999 20 20.1044 20 18.9999C20 17.8953 19.1046 16.9999 18 16.9999ZM18 16.9999V6.99988C18 6.99988 18 4.99988 16 4.99988H13M6 6.99988C7.10457 6.99988 8 6.10445 8 4.99988C8 3.89531 7.10457 2.99988 6 2.99988C4.89543 2.99988 4 3.89531 4 4.99988C4 6.10445 4.89543 6.99988 6 6.99988ZM6 6.99988V16.9999M6 16.9999C4.89543 16.9999 4 17.8953 4 18.9999C4 20.1044 4.89543 20.9999 6 20.9999C7.10457 20.9999 8 20.1044 8 18.9999C8 17.8953 7.10457 16.9999 6 16.9999ZM15.0005 7.5L12.5005 5L15.0005 2.5" stroke="#141C25" stroke-width="1.5" stroke-linecap="round" stroke-linejoin="round"/>
</svg>
