<svg width="24" height="24" viewBox="0 0 24 24" fill="none" xmlns="http://www.w3.org/2000/svg">
<path d="M9.14286 3.00375L14.8571 3M9.14286 3.00375L2 15.0038M9.14286 3.00375L12.0004 8.53976M14.8571 3L12.0004 8.53976M14.8571 3L20.2126 12M5.575 21L2 15.0038M5.575 21L8.66711 15.0038M5.575 21H12.0036M2 15.0038H8.66711M12.0004 8.53976L8.66711 15.0038M12.0004 8.53976L14.0446 12.5M8.66711 15.0038H12.5M22.6663 17.6667C22.0476 16.097 20.6344 15 18.9901 15C17.2317 15 15.7376 16.2545 15.1967 18M23 15.55V17.1722C23 17.5036 22.7314 17.7722 22.4 17.7722H20.9951M15.3337 20.3333C15.9524 21.903 17.3656 23 19.0099 23C20.7683 23 22.2624 21.7455 22.8033 20M15 22.45V20.8278C15 20.4964 15.2686 20.2278 15.6 20.2278H17.0049" stroke="#141C25" stroke-width="1.5" stroke-linecap="round" stroke-linejoin="round"/>
</svg>
