<svg width="24" height="24" viewBox="0 0 24 24" fill="none" xmlns="http://www.w3.org/2000/svg">
<path d="M11 5.00007V19.0001C11 20.1046 11.8954 21.0001 13 21.0001C14.1046 21.0001 15 20.1046 15 19.0001V5.00007C15 3.8955 14.1046 3.00007 13 3.00007C11.8954 3.00007 11 3.8955 11 5.00007Z" stroke="#141C25" stroke-width="1.5" stroke-linecap="round" stroke-linejoin="round"/>
<path d="M11.6396 3.52924L6.74732 8.17188C5.94609 8.93221 5.91294 10.1981 6.67328 10.9993C7.43361 11.8006 8.69951 11.8337 9.50074 11.0734L14.3931 6.43073C15.1943 5.6704 15.2274 4.4045 14.4671 3.60327C13.7068 2.80205 12.4409 2.7689 11.6396 3.52924Z" stroke="#141C25" stroke-width="1.5" stroke-linecap="round" stroke-linejoin="round"/>
</svg>
