<svg width="24" height="24" viewBox="0 0 24 24" fill="none" xmlns="http://www.w3.org/2000/svg">
<path d="M7 10L15 10M6 14H7M15 14H16M2 18V20.4C2 20.7314 2.26863 21 2.6 21H5.4C5.73137 21 6 20.7314 6 20.4V18M2 18H6M2 18V11.4105C2 11.1397 2.05502 10.8716 2.16171 10.6227L4.4805 5.21216C4.79566 4.47679 5.51874 4 6.31879 4H15.6812C16.4813 4 17.2043 4.47679 17.5195 5.21216L19.8383 10.6227C19.945 10.8716 20 11.1397 20 11.4105V12.5M6 18H13M20 18C17.9 19.8824 17 23 17 23M19.6677 21.4372L19.8022 21.4245C21.5683 21.2586 22.8589 19.6929 22.6847 17.9276L22.43 15.3466C22.4111 15.1552 22.2406 15.0146 22.049 15.0326L19.0634 15.3131C17.3715 15.4721 16.1353 16.9719 16.3021 18.663C16.469 20.3541 17.9758 21.5961 19.6677 21.4372Z" stroke="#141C25" stroke-width="1.5" stroke-linecap="round" stroke-linejoin="round"/>
</svg>
