<svg width="24" height="24" viewBox="0 0 24 24" fill="none" xmlns="http://www.w3.org/2000/svg">
<path d="M6.44279 15.508C6.16554 15.8157 6.19025 16.29 6.49799 16.5672C6.80573 16.8445 7.27996 16.8198 7.55721 16.512L7 16.01L6.44279 15.508ZM7.56721 16.5009C7.84446 16.1932 7.81975 15.7189 7.51201 15.4417C7.20427 15.1644 6.73004 15.1891 6.45279 15.4969L7.01 15.9989L7.56721 16.5009ZM21 12.75C21.4142 12.75 21.75 12.4142 21.75 12C21.75 11.5858 21.4142 11.25 21 11.25V12V12.75ZM3 12V11.25C2.58579 11.25 2.25 11.5858 2.25 12H3ZM13 20.75C13.4142 20.75 13.75 20.4142 13.75 20C13.75 19.5858 13.4142 19.25 13 19.25V20V20.75ZM16.2794 22.792C16.1645 23.1899 16.394 23.6057 16.792 23.7206C17.1899 23.8355 17.6057 23.606 17.7206 23.208L17 23L16.2794 22.792ZM20.5006 18.5585C20.809 18.282 20.835 17.8078 20.5585 17.4994C20.282 17.191 19.8078 17.165 19.4994 17.4415L20 18L20.5006 18.5585ZM19.8022 21.4245L19.7321 20.6778L19.7317 20.6778L19.8022 21.4245ZM19.6677 21.4372L19.7378 22.1839L19.7382 22.1839L19.6677 21.4372ZM16.3021 18.663L15.5557 18.7366L15.5557 18.7367L16.3021 18.663ZM19.0634 15.3131L18.9932 14.5664L18.9932 14.5664L19.0634 15.3131ZM22.049 15.0326L21.9788 14.2859L21.9788 14.2859L22.049 15.0326ZM22.43 15.3466L23.1764 15.2729L23.1764 15.2729L22.43 15.3466ZM22.6847 17.9276L23.4311 17.8539L23.4311 17.8539L22.6847 17.9276ZM20.25 8C20.25 8.41421 20.5858 8.75 21 8.75C21.4142 8.75 21.75 8.41421 21.75 8H21H20.25ZM2.25 8C2.25 8.41421 2.58579 8.75 3 8.75C3.41421 8.75 3.75 8.41421 3.75 8H3H2.25ZM7 7.25C6.58579 7.25 6.25 7.58579 6.25 8C6.25 8.41421 6.58579 8.75 7 8.75V8V7.25ZM17 8.75C17.4142 8.75 17.75 8.41421 17.75 8C17.75 7.58579 17.4142 7.25 17 7.25V8V8.75ZM5.25 20C5.25 19.5858 4.91421 19.25 4.5 19.25C4.08579 19.25 3.75 19.5858 3.75 20H4.5H5.25ZM9.25 20C9.25 19.5858 8.91421 19.25 8.5 19.25C8.08579 19.25 7.75 19.5858 7.75 20H8.5H9.25ZM7 16.01L7.55721 16.512L7.56721 16.5009L7.01 15.9989L6.45279 15.4969L6.44279 15.508L7 16.01ZM21 12V11.25H3V12V12.75H21V12ZM3 12H2.25V19H3H3.75V12H3ZM3 19H2.25C2.25 19.9665 3.03352 20.75 4 20.75V20V19.25C3.86192 19.25 3.75 19.1381 3.75 19H3ZM4 20V20.75H13V20V19.25H4V20ZM17 23C17.7206 23.208 17.7205 23.2082 17.7205 23.2083C17.7205 23.2083 17.7204 23.2085 17.7204 23.2085C17.7204 23.2086 17.7204 23.2087 17.7204 23.2088C17.7203 23.2088 17.7204 23.2087 17.7205 23.2084C17.7207 23.2077 17.7211 23.2064 17.7217 23.2043C17.7229 23.2001 17.725 23.1931 17.728 23.1833C17.734 23.1638 17.7434 23.1332 17.7565 23.0928C17.7826 23.0119 17.823 22.8916 17.8781 22.7402C17.9886 22.4369 18.1574 22.0117 18.3885 21.5307C18.8559 20.5579 19.5545 19.4066 20.5006 18.5585L20 18L19.4994 17.4415C18.3455 18.4758 17.5441 19.8245 17.0365 20.8811C16.7801 21.4148 16.5926 21.8867 16.4687 22.2267C16.4067 22.397 16.3604 22.535 16.3291 22.6319C16.3134 22.6804 16.3015 22.7187 16.2932 22.7457C16.2891 22.7592 16.2859 22.7699 16.2836 22.7777C16.2825 22.7816 16.2815 22.7847 16.2808 22.7871C16.2805 22.7883 16.2802 22.7893 16.28 22.7901C16.2798 22.7905 16.2797 22.7909 16.2797 22.7912C16.2796 22.7913 16.2796 22.7915 16.2795 22.7916C16.2795 22.7918 16.2794 22.792 17 23ZM19.8022 21.4245L19.7317 20.6778L19.5972 20.6905L19.6677 21.4372L19.7382 22.1839L19.8727 22.1712L19.8022 21.4245ZM19.6677 21.4372L19.5976 20.6905C18.3167 20.8108 17.1748 19.8696 17.0485 18.5893L16.3021 18.663L15.5557 18.7367C15.7632 20.8386 17.6349 22.3814 19.7378 22.1839L19.6677 21.4372ZM16.3021 18.663L17.0485 18.5894C16.9225 17.3118 17.8554 16.1799 19.1336 16.0598L19.0634 15.3131L18.9932 14.5664C16.8876 14.7643 15.3481 16.632 15.5557 18.7366L16.3021 18.663ZM19.0634 15.3131L19.1336 16.0598L22.1192 15.7793L22.049 15.0326L21.9788 14.2859L18.9932 14.5664L19.0634 15.3131ZM22.049 15.0326L22.1192 15.7793C21.8997 15.7999 21.7053 15.6397 21.6836 15.4203L22.43 15.3466L23.1764 15.2729C23.1169 14.6707 22.5815 14.2293 21.9788 14.2859L22.049 15.0326ZM22.43 15.3466L21.6836 15.4203L21.9383 18.0013L22.6847 17.9276L23.4311 17.8539L23.1764 15.2729L22.43 15.3466ZM22.6847 17.9276L21.9383 18.0013C22.0717 19.353 21.0844 20.5508 19.7321 20.6778L19.8022 21.4245L19.8723 22.1712C22.0522 21.9664 23.6461 20.0328 23.4311 17.8539L22.6847 17.9276ZM21 8H21.75V6H21H20.25V8H21ZM21 6H21.75C21.75 3.37664 19.6233 1.25 17 1.25V2V2.75C18.7949 2.75 20.25 4.20508 20.25 6H21ZM17 2V1.25H7V2V2.75H17V2ZM7 2V1.25C4.37665 1.25 2.25 3.37665 2.25 6H3H3.75C3.75 4.20507 5.20507 2.75 7 2.75V2ZM3 6H2.25V8H3H3.75V6H3ZM7 8V8.75H17V8V7.25H7V8ZM4.5 20H3.75V21.9H4.5H5.25V20H4.5ZM4.5 21.9H3.75C3.75 22.6456 4.35444 23.25 5.1 23.25V22.5V21.75C5.18282 21.75 5.25 21.8172 5.25 21.9H4.5ZM5.1 22.5V23.25H7.9V22.5V21.75H5.1V22.5ZM7.9 22.5V23.25C8.64556 23.25 9.25 22.6456 9.25 21.9H8.5H7.75C7.75 21.8172 7.81718 21.75 7.9 21.75V22.5ZM8.5 21.9H9.25V20H8.5H7.75V21.9H8.5Z" fill="#141C25"/>
</svg>
