<svg width="24" height="24" viewBox="0 0 24 24" fill="none" xmlns="http://www.w3.org/2000/svg">
<path d="M4.65 15H2.6C2.26863 15 2 14.7314 2 14.4V4.6C2 4.26863 2.26863 4 2.6 4H13.4C13.7314 4 14 4.26863 14 4.6V15H9.05005M14 7H19.6101C19.8472 7 20.0621 7.13964 20.1584 7.35632L21.4483 10.2586C21.4824 10.3354 21.5 10.4184 21.5 10.5023V12M20 18C17.9 19.8824 17 23 17 23M9 15C9 16.1046 8.10457 17 7 17C5.89543 17 5 16.1046 5 15C5 13.8954 5.89543 13 7 13C8.10457 13 9 13.8954 9 15ZM19.6677 21.4372L19.8022 21.4245C21.5683 21.2586 22.8589 19.6929 22.6847 17.9276L22.43 15.3466C22.4111 15.1552 22.2406 15.0146 22.049 15.0326L19.0634 15.3131C17.3715 15.4721 16.1353 16.9719 16.3021 18.663C16.469 20.3541 17.9758 21.5961 19.6677 21.4372Z" stroke="#141C25" stroke-width="1.5" stroke-linecap="round" stroke-linejoin="round"/>
</svg>
