<svg width="24" height="24" viewBox="0 0 24 24" fill="none" xmlns="http://www.w3.org/2000/svg">
<path d="M13.9922 17H16.9922M16.9922 17H19.9922M16.9922 17V14M16.9922 17V20M4 4.6V9.4C4 9.73137 4.26863 10 4.6 10H9.4C9.73137 10 10 9.73137 10 9.4V4.6C10 4.26863 9.73137 4 9.4 4H4.6C4.26863 4 4 4.26863 4 4.6ZM4 14.6V19.4C4 19.7314 4.26863 20 4.6 20H9.4C9.73137 20 10 19.7314 10 19.4V14.6C10 14.2686 9.73137 14 9.4 14H4.6C4.26863 14 4 14.2686 4 14.6ZM14 4.6V9.4C14 9.73137 14.2686 10 14.6 10H19.4C19.7314 10 20 9.73137 20 9.4V4.6C20 4.26863 19.7314 4 19.4 4H14.6C14.2686 4 14 4.26863 14 4.6Z" stroke="#97A1AF" stroke-width="1.5" stroke-linecap="round" stroke-linejoin="round"/>
</svg>
