<svg width="24" height="24" viewBox="0 0 24 24" fill="none" xmlns="http://www.w3.org/2000/svg">
<path d="M16 12H8M4.6 7H7.4C7.73137 7 8 7.26863 8 7.6V16.4C8 16.7314 7.73137 17 7.4 17H4.6C4.26863 17 4 16.7314 4 16.4V7.6C4 7.26863 4.26863 7 4.6 7ZM16.6 7H19.4C19.7314 7 20 7.26863 20 7.6V16.4C20 16.7314 19.7314 17 19.4 17H16.6C16.2686 17 16 16.7314 16 16.4V7.6C16 7.26863 16.2686 7 16.6 7ZM1 9.6V14.4C1 14.7314 1.26863 15 1.6 15H3.4C3.73137 15 4 14.7314 4 14.4V9.6C4 9.26863 3.73137 9 3.4 9H1.6C1.26863 9 1 9.26863 1 9.6ZM23 9.6V14.4C23 14.7314 22.7314 15 22.4 15H20.6C20.2686 15 20 14.7314 20 14.4V9.6C20 9.26863 20.2686 9 20.6 9H22.4C22.7314 9 23 9.26863 23 9.6Z" stroke="#141C25" stroke-width="1.5" stroke-linecap="round" stroke-linejoin="round"/>
</svg>
