<svg width="24" height="24" viewBox="0 0 24 24" fill="none" xmlns="http://www.w3.org/2000/svg">
<path d="M21.8 14C20.8734 18.5645 16.8379 22 12 22C6.47715 22 2 17.5228 2 12C2 6.81465 5.94668 2.5511 11 2.04938M7 15.01L7.01 14.9989M17 15.01L17.01 14.9989M11 12.01L11.01 11.9989M21 9.01L21.01 8.99889M17 6.01L17.01 5.99889M21.6999 14.0136C20.5 14.5 18 14 18 11.5C13.0001 12 11.0001 8.5 13.0856 5C11.5 5 10.5001 3.5 11.0001 2M6 9.5C6 9.77614 6.22386 10 6.5 10C6.77614 10 7 9.77614 7 9.5C7 9.22386 6.77614 9 6.5 9C6.22386 9 6 9.22386 6 9.5ZM20 3.5C20 3.77614 20.2239 4 20.5 4C20.7761 4 21 3.77614 21 3.5C21 3.22386 20.7761 3 20.5 3C20.2239 3 20 3.22386 20 3.5ZM11 18C11 18.5523 11.4477 19 12 19C12.5523 19 13 18.5523 13 18C13 17.4477 12.5523 17 12 17C11.4477 17 11 17.4477 11 18Z" stroke="#141C25" stroke-width="1.5" stroke-linecap="round" stroke-linejoin="round"/>
</svg>
