<svg width="24" height="24" viewBox="0 0 24 24" fill="none" xmlns="http://www.w3.org/2000/svg">
<path d="M6.75 8.5C6.75 8.08579 6.41421 7.75 6 7.75C5.58579 7.75 5.25 8.08579 5.25 8.5H6H6.75ZM5.25 15.5C5.25 15.9142 5.58579 16.25 6 16.25C6.41421 16.25 6.75 15.9142 6.75 15.5H6H5.25ZM11.25 8.5C11.25 8.08579 10.9142 7.75 10.5 7.75C10.0858 7.75 9.75 8.08579 9.75 8.5H10.5H11.25ZM9.75 15.5C9.75 15.9142 10.0858 16.25 10.5 16.25C10.9142 16.25 11.25 15.9142 11.25 15.5H10.5H9.75ZM14 8.5V7.75C13.5858 7.75 13.25 8.08579 13.25 8.5H14ZM14 15.5H13.25C13.25 15.9142 13.5858 16.25 14 16.25V15.5ZM6 8.5H5.25V12H6H6.75V8.5H6ZM6 15.5H6.75V12H6H5.25V15.5H6ZM6 12V12.75H10.5V12V11.25H6V12ZM10.5 12H11.25V8.5H10.5H9.75V12H10.5ZM10.5 12H9.75V15.5H10.5H11.25V12H10.5ZM14 8.5V9.25C15.3045 9.25 16.3653 9.2648 17.1203 9.61714C17.4642 9.77763 17.7273 10.0035 17.9147 10.3408C18.1085 10.6896 18.25 11.21 18.25 12H19H19.75C19.75 11.04 19.579 10.2479 19.2259 9.61233C18.8664 8.96522 18.3483 8.53487 17.7547 8.25786C16.6347 7.7352 15.1955 7.75 14 7.75V8.5ZM19 12H18.25C18.25 12.79 18.1085 13.3104 17.9147 13.6592C17.7273 13.9965 17.4642 14.2224 17.1203 14.3829C16.3653 14.7352 15.3045 14.75 14 14.75V15.5V16.25C15.1955 16.25 16.6347 16.2648 17.7547 15.7421C18.3483 15.4651 18.8664 15.0348 19.2259 14.3877C19.579 13.7521 19.75 12.96 19.75 12H19ZM1 15H1.75V9H1H0.25V15H1ZM1 9H1.75C1.75 6.1005 4.1005 3.75 7 3.75V3V2.25C3.27208 2.25 0.25 5.27208 0.25 9H1ZM7 3V3.75H17V3V2.25H7V3ZM17 3V3.75C19.8995 3.75 22.25 6.1005 22.25 9H23H23.75C23.75 5.27208 20.7279 2.25 17 2.25V3ZM23 9H22.25V15H23H23.75V9H23ZM23 15H22.25C22.25 17.8995 19.8995 20.25 17 20.25V21V21.75C20.7279 21.75 23.75 18.7279 23.75 15H23ZM17 21V20.25H7V21V21.75H17V21ZM7 21V20.25C4.1005 20.25 1.75 17.8995 1.75 15H1H0.25C0.25 18.7279 3.27208 21.75 7 21.75V21ZM14 15.5H14.75V8.5H14H13.25V15.5H14Z" fill="#141C25"/>
</svg>
