<svg width="24" height="24" viewBox="0 0 24 24" fill="none" xmlns="http://www.w3.org/2000/svg">
<path d="M3.25 11C3.25 11.4142 3.58579 11.75 4 11.75C4.41421 11.75 4.75 11.4142 4.75 11H4H3.25ZM19.25 11C19.25 11.4142 19.5858 11.75 20 11.75C20.4142 11.75 20.75 11.4142 20.75 11H20H19.25ZM3.51493 17.3787L3.33303 18.1063L3.33303 18.1063L3.51493 17.3787ZM5.25448 17.8136L5.43638 17.086L5.43638 17.086L5.25448 17.8136ZM5.25448 11.1864L5.07258 10.4588L5.07258 10.4588L5.25448 11.1864ZM3.51493 11.6213L3.69683 12.3489L3.69683 12.3489L3.51493 11.6213ZM20.4851 17.3787L20.667 18.1063L20.667 18.1063L20.4851 17.3787ZM18.7455 17.8136L18.5636 17.086L18.5636 17.086L18.7455 17.8136ZM4 11H4.75C4.75 6.99594 7.99594 3.75 12 3.75V3V2.25C7.16751 2.25 3.25 6.16751 3.25 11H4ZM12 3V3.75C16.0041 3.75 19.25 6.99594 19.25 11H20H20.75C20.75 6.16751 16.8325 2.25 12 2.25V3ZM2 13.5616H1.25V15.4384H2H2.75V13.5616H2ZM3.51493 17.3787L3.33303 18.1063L5.07258 18.5412L5.25448 17.8136L5.43638 17.086L3.69683 16.6511L3.51493 17.3787ZM6 17.2315H6.75V11.7685H6H5.25V17.2315H6ZM5.25448 11.1864L5.07258 10.4588L3.33303 10.8937L3.51493 11.6213L3.69683 12.3489L5.43638 11.914L5.25448 11.1864ZM6 11.7685H6.75C6.75 10.8902 5.92462 10.2458 5.07258 10.4588L5.25448 11.1864L5.43638 11.914C5.34171 11.9377 5.25 11.8661 5.25 11.7685H6ZM5.25448 17.8136L5.07258 18.5412C5.92463 18.7542 6.75 18.1098 6.75 17.2315H6H5.25C5.25 17.1339 5.34171 17.0623 5.43638 17.086L5.25448 17.8136ZM2 15.4384H1.25C1.25 16.7003 2.10882 17.8003 3.33303 18.1063L3.51493 17.3787L3.69683 16.6511C3.14037 16.512 2.75 16.012 2.75 15.4384H2ZM2 13.5616H2.75C2.75 12.988 3.14037 12.488 3.69683 12.3489L3.51493 11.6213L3.33303 10.8937C2.10882 11.1997 1.25 12.2997 1.25 13.5616H2ZM22 13.5616H21.25V15.4384H22H22.75V13.5616H22ZM20.4851 17.3787L20.3032 16.6511L18.5636 17.086L18.7455 17.8136L18.9274 18.5412L20.667 18.1063L20.4851 17.3787ZM18 17.2315H18.75V11.7685H18H17.25V17.2315H18ZM18.7455 11.1864L18.5636 11.914L20.3032 12.3489L20.4851 11.6213L20.667 10.8937L18.9274 10.4588L18.7455 11.1864ZM18 11.7685H18.75C18.75 11.8661 18.6583 11.9377 18.5636 11.914L18.7455 11.1864L18.9274 10.4588C18.0754 10.2458 17.25 10.8902 17.25 11.7685H18ZM18.7455 17.8136L18.5636 17.086C18.6583 17.0623 18.75 17.1339 18.75 17.2315H18H17.25C17.25 18.1098 18.0754 18.7542 18.9274 18.5412L18.7455 17.8136ZM22 15.4384H21.25C21.25 16.012 20.8596 16.512 20.3032 16.6511L20.4851 17.3787L20.667 18.1063C21.8912 17.8003 22.75 16.7003 22.75 15.4384H22ZM22 13.5616H22.75C22.75 12.2997 21.8912 11.1997 20.667 10.8937L20.4851 11.6213L20.3032 12.3489C20.8596 12.488 21.25 12.988 21.25 13.5616H22ZM20 18H19.25V18.5H20H20.75V18H20ZM18 20.5V19.75H14.5V20.5V21.25H18V20.5ZM20 18.5H19.25C19.25 19.1904 18.6904 19.75 18 19.75V20.5V21.25C19.5188 21.25 20.75 20.0188 20.75 18.5H20ZM10.5 22V22.75H13.5V22V21.25H10.5V22ZM13.5 19V18.25H10.5V19V19.75H13.5V19ZM15 20.5H15.75C15.75 19.2574 14.7426 18.25 13.5 18.25V19V19.75C13.9142 19.75 14.25 20.0858 14.25 20.5H15ZM13.5 22V22.75C14.7426 22.75 15.75 21.7426 15.75 20.5H15H14.25C14.25 20.9142 13.9142 21.25 13.5 21.25V22ZM9 20.5H8.25C8.25 21.7426 9.25736 22.75 10.5 22.75V22V21.25C10.0858 21.25 9.75 20.9142 9.75 20.5H9ZM9 20.5H9.75C9.75 20.0858 10.0858 19.75 10.5 19.75V19V18.25C9.25736 18.25 8.25 19.2574 8.25 20.5H9Z" fill="#97A1AF"/>
</svg>
