<svg width="24" height="24" viewBox="0 0 24 24" fill="none" xmlns="http://www.w3.org/2000/svg">
<path d="M7.99995 6C7.99995 6 5.5 9 7.99995 12C10.4999 15 7.99995 18 7.99995 18M11.9999 6C11.9999 6 9.5 9 11.9999 12C14.4999 15 11.9999 18 11.9999 18M15.9999 6C15.9999 6 13.5 9 15.9999 12C18.4999 15 15.9999 18 15.9999 18M21 20.4V3.6C21 3.26863 20.7314 3 20.4 3H3.6C3.26863 3 3 3.26863 3 3.6V20.4C3 20.7314 3.26863 21 3.6 21H20.4C20.7314 21 21 20.7314 21 20.4Z" stroke="#141C25" stroke-width="1.5" stroke-linecap="round" stroke-linejoin="round"/>
</svg>
