<svg width="24" height="24" viewBox="0 0 24 24" fill="none" xmlns="http://www.w3.org/2000/svg">
<path d="M6.99991 14.9999H16.9999M6.99991 14.9999L11.9999 6.99994M6.99991 14.9999L2.49991 6.49994L11.9999 6.99994M6.99991 14.9999L2.49991 17.4999M6.99991 14.9999L11.9999 22.9999L16.9999 14.9999M16.9999 14.9999L11.9999 6.99994M16.9999 14.9999L21.4999 6.49994L11.9999 6.99994M16.9999 14.9999L21.4999 17.4999M11.9999 6.99994V1M2.47363 6.84635V17.1535C2.47363 17.3679 2.58799 17.566 2.77363 17.6731L11.6999 22.8267C11.8856 22.9339 12.1143 22.9339 12.2999 22.8267L21.2262 17.6731C21.4118 17.566 21.5262 17.3679 21.5262 17.1535V6.84635C21.5262 6.632 21.4118 6.43392 21.2262 6.32674L12.2999 1.17315C12.1143 1.06597 11.8856 1.06597 11.6999 1.17315L2.77363 6.32674C2.58799 6.43392 2.47363 6.632 2.47363 6.84635Z" stroke="#141C25" stroke-width="1.5" stroke-linejoin="round"/>
</svg>
