<svg width="24" height="24" viewBox="0 0 24 24" fill="none" xmlns="http://www.w3.org/2000/svg">
<path d="M2 7.99998L11.7317 3.13414C11.9006 3.04969 12.0994 3.04969 12.2683 3.13414L22 7.99998M20 11V19C20 20.1046 19.1046 21 18 21H6C4.89543 21 4 20.1046 4 19V11M12 14C10.8954 14 10 14.8954 10 16C10 17.1046 10.8954 18 12 18C13.1046 18 14 17.1046 14 16C14 14.8954 13.1046 14 12 14ZM12 14V7.49998M12 12H14M12 8.99998H14" stroke="#141C25" stroke-width="1.5" stroke-linecap="round" stroke-linejoin="round"/>
</svg>
