<svg width="24" height="24" viewBox="0 0 24 24" fill="none" xmlns="http://www.w3.org/2000/svg">
<path d="M2.12422 8.85093C1.76575 9.05847 1.64339 9.51731 1.85093 9.87578C2.05847 10.2342 2.51731 10.3566 2.87578 10.1491L2.5 9.5L2.12422 8.85093ZM12 4L12.3758 3.35093C12.1433 3.21636 11.8567 3.21636 11.6242 3.35093L12 4ZM21.1242 10.1491C21.4827 10.3566 21.9415 10.2342 22.1491 9.87578C22.3566 9.51731 22.2342 9.05847 21.8758 8.85093L21.5 9.5L21.1242 10.1491ZM2.5 9.5L2.87578 10.1491L12.3758 4.64907L12 4L11.6242 3.35093L2.12422 8.85093L2.5 9.5ZM12 4L11.6242 4.64907L21.1242 10.1491L21.5 9.5L21.8758 8.85093L12.3758 3.35093L12 4ZM7 20H6.25V21H7H7.75V20H7ZM17 21H17.75V20H17H16.25V21H17ZM17 20H17.75C17.75 16.8244 15.1756 14.25 12 14.25V15V15.75C14.3472 15.75 16.25 17.6528 16.25 20H17ZM7 20H7.75C7.75 17.6528 9.65279 15.75 12 15.75V15V14.25C8.82436 14.25 6.25 16.8244 6.25 20H7ZM15 12H14.25C14.25 13.2426 13.2426 14.25 12 14.25V15V15.75C14.0711 15.75 15.75 14.0711 15.75 12H15ZM12 15V14.25C10.7574 14.25 9.75 13.2426 9.75 12H9H8.25C8.25 14.0711 9.92893 15.75 12 15.75V15ZM9 12H9.75C9.75 10.7574 10.7574 9.75 12 9.75V9V8.25C9.92893 8.25 8.25 9.92893 8.25 12H9ZM12 9V9.75C13.2426 9.75 14.25 10.7574 14.25 12H15H15.75C15.75 9.92893 14.0711 8.25 12 8.25V9Z" fill="#141C25"/>
</svg>
