<svg width="24" height="24" viewBox="0 0 24 24" fill="none" xmlns="http://www.w3.org/2000/svg">
<path d="M2 7.99998L11.7317 3.13414C11.9006 3.04969 12.0994 3.04969 12.2683 3.13414L22 7.99998M20 11V19C20 20.1046 19.1046 21 18 21H6C4.89543 21 4 20.1046 4 19V11M14.5506 9.66124L12.5019 9.13011C12.1727 9.04477 11.8273 9.04477 11.4981 9.13011L9.44942 9.66124C9.18479 9.72985 8.99852 9.96948 9.00762 10.2427C9.17375 15.232 12 16 12 16C12 16 14.8262 15.232 14.9924 10.2427C15.0015 9.96948 14.8152 9.72985 14.5506 9.66124Z" stroke="#141C25" stroke-width="1.5" stroke-linecap="round" stroke-linejoin="round"/>
</svg>
