<svg width="24" height="24" viewBox="0 0 24 24" fill="none" xmlns="http://www.w3.org/2000/svg">
<path d="M14 7.99991L4.31143 3.15563C4.11885 3.05934 3.88944 3.07362 3.71029 3.19306L2.5 3.99991M12 10.9999V18.9999C12 20.1045 11.1046 20.9999 10 20.9999H7M7 20.9999H3.6C3.26863 20.9999 3 20.7313 3 20.3999V15.5999C3 15.2685 3.26863 14.9999 3.6 14.9999H6.4C6.73137 14.9999 7 15.2685 7 15.5999V20.9999ZM19 13.9999C17.8954 13.9999 17 14.8953 17 15.9999C17 17.1045 17.8954 17.9999 19 17.9999C20.1046 17.9999 21 17.1045 21 15.9999C21 14.8953 20.1046 13.9999 19 13.9999ZM19 13.9999V7.49991M19 11.9999H21M19 8.99991H21" stroke="#141C25" stroke-width="1.5" stroke-linecap="round" stroke-linejoin="round"/>
</svg>
