<svg width="24" height="24" viewBox="0 0 24 24" fill="none" xmlns="http://www.w3.org/2000/svg">
<path d="M14 12H14.4C14.7314 12 15 12.2686 15 12.6V15.4C15 15.7314 14.7314 16 14.4 16H9.6C9.26863 16 9 15.7314 9 15.4V12.6C9 12.2686 9.26863 12 9.6 12H10M14 12V9.99998C14 9.33331 13.6 7.99998 12 7.99998C10.4 7.99998 10 9.33331 10 9.99998V12M14 12H10M2 7.99998L11.7317 3.13414C11.9006 3.04969 12.0994 3.04969 12.2683 3.13414L22 7.99998M20 11V19C20 20.1046 19.1046 21 18 21H6C4.89543 21 4 20.1046 4 19V11" stroke="#141C25" stroke-width="1.5" stroke-linecap="round" stroke-linejoin="round"/>
</svg>
