<svg width="24" height="24" viewBox="0 0 24 24" fill="none" xmlns="http://www.w3.org/2000/svg">
<path d="M9.99219 8H11.9922M11.9922 8H13.9922M11.9922 8V6M11.9922 8V10M16 17.01L16.01 16.9989M16 13.01L16.01 12.9989M12 13.01L12.01 12.9989M8 13.01L8.01 12.9989M8 17.01L8.01 16.9989M12 17.01L12.01 16.9989M17 7.4V3.6C17 3.26863 16.7314 3 16.4 3H7.6C7.26863 3 7 3.26863 7 3.6V7.4C7 7.73137 6.73137 8 6.4 8H4.6C4.26863 8 4 8.26863 4 8.6V20.4C4 20.7314 4.26863 21 4.6 21H19.4C19.7314 21 20 20.7314 20 20.4V8.6C20 8.26863 19.7314 8 19.4 8H17.6C17.2686 8 17 7.73137 17 7.4Z" stroke="#141C25" stroke-width="1.5" stroke-linecap="round" stroke-linejoin="round"/>
</svg>
