<svg width="24" height="24" viewBox="0 0 24 24" fill="none" xmlns="http://www.w3.org/2000/svg">
<path d="M9.71429 17.5L9.32841 18.1431C9.44498 18.2131 9.57835 18.25 9.71429 18.25V17.5ZM14.2857 17.5V18.25C14.4216 18.25 14.555 18.2131 14.6716 18.1431L14.2857 17.5ZM9.67092 2.33541C9.85616 1.96493 9.70599 1.51442 9.33551 1.32918C8.96503 1.14394 8.51452 1.2941 8.32928 1.66459L9.0001 2L9.67092 2.33541ZM15.5551 1.66459C15.3699 1.2941 14.9194 1.14394 14.5489 1.32918C14.1784 1.51442 14.0282 1.96493 14.2135 2.33541L14.8843 2L15.5551 1.66459ZM9.71429 17.5C10.1002 16.8569 10.1003 16.857 10.1005 16.8571C10.1005 16.8571 10.1006 16.8571 10.1006 16.8572C10.1007 16.8572 10.1007 16.8572 10.1006 16.8571C10.1004 16.857 10.0999 16.8567 10.099 16.8562C10.0973 16.8551 10.0942 16.8533 10.0898 16.8506C10.0811 16.8452 10.0671 16.8366 10.0484 16.8249C10.0108 16.8013 9.954 16.7652 9.88063 16.717C9.73381 16.6205 9.52126 16.476 9.26495 16.2881C8.75103 15.9112 8.06788 15.3644 7.38747 14.684C6.00011 13.2966 4.75 11.4803 4.75 9.5H4H3.25C3.25 12.0911 4.85703 14.2748 6.32681 15.7446C7.07498 16.4928 7.8204 17.0888 8.37791 17.4977C8.65731 17.7026 8.89119 17.8617 9.05687 17.9705C9.13975 18.025 9.20568 18.067 9.25185 18.0959C9.27494 18.1104 9.2931 18.1216 9.30597 18.1295C9.31241 18.1334 9.31753 18.1365 9.32128 18.1388C9.32316 18.14 9.3247 18.1409 9.32589 18.1416C9.32648 18.142 9.32699 18.1423 9.32741 18.1425C9.32762 18.1426 9.32787 18.1428 9.32798 18.1429C9.32821 18.143 9.32841 18.1431 9.71429 17.5ZM4 9.5H4.75C4.75 5.35217 7.98649 2.25 12 2.25V1.5V0.75C7.17695 0.75 3.25 4.50498 3.25 9.5H4ZM12 1.5V2.25C16.0135 2.25 19.25 5.35217 19.25 9.5H20H20.75C20.75 4.50498 16.823 0.75 12 0.75V1.5ZM20 9.5H19.25C19.25 11.4803 17.9999 13.2966 16.6125 14.684C15.9321 15.3644 15.249 15.9112 14.735 16.2881C14.4787 16.476 14.2662 16.6205 14.1194 16.717C14.046 16.7652 13.9892 16.8013 13.9516 16.8249C13.9329 16.8366 13.9189 16.8452 13.9102 16.8506C13.9058 16.8533 13.9027 16.8551 13.901 16.8562C13.9001 16.8567 13.8996 16.857 13.8994 16.8571C13.8993 16.8572 13.8993 16.8572 13.8994 16.8572C13.8994 16.8571 13.8995 16.8571 13.8995 16.8571C13.8997 16.857 13.8998 16.8569 14.2857 17.5C14.6716 18.1431 14.6718 18.143 14.672 18.1429C14.6721 18.1428 14.6724 18.1426 14.6726 18.1425C14.673 18.1423 14.6735 18.142 14.6741 18.1416C14.6753 18.1409 14.6768 18.14 14.6787 18.1388C14.6825 18.1365 14.6876 18.1334 14.694 18.1295C14.7069 18.1216 14.7251 18.1104 14.7481 18.0959C14.7943 18.067 14.8603 18.025 14.9431 17.9705C15.1088 17.8617 15.3427 17.7026 15.6221 17.4977C16.1796 17.0888 16.925 16.4928 17.6732 15.7446C19.143 14.2748 20.75 12.0911 20.75 9.5H20ZM14.2857 17.5V16.75H9.71429V17.5V18.25H14.2857V17.5ZM10.0001 17.5C10.6913 17.209 10.6914 17.2091 10.6914 17.2092C10.6914 17.2092 10.6914 17.2092 10.6914 17.2092C10.6914 17.2091 10.6913 17.2089 10.6912 17.2086C10.6909 17.2079 10.6903 17.2066 10.6896 17.2048C10.688 17.2011 10.6856 17.1951 10.6822 17.187C10.6755 17.1707 10.6653 17.1456 10.6518 17.1121C10.6248 17.045 10.5849 16.9442 10.5349 16.8129C10.4347 16.5502 10.2938 16.1657 10.1335 15.6847C9.81243 14.7215 9.41543 13.3774 9.11052 11.8529C8.49287 8.76467 8.28781 5.10159 9.67092 2.33541L9.0001 2L8.32928 1.66459C6.71235 4.89841 7.0073 8.98533 7.63965 12.1471C7.95976 13.7476 8.37526 15.1535 8.71046 16.159C8.87826 16.6624 9.02644 17.067 9.1333 17.3473C9.18675 17.4875 9.2299 17.5966 9.26005 17.6716C9.27513 17.7091 9.28696 17.7381 9.29521 17.7581C9.29934 17.7681 9.30257 17.7759 9.30486 17.7814C9.306 17.7842 9.30692 17.7864 9.30759 17.788C9.30792 17.7888 9.3082 17.7894 9.30842 17.7899C9.30852 17.7902 9.30864 17.7905 9.30869 17.7906C9.30879 17.7908 9.30888 17.791 10.0001 17.5ZM13.8843 17.5C14.5755 17.791 14.5756 17.7908 14.5757 17.7906C14.5757 17.7905 14.5759 17.7902 14.576 17.7899C14.5762 17.7894 14.5765 17.7888 14.5768 17.788C14.5775 17.7864 14.5784 17.7842 14.5795 17.7814C14.5818 17.7759 14.585 17.7681 14.5892 17.7581C14.5974 17.7381 14.6092 17.7091 14.6243 17.6716C14.6545 17.5966 14.6976 17.4875 14.7511 17.3473C14.8579 17.067 15.0061 16.6624 15.1739 16.159C15.5091 15.1535 15.9246 13.7476 16.2447 12.1471C16.8771 8.98533 17.172 4.89841 15.5551 1.66459L14.8843 2L14.2135 2.33541C15.5966 5.10159 15.3915 8.76467 14.7739 11.8529C14.469 13.3774 14.072 14.7215 13.7509 15.6847C13.5906 16.1657 13.4497 16.5502 13.3495 16.8129C13.2994 16.9442 13.2596 17.045 13.2326 17.1121C13.2191 17.1456 13.2089 17.1707 13.2022 17.187C13.1988 17.1951 13.1963 17.2011 13.1948 17.2048C13.194 17.2066 13.1935 17.2079 13.1932 17.2086C13.1931 17.2089 13.193 17.2091 13.193 17.2092C13.1929 17.2092 13.193 17.2092 13.193 17.2092C13.193 17.2091 13.1931 17.209 13.8843 17.5ZM10.6 23V23.75H13.4V23V22.25H10.6V23ZM14 22.4H14.75V20.6H14H13.25V22.4H14ZM13.4 20V19.25H10.6V20V20.75H13.4V20ZM10 20.6H9.25V22.4H10H10.75V20.6H10ZM10.6 20V19.25C9.85441 19.25 9.25 19.8544 9.25 20.6H10H10.75C10.75 20.6828 10.6828 20.75 10.6 20.75V20ZM14 20.6H14.75C14.75 19.8544 14.1456 19.25 13.4 19.25V20V20.75C13.3172 20.75 13.25 20.6828 13.25 20.6H14ZM10.6 23V22.25C10.6828 22.25 10.75 22.3172 10.75 22.4H10H9.25C9.25 23.1456 9.85441 23.75 10.6 23.75V23ZM13.4 23V23.75C14.1456 23.75 14.75 23.1456 14.75 22.4H14H13.25C13.25 22.3172 13.3172 22.25 13.4 22.25V23Z" fill="#141C25"/>
</svg>
