<svg width="24" height="24" viewBox="0 0 24 24" fill="none" xmlns="http://www.w3.org/2000/svg">
<path d="M11 2V5C11 6.65685 12.3434 8 14.0002 8H15C17 8 18 9 18 10M18 21H21V12H18V16.5M18 21V16.5M18 21H3V17L6.5 14L10.5 16.5L14.5 14L18 16.5M17.2677 4.02362C17.0997 4 17 4 17 4C17 4 17.0997 4.01247 17.2677 4.02362ZM17.2677 4.02362C18.1634 4.14958 21 4.94737 21 10M17.2677 4.02362C18.1634 4.0831 21 4.10526 21 2" stroke="#141C25" stroke-width="1.5" stroke-linecap="round" stroke-linejoin="round"/>
</svg>
