<svg width="24" height="24" viewBox="0 0 24 24" fill="none" xmlns="http://www.w3.org/2000/svg">
<path d="M12 22.75C12.4142 22.75 12.75 22.4142 12.75 22C12.75 21.5858 12.4142 21.25 12 21.25V22V22.75ZM21.25 12C21.25 12.4142 21.5858 12.75 22 12.75C22.4142 12.75 22.75 12.4142 22.75 12H22H21.25ZM13.5973 1.59574C13.3468 1.26586 12.8763 1.20151 12.5464 1.45201C12.2165 1.70252 12.1522 2.17301 12.4027 2.50289L13 2.04932L13.5973 1.59574ZM10.4027 22.4041C10.6532 22.734 11.1237 22.7984 11.4536 22.5479C11.7835 22.2974 11.8478 21.8269 11.5973 21.497L11 21.9506L10.4027 22.4041ZM11.5973 2.50289C11.8478 2.17301 11.7835 1.70252 11.4536 1.45201C11.1237 1.20151 10.6532 1.26586 10.4027 1.59574L11 2.04932L11.5973 2.50289ZM2.62964 14.75C2.21543 14.75 1.87964 15.0858 1.87964 15.5C1.87964 15.9142 2.21543 16.25 2.62964 16.25V15.5V14.75ZM12 16.25C12.4142 16.25 12.75 15.9142 12.75 15.5C12.75 15.0858 12.4142 14.75 12 14.75V15.5V16.25ZM2.62964 7.75C2.21543 7.75 1.87964 8.08579 1.87964 8.5C1.87964 8.91421 2.21543 9.25 2.62964 9.25V8.5V7.75ZM21.3704 9.25C21.7846 9.25 22.1204 8.91421 22.1204 8.5C22.1204 8.08579 21.7846 7.75 21.3704 7.75V8.5V9.25ZM21.8337 19.0181L21.9182 19.7633L21.9182 19.7633L21.8337 19.0181ZM21.8789 17.9174L21.4859 18.5562L21.4859 18.5562L21.8789 17.9174ZM19.2671 19.309L19.1826 18.5638L18.7775 18.6097L18.5957 18.9747L19.2671 19.309ZM18.1159 21.6213L17.4445 21.287L17.4445 21.287L18.1159 21.6213ZM17.0661 21.2873L17.8008 21.1365L17.8008 21.1365L17.0661 21.2873ZM15.8108 15.1713L16.5455 15.0205L16.5455 15.0205L15.8108 15.1713ZM16.561 14.646L16.1681 15.2848L16.1681 15.2848L16.561 14.646ZM12 22V21.25C6.89137 21.25 2.75 17.1086 2.75 12H2H1.25C1.25 17.9371 6.06294 22.75 12 22.75V22ZM12 2V2.75C17.1086 2.75 21.25 6.89137 21.25 12H22H22.75C22.75 6.06294 17.9371 1.25 12 1.25V2ZM2 12H2.75C2.75 6.89137 6.89137 2.75 12 2.75V2V1.25C6.06294 1.25 1.25 6.06294 1.25 12H2ZM13 2.04932C12.4027 2.50289 12.4025 2.50269 12.4024 2.50251C12.4024 2.50247 12.4022 2.5023 12.4022 2.50222C12.4021 2.50205 12.402 2.50195 12.4019 2.5019C12.4019 2.50181 12.402 2.50195 12.4023 2.50233C12.4028 2.50309 12.4041 2.50479 12.4061 2.50744C12.41 2.51273 12.4166 2.52176 12.4258 2.53449C12.4442 2.55995 12.4728 2.60016 12.5102 2.65466C12.5849 2.76368 12.6944 2.92971 12.8273 3.14904C13.0933 3.58796 13.4518 4.23873 13.8114 5.07184C14.5311 6.73935 15.25 9.12515 15.25 11.9999H16H16.75C16.75 8.87473 15.9689 6.28522 15.1886 4.47742C14.7982 3.57287 14.4067 2.86099 14.1102 2.37166C13.9618 2.12687 13.837 1.93739 13.7476 1.80692C13.7029 1.74167 13.6671 1.69115 13.6415 1.65581C13.6288 1.63814 13.6186 1.62426 13.6111 1.61423C13.6074 1.60921 13.6044 1.60516 13.6021 1.60208C13.6009 1.60053 13.5999 1.59924 13.5991 1.59818C13.5987 1.59765 13.5984 1.59718 13.5981 1.59678C13.5979 1.59657 13.5977 1.59632 13.5977 1.59621C13.5975 1.59597 13.5973 1.59574 13 2.04932ZM11 21.9506C11.5973 21.497 11.5974 21.4972 11.5976 21.4974C11.5976 21.4974 11.5977 21.4976 11.5978 21.4977C11.5979 21.4978 11.598 21.4979 11.5981 21.498C11.5981 21.4981 11.598 21.4979 11.5977 21.4976C11.5972 21.4968 11.5959 21.4951 11.5939 21.4924C11.59 21.4872 11.5834 21.4781 11.5742 21.4654C11.5558 21.4399 11.5272 21.3997 11.4898 21.3452C11.4151 21.2362 11.3056 21.0702 11.1727 20.8508C10.9067 20.4119 10.5482 19.7611 10.1886 18.928C9.46887 17.2605 8.75 14.8747 8.75 11.9999H8H7.25C7.25 15.1252 8.03113 17.7147 8.8114 19.5225C9.20182 20.427 9.5933 21.1389 9.88983 21.6282C10.0382 21.873 10.163 22.0625 10.2524 22.193C10.2971 22.2582 10.3329 22.3087 10.3585 22.3441C10.3712 22.3617 10.3814 22.3756 10.3889 22.3857C10.3926 22.3907 10.3956 22.3947 10.3979 22.3978C10.3991 22.3993 10.4001 22.4006 10.4008 22.4017C10.4012 22.4022 10.4016 22.4027 10.4019 22.4031C10.4021 22.4033 10.4023 22.4036 10.4023 22.4037C10.4025 22.4039 10.4027 22.4041 11 21.9506ZM8 11.9999H8.75C8.75 9.12515 9.46887 6.73935 10.1886 5.07184C10.5482 4.23873 10.9067 3.58796 11.1727 3.14904C11.3056 2.92971 11.4151 2.76368 11.4898 2.65466C11.5272 2.60016 11.5558 2.55995 11.5742 2.53449C11.5834 2.52176 11.59 2.51273 11.5939 2.50744C11.5959 2.50479 11.5972 2.50309 11.5977 2.50233C11.598 2.50195 11.5981 2.50181 11.5981 2.5019C11.598 2.50195 11.5979 2.50205 11.5978 2.50222C11.5978 2.5023 11.5976 2.50247 11.5976 2.50251C11.5975 2.50269 11.5973 2.50289 11 2.04932C10.4027 1.59574 10.4025 1.59597 10.4023 1.59621C10.4023 1.59632 10.4021 1.59657 10.4019 1.59678C10.4016 1.59718 10.4013 1.59765 10.4009 1.59818C10.4001 1.59924 10.3991 1.60053 10.3979 1.60208C10.3956 1.60516 10.3926 1.60921 10.3889 1.61423C10.3814 1.62426 10.3712 1.63814 10.3585 1.65581C10.3329 1.69115 10.2971 1.74167 10.2524 1.80692C10.163 1.93739 10.0382 2.12687 9.88983 2.37166C9.59331 2.86099 9.20182 3.57287 8.8114 4.47742C8.03113 6.28522 7.25 8.87473 7.25 11.9999H8ZM2.62964 15.5V16.25H12V15.5V14.75H2.62964V15.5ZM2.62964 8.5V9.25H21.3704V8.5V7.75H2.62964V8.5ZM21.8337 19.0181L21.9182 19.7633C22.6252 19.6831 22.9608 19.0974 22.9816 18.5907C23.0016 18.1013 22.7599 17.5788 22.2718 17.2785L21.8789 17.9174L21.4859 18.5562C21.4916 18.5597 21.4816 18.5587 21.4828 18.5293C21.4835 18.5114 21.4906 18.4557 21.5423 18.392C21.6023 18.318 21.6855 18.2801 21.7492 18.2728L21.8337 19.0181ZM19.2671 19.309L19.3516 20.0542L21.9182 19.7633L21.8337 19.0181L21.7492 18.2728L19.1826 18.5638L19.2671 19.309ZM18.1159 21.6213L18.7873 21.9556L19.9385 19.6433L19.2671 19.309L18.5957 18.9747L17.4445 21.287L18.1159 21.6213ZM17.0661 21.2873L16.3314 21.4381C16.4466 21.9993 16.855 22.4053 17.3218 22.5538C17.805 22.7075 18.4701 22.5926 18.7873 21.9556L18.1159 21.6213L17.4445 21.287C17.4731 21.2296 17.5372 21.1644 17.6272 21.1334C17.7048 21.1066 17.7595 21.119 17.7766 21.1244C17.8046 21.1333 17.8022 21.1431 17.8008 21.1365L17.0661 21.2873ZM15.8108 15.1713L15.0762 15.3221L16.3314 21.4381L17.0661 21.2873L17.8008 21.1365L16.5455 15.0205L15.8108 15.1713ZM16.561 14.646L16.954 14.0072C16.5247 13.7431 15.9862 13.7212 15.5623 14.018C15.1385 14.3148 14.9748 14.8283 15.0762 15.3221L15.8108 15.1713L16.5455 15.0205C16.5459 15.0225 16.5514 15.0549 16.5333 15.105C16.5153 15.1551 16.4787 15.2075 16.4227 15.2467C16.3667 15.2859 16.3049 15.3024 16.2517 15.3022C16.1984 15.3021 16.1698 15.2859 16.1681 15.2848L16.561 14.646ZM21.8789 17.9174L22.2718 17.2785L16.954 14.0072L16.561 14.646L16.1681 15.2848L21.4859 18.5562L21.8789 17.9174Z" fill="#141C25"/>
</svg>
