<svg width="24" height="24" viewBox="0 0 24 24" fill="none" xmlns="http://www.w3.org/2000/svg">
<path d="M15.01 3L15 3.01111M11.01 3L11 3.01111M7.01 3L7 3.01111M3.01 3L3 3.01111M3.01 7L3 7.01111M3.01 11L3 11.0111M3.01 15L3 15.0111M9 21.01L9.01 20.9989M13 21.01L13.01 20.9989M17 21.01L17.01 20.9989M21 21.01L21.01 20.9989M21 17.01L21.01 16.9989M21 13.01L21.01 12.9989M21 9.01L21.01 8.99889M9.00024 17L9.00024 9.99999C9.00024 9.44771 9.44796 8.99999 10.0002 8.99999L17.0002 8.99999M15.0002 6.99999V14C15.0002 14.5523 14.5525 15 14.0002 15L7.00023 15" stroke="#141C25" stroke-width="1.5" stroke-linecap="round" stroke-linejoin="round"/>
</svg>
