<svg width="24" height="24" viewBox="0 0 24 24" fill="none" xmlns="http://www.w3.org/2000/svg">
<path d="M6 13L7 14.125C7.5703 14.7666 7.5703 15.7334 7 16.375C6.4297 17.0166 6.4297 17.9834 7 18.625C7.5703 19.2666 7.5703 20.2334 7 20.875L6 22M11 13L12 14.125C12.5703 14.7666 12.5703 15.7334 12 16.375C11.4297 17.0166 11.4297 17.9834 12 18.625C12.5703 19.2666 12.5703 20.2334 12 20.875L11 22M16 13L17 14.125C17.5703 14.7666 17.5703 15.7334 17 16.375C16.4297 17.0166 16.4297 17.9834 17 18.625C17.5703 19.2666 17.5703 20.2334 17 20.875L16 22M21 11.1667C21 6.10406 16.9706 2 12 2C7.02944 2 3 6.10406 3 11.1667C3 11.235 3.00073 11.3031 3.00219 11.3711C3.02268 12.3247 3.8669 13 4.82077 13H19.1792C20.1331 13 20.9773 12.3247 20.9978 11.3711C20.9993 11.3031 21 11.235 21 11.1667Z" stroke="#141C25" stroke-width="1.5" stroke-linecap="round" stroke-linejoin="round"/>
</svg>
