<svg width="24" height="24" viewBox="0 0 24 24" fill="none" xmlns="http://www.w3.org/2000/svg">
<path d="M7 9V8.25C6.58579 8.25 6.25 8.58579 6.25 9H7ZM6.25 15C6.25 15.4142 6.58579 15.75 7 15.75C7.41421 15.75 7.75 15.4142 7.75 15H7H6.25ZM10 12V12.75C10.4142 12.75 10.75 12.4142 10.75 12H10ZM10 9H10.75C10.75 8.58579 10.4142 8.25 10 8.25V9ZM13 9V8.25C12.5858 8.25 12.25 8.58579 12.25 9H13ZM16 9.75C16.4142 9.75 16.75 9.41421 16.75 9C16.75 8.58579 16.4142 8.25 16 8.25V9V9.75ZM13 15H12.25C12.25 15.4142 12.5858 15.75 13 15.75V15ZM16 15.75C16.4142 15.75 16.75 15.4142 16.75 15C16.75 14.5858 16.4142 14.25 16 14.25V15V15.75ZM19 9V8.25C18.5858 8.25 18.25 8.58579 18.25 9H19ZM22 9.75C22.4142 9.75 22.75 9.41421 22.75 9C22.75 8.58579 22.4142 8.25 22 8.25V9V9.75ZM19 15H18.25C18.25 15.4142 18.5858 15.75 19 15.75V15ZM22 15V15.75C22.4142 15.75 22.75 15.4142 22.75 15H22ZM22.75 12.6C22.75 12.1858 22.4142 11.85 22 11.85C21.5858 11.85 21.25 12.1858 21.25 12.6H22H22.75ZM4 13.2H3.25H4ZM1.99999 14.25C1.58578 14.25 1.25 14.5858 1.25 15C1.25 15.4142 1.58579 15.75 2.00001 15.75L2 15L1.99999 14.25ZM4.75 9C4.75 8.58579 4.41421 8.25 4 8.25C3.58579 8.25 3.25 8.58579 3.25 9H4H4.75ZM13 11.25C12.5858 11.25 12.25 11.5858 12.25 12C12.25 12.4142 12.5858 12.75 13 12.75V12V11.25ZM15 12.75C15.4142 12.75 15.75 12.4142 15.75 12C15.75 11.5858 15.4142 11.25 15 11.25V12V12.75ZM3.25 6C3.25 6.41421 3.58579 6.75 4 6.75C4.41421 6.75 4.75 6.41421 4.75 6H4H3.25ZM19.25 6C19.25 6.41421 19.5858 6.75 20 6.75C20.4142 6.75 20.75 6.41421 20.75 6H20H19.25ZM4.75 18C4.75 17.5858 4.41421 17.25 4 17.25C3.58579 17.25 3.25 17.5858 3.25 18H4H4.75ZM20.75 18C20.75 17.5858 20.4142 17.25 20 17.25C19.5858 17.25 19.25 17.5858 19.25 18H20H20.75ZM7 9H6.25V12H7H7.75V9H7ZM7 12H6.25V15H7H7.75V12H7ZM7 12V12.75H10V12V11.25H7V12ZM10 12H10.75V9H10H9.25V12H10ZM10 9V8.25H7V9V9.75H10V9ZM13 9V9.75H16V9V8.25H13V9ZM13 15V15.75H16V15V14.25H13V15ZM13 15H13.75V9H13H12.25V15H13ZM19 9V9.75H22V9V8.25H19V9ZM19 15V15.75H22V15V14.25H19V15ZM19 15H19.75V9H19H18.25V15H19ZM22 15H22.75V12.6H22H21.25V15H22ZM4 13.2H3.25C3.25 13.5014 3.16964 13.6797 3.08483 13.7942C2.99354 13.9174 2.85994 14.0156 2.69223 14.0911C2.52354 14.167 2.3448 14.2086 2.20124 14.2302C2.13136 14.2407 2.07455 14.2457 2.03782 14.248C2.01957 14.2492 2.00665 14.2497 1.99997 14.2499C1.99663 14.25 1.99489 14.25 1.99485 14.25C1.99483 14.25 1.99523 14.25 1.99609 14.25C1.99651 14.25 1.99705 14.25 1.9977 14.25C1.99803 14.25 1.99838 14.25 1.99876 14.25C1.99895 14.25 1.99926 14.25 1.99936 14.25C1.99967 14.25 1.99999 14.25 2 15C2.00001 15.75 2.00034 15.75 2.00069 15.75C2.00082 15.75 2.00117 15.75 2.00142 15.75C2.00192 15.75 2.00246 15.75 2.00303 15.75C2.00416 15.75 2.00543 15.75 2.00681 15.75C2.00959 15.75 2.01287 15.7499 2.01663 15.7499C2.02416 15.7498 2.03364 15.7496 2.04496 15.7492C2.06757 15.7485 2.09761 15.7473 2.13406 15.7449C2.2067 15.7403 2.30614 15.7312 2.42376 15.7136C2.6552 15.6789 2.97646 15.608 3.30777 15.4589C3.64006 15.3094 4.00646 15.07 4.29017 14.687C4.58036 14.2953 4.75 13.7986 4.75 13.2H4ZM4 13.2H4.75V9H4H3.25V13.2H4ZM13 12V12.75H15V12V11.25H13V12ZM19.4 3V2.25H4.6V3V3.75H19.4V3ZM4 3.6H3.25V6H4H4.75V3.6H4ZM20 6H20.75V3.6H20H19.25V6H20ZM19.4 3V3.75C19.3172 3.75 19.25 3.68284 19.25 3.6H20H20.75C20.75 2.85442 20.1456 2.25 19.4 2.25V3ZM4.6 3V2.25C3.85442 2.25 3.25 2.85442 3.25 3.6H4H4.75C4.75 3.68284 4.68284 3.75 4.6 3.75V3ZM19.4 21V20.25H4.6V21V21.75H19.4V21ZM4 20.4H4.75V18H4H3.25V20.4H4ZM20 18H19.25V20.4H20H20.75V18H20ZM19.4 21V21.75C20.1456 21.75 20.75 21.1456 20.75 20.4H20H19.25C19.25 20.3172 19.3172 20.25 19.4 20.25V21ZM4.6 21V20.25C4.68284 20.25 4.75 20.3172 4.75 20.4H4H3.25C3.25 21.1456 3.85442 21.75 4.6 21.75V21Z" fill="#141C25"/>
</svg>
