<svg width="24" height="24" viewBox="0 0 24 24" fill="none" xmlns="http://www.w3.org/2000/svg">
<path d="M11.9999 6.3751L13.5051 4.68177C14.3006 3.78674 15.6991 3.78674 16.4947 4.68177L21.8188 10.6714C22.4924 11.4291 22.4924 12.5711 21.8188 13.3288L16.4947 19.3184C15.6991 20.2135 14.3006 20.2135 13.5051 19.3184L11.9999 17.6251M10.4947 19.3184L15.8188 13.3288C16.4924 12.5711 16.4924 11.4291 15.8188 10.6714L10.4947 4.68177C9.69911 3.78674 8.30063 3.78674 7.50505 4.68177L2.18096 10.6714C1.50739 11.4291 1.50739 12.5711 2.18096 13.3288L7.50505 19.3184C8.30063 20.2135 9.69911 20.2135 10.4947 19.3184Z" stroke="#141C25" stroke-width="1.5" stroke-linecap="round" stroke-linejoin="round"/>
</svg>
