<svg width="24" height="24" viewBox="0 0 24 24" fill="none" xmlns="http://www.w3.org/2000/svg">
<path d="M13.0002 19L17.8845 13.3016C18.5265 12.5526 18.5265 11.4474 17.8845 10.6984L13.0002 5M17.0002 19L21.8845 13.3016C22.5265 12.5526 22.5265 11.4474 21.8845 10.6984L17.0002 5M9.50533 18.2798L13.8478 13.317C14.5076 12.563 14.5076 11.437 13.8478 10.683L9.50533 5.72017C8.70851 4.80952 7.29185 4.80952 6.49503 5.72018L2.15256 10.683C1.49277 11.437 1.49277 12.563 2.15256 13.317L6.49503 18.2798C7.29185 19.1905 8.70851 19.1905 9.50533 18.2798Z" stroke="#141C25" stroke-width="1.5" stroke-linecap="round" stroke-linejoin="round"/>
</svg>
