<svg width="24" height="24" viewBox="0 0 24 24" fill="none" xmlns="http://www.w3.org/2000/svg">
<path d="M20.8001 14.2222H3.65391C3.38543 14.2222 3.14963 14.4006 3.07656 14.6589L1.71977 19.4556C1.35871 20.7321 2.31771 22 3.64426 22H20.3559C21.6825 22 22.6415 20.7321 22.2804 19.4556L20.8001 14.2222ZM20.8001 14.2222V8.11111M3.20003 14.2222V4C3.20003 2.89543 4.09546 2 5.20003 2H12M11.0001 19H13.0001M17.6569 4.82837L14.8285 7.6568M17.6569 4.82837C18.438 5.60942 19.7043 5.60948 20.4854 4.82843M17.6569 4.82837C16.8759 4.04732 16.8759 2.78105 17.6569 2M14.8285 7.6568C15.6096 8.43784 15.6095 9.70427 14.8285 10.4853M14.8285 7.6568C14.0475 6.87575 12.7811 6.87584 12.0001 7.65689" stroke="#141C25" stroke-width="1.5" stroke-linecap="round" stroke-linejoin="round"/>
</svg>
