<svg width="24" height="24" viewBox="0 0 24 24" fill="none" xmlns="http://www.w3.org/2000/svg">
<path d="M9 19H15M9 19V13.1C9 12.7686 8.73137 12.5 8.4 12.5H3.6C3.26863 12.5 3 12.7686 3 13.1V18.4C3 18.7314 3.26863 19 3.6 19H9ZM9 19V8.6C9 8.26863 9.26863 8 9.6 8H14.4C14.7314 8 15 8.26863 15 8.6V19M15 19H20.4C20.7314 19 21 18.7314 21 18.4V15.1C21 14.7686 20.7314 14.5 20.4 14.5H15.6C15.2686 14.5 15 14.7686 15 15.1V19ZM15 5H9" stroke="#141C25" stroke-width="1.5" stroke-linecap="round" stroke-linejoin="round"/>
</svg>
