<svg width="24" height="24" viewBox="0 0 24 24" fill="none" xmlns="http://www.w3.org/2000/svg">
<path d="M6.75 12L6.21967 11.4697C5.92678 11.7626 5.92678 12.2374 6.21967 12.5303L6.75 12ZM8.96967 15.2803C9.26256 15.5732 9.73744 15.5732 10.0303 15.2803C10.3232 14.9874 10.3232 14.5126 10.0303 14.2197L9.5 14.75L8.96967 15.2803ZM10.0303 9.78033C10.3232 9.48744 10.3232 9.01256 10.0303 8.71967C9.73744 8.42678 9.26256 8.42678 8.96967 8.71967L9.5 9.25L10.0303 9.78033ZM16.75 12V11.25H6.75V12V12.75H16.75V12ZM6.75 12L6.21967 12.5303L8.96967 15.2803L9.5 14.75L10.0303 14.2197L7.28033 11.4697L6.75 12ZM6.75 12L7.28033 12.5303L10.0303 9.78033L9.5 9.25L8.96967 8.71967L6.21967 11.4697L6.75 12ZM2 9H1.25V15H2H2.75V9H2ZM6 19V19.75H18V19V18.25H6V19ZM22 15H22.75V9H22H21.25V15H22ZM18 5V4.25H6V5V5.75H18V5ZM22 9H22.75C22.75 6.37665 20.6234 4.25 18 4.25V5V5.75C19.7949 5.75 21.25 7.20507 21.25 9H22ZM18 19V19.75C20.6234 19.75 22.75 17.6234 22.75 15H22H21.25C21.25 16.7949 19.7949 18.25 18 18.25V19ZM2 15H1.25C1.25 17.6234 3.37665 19.75 6 19.75V19V18.25C4.20507 18.25 2.75 16.7949 2.75 15H2ZM2 9H2.75C2.75 7.20507 4.20507 5.75 6 5.75V5V4.25C3.37665 4.25 1.25 6.37665 1.25 9H2Z" fill="#141C25"/>
</svg>
