<svg width="24" height="24" viewBox="0 0 24 24" fill="none" xmlns="http://www.w3.org/2000/svg">
<path d="M2.5 20C3.5 20 4.5 19.2 4.5 18V11C4.5 7.5 7.6 4 12 4C16.4 4 19.5 7.5 19.5 11V18C19.5 19.2 20.5 20 21.5 20M12 12.5C12 10.567 10.8807 9 9.5 9C8.11929 9 7 10.567 7 12.5C7 13.4793 7.28731 14.3647 7.75036 15M12 12.5C12 12.9554 11.9379 13.3904 11.8249 13.7895M12 12.5C12 10.567 13.1193 9 14.5 9C15.8807 9 17 10.567 17 12.5C17 13.4793 16.7127 14.3647 16.2496 15M12 12.5C12 12.9554 12.0621 13.3904 12.1751 13.7895M9.5 12V14M14.5 12V14M17 16.5C17 17.8807 14.7614 19 12 19C9.23858 19 7 17.8807 7 16.5C7 15.1193 9.23858 14 12 14C14.7614 14 17 15.1193 17 16.5Z" stroke="#141C25" stroke-width="1.5" stroke-linecap="round" stroke-linejoin="round"/>
</svg>
