<svg width="24" height="24" viewBox="0 0 24 24" fill="none" xmlns="http://www.w3.org/2000/svg">
<path d="M14.6667 12H15.4C15.7314 12 16 12.2686 16 12.6V16.4C16 16.7314 15.7314 17 15.4 17H8.6C8.26863 17 8 16.7314 8 16.4V12.6C8 12.2686 8.26863 12 8.6 12H9.33333M14.6667 12V9.5C14.6667 8.66667 14.1333 7 12 7C9.86667 7 9.33333 8.66667 9.33333 9.5V12M14.6667 12H9.33333M3 5V19C3 20.1046 3.89543 21 5 21H19C20.1046 21 21 20.1046 21 19V5C21 3.89543 20.1046 3 19 3H5C3.89543 3 3 3.89543 3 5Z" stroke="#141C25" stroke-width="1.5"/>
</svg>
