<svg width="24" height="24" viewBox="0 0 24 24" fill="none" xmlns="http://www.w3.org/2000/svg">
<path d="M4 19V5C4 3.89543 4.89543 3 6 3H19.4C19.7314 3 20 3.26863 20 3.6V16.7143M4 19C4 20.1046 4.89543 21 6 21H20M4 19C4 17.8954 4.89543 17 6 17H20M14 10H14.4C14.7314 10 15 10.2686 15 10.6V13.4C15 13.7314 14.7314 14 14.4 14H9.6C9.26863 14 9 13.7314 9 13.4V10.6C9 10.2686 9.26863 10 9.6 10H10M14 10V8C14 7.33333 13.6 6 12 6C10.4 6 10 7.33333 10 8V10M14 10H10" stroke="#141C25" stroke-width="1.5" stroke-linecap="round" stroke-linejoin="round"/>
</svg>
