<svg width="24" height="24" viewBox="0 0 24 24" fill="none" xmlns="http://www.w3.org/2000/svg">
<path d="M8.27411 3H9.02411V1.78977L7.94034 2.32836L8.27411 3ZM21 15.7259L21.6716 16.0597L22.2102 14.9759H21V15.7259ZM21 3.75C21.4142 3.75 21.75 3.41421 21.75 3C21.75 2.58579 21.4142 2.25 21 2.25V3V3.75ZM12.4934 21V20.25C7.66455 20.25 3.75 16.3354 3.75 11.5066H3H2.25C2.25 17.1639 6.83613 21.75 12.4934 21.75V21ZM3 11.5066H3.75C3.75 8.07472 5.72712 5.10325 8.60789 3.67164L8.27411 3L7.94034 2.32836C4.5693 4.00363 2.25 7.48357 2.25 11.5066H3ZM21 15.7259L20.3284 15.3921C18.8967 18.2729 15.9253 20.25 12.4934 20.25V21V21.75C16.5164 21.75 19.9964 19.4307 21.6716 16.0597L21 15.7259ZM8.27411 3H7.52411C7.52411 7.36739 8.60759 10.7741 10.9168 13.0832C13.2259 15.3924 16.6326 16.4759 21 16.4759V15.7259V14.9759C16.8608 14.9759 13.9045 13.9497 11.9774 12.0226C10.0503 10.0955 9.02411 7.13921 9.02411 3H8.27411ZM19 9.5H18.25C18.25 9.91421 17.9142 10.25 17.5 10.25V11V11.75C18.7426 11.75 19.75 10.7426 19.75 9.5H19ZM17.5 11V10.25C17.0858 10.25 16.75 9.91421 16.75 9.5H16H15.25C15.25 10.7426 16.2574 11.75 17.5 11.75V11ZM16 9.5H16.75C16.75 9.08579 17.0858 8.75 17.5 8.75V8V7.25C16.2574 7.25 15.25 8.25736 15.25 9.5H16ZM17.5 8V8.75C17.9142 8.75 18.25 9.08579 18.25 9.5H19H19.75C19.75 8.25736 18.7426 7.25 17.5 7.25V8ZM19 9.5H19.75V3.6H19H18.25V9.5H19ZM19.6 3V3.75H21V3V2.25H19.6V3ZM19 3.6H19.75C19.75 3.68284 19.6828 3.75 19.6 3.75V3V2.25C18.8544 2.25 18.25 2.85441 18.25 3.6H19Z" fill="#141C25"/>
</svg>
