<svg width="24" height="24" viewBox="0 0 24 24" fill="none" xmlns="http://www.w3.org/2000/svg">
<path d="M5 9V8.25C4.58579 8.25 4.25 8.58579 4.25 9H5ZM19 9H19.75C19.75 8.58579 19.4142 8.25 19 8.25V9ZM8 9.75C8.41421 9.75 8.75 9.41421 8.75 9C8.75 8.58579 8.41421 8.25 8 8.25V9V9.75ZM16 8.25C15.5858 8.25 15.25 8.58579 15.25 9C15.25 9.41421 15.5858 9.75 16 9.75V9V8.25ZM14.8241 11.5C14.8241 11.0858 14.4883 10.75 14.0741 10.75C13.6598 10.75 13.3241 11.0858 13.3241 11.5H14.0741H14.8241ZM10.6759 11.5C10.6759 11.0858 10.3401 10.75 9.9259 10.75C9.51169 10.75 9.1759 11.0858 9.1759 11.5H9.9259H10.6759ZM10 13.75C10.4142 13.75 10.75 13.4142 10.75 13C10.75 12.5858 10.4142 12.25 10 12.25V13V13.75ZM19 13.75C19.4142 13.75 19.75 13.4142 19.75 13C19.75 12.5858 19.4142 12.25 19 12.25V13V13.75ZM12.3223 2.36423C12.5234 2.00214 12.393 1.54554 12.0309 1.34438C11.6688 1.14322 11.2122 1.27368 11.011 1.63577L11.6667 2L12.3223 2.36423ZM10 5L9.34438 4.63577C9.21533 4.86807 9.21883 5.15131 9.3536 5.38035C9.48836 5.60938 9.73426 5.75 10 5.75V5ZM14 5L14.6556 5.36423C14.7847 5.13193 14.7812 4.84869 14.6464 4.61965C14.5116 4.39062 14.2657 4.25 14 4.25V5ZM11.6777 7.63577C11.4766 7.99786 11.607 8.45446 11.9691 8.65562C12.3312 8.85678 12.7878 8.72632 12.989 8.36423L12.3333 8L11.6777 7.63577ZM19 15.7407H18.25C18.25 18.7067 15.5329 21.25 12 21.25V22V22.75C16.1991 22.75 19.75 19.6885 19.75 15.7407H19ZM12 22V21.25C8.46714 21.25 5.75 18.7067 5.75 15.7407H5H4.25C4.25 19.6885 7.80088 22.75 12 22.75V22ZM5 15.7407H5.75V9H5H4.25V15.7407H5ZM19 15.7407H19.75V9H19H18.25V15.7407H19ZM8 9V8.25H5V9V9.75H8V9ZM19 9V8.25H16V9V9.75H19V9ZM14.0741 15.0606H13.3241C13.3241 15.6709 12.7795 16.25 12 16.25V17V17.75C13.5114 17.75 14.8241 16.5926 14.8241 15.0606H14.0741ZM12 17V16.25C11.2205 16.25 10.6759 15.6709 10.6759 15.0606H9.9259H9.1759C9.1759 16.5926 10.4885 17.75 12 17.75V17ZM14.0741 15.0606H14.8241V11.5H14.0741H13.3241V15.0606H14.0741ZM9.9259 15.0606H10.6759V11.5H9.9259H9.1759V15.0606H9.9259ZM10 13V12.25H5V13V13.75H10V13ZM19 13V12.25H14V13V13.75H19V13ZM11.6667 2L11.011 1.63577L9.34438 4.63577L10 5L10.6556 5.36423L12.3223 2.36423L11.6667 2ZM10 5V5.75H14V5V4.25H10V5ZM14 5L13.3444 4.63577L11.6777 7.63577L12.3333 8L12.989 8.36423L14.6556 5.36423L14 5Z" fill="#141C25"/>
</svg>
