<svg width="24" height="24" viewBox="0 0 24 24" fill="none" xmlns="http://www.w3.org/2000/svg">
<path d="M5.5 11V6C5.5 6 5.5 2.5 8.5 2.5C12 2.5 12 6 12 6V10.5M5.5 11L9 7.5M5.5 11L2 7.5M11.6678 13.2953L4.36463 19.787C3.98446 20.1249 4.29295 20.7486 4.79225 20.6515L11.9046 19.2686C11.9676 19.2563 12.0324 19.2563 12.0954 19.2686L19.2078 20.6515C19.707 20.7486 20.0155 20.1249 19.6354 19.787L12.3322 13.2953C12.1427 13.1269 11.8573 13.1269 11.6678 13.2953Z" stroke="#141C25" stroke-width="1.5" stroke-linecap="round" stroke-linejoin="round"/>
</svg>
