<svg width="24" height="24" viewBox="0 0 24 24" fill="none" xmlns="http://www.w3.org/2000/svg">
<path d="M19.5 14.51L19.51 14.4989M13 18.2L16.5 17L22 19M2 10V3.6C2 3.26863 2.26863 3 2.6 3H8.77805C8.92127 3 9.05977 3.05124 9.16852 3.14445L12.3315 5.85555C12.4402 5.94876 12.5787 6 12.722 6H21.4C21.7314 6 22 6.26863 22 6.6V9M2 10V18.4C2 18.7314 2.26863 19 2.6 19H10M2 10H10M22 20.4V12.6C22 12.2686 21.7314 12 21.4 12H13.6C13.2686 12 13 12.2686 13 12.6V20.4C13 20.7314 13.2686 21 13.6 21H21.4C21.7314 21 22 20.7314 22 20.4Z" stroke="#141C25" stroke-width="1.5" stroke-linecap="round" stroke-linejoin="round"/>
</svg>
