<svg width="24" height="24" viewBox="0 0 24 24" fill="none" xmlns="http://www.w3.org/2000/svg">
<path d="M18 4H4.6C4.26863 4 4 4.26863 4 4.6V18M21 20.4V7.6C21 7.26863 20.7314 7 20.4 7H7.6C7.26863 7 7 7.26863 7 7.6V20.4C7 20.7314 7.26863 21 7.6 21H20.4C20.7314 21 21 20.7314 21 20.4ZM16.1425 14.5145L12.9087 16.4548C12.5088 16.6947 12 16.4067 12 15.9403V12.0597C12 11.5933 12.5088 11.3053 12.9087 11.5452L16.1425 13.4855C16.5309 13.7185 16.5309 14.2815 16.1425 14.5145Z" stroke="#141C25" stroke-width="1.5" stroke-linecap="round" stroke-linejoin="round"/>
</svg>
