<svg width="24" height="24" viewBox="0 0 24 24" fill="none" xmlns="http://www.w3.org/2000/svg">
<path d="M18 4H4.6C4.26863 4 4 4.26863 4 4.6V18M7 16.8L12.4444 15L21 18M21 20.4V7.6C21 7.26863 20.7314 7 20.4 7H7.6C7.26863 7 7 7.26863 7 7.6V20.4C7 20.7314 7.26863 21 7.6 21H20.4C20.7314 21 21 20.7314 21 20.4ZM15 11.5C15 12.3284 15.6716 13 16.5 13C17.3284 13 18 12.3284 18 11.5C18 10.6716 17.3284 10 16.5 10C15.6716 10 15 10.6716 15 11.5Z" stroke="#141C25" stroke-width="1.5" stroke-linecap="round" stroke-linejoin="round"/>
</svg>
