<svg width="24" height="24" viewBox="0 0 24 24" fill="none" xmlns="http://www.w3.org/2000/svg">
<path d="M14 14.0001V6.00008M14 14.0001L20.1023 17.4871C20.5023 17.7157 21 17.4269 21 16.9662V3.03399C21 2.5733 20.5023 2.28448 20.1023 2.51305L14 6.00008M14 14.0001H7M14 6.00008H7C4.79086 6.00008 3 7.79095 3 10.0001C3 12.2092 4.79086 14.0001 7 14.0001M7 14.0001L7.75716 19.3002C7.8965 20.2756 8.73186 21.0001 9.71716 21.0001C10.922 21.0001 11.8476 19.9329 11.6772 18.7402L11 14.0001H7Z" stroke="#141C25" stroke-width="1.5"/>
</svg>
