<svg width="24" height="24" viewBox="0 0 24 24" fill="none" xmlns="http://www.w3.org/2000/svg">
<path d="M5 22H7M7 22H19M7 22V19M7 19C5.34315 19 4 17.6569 4 16C4 14.3431 5.34315 13 7 13M7 19C8.65685 19 10 17.6569 10 16M10 16H19M10 16C10 14.3431 8.65685 13 7 13M12 2H16M12 7C9 7 7 8 7 11V13M16 11.4V4.6C16 4.26863 15.7314 4 15.4 4H12.6C12.2686 4 12 4.26863 12 4.6V11.4C12 11.7314 12.2686 12 12.6 12H15.4C15.7314 12 16 11.7314 16 11.4Z" stroke="#141C25" stroke-width="1.5" stroke-linecap="round" stroke-linejoin="round"/>
</svg>
