<svg width="24" height="24" viewBox="0 0 24 24" fill="none" xmlns="http://www.w3.org/2000/svg">
<path d="M13.9425 8.00827C13.6654 8.31616 13.6904 8.79037 13.9983 9.06747C14.3062 9.34456 14.7804 9.31961 15.0575 9.01173L14.5 8.51L13.9425 8.00827ZM15.0675 9.00062C15.3446 8.69273 15.3196 8.21852 15.0117 7.94142C14.7038 7.66433 14.2296 7.68928 13.9525 7.99716L14.51 8.49889L15.0675 9.00062ZM22 12H21.25C21.25 17.1086 17.1086 21.25 12 21.25V22V22.75C17.9371 22.75 22.75 17.9371 22.75 12H22ZM12 22V21.25C6.89137 21.25 2.75 17.1086 2.75 12H2H1.25C1.25 17.9371 6.06294 22.75 12 22.75V22ZM2 12H2.75C2.75 6.89137 6.89137 2.75 12 2.75V2V1.25C6.06294 1.25 1.25 6.06294 1.25 12H2ZM12 2V2.75C17.1086 2.75 21.25 6.89137 21.25 12H22H22.75C22.75 6.06294 17.9371 1.25 12 1.25V2ZM10 6H9.25C9.25 7.24264 8.24264 8.25 7 8.25V9V9.75C9.07107 9.75 10.75 8.07107 10.75 6H10ZM7.63263 3.06682L7.47522 3.80012C8.4898 4.0179 9.25 4.92104 9.25 6H10H10.75C10.75 4.19931 9.48157 2.69661 7.79003 2.33353L7.63263 3.06682ZM7 9V8.25C5.83889 8.25 4.88235 7.36987 4.76268 6.24084L4.01685 6.31989L3.27103 6.39895C3.47072 8.28281 5.06353 9.75 7 9.75V9ZM16 15.5H16.75C16.75 13.9812 17.9812 12.75 19.5 12.75V12V11.25C17.1528 11.25 15.25 13.1528 15.25 15.5H16ZM19.5 12V12.75C20.2696 12.75 20.9643 13.0652 21.4643 13.5754L22 13.0505L22.5357 12.5256C21.7652 11.7393 20.689 11.25 19.5 11.25V12ZM19 18.9646L19.1062 18.2221C17.7742 18.0316 16.75 16.8848 16.75 15.5H16H15.25C15.25 17.6417 16.8335 19.4123 18.8938 19.707L19 18.9646ZM14.5 8.51L15.0575 9.01173L15.0675 9.00062L14.51 8.49889L13.9525 7.99716L13.9425 8.00827L14.5 8.51ZM12 15H11.25C11.25 15.6904 10.6904 16.25 10 16.25V17V17.75C11.5188 17.75 12.75 16.5188 12.75 15H12ZM10 17V16.25C9.30964 16.25 8.75 15.6904 8.75 15H8H7.25C7.25 16.5188 8.48122 17.75 10 17.75V17ZM8 15H8.75C8.75 14.3096 9.30964 13.75 10 13.75V13V12.25C8.48122 12.25 7.25 13.4812 7.25 15H8ZM10 13V13.75C10.6904 13.75 11.25 14.3096 11.25 15H12H12.75C12.75 13.4812 11.5188 12.25 10 12.25V13Z" fill="#141C25"/>
</svg>
