<svg width="24" height="24" viewBox="0 0 24 24" fill="none" xmlns="http://www.w3.org/2000/svg">
<path d="M19 15L16 6L17 5M16 8.5L11.5 8.5L7 11.5M5.5 15.5H12L13 13L16.5 8.5M8.5 10C6.5 8.50001 3.5 8.50001 1.5 10M9 15C9 17.2091 7.20914 19 5 19C2.79086 19 1 17.2091 1 15C1 12.7909 2.79086 11 5 11C7.20914 11 9 12.7909 9 15ZM23 15C23 17.2091 21.2091 19 19 19C16.7909 19 15 17.2091 15 15C15 12.7909 16.7909 11 19 11C21.2091 11 23 12.7909 23 15Z" stroke="#141C25" stroke-width="1.5" stroke-linecap="round" stroke-linejoin="round"/>
</svg>
