<svg width="24" height="24" viewBox="0 0 24 24" fill="none" xmlns="http://www.w3.org/2000/svg">
<path d="M2.87109 21.1213L4.99241 19M4.99241 19L7.11373 16.8787M4.99241 19L2.87109 16.8787M4.99241 19L7.11373 21.1213M7.00023 2H16.5002L21.0002 6.5V19M11.0002 22H16.5002C17.3287 22 18.0002 21.3284 18.0002 20.5V8.74853C18.0002 8.5894 17.937 8.43679 17.8245 8.32426L14.676 5.17574C14.5634 5.06321 14.4108 5 14.2517 5H4.50023C3.6718 5 3.00023 5.67157 3.00023 6.5V13M14.0002 5V8.4C14.0002 8.73137 14.2689 9 14.6002 9H18.0002" stroke="#141C25" stroke-width="1.5" stroke-linecap="round" stroke-linejoin="round"/>
</svg>
