<svg width="24" height="24" viewBox="0 0 24 24" fill="none" xmlns="http://www.w3.org/2000/svg">
<path d="M10 11.25C9.58579 11.25 9.25 11.5858 9.25 12C9.25 12.4142 9.58579 12.75 10 12.75V12V11.25ZM11 12.75C11.4142 12.75 11.75 12.4142 11.75 12C11.75 11.5858 11.4142 11.25 11 11.25V12V12.75ZM5 6.25C4.58579 6.25 4.25 6.58579 4.25 7C4.25 7.41421 4.58579 7.75 5 7.75V7V6.25ZM6 7.75C6.41421 7.75 6.75 7.41421 6.75 7C6.75 6.58579 6.41421 6.25 6 6.25V7V7.75ZM7 11H6.25V19H7H7.75V11H7ZM9 21V21.75H20V21V20.25H9V21ZM22 19H22.75V11H22H21.25V19H22ZM20 9V8.25H9V9V9.75H20V9ZM22 11H22.75C22.75 9.48122 21.5188 8.25 20 8.25V9V9.75C20.6904 9.75 21.25 10.3096 21.25 11H22ZM20 21V21.75C21.5188 21.75 22.75 20.5188 22.75 19H22H21.25C21.25 19.6904 20.6904 20.25 20 20.25V21ZM7 19H6.25C6.25 20.5188 7.48122 21.75 9 21.75V21V20.25C8.30964 20.25 7.75 19.6904 7.75 19H7ZM7 11H7.75C7.75 10.3096 8.30964 9.75 9 9.75V9V8.25C7.48122 8.25 6.25 9.48122 6.25 11H7ZM2 6H1.25V14H2H2.75V6H2ZM15 4V3.25H4V4V4.75H15V4ZM4 16V16.75H6.5V16V15.25H4V16ZM17 9H17.75V6H17H16.25V9H17ZM15 4V4.75C15.6904 4.75 16.25 5.30964 16.25 6H17H17.75C17.75 4.48122 16.5188 3.25 15 3.25V4ZM2 14H1.25C1.25 15.5188 2.48122 16.75 4 16.75V16V15.25C3.30964 15.25 2.75 14.6904 2.75 14H2ZM2 6H2.75C2.75 5.30964 3.30964 4.75 4 4.75V4V3.25C2.48122 3.25 1.25 4.48122 1.25 6H2ZM10 12V12.75H11V12V11.25H10V12ZM5 7V7.75H6V7V6.25H5V7Z" fill="#141C25"/>
</svg>
