<svg width="24" height="24" viewBox="0 0 24 24" fill="none" xmlns="http://www.w3.org/2000/svg">
<path d="M9.44253 11.5083C9.16544 11.8162 9.19039 12.2904 9.49827 12.5675C9.80616 12.8446 10.2804 12.8196 10.5575 12.5117L10 12.01L9.44253 11.5083ZM10.5675 12.5006C10.8446 12.1927 10.8196 11.7185 10.5117 11.4414C10.2038 11.1643 9.72963 11.1893 9.45253 11.4972L10.01 11.9989L10.5675 12.5006ZM11.4425 11.5083C11.1654 11.8162 11.1904 12.2904 11.4983 12.5675C11.8062 12.8446 12.2804 12.8196 12.5575 12.5117L12 12.01L11.4425 11.5083ZM12.5675 12.5006C12.8446 12.1927 12.8196 11.7185 12.5117 11.4414C12.2038 11.1643 11.7296 11.1893 11.4525 11.4972L12.01 11.9989L12.5675 12.5006ZM13.4425 11.5083C13.1654 11.8162 13.1904 12.2904 13.4983 12.5675C13.8062 12.8446 14.2804 12.8196 14.5575 12.5117L14 12.01L13.4425 11.5083ZM14.5675 12.5006C14.8446 12.1927 14.8196 11.7185 14.5117 11.4414C14.2038 11.1643 13.7296 11.1893 13.4525 11.4972L14.01 11.9989L14.5675 12.5006ZM4.44253 6.50827C4.16544 6.81616 4.19039 7.29037 4.49827 7.56747C4.80616 7.84456 5.28037 7.81961 5.55747 7.51173L5 7.01L4.44253 6.50827ZM5.56747 7.50061C5.84456 7.19273 5.81961 6.71852 5.51173 6.44142C5.20384 6.16432 4.72963 6.18928 4.45253 6.49716L5.01 6.99889L5.56747 7.50061ZM6.44254 6.50827C6.16544 6.81615 6.19039 7.29036 6.49827 7.56746C6.80615 7.84456 7.28036 7.81961 7.55746 7.51173L7 7.01L6.44254 6.50827ZM7.56746 7.50062C7.84456 7.19274 7.81961 6.71853 7.51173 6.44143C7.20385 6.16433 6.72964 6.18928 6.45254 6.49716L7.01 6.99889L7.56746 7.50062ZM8.44254 6.50827C8.16544 6.81615 8.19039 7.29036 8.49827 7.56746C8.80615 7.84456 9.28036 7.81961 9.55746 7.51173L9 7.01L8.44254 6.50827ZM9.56746 7.50062C9.84456 7.19274 9.81961 6.71853 9.51173 6.44143C9.20385 6.16433 8.72964 6.18928 8.45254 6.49716L9.01 6.99889L9.56746 7.50062ZM7 11H6.25V19H7H7.75V11H7ZM9 21V21.75H20V21V20.25H9V21ZM22 19H22.75V11H22H21.25V19H22ZM20 9V8.25H9V9V9.75H20V9ZM22 11H22.75C22.75 9.48122 21.5188 8.25 20 8.25V9V9.75C20.6904 9.75 21.25 10.3096 21.25 11H22ZM20 21V21.75C21.5188 21.75 22.75 20.5188 22.75 19H22H21.25C21.25 19.6904 20.6904 20.25 20 20.25V21ZM7 19H6.25C6.25 20.5188 7.48122 21.75 9 21.75V21V20.25C8.30964 20.25 7.75 19.6904 7.75 19H7ZM7 11H7.75C7.75 10.3096 8.30964 9.75 9 9.75V9V8.25C7.48122 8.25 6.25 9.48122 6.25 11H7ZM10 12.01L10.5575 12.5117L10.5675 12.5006L10.01 11.9989L9.45253 11.4972L9.44253 11.5083L10 12.01ZM12 12.01L12.5575 12.5117L12.5675 12.5006L12.01 11.9989L11.4525 11.4972L11.4425 11.5083L12 12.01ZM14 12.01L14.5575 12.5117L14.5675 12.5006L14.01 11.9989L13.4525 11.4972L13.4425 11.5083L14 12.01ZM2 6H1.25V14H2H2.75V6H2ZM15 4V3.25H4V4V4.75H15V4ZM4 16V16.75H6.5V16V15.25H4V16ZM17 9H17.75V6H17H16.25V9H17ZM15 4V4.75C15.6904 4.75 16.25 5.30964 16.25 6H17H17.75C17.75 4.48122 16.5188 3.25 15 3.25V4ZM2 14H1.25C1.25 15.5188 2.48122 16.75 4 16.75V16V15.25C3.30964 15.25 2.75 14.6904 2.75 14H2ZM2 6H2.75C2.75 5.30964 3.30964 4.75 4 4.75V4V3.25C2.48122 3.25 1.25 4.48122 1.25 6H2ZM5 7.01L5.55747 7.51173L5.56747 7.50061L5.01 6.99889L4.45253 6.49716L4.44253 6.50827L5 7.01ZM7 7.01L7.55746 7.51173L7.56746 7.50062L7.01 6.99889L6.45254 6.49716L6.44254 6.50827L7 7.01ZM9 7.01L9.55746 7.51173L9.56746 7.50062L9.01 6.99889L8.45254 6.49716L8.44254 6.50827L9 7.01Z" fill="#141C25"/>
</svg>
