<svg width="24" height="24" viewBox="0 0 24 24" fill="none" xmlns="http://www.w3.org/2000/svg">
<path d="M15.2824 17.8978C16.2587 17.7405 17.1758 17.4065 18 16.9297L21.6 17.6L20.9297 14C21.6104 12.8233 22 11.4571 22 10C22 5.58172 18.4183 2 14 2C9.97262 2 6.64032 4.97598 6.08221 8.84884M13 16.5C13 19.5376 10.5376 22 7.5 22C6.49821 22 5.55898 21.7322 4.75 21.2642L2.275 21.725L2.7358 19.25C2.26783 18.441 2 17.5018 2 16.5C2 13.4624 4.46243 11 7.5 11C10.5376 11 13 13.4624 13 16.5Z" stroke="#141C25" stroke-width="1.5" stroke-linecap="round" stroke-linejoin="round"/>
</svg>
