<svg width="24" height="24" viewBox="0 0 24 24" fill="none" xmlns="http://www.w3.org/2000/svg">
<path d="M17.5 9.99998V6.45983C17.5 5.76048 17.1347 5.11192 16.5366 4.74944L13.0366 2.62823C12.3995 2.24209 11.6005 2.24209 10.9634 2.62823L7.4634 4.74944C6.86531 5.11192 6.5 5.76048 6.5 6.45984V9.99998M16 21H20C21.1046 21 22 20.1046 22 19V14.4598C22 13.7605 21.6347 13.1119 21.0366 12.7494L17.5314 10.6251C16.897 10.2406 16.1019 10.2388 15.4658 10.6205L14.8334 11M9 21V17.6C9 17.2686 8.73137 17 8.4 17H6.6C6.26863 17 6 17.2686 6 17.6V21M18 21V17.6C18 17.2686 17.7314 17 17.4 17H16M4 21H11C12.1046 21 13 20.1046 13 19V14.4598C13 13.7605 12.6347 13.1119 12.0366 12.7494L8.5366 10.6282C7.89947 10.2421 7.10053 10.2421 6.4634 10.6282L2.9634 12.7494C2.36531 13.1119 2 13.7605 2 14.4598V19C2 20.1046 2.89543 21 4 21Z" stroke="#141C25" stroke-width="1.5" stroke-linecap="round" stroke-linejoin="round"/>
</svg>
