<svg width="24" height="24" viewBox="0 0 24 24" fill="none" xmlns="http://www.w3.org/2000/svg">
<path d="M17 17.5H13.5C12.3954 17.5 11.5 16.6046 11.5 15.5V8.5C11.5 7.39543 12.3954 6.5 13.5 6.5H17M11.5 12H7M17 20.4V14.6C17 14.2686 17.2686 14 17.6 14H21.4C21.7314 14 22 14.2686 22 14.6V20.4C22 20.7314 21.7314 21 21.4 21H17.6C17.2686 21 17 20.7314 17 20.4ZM2 14.9V9.1C2 8.76863 2.26863 8.5 2.6 8.5H6.4C6.73137 8.5 7 8.76863 7 9.1V14.9C7 15.2314 6.73137 15.5 6.4 15.5H2.6C2.26863 15.5 2 15.2314 2 14.9ZM17 9.4V3.6C17 3.26863 17.2686 3 17.6 3H21.4C21.7314 3 22 3.26863 22 3.6V9.4C22 9.73137 21.7314 10 21.4 10H17.6C17.2686 10 17 9.73137 17 9.4Z" stroke="#141C25" stroke-width="1.5"/>
</svg>
