<svg width="24" height="24" viewBox="0 0 24 24" fill="none" xmlns="http://www.w3.org/2000/svg">
<path d="M7 17.5H10.5C11.6046 17.5 12.5 16.6046 12.5 15.5V8.5C12.5 7.39543 11.6046 6.5 10.5 6.5H7M12.5 12H17M7 20.4V14.6C7 14.2686 6.73137 14 6.4 14H2.6C2.26863 14 2 14.2686 2 14.6V20.4C2 20.7314 2.26863 21 2.6 21H6.4C6.73137 21 7 20.7314 7 20.4ZM22 14.9V9.1C22 8.76863 21.7314 8.5 21.4 8.5H17.6C17.2686 8.5 17 8.76863 17 9.1V14.9C17 15.2314 17.2686 15.5 17.6 15.5H21.4C21.7314 15.5 22 15.2314 22 14.9ZM7 9.4V3.6C7 3.26863 6.73137 3 6.4 3H2.6C2.26863 3 2 3.26863 2 3.6V9.4C2 9.73137 2.26863 10 2.6 10H6.4C6.73137 10 7 9.73137 7 9.4Z" stroke="#141C25" stroke-width="1.5"/>
</svg>
