<svg width="24" height="24" viewBox="0 0 24 24" fill="none" xmlns="http://www.w3.org/2000/svg">
<path d="M14 11.9976C14 9.5059 11.683 7 8.85714 7C8.52241 7 7.41904 7.00001 7.14286 7.00001C4.30254 7.00001 2 9.23752 2 11.9976C2 14.376 3.70973 16.3664 6 16.8714C6.36756 16.9525 6.75006 16.9952 7.14286 16.9952" stroke="#141C25" stroke-width="1.5" stroke-linecap="round" stroke-linejoin="round"/>
<path d="M16.8571 6.99984C17.2499 6.99984 17.6324 7.04263 18 7.12367C20.2903 7.62869 22 9.61905 22 11.9975C22 13.4394 21.3716 14.7387 20.3664 15.6509" stroke="#141C25" stroke-width="1.5" stroke-linecap="round" stroke-linejoin="round"/>
<path d="M10.0002 11.9975C10.0002 14.4892 12.3172 16.9951 15.1431 16.9951" stroke="#141C25" stroke-width="1.5" stroke-linecap="round" stroke-linejoin="round"/>
<path d="M18 22.2426L20.1213 20.1213M20.1213 20.1213L22.2426 18M20.1213 20.1213L18 18M20.1213 20.1213L22.2426 22.2426" stroke="#141C25" stroke-width="1.5" stroke-linecap="round" stroke-linejoin="round"/>
</svg>
