<svg width="24" height="24" viewBox="0 0 24 24" fill="none" xmlns="http://www.w3.org/2000/svg">
<path d="M18 15V18M18 18H2.6C2.26863 18 2 17.7314 2 17.4V15.6C2 15.2686 2.26863 15 2.6 15H15L18 18ZM11 2V6C11 7.65685 12.3434 9 14.0002 9H15C17 9 18 10 18 11M18.625 5.09375C18.25 5 18 5 18 5C18 5 18.25 5.0625 18.625 5.09375ZM18.625 5.09375C19.75 5.375 22 6.5 22 11M18.625 5.09375C19.75 5.1875 22 5 22 2M22 15V18M3 3L21 21" stroke="#141C25" stroke-width="1.5" stroke-linecap="round" stroke-linejoin="round"/>
</svg>
