<svg width="24" height="24" viewBox="0 0 24 24" fill="none" xmlns="http://www.w3.org/2000/svg">
<path d="M15.75 12C15.75 11.5858 15.4142 11.25 15 11.25C14.5858 11.25 14.25 11.5858 14.25 12H15H15.75ZM15 15V15.75C15.4142 15.75 15.75 15.4142 15.75 15H15ZM10.75 3C10.75 2.58579 10.4142 2.25 10 2.25C9.58579 2.25 9.25 2.58579 9.25 3H10H10.75ZM14.25 9C14.25 9.41421 14.5858 9.75 15 9.75C15.4142 9.75 15.75 9.41421 15.75 9H15H14.25ZM18.75 4C18.75 3.58578 18.4142 3.25 18 3.25C17.5858 3.25 17.25 3.58579 17.25 4L18 4L18.75 4ZM17.25 9C17.25 9.41422 17.5858 9.75 18 9.75C18.4142 9.75 18.75 9.41421 18.75 9L18 9L17.25 9ZM18.75 12C18.75 11.5858 18.4142 11.25 18 11.25C17.5858 11.25 17.25 11.5858 17.25 12H18H18.75ZM17.25 15C17.25 15.4142 17.5858 15.75 18 15.75C18.4142 15.75 18.75 15.4142 18.75 15H18H17.25ZM5.53033 4.46967C5.23744 4.17678 4.76256 4.17678 4.46967 4.46967C4.17678 4.76256 4.17678 5.23744 4.46967 5.53033L5 5L5.53033 4.46967ZM18.4697 19.5303C18.7626 19.8232 19.2374 19.8232 19.5303 19.5303C19.8232 19.2374 19.8232 18.7626 19.5303 18.4697L19 19L18.4697 19.5303ZM15 12H14.25V15H15H15.75V12H15ZM10 4.14286H10.75V3H10H9.25V4.14286H10ZM12.8571 7V7.75C13.3853 7.75 13.7183 7.92917 13.9212 8.14224C14.1335 8.36516 14.25 8.67441 14.25 9H15H15.75C15.75 8.32559 15.5094 7.63484 15.0074 7.10776C14.496 6.57083 13.7576 6.25 12.8571 6.25V7ZM10 4.14286H9.25C9.25 6.13503 10.865 7.75 12.8571 7.75V7V6.25C11.6934 6.25 10.75 5.3066 10.75 4.14286H10ZM18 4L17.25 4L17.25 9L18 9L18.75 9L18.75 4L18 4ZM18 12H17.25V15H18H18.75V12H18ZM15 15V14.25H6.6V15V15.75H15V15ZM6 14.4H6.75V12.6H6H5.25V14.4H6ZM6.6 12V12.75H12V12V11.25H6.6V12ZM6.6 15V14.25C6.68284 14.25 6.75 14.3172 6.75 14.4H6H5.25C5.25 15.1456 5.85442 15.75 6.6 15.75V15ZM6 12.6H6.75C6.75 12.6828 6.68284 12.75 6.6 12.75V12V11.25C5.85441 11.25 5.25 11.8544 5.25 12.6H6ZM5 5L4.46967 5.53033L18.4697 19.5303L19 19L19.5303 18.4697L5.53033 4.46967L5 5ZM22 12H21.25C21.25 17.1086 17.1086 21.25 12 21.25V22V22.75C17.9371 22.75 22.75 17.9371 22.75 12H22ZM12 22V21.25C6.89137 21.25 2.75 17.1086 2.75 12H2H1.25C1.25 17.9371 6.06294 22.75 12 22.75V22ZM2 12H2.75C2.75 6.89137 6.89137 2.75 12 2.75V2V1.25C6.06294 1.25 1.25 6.06294 1.25 12H2ZM12 2V2.75C17.1086 2.75 21.25 6.89137 21.25 12H22H22.75C22.75 6.06294 17.9371 1.25 12 1.25V2Z" fill="#141C25"/>
</svg>
