<svg width="24" height="24" viewBox="0 0 24 24" fill="none" xmlns="http://www.w3.org/2000/svg">
<path d="M3 5L15 5M20.5 7V3L19 4.5M21 14H19L20.9047 11.0371C20.9669 10.9403 21.0021 10.8268 20.9771 10.7145C20.9193 10.4557 20.716 10 20 10C19 10 19 10.8889 19 10.8889V11.1111M19 21H20C20.5523 21 21 20.5523 21 20C21 19.4477 20.5523 19 20 19V19C19.794 19 19.6764 18.7648 19.8 18.6L21 17H19M3 12L15 12M3 19L15 19" stroke="#141C25" stroke-width="1.5" stroke-linecap="round" stroke-linejoin="round"/>
</svg>
