<svg width="24" height="24" viewBox="0 0 24 24" fill="none" xmlns="http://www.w3.org/2000/svg">
<path d="M11.75 2C11.75 1.58579 11.4142 1.25 11 1.25C10.5858 1.25 10.25 1.58579 10.25 2H11H11.75ZM17.25 10C17.25 10.4142 17.5858 10.75 18 10.75C18.4142 10.75 18.75 10.4142 18.75 10H18H17.25ZM6 6L6.5332 5.47255L6 4.93355L5.4668 5.47255L6 6ZM21 21V21.75C21.4142 21.75 21.75 21.4142 21.75 21H21ZM18 12V11.25C17.5858 11.25 17.25 11.5858 17.25 12H18ZM21 12H21.75C21.75 11.5858 21.4142 11.25 21 11.25V12ZM14.5 14L14.9359 13.3897C14.6889 13.2133 14.3599 13.2031 14.1025 13.364L14.5 14ZM10.5 16.5L10.1025 15.864C9.88321 16.0011 9.75 16.2414 9.75 16.5H10.5ZM10.5 21H9.75C9.75 21.4142 10.0858 21.75 10.5 21.75V21ZM17 4V3.25C16.6039 3.25 16.2761 3.55804 16.2514 3.9534C16.2268 4.34875 16.5139 4.69508 16.907 4.74421L17 4ZM20.25 10C20.25 10.4142 20.5858 10.75 21 10.75C21.4142 10.75 21.75 10.4142 21.75 10H21H20.25ZM21.75 2C21.75 1.58579 21.4142 1.25 21 1.25C20.5858 1.25 20.25 1.58579 20.25 2H21H21.75ZM11 5H11.75V2H11H10.25V5H11ZM14.0002 8V8.75H15V8V7.25H14.0002V8ZM15 8V8.75C16.8 8.75 17.25 9.6 17.25 10H18H18.75C18.75 8.4 17.2 7.25 15 7.25V8ZM11 5H10.25C10.25 7.07114 11.9292 8.75 14.0002 8.75V8V7.25C12.7575 7.25 11.75 6.24257 11.75 5H11ZM9 10.8H9.75C9.75 10.173 9.49323 9.52023 9.19452 8.95432C8.88621 8.3702 8.48396 7.78843 8.09539 7.28118C7.70477 6.77124 7.31599 6.32112 7.02576 5.99924C6.88028 5.83789 6.75865 5.70775 6.67274 5.61729C6.62977 5.57204 6.59567 5.53665 6.57194 5.51219C6.56007 5.49996 6.55078 5.49045 6.54426 5.4838C6.541 5.48048 6.53844 5.47787 6.53659 5.47599C6.53566 5.47505 6.53491 5.47429 6.53435 5.47372C6.53406 5.47343 6.53383 5.47319 6.53363 5.47299C6.53354 5.4729 6.53343 5.47279 6.53338 5.47274C6.53328 5.47264 6.5332 5.47255 6 6C5.4668 6.52745 5.46674 6.52738 5.46669 6.52733C5.46669 6.52733 5.46664 6.52729 5.46664 6.52728C5.46663 6.52727 5.46667 6.52731 5.46675 6.52739C5.46691 6.52755 5.46725 6.5279 5.46776 6.52842C5.46879 6.52947 5.47053 6.53124 5.47295 6.5337C5.47778 6.53864 5.48535 6.54638 5.49545 6.55679C5.51566 6.57761 5.54602 6.60911 5.58507 6.65024C5.66323 6.73253 5.77597 6.85313 5.91174 7.0037C6.18401 7.30568 6.54523 7.72419 6.90461 8.19334C7.26604 8.66517 7.61379 9.17295 7.86798 9.65451C8.13177 10.1543 8.25 10.5434 8.25 10.8H9ZM6 6C5.4668 5.47255 5.46672 5.47264 5.46662 5.47274C5.46657 5.47279 5.46646 5.4729 5.46637 5.47299C5.46617 5.47319 5.46594 5.47343 5.46565 5.47372C5.46509 5.47429 5.46434 5.47505 5.46341 5.47599C5.46156 5.47787 5.459 5.48048 5.45574 5.4838C5.44922 5.49045 5.43993 5.49996 5.42806 5.51219C5.40433 5.53665 5.37023 5.57204 5.32726 5.61729C5.24135 5.70775 5.11972 5.83789 4.97424 5.99924C4.68401 6.32112 4.29523 6.77124 3.90461 7.28118C3.51604 7.78843 3.11379 8.3702 2.80548 8.95432C2.50677 9.52023 2.25 10.173 2.25 10.8H3H3.75C3.75 10.5434 3.86823 10.1543 4.13202 9.65451C4.38621 9.17295 4.73396 8.66517 5.09539 8.19334C5.45477 7.72419 5.81599 7.30568 6.08826 7.0037C6.22403 6.85313 6.33677 6.73253 6.41493 6.65024C6.45398 6.60911 6.48434 6.57761 6.50455 6.55679C6.51465 6.54638 6.52222 6.53864 6.52705 6.5337C6.52947 6.53124 6.53121 6.52947 6.53224 6.52842C6.53275 6.5279 6.53309 6.52755 6.53325 6.52739C6.53333 6.52731 6.53337 6.52727 6.53336 6.52728C6.53336 6.52729 6.53331 6.52733 6.53331 6.52733C6.53326 6.52738 6.5332 6.52745 6 6ZM3 10.8H2.25C2.25 12.9352 3.88407 14.75 6 14.75V14V13.25C4.80222 13.25 3.75 12.1994 3.75 10.8H3ZM6 14V14.75C8.11593 14.75 9.75 12.9352 9.75 10.8H9H8.25C8.25 12.1994 7.19778 13.25 6 13.25V14ZM21 21V20.25H18V21V21.75H21V21ZM18 12V12.75H21V12V11.25H18V12ZM21 12H20.25V21H21H21.75V12H21ZM18 21H18.75V16.5H18H17.25V21H18ZM18 16.5H18.75V12H18H17.25V16.5H18ZM18 16.5L18.4359 15.8897L14.9359 13.3897L14.5 14L14.0641 14.6103L17.5641 17.1103L18 16.5ZM14.5 14L14.1025 13.364L10.1025 15.864L10.5 16.5L10.8975 17.136L14.8975 14.636L14.5 14ZM10.5 21V21.75H18V21V20.25H10.5V21ZM10.5 21H11.25V16.5H10.5H9.75V21H10.5ZM17 4C17 4.75 16.9999 4.75 16.9998 4.75C16.9998 4.75 16.9997 4.75 16.9997 4.75C16.9995 4.75 16.9994 4.75 16.9993 4.75C16.9991 4.75 16.9989 4.75 16.9987 4.75C16.9983 4.75 16.9979 4.75 16.9975 4.75C16.9968 4.74999 16.9961 4.74999 16.9956 4.74998C16.9944 4.74998 16.9937 4.74997 16.9933 4.74996C16.9925 4.74995 16.9931 4.74995 16.9951 4.75001C16.9991 4.75014 17.0084 4.75049 17.0227 4.75141C17.0514 4.75325 17.0995 4.75734 17.1632 4.76631L17.2677 4.02362L17.3721 3.28093C17.2679 3.26628 17.1822 3.25856 17.119 3.2545C17.0873 3.25246 17.0613 3.25134 17.0413 3.25073C17.0313 3.25042 17.0228 3.25024 17.0159 3.25013C17.0125 3.25008 17.0094 3.25005 17.0068 3.25003C17.0054 3.25002 17.0042 3.25001 17.0031 3.25001C17.0025 3.25 17.002 3.25 17.0015 3.25C17.0012 3.25 17.001 3.25 17.0007 3.25C17.0006 3.25 17.0005 3.25 17.0004 3.25C17.0003 3.25 17.0002 3.25 17.0002 3.25C17.0001 3.25 17 3.25 17 4ZM17.2677 4.02362L17.1632 4.76631C17.5116 4.8153 18.2653 4.99956 18.9313 5.68642C19.5859 6.36146 20.25 7.61929 20.25 10H21H21.75C21.75 7.32808 20.9958 5.6607 20.0082 4.6422C19.032 3.63552 17.9195 3.35791 17.3721 3.28093L17.2677 4.02362ZM17 4C16.907 4.74421 16.907 4.74421 16.907 4.74422C16.9071 4.74422 16.9071 4.74422 16.9071 4.74423C16.9072 4.74423 16.9072 4.74424 16.9073 4.74425C16.9074 4.74426 16.9075 4.74427 16.9076 4.74429C16.9079 4.74432 16.9081 4.74435 16.9084 4.74439C16.909 4.74446 16.9096 4.74454 16.9104 4.74463C16.912 4.74482 16.9139 4.74505 16.9162 4.74533C16.9208 4.74588 16.927 4.74659 16.9346 4.74745C16.9499 4.74916 16.971 4.75143 16.9975 4.75404C17.0506 4.75925 17.1254 4.76582 17.218 4.77197L17.2677 4.02362L17.3174 3.27527C17.242 3.27026 17.183 3.26503 17.1442 3.26122C17.1248 3.25931 17.1105 3.25777 17.1018 3.2568C17.0975 3.25631 17.0945 3.25596 17.093 3.25579C17.0923 3.2557 17.0919 3.25565 17.0919 3.25565C17.0919 3.25565 17.092 3.25566 17.0922 3.25569C17.0923 3.2557 17.0924 3.25571 17.0925 3.25573C17.0926 3.25574 17.0927 3.25575 17.0928 3.25576C17.0928 3.25576 17.0928 3.25577 17.0929 3.25577C17.0929 3.25578 17.0929 3.25578 17.093 3.25578C17.093 3.25579 17.093 3.25579 17 4ZM17.2677 4.02362L17.218 4.77197C17.689 4.80325 18.7333 4.83201 19.6883 4.54103C20.1708 4.39402 20.6853 4.1493 21.0851 3.73076C21.502 3.2943 21.75 2.71385 21.75 2H21H20.25C20.25 2.33878 20.1434 2.54503 20.0005 2.69466C19.8404 2.86222 19.5898 3.00298 19.2512 3.10615C18.564 3.31553 17.7421 3.30347 17.3174 3.27527L17.2677 4.02362Z" fill="#141C25"/>
</svg>
