<svg width="24" height="24" viewBox="0 0 24 24" fill="none" xmlns="http://www.w3.org/2000/svg">
<path d="M7.4998 12L5.49571 14.6721C4.91825 15.4421 4.97107 16.5141 5.6214 17.2236L9.4053 21.3514C9.78412 21.7647 10.3181 22 10.8787 22H15.4998C17.8998 22 19.4998 20 19.4998 18V9.42857C19.4998 7.14286 16.4998 7.1428 16.4998 9.42852M7.4998 12V3.5C7.4998 2.67157 8.17137 2 8.9998 2C9.82823 2 10.4998 2.67056 10.4998 3.49899V7.50005M7.4998 12V15M16.4998 9.42852V9.99995M16.4998 9.42852V8.2857C16.4998 5.99998 13.4998 5.99998 13.4998 8.2857M13.4998 8.2857V9.99998M13.4998 8.2857V7.50005C13.4998 5.21434 10.4998 5.21434 10.4998 7.50005M10.4998 7.50005V10.0001" stroke="#141C25" stroke-width="1.5" stroke-linecap="round" stroke-linejoin="round"/>
</svg>
