<svg width="24" height="24" viewBox="0 0 24 24" fill="none" xmlns="http://www.w3.org/2000/svg">
<path d="M17 9.42852V9.99995M17 9.42852C17 7.1428 20 7.14286 20 9.42857V18C20 20 18.4 22 16 22H11.3655C10.8127 22 10.2855 21.7712 9.9074 21.3679L3.96545 15.0298C3.4175 14.4453 3.40197 13.5406 3.92954 12.9377C4.5133 12.2705 5.53523 12.224 6.17717 12.8354L8.00001 14.5714V3.5C8.00001 2.67157 8.67158 2 9.50001 2C10.3284 2 11 2.67056 11 3.49899V7.50005M17 9.42852V8.2857C17 5.99998 14 5.99998 14 8.2857M14 8.2857V9.99998M14 8.2857V7.50005C14 5.21434 11 5.21434 11 7.50005M11 7.50005V10.0001" stroke="#141C25" stroke-width="1.5" stroke-linecap="round" stroke-linejoin="round"/>
</svg>
