<svg width="24" height="24" viewBox="0 0 24 24" fill="none" xmlns="http://www.w3.org/2000/svg">
<path d="M12 12C9.9 14.2588 9 18 9 18M16.5601 11.1306L16.1857 7.24133C16.1587 6.96107 15.9096 6.75575 15.6293 6.78274L11.4826 7.18203C9.00691 7.4204 7.19324 9.62056 7.43162 12.0962C7.67 14.5718 9.91266 16.3814 12.3883 16.143C14.9114 15.9001 16.8031 13.6536 16.5601 11.1306ZM21 20.4V3.6C21 3.26863 20.7314 3 20.4 3H3.6C3.26863 3 3 3.26863 3 3.6V20.4C3 20.7314 3.26863 21 3.6 21H20.4C20.7314 21 21 20.7314 21 20.4Z" stroke="#141C25" stroke-width="1.5" stroke-linecap="round" stroke-linejoin="round"/>
</svg>
