<svg width="24" height="24" viewBox="0 0 24 24" fill="none" xmlns="http://www.w3.org/2000/svg">
<path d="M6 16V13M12 6V3M18 16V13M9.99999 19L9.99998 15C9.99998 13.8954 9.10455 13 7.99998 13H4C2.89543 13 2 13.8954 2 15V19C2 20.1046 2.89543 21 4 21H7.99999C9.10457 21 10 20.1046 9.99999 19ZM16 8.99999L16 4.99999C16 3.89543 15.1045 3 14 3H10C8.89543 3 8 3.89543 8 5V9C8 10.1046 8.89543 11 10 11H14C15.1046 11 16 10.1046 16 8.99999ZM22 19L22 15C22 13.8954 21.1045 13 20 13H16C14.8954 13 14 13.8954 14 15V19C14 20.1046 14.8954 21 16 21H20C21.1046 21 22 20.1046 22 19Z" stroke="#141C25" stroke-width="1.5" stroke-linecap="round" stroke-linejoin="round"/>
</svg>
