<svg width="24" height="24" viewBox="0 0 24 24" fill="none" xmlns="http://www.w3.org/2000/svg">
<path d="M10 8.5V7.75C9.58579 7.75 9.25 8.08579 9.25 8.5H10ZM9.25 15.5C9.25 15.9142 9.58579 16.25 10 16.25C10.4142 16.25 10.75 15.9142 10.75 15.5H10H9.25ZM10 8.5V9.25H12.8571V8.5V7.75H10V8.5ZM12.8571 8.5V9.25C13.2421 9.25 13.5717 9.26518 13.8163 9.40902C13.9745 9.50207 14.25 9.73935 14.25 10.6H15H15.75C15.75 9.36065 15.3112 8.54793 14.5766 8.11598C13.9283 7.73482 13.1865 7.75 12.8571 7.75V8.5ZM15 10.6H14.25C14.25 11.4606 13.9745 11.6979 13.8163 11.791C13.5717 11.9348 13.2421 11.95 12.8571 11.95V12.7V13.45C13.1865 13.45 13.9283 13.4652 14.5766 13.084C15.3112 12.6521 15.75 11.8394 15.75 10.6H15ZM10 12.7H9.25V15.5H10H10.75V12.7H10ZM12.8571 12.7V11.95H10V12.7V13.45H12.8571V12.7ZM10 8.5H9.25V12.7H10H10.75V8.5H10ZM22 12H21.25C21.25 17.1086 17.1086 21.25 12 21.25V22V22.75C17.9371 22.75 22.75 17.9371 22.75 12H22ZM12 22V21.25C6.89137 21.25 2.75 17.1086 2.75 12H2H1.25C1.25 17.9371 6.06294 22.75 12 22.75V22ZM2 12H2.75C2.75 6.89137 6.89137 2.75 12 2.75V2V1.25C6.06294 1.25 1.25 6.06294 1.25 12H2ZM12 2V2.75C17.1086 2.75 21.25 6.89137 21.25 12H22H22.75C22.75 6.06294 17.9371 1.25 12 1.25V2Z" fill="#141C25"/>
</svg>
