<svg width="24" height="24" viewBox="0 0 24 24" fill="none" xmlns="http://www.w3.org/2000/svg">
<path d="M8.5 4H6C4.89543 4 4 4.89543 4 6V20C4 21.1046 4.89543 22 6 22H18C19.1046 22 20 21.1046 20 20V6C20 4.89543 19.1046 4 18 4H15.5M8.5 4C8.77614 4 9.00422 3.77604 9.05152 3.50398C9.19968 2.65171 9.77399 1 12 1C14.226 1 14.8003 2.65171 14.9485 3.50398C14.9958 3.77604 15.2239 4 15.5 4M8.5 4C8.22386 4 8 4.22386 8 4.5V6.4C8 6.73137 8.26863 7 8.6 7H15.4C15.7314 7 16 6.73137 16 6.4V4.5C16 4.22386 15.7761 4 15.5 4" stroke="#141C25" stroke-width="1.5" stroke-linecap="round"/>
</svg>
