<svg width="24" height="24" viewBox="0 0 24 24" fill="none" xmlns="http://www.w3.org/2000/svg">
<path d="M10.9258 8.44611V3.61153C10.9258 2.72151 11.6473 2 12.5373 2C13.4273 2 14.1488 2.72151 14.1488 3.61153V9.47163L15.4779 4.70743C15.7142 3.8609 16.5943 3.3684 17.4394 3.60984C18.2886 3.85248 18.7755 4.74265 18.5217 5.58862L16.346 12.841M7.84946 9.76511L7.71382 9.48986C7.31885 8.68832 7.66469 7.71892 8.4778 7.34836C9.27613 6.98454 10.2181 7.33892 10.5787 8.13874L11.6518 10.5192C11.8998 11.0692 11.9239 11.694 11.7192 12.2615M13.8566 17.6767L14.3487 16.6927C14.3976 16.5947 14.3461 16.4763 14.241 16.4454L10.6903 15.4011C9.97853 15.1918 9.51797 14.5038 9.59563 13.766C9.68372 12.9292 10.4284 12.3188 11.2662 12.3968L16.0542 12.8422C16.0542 12.8422 19.8632 13.4282 18.5447 17.2372L18.5222 17.3024C17.2211 21.0614 16.7699 22.3648 13.8566 22.3648H8.87555C6.52912 22.3648 4.62697 20.4627 4.62697 18.1163L4.48047 9.91211M8.67489 11.5913L7.61935 9.24985C7.25251 8.43614 6.29415 8.07559 5.48193 8.44574C4.67439 8.81376 4.31637 9.76542 4.68109 10.5745L5.73663 12.9159C6.10347 13.7296 7.06183 14.0901 7.87404 13.72C8.68159 13.352 9.03961 12.4003 8.67489 11.5913Z" stroke="#141C25" stroke-width="1.5" stroke-linecap="round"/>
</svg>
