<svg width="24" height="24" viewBox="0 0 24 24" fill="none" xmlns="http://www.w3.org/2000/svg">
<path d="M8 9.76L8.01 9.74889M3 6.24992C5.5 3.25002 10.5 3.25 13 6.25002M5 8.25004C6.5 6.25001 9.5 6.25 11 8.25004M17.5 6.5L18.5 5.5C19.3284 4.67158 20.6716 4.67158 21.5 5.5C22.3284 6.32843 22.3284 7.67158 21.5 8.50001L20.5 9.50001M17.5 6.5L6.69591 17.3041C6.56775 17.4323 6.47684 17.5928 6.43288 17.7687L5.5 21.5L9.23128 20.5672C9.40711 20.5232 9.5677 20.4323 9.69585 20.3041L20.5 9.50001M17.5 6.5L20.5 9.50001" stroke="#141C25" stroke-width="1.5" stroke-linecap="round" stroke-linejoin="round"/>
</svg>
