<svg width="24" height="24" viewBox="0 0 24 24" fill="none" xmlns="http://www.w3.org/2000/svg">
<path d="M15.9881 12.0694C16.3026 11.7999 16.339 11.3264 16.0694 11.0119C15.7999 10.6974 15.3264 10.661 15.0119 10.9306L15.5 11.5L15.9881 12.0694ZM11.5119 13.9306C11.1974 14.2001 11.161 14.6736 11.4306 14.9881C11.7001 15.3026 12.1736 15.339 12.4881 15.0694L12 14.5L11.5119 13.9306ZM16.4425 9.50827C16.1654 9.81616 16.1904 10.2904 16.4983 10.5675C16.8062 10.8446 17.2804 10.8196 17.5575 10.5117L17 10.01L16.4425 9.50827ZM17.5675 10.5006C17.8446 10.1927 17.8196 9.71852 17.5117 9.44142C17.2038 9.16433 16.7296 9.18928 16.4525 9.49716L17.01 9.99889L17.5675 10.5006ZM22 19H22.75V5H22H21.25V19H22ZM20 3V2.25H4V3V3.75H20V3ZM2 5H1.25V19H2H2.75V5H2ZM4 21V21.75H20V21V20.25H4V21ZM22 5H22.75C22.75 3.48122 21.5188 2.25 20 2.25V3V3.75C20.6904 3.75 21.25 4.30964 21.25 5H22ZM22 19H21.25C21.25 19.6904 20.6904 20.25 20 20.25V21V21.75C21.5188 21.75 22.75 20.5188 22.75 19H22ZM2 19H1.25C1.25 20.5188 2.48122 21.75 4 21.75V21V20.25C3.30964 20.25 2.75 19.6904 2.75 19H2ZM4 3V2.25C2.48122 2.25 1.25 3.48122 1.25 5H2H2.75C2.75 4.30964 3.30964 3.75 4 3.75V3ZM2 12V12.75H6V12V11.25H2V12ZM6 3H5.25V21H6H6.75V3H6ZM15.5 11.5L15.0119 10.9306L11.5119 13.9306L12 14.5L12.4881 15.0694L15.9881 12.0694L15.5 11.5ZM17 10.01L17.5575 10.5117L17.5675 10.5006L17.01 9.99889L16.4525 9.49716L16.4425 9.50827L17 10.01Z" fill="#141C25"/>
</svg>
