<svg width="24" height="24" viewBox="0 0 24 24" fill="none" xmlns="http://www.w3.org/2000/svg">
<path d="M6.50006 17.4999L5.5 21.5L9.23128 20.5672C9.40711 20.5232 9.56769 20.4323 9.69585 20.3041L21.5 8.5C22.3284 7.67157 22.3284 6.32843 21.5 5.5C20.6716 4.67157 19.3284 4.67157 18.5 5.5L14.5 9.5M17.5 6.5L20.5 9.5M5 6.6L8.29412 9M8.29412 9L8.33333 9.02857M8.29412 9L8.33333 8.97143M8.29412 9L5 11.4M8.33333 9.02857L12 11.7L8.33333 15V9.02857ZM8.33333 9.02857V8.97143M8.33333 8.97143V3L12 6.3L8.33333 8.97143Z" stroke="#141C25" stroke-width="1.5" stroke-linecap="round" stroke-linejoin="round"/>
</svg>
