<svg width="24" height="24" viewBox="0 0 24 24" fill="none" xmlns="http://www.w3.org/2000/svg">
<path d="M21.25 7C21.25 7.41421 21.5858 7.75 22 7.75C22.4142 7.75 22.75 7.41421 22.75 7H22H21.25ZM22.75 17C22.75 16.5858 22.4142 16.25 22 16.25C21.5858 16.25 21.25 16.5858 21.25 17H22H22.75ZM11 11.25C10.5858 11.25 10.25 11.5858 10.25 12C10.25 12.4142 10.5858 12.75 11 12.75V12V11.25ZM19.4231 12.1989C19.533 11.7995 19.2982 11.3867 18.8988 11.2768C18.4995 11.167 18.0867 11.4017 17.9768 11.8011L18.7 12L19.4231 12.1989ZM17.875 15V15.75C18.2126 15.75 18.5086 15.5244 18.5981 15.1989L17.875 15ZM16.225 14.25C15.8108 14.25 15.475 14.5858 15.475 15C15.475 15.4142 15.8108 15.75 16.225 15.75V15V14.25ZM16.8958 12.2582C17.0384 12.6471 17.4692 12.8468 17.8581 12.7042C18.247 12.5616 18.4467 12.1307 18.3041 11.7418L17.6 12L16.8958 12.2582ZM16.5 9L17.2041 8.74181C17.0958 8.4464 16.8146 8.25 16.5 8.25V9ZM14.575 8.25C14.1607 8.25 13.825 8.58579 13.825 9C13.825 9.41421 14.1607 9.75 14.575 9.75V9V8.25ZM22 7H22.75V5H22H21.25V7H22ZM22 19H22.75V17H22H21.25V19H22ZM20 3V2.25H4V3V3.75H20V3ZM2 5H1.25V19H2H2.75V5H2ZM4 21V21.75H20V21V20.25H4V21ZM22 5H22.75C22.75 3.48122 21.5188 2.25 20 2.25V3V3.75C20.6904 3.75 21.25 4.30964 21.25 5H22ZM22 19H21.25C21.25 19.6904 20.6904 20.25 20 20.25V21V21.75C21.5188 21.75 22.75 20.5188 22.75 19H22ZM2 19H1.25C1.25 20.5188 2.48122 21.75 4 21.75V21V20.25C3.30964 20.25 2.75 19.6904 2.75 19H2ZM4 3V2.25C2.48122 2.25 1.25 3.48122 1.25 5H2H2.75C2.75 4.30964 3.30964 3.75 4 3.75V3ZM2 12V12.75H6V12V11.25H2V12ZM6 3H5.25V21H6H6.75V3H6ZM19.25 12V11.25H11V12V12.75H19.25V12ZM18.7 12L17.9768 11.8011L17.1518 14.8011L17.875 15L18.5981 15.1989L19.4231 12.1989L18.7 12ZM17.875 15V14.25H16.225V15V15.75H17.875V15ZM17.6 12L18.3041 11.7418L17.2041 8.74181L16.5 9L15.7958 9.25819L16.8958 12.2582L17.6 12ZM16.5 9V8.25H14.575V9V9.75H16.5V9ZM20.625 10.6364V11.3864C20.9761 11.3864 21.25 11.667 21.25 12H22H22.75C22.75 10.8268 21.7927 9.88637 20.625 9.88637V10.6364ZM22 12H21.25C21.25 12.3331 20.9761 12.6136 20.625 12.6136V13.3636V14.1136C21.7927 14.1136 22.75 13.1732 22.75 12H22ZM20.625 13.3636V12.6136C20.2739 12.6136 20 12.3331 20 12H19.25H18.5C18.5 13.1732 19.4573 14.1136 20.625 14.1136V13.3636ZM19.25 12H20C20 11.667 20.2739 11.3864 20.625 11.3864V10.6364V9.88637C19.4573 9.88637 18.5 10.8268 18.5 12H19.25Z" fill="#141C25"/>
</svg>
