<svg width="24" height="24" viewBox="0 0 24 24" fill="none" xmlns="http://www.w3.org/2000/svg">
<path d="M16.4425 15.0083C16.1654 15.3162 16.1904 15.7904 16.4983 16.0675C16.8062 16.3446 17.2804 16.3196 17.5575 16.0117L17 15.51L16.4425 15.0083ZM17.5675 16.0006C17.8446 15.6927 17.8196 15.2185 17.5117 14.9414C17.2038 14.6643 16.7296 14.6893 16.4525 14.9972L17.01 15.4989L17.5675 16.0006ZM11.4238 11.5198C11.1587 11.838 11.2016 12.3109 11.5199 12.5761C11.8381 12.8413 12.311 12.7983 12.5762 12.4801L12 11.9999L11.4238 11.5198ZM21.4238 12.4801C21.689 12.7984 22.1619 12.8414 22.4801 12.5762C22.7983 12.311 22.8413 11.8381 22.5762 11.5199L22 12L21.4238 12.4801ZM13.4 13.55C13.1515 13.8814 13.2186 14.3515 13.55 14.6C13.8814 14.8486 14.3515 14.7814 14.6 14.45L14 14L13.4 13.55ZM19.4 14.45C19.6485 14.7814 20.1186 14.8486 20.45 14.6C20.7814 14.3515 20.8485 13.8814 20.6 13.55L20 14L19.4 14.45ZM21.25 7C21.25 7.41421 21.5858 7.75 22 7.75C22.4142 7.75 22.75 7.41421 22.75 7H22H21.25ZM22.75 17C22.75 16.5858 22.4142 16.25 22 16.25C21.5858 16.25 21.25 16.5858 21.25 17H22H22.75ZM17 15.51L17.5575 16.0117L17.5675 16.0006L17.01 15.4989L16.4525 14.9972L16.4425 15.0083L17 15.51ZM12 11.9999L12.5762 12.4801C14.7763 9.83996 19.2237 9.83995 21.4238 12.4801L22 12L22.5762 11.5199C19.7763 8.16005 14.2237 8.16006 11.4238 11.5198L12 11.9999ZM14 14L14.6 14.45C15.8 12.85 18.2 12.85 19.4 14.45L20 14L20.6 13.55C18.8 11.15 15.2 11.15 13.4 13.55L14 14ZM22 7H22.75V5H22H21.25V7H22ZM22 19H22.75V17H22H21.25V19H22ZM20 3V2.25H4V3V3.75H20V3ZM2 5H1.25V19H2H2.75V5H2ZM4 21V21.75H20V21V20.25H4V21ZM22 5H22.75C22.75 3.48122 21.5188 2.25 20 2.25V3V3.75C20.6904 3.75 21.25 4.30964 21.25 5H22ZM22 19H21.25C21.25 19.6904 20.6904 20.25 20 20.25V21V21.75C21.5188 21.75 22.75 20.5188 22.75 19H22ZM2 19H1.25C1.25 20.5188 2.48122 21.75 4 21.75V21V20.25C3.30964 20.25 2.75 19.6904 2.75 19H2ZM4 3V2.25C2.48122 2.25 1.25 3.48122 1.25 5H2H2.75C2.75 4.30964 3.30964 3.75 4 3.75V3ZM2 12V12.75H6V12V11.25H2V12ZM6 3H5.25V21H6H6.75V3H6Z" fill="#141C25"/>
</svg>
