<svg width="24" height="24" viewBox="0 0 24 24" fill="none" xmlns="http://www.w3.org/2000/svg">
<path d="M20.9999 5.99986L16.9999 8.99986M6.99993 14.9999L2.99993 17.9999M21.6389 16.473L21.0403 12.2827C21.0135 12.0951 21.0135 11.9046 21.0403 11.717L21.6389 7.52677C21.8226 6.24149 20.7519 5.12467 19.46 5.25385L12.1989 5.97996C12.0666 5.9932 11.9333 5.9932 11.8009 5.97996L4.53983 5.25385C3.24794 5.12467 2.17731 6.24149 2.36092 7.52677L2.95952 11.717C2.98632 11.9046 2.98632 12.0951 2.95952 12.2827L2.36092 16.473C2.17731 17.7582 3.24794 18.8751 4.53982 18.7459L11.8009 18.0198C11.9333 18.0065 12.0666 18.0065 12.1989 18.0198L19.46 18.7459C20.7519 18.8751 21.8226 17.7582 21.6389 16.473Z" stroke="#141C25" stroke-width="1.5" stroke-linecap="round" stroke-linejoin="round"/>
</svg>
