<svg width="24" height="24" viewBox="0 0 24 24" fill="none" xmlns="http://www.w3.org/2000/svg">
<path d="M14 9.01L14.01 8.99889" stroke="#141C25" stroke-width="1.5" stroke-linecap="round" stroke-linejoin="round"/>
<path d="M8 8.01L8.01 7.99889" stroke="#141C25" stroke-width="1.5" stroke-linecap="round" stroke-linejoin="round"/>
<path d="M8 14.01L8.01 13.9989" stroke="#141C25" stroke-width="1.5" stroke-linecap="round" stroke-linejoin="round"/>
<path d="M6 19L2.23626 3.0041C2.13087 2.55618 2.54815 2.16122 2.98961 2.29106L19 7" stroke="#141C25" stroke-width="1.5"/>
<path d="M18.8027 7.57617C19.0371 6.63853 19.9872 6.06832 20.9248 6.30273C21.8623 6.53723 22.4326 7.48723 22.1982 8.4248C21.5901 10.8574 19.5985 13.8761 17.0498 16.4248C14.4759 18.9987 11.0732 21.3559 7.39355 22.2051C6.45184 22.4223 5.51224 21.8353 5.29492 20.8936C5.07774 19.952 5.6649 19.0123 6.60645 18.7949C9.42687 18.1441 12.2742 16.2512 14.5752 13.9502C16.9013 11.6241 18.4108 9.14356 18.8027 7.57617Z" stroke="#141C25" stroke-width="1.5" stroke-linecap="round"/>
</svg>
