<svg width="24" height="24" viewBox="0 0 24 24" fill="none" xmlns="http://www.w3.org/2000/svg">
<path d="M21.8381 6.65997L22.5093 6.32532L21.8381 6.65997ZM1.81875 16.6413L1.14755 16.9759L1.81875 16.6413ZM8.94259 10.0083C8.6655 10.3162 8.69045 10.7904 8.99833 11.0675C9.30621 11.3446 9.78043 11.3196 10.0575 11.0117L9.50006 10.51L8.94259 10.0083ZM10.0675 11.0006C10.3446 10.6927 10.3197 10.2185 10.0118 9.94142C9.7039 9.66433 9.22969 9.68928 8.95259 9.99716L9.51006 10.4989L10.0675 11.0006ZM20.0001 12H19.2501C19.2501 16.0041 16.0041 19.25 12.0001 19.25V20V20.75C16.8326 20.75 20.7501 16.8325 20.7501 12H20.0001ZM12.0001 20V19.25C7.99599 19.25 4.75006 16.0041 4.75006 12H4.00006H3.25006C3.25006 16.8325 7.16757 20.75 12.0001 20.75V20ZM4.00006 12H4.75006C4.75006 7.99594 7.99599 4.75 12.0001 4.75V4V3.25C7.16757 3.25 3.25006 7.16751 3.25006 12H4.00006ZM12.0001 4V4.75C16.0041 4.75 19.2501 7.99594 19.2501 12H20.0001H20.7501C20.7501 7.16751 16.8326 3.25 12.0001 3.25V4ZM21.8381 6.65997L21.1669 6.99462C21.1679 6.99667 21.2427 7.17706 20.9266 7.6946C20.6343 8.17334 20.1063 8.76731 19.3467 9.43585C17.8362 10.7654 15.5406 12.2763 12.8174 13.6341L13.152 14.3053L13.4867 14.9765C16.2916 13.578 18.7046 11.9993 20.3378 10.5618C21.1501 9.84683 21.8028 9.1379 22.2068 8.47636C22.5871 7.85361 22.8738 7.05633 22.5093 6.32532L21.8381 6.65997ZM13.152 14.3053L12.8174 13.6341C10.0941 14.9919 7.5059 15.9159 5.53502 16.3221C4.544 16.5264 3.75188 16.5906 3.1936 16.5359C2.59007 16.4769 2.49098 16.3087 2.48995 16.3066L1.81875 16.6413L1.14755 16.9759C1.51202 17.7069 2.3213 17.9578 3.04751 18.0288C3.81896 18.1043 4.77794 18.0097 5.83783 17.7912C7.96879 17.352 10.6818 16.375 13.4867 14.9765L13.152 14.3053ZM17.5001 6.3483L17.6712 7.0785C18.7869 6.81698 19.6925 6.71492 20.3367 6.75519C21.0418 6.79926 21.1642 6.98921 21.1669 6.99462L21.8381 6.65997L22.5093 6.32532C22.1192 5.54279 21.2215 5.30756 20.4303 5.25811C19.5782 5.20485 18.5112 5.34093 17.3289 5.61809L17.5001 6.3483ZM1.81875 16.6413L2.48995 16.3066C2.48732 16.3013 2.40934 16.0904 2.79588 15.5033C3.14916 14.9666 3.7722 14.3071 4.64821 13.5757L4.16755 13L3.68688 12.4243C2.75824 13.1996 2.01092 13.9677 1.54299 14.6785C1.10831 15.3388 0.758267 16.1951 1.14755 16.9759L1.81875 16.6413ZM9.50006 10.51L10.0575 11.0117L10.0675 11.0006L9.51006 10.4989L8.95259 9.99716L8.94259 10.0083L9.50006 10.51Z" fill="#141C25"/>
</svg>
