<svg width="24" height="24" viewBox="0 0 24 24" fill="none" xmlns="http://www.w3.org/2000/svg">
<path d="M6 19.0007C3.57111 17.1763 2 14.2716 2 11C2 5.47715 6.47715 1 12 1C17.5228 1 22 5.47715 22 11C22 14.2716 20.4289 17.1763 18 19.0007M7.52779 15C6.57771 13.9385 6 12.5367 6 11C6 7.68629 8.68629 5 12 5C15.3137 5 18 7.68629 18 11C18 12.5367 17.4223 13.9385 16.4722 15M14 11C14 12.1046 13.1046 13 12 13C10.8954 13 10 12.1046 10 11C10 9.89543 10.8954 9 12 9C13.1046 9 14 9.89543 14 11ZM10.8906 15.7396L10.076 16.2827C9.42114 16.7192 9.08321 17.4993 9.2126 18.2756L9.72147 21.3288C9.8822 22.2932 10.7166 23 11.6943 23H12.3057C13.2834 23 14.1178 22.2932 14.2785 21.3288L14.7874 18.2756C14.9168 17.4993 14.5789 16.7192 13.924 16.2827L13.1094 15.7396C12.4376 15.2917 11.5624 15.2917 10.8906 15.7396Z" stroke="#141C25" stroke-width="1.5" stroke-linecap="round" stroke-linejoin="round"/>
</svg>
