<svg width="24" height="24" viewBox="0 0 24 24" fill="none" xmlns="http://www.w3.org/2000/svg">
<path d="M13.9999 4H14.7499C14.7499 3.58579 14.4141 3.25 13.9999 3.25L13.9999 4ZM9.99986 3.99999L9.99986 3.24999C9.80095 3.24999 9.61018 3.32901 9.46953 3.46966C9.32888 3.61032 9.24986 3.80108 9.24986 3.99999H9.99986ZM8.99986 22L8.99987 21.25L8.99986 21.25L8.99986 22ZM14.9999 22L14.9999 22.75L14.9999 22.75L14.9999 22ZM14.4123 7.14662L14.147 7.84811L14.147 7.84811L14.4123 7.14662ZM9.58739 7.14661L9.85273 7.84811L9.85273 7.84811L9.58739 7.14661ZM8.99986 1.25C8.58565 1.25 8.24986 1.58579 8.24986 2C8.24986 2.41421 8.58565 2.75 8.99986 2.75V2V1.25ZM14.9999 2.75C15.4141 2.75 15.7499 2.41421 15.7499 2C15.7499 1.58579 15.4141 1.25 14.9999 1.25V2V2.75ZM12.3221 13.3642C12.5233 13.0021 12.3928 12.5455 12.0308 12.3444C11.6687 12.1432 11.2121 12.2737 11.0109 12.6358L11.6665 13L12.3221 13.3642ZM9.99986 16L9.34424 15.6358C9.21519 15.8681 9.2187 16.1513 9.35346 16.3803C9.48822 16.6094 9.73412 16.75 9.99986 16.75V16ZM13.9999 16L14.6555 16.3642C14.7845 16.1319 14.781 15.8487 14.6463 15.6197C14.5115 15.3906 14.2656 15.25 13.9999 15.25V16ZM11.6776 18.6358C11.4764 18.9979 11.6069 19.4545 11.969 19.6556C12.3311 19.8568 12.7877 19.7263 12.9888 19.3642L12.3332 19L11.6776 18.6358ZM13.9999 4L13.9999 3.25L9.99986 3.24999L9.99986 3.99999L9.99986 4.74999L13.9999 4.75L13.9999 4ZM9.99986 3.99999H9.24986V6.56776H9.99986H10.7499V3.99999H9.99986ZM13.9999 6.56776H14.7499V4H13.9999H13.2499V6.56776H13.9999ZM8.99986 22L8.99986 22.75L14.9999 22.75L14.9999 22L14.9999 21.25L8.99987 21.25L8.99986 22ZM14.9999 22L14.9999 22.75C16.7484 22.75 18.1876 21.8818 19.1905 20.5932C20.1859 19.3142 20.7694 17.607 20.8666 15.8232C21.0618 12.2397 19.2925 8.19066 14.6777 6.44512L14.4123 7.14662L14.147 7.84811C18.0564 9.32681 19.5342 12.7045 19.3688 15.7416C19.2856 17.2681 18.7868 18.6697 18.0068 19.6719C17.2342 20.6646 16.2046 21.25 14.9999 21.25L14.9999 22ZM9.58739 7.14661L9.32205 6.44511C4.70719 8.19066 2.93797 12.2397 3.13318 15.8232C3.23035 17.607 3.81381 19.3143 4.80925 20.5932C5.81218 21.8818 7.25131 22.75 8.99987 22.75L8.99986 22L8.99986 21.25C7.79513 21.25 6.76554 20.6646 5.99297 19.6719C5.21292 18.6697 4.71412 17.2681 4.63096 15.7416C4.46551 12.7045 5.94333 9.32681 9.85273 7.84811L9.58739 7.14661ZM13.9999 6.56776H13.2499C13.2499 7.16267 13.6376 7.65546 14.147 7.84811L14.4123 7.14662L14.6777 6.44512C14.6955 6.45186 14.7112 6.46353 14.7236 6.48077C14.7368 6.49898 14.7499 6.52904 14.7499 6.56776H13.9999ZM9.99986 6.56776H9.24986C9.24986 6.52903 9.26297 6.49898 9.27612 6.48076C9.28857 6.46352 9.30424 6.45185 9.32205 6.44511L9.58739 7.14661L9.85273 7.84811C10.3621 7.65545 10.7499 7.16266 10.7499 6.56776H9.99986ZM5.99986 10V10.75H17.9999V10V9.25H5.99986V10ZM8.99986 2V2.75H14.9999V2V1.25H8.99986V2ZM11.6665 13L11.0109 12.6358L9.34424 15.6358L9.99986 16L10.6555 16.3642L12.3221 13.3642L11.6665 13ZM9.99986 16V16.75H13.9999V16V15.25H9.99986V16ZM13.9999 16L13.3442 15.6358L11.6776 18.6358L12.3332 19L12.9888 19.3642L14.6555 16.3642L13.9999 16Z" fill="#141C25"/>
</svg>
