<svg width="24" height="24" viewBox="0 0 24 24" fill="none" xmlns="http://www.w3.org/2000/svg">
<path d="M6.42857 18L7.17103 18.1061L7.17103 18.1061L6.42857 18ZM6.92639 14.5151L6.18393 14.4091L6.18393 14.4091L6.92639 14.5151ZM6.09782 20.3151L5.35536 20.2091L5.35536 20.2091L6.09782 20.3151ZM17.9021 20.3151L17.1597 20.4212L17.1597 20.4212L17.9021 20.3151ZM17.0736 14.5151L16.3311 14.6212L16.3311 14.6212L17.0736 14.5151ZM16.4425 9.50827C16.1654 9.81616 16.1904 10.2904 16.4983 10.5675C16.8062 10.8446 17.2804 10.8196 17.5575 10.5117L17 10.01L16.4425 9.50827ZM17.5675 10.5006C17.8446 10.1927 17.8196 9.71852 17.5117 9.44142C17.2038 9.16433 16.7296 9.18928 16.4525 9.49716L17.01 9.99889L17.5675 10.5006ZM3 17.4H3.75V11H3H2.25V17.4H3ZM21 11H20.25V17.4H21H21.75V11H21ZM7 7V7.75H17V7V6.25H7V7ZM20.4 18V17.25H17.5714V18V18.75H20.4V18ZM6.42857 18V17.25H3.6V18V18.75H6.42857V18ZM21 17.4H20.25C20.25 17.3172 20.3172 17.25 20.4 17.25V18V18.75C21.1456 18.75 21.75 18.1456 21.75 17.4H21ZM3 17.4H2.25C2.25 18.1456 2.85441 18.75 3.6 18.75V18V17.25C3.68284 17.25 3.75 17.3172 3.75 17.4H3ZM21 11H21.75C21.75 8.37665 19.6234 6.25 17 6.25V7V7.75C18.7949 7.75 20.25 9.20507 20.25 11H21ZM3 11H3.75C3.75 9.20507 5.20507 7.75 7 7.75V7V6.25C4.37665 6.25 2.25 8.37665 2.25 11H3ZM8 7H8.75V3.6H8H7.25V7H8ZM16 3.6H15.25V7H16H16.75V3.6H16ZM8.6 3V3.75H15.4V3V2.25H8.6V3ZM16 3.6H16.75C16.75 2.85442 16.1456 2.25 15.4 2.25V3V3.75C15.3172 3.75 15.25 3.68284 15.25 3.6H16ZM8 3.6H8.75C8.75 3.68284 8.68284 3.75 8.6 3.75V3V2.25C7.85442 2.25 7.25 2.85442 7.25 3.6H8ZM6.69179 21V21.75H17.3082V21V20.25H6.69179V21ZM7.52036 14V14.75H16.4796V14V13.25H7.52036V14ZM17.0736 14.5151L17.816 14.4091C17.721 13.744 17.1514 13.25 16.4796 13.25V14V14.75C16.405 14.75 16.3417 14.6951 16.3311 14.6212L17.0736 14.5151ZM6.92639 14.5151L7.66885 14.6212C7.65829 14.6951 7.59501 14.75 7.52036 14.75V14V13.25C6.84853 13.25 6.27894 13.744 6.18393 14.4091L6.92639 14.5151ZM17.9021 20.3151L17.1597 20.4212C17.1468 20.3308 17.2169 20.25 17.3082 20.25V21V21.75C18.1297 21.75 18.7608 21.0224 18.6446 20.2091L17.9021 20.3151ZM6.09782 20.3151L5.35536 20.2091C5.23917 21.0224 5.87025 21.75 6.69179 21.75V21V20.25C6.78307 20.25 6.85319 20.3308 6.84028 20.4212L6.09782 20.3151ZM17.9021 20.3151L18.6446 20.2091L18.3139 17.8939L17.5714 18L16.829 18.1061L17.1597 20.4212L17.9021 20.3151ZM17.5714 18L18.3139 17.8939L17.816 14.4091L17.0736 14.5151L16.3311 14.6212L16.829 18.1061L17.5714 18ZM6.92639 14.5151L6.18393 14.4091L5.68611 17.8939L6.42857 18L7.17103 18.1061L7.66885 14.6212L6.92639 14.5151ZM6.42857 18L5.68611 17.8939L5.35536 20.2091L6.09782 20.3151L6.84028 20.4212L7.17103 18.1061L6.42857 18ZM17 10.01L17.5575 10.5117L17.5675 10.5006L17.01 9.99889L16.4525 9.49716L16.4425 9.50827L17 10.01Z" fill="#141C25"/>
</svg>
