<svg width="24" height="24" viewBox="0 0 24 24" fill="none" xmlns="http://www.w3.org/2000/svg">
<path d="M16.4425 12.5083C16.1654 12.8162 16.1904 13.2904 16.4983 13.5675C16.8062 13.8446 17.2804 13.8196 17.5575 13.5117L17 13.01L16.4425 12.5083ZM17.5675 13.5006C17.8446 13.1927 17.8196 12.7185 17.5117 12.4414C17.2038 12.1643 16.7296 12.1893 16.4525 12.4972L17.01 12.9989L17.5675 13.5006ZM3 20.4H3.75V14H3H2.25V20.4H3ZM21 14H20.25V20.4H21H21.75V14H21ZM20.4 21V20.25H3.6V21V21.75H20.4V21ZM7 10V10.75H17V10V9.25H7V10ZM3 17V17.75H21V17V16.25H3V17ZM6 10H6.75V3.6H6H5.25V10H6ZM18 3.6H17.25V10H18H18.75V3.6H18ZM6.6 3V3.75H17.4V3V2.25H6.6V3ZM18 3.6H18.75C18.75 2.85442 18.1456 2.25 17.4 2.25V3V3.75C17.3172 3.75 17.25 3.68284 17.25 3.6H18ZM6 3.6H6.75C6.75 3.68284 6.68284 3.75 6.6 3.75V3V2.25C5.85442 2.25 5.25 2.85442 5.25 3.6H6ZM21 20.4H20.25C20.25 20.3172 20.3172 20.25 20.4 20.25V21V21.75C21.1456 21.75 21.75 21.1456 21.75 20.4H21ZM3 20.4H2.25C2.25 21.1456 2.85442 21.75 3.6 21.75V21V20.25C3.68284 20.25 3.75 20.3172 3.75 20.4H3ZM21 14H21.75C21.75 11.3766 19.6234 9.25 17 9.25V10V10.75C18.7949 10.75 20.25 12.2051 20.25 14H21ZM3 14H3.75C3.75 12.2051 5.20507 10.75 7 10.75V10V9.25C4.37665 9.25 2.25 11.3766 2.25 14H3ZM17 13.01L17.5575 13.5117L17.5675 13.5006L17.01 12.9989L16.4525 12.4972L16.4425 12.5083L17 13.01Z" fill="#141C25"/>
</svg>
