<svg width="24" height="24" viewBox="0 0 24 24" fill="none" xmlns="http://www.w3.org/2000/svg">
<path d="M4 14.6V18.4C4 18.7314 4.26863 19 4.6 19H9.4C9.73137 19 10 19.2686 10 19.6V20C10 21.1046 10.8954 22 12 22C13.1046 22 14 21.1046 14 20V19.6C14 19.2686 14.2686 19 14.6 19H18.4C18.7314 19 19 18.7314 19 18.4V14.6C19 14.2686 19.2686 14 19.6 14H20C21.1046 14 22 13.1046 22 12C22 10.8954 21.1046 10 20 10H19.6C19.2686 10 19 9.73137 19 9.4V5.6C19 5.26863 18.7314 5 18.4 5H14.6C14.2686 5 14 4.73137 14 4.4V4C14 2.89543 13.1046 2 12 2C10.8954 2 10 2.89543 10 4V4.4C10 4.73137 9.73137 5 9.4 5H4.6C4.26863 5 4 5.26863 4 5.6V9.4C4 9.73137 4.26863 10 4.6 10H5C6.10457 10 7 10.8954 7 12C7 13.1046 6.10457 14 5 14H4.6C4.26863 14 4 14.2686 4 14.6Z" stroke="#141C25" stroke-width="1.5" stroke-linecap="round" stroke-linejoin="round"/>
</svg>
