<svg width="24" height="24" viewBox="0 0 24 24" fill="none" xmlns="http://www.w3.org/2000/svg">
<path d="M10.5 10H8.5C7.94772 10 7.5 9.55228 7.5 9V8C7.5 7.44772 7.94772 7 8.5 7H9.5C10.0523 7 10.5 7.44772 10.5 8V10ZM10.5 10C10.5 11 9.5 12 8.5 13M16.5 10H14.5C13.9477 10 13.5 9.55228 13.5 9V8C13.5 7.44772 13.9477 7 14.5 7H15.5C16.0523 7 16.5 7.44772 16.5 8V10ZM16.5 10C16.5 11 15.5 12 14.5 13M3 5V20.2895C3 20.8567 3.71421 21.1072 4.06852 20.6643L6.39951 17.7506C6.77906 17.2762 7.35368 17 7.96125 17H19C20.1046 17 21 16.1046 21 15V5C21 3.89543 20.1046 3 19 3H5C3.89543 3 3 3.89543 3 5Z" stroke="#141C25" stroke-width="1.5" stroke-linecap="round"/>
</svg>
