<svg width="24" height="24" viewBox="0 0 24 24" fill="none" xmlns="http://www.w3.org/2000/svg">
<path d="M16.9999 20.6615C15.529 21.5123 13.8213 21.9993 11.9999 21.9993C10.1784 21.9993 8.47075 21.5123 6.99989 20.6615L9.99989 16C9.99989 16 10.9999 16.4 11.9999 16.4C12.9999 16.4 13.9999 16 13.9999 16L16.9999 20.6615Z" stroke="#141C25" stroke-width="1.5" stroke-linecap="round" stroke-linejoin="round"/>
<path d="M16.9974 3.33887C18.4697 4.18725 19.7453 5.42267 20.656 7.00008C21.5667 8.57749 21.9988 10.2999 21.9974 11.9991L16.4605 11.7318C16.4605 11.7318 16.3069 10.6657 15.8069 9.79972C15.3069 8.93369 14.4605 8.26766 14.4605 8.26766L16.9974 3.33887Z" stroke="#141C25" stroke-width="1.5" stroke-linecap="round" stroke-linejoin="round"/>
<path d="M1.99805 11.9995C1.99663 10.3002 2.42874 8.57782 3.33946 7.00041C4.25018 5.423 5.52576 4.18758 6.99805 3.3392L9.53498 8.268C9.53498 8.268 8.68857 8.93402 8.18857 9.80005C7.68857 10.6661 7.53498 11.7321 7.53498 11.7321L1.99805 11.9995Z" stroke="#141C25" stroke-width="1.5" stroke-linecap="round" stroke-linejoin="round"/>
<path d="M11.9999 13.9993C10.8953 13.9993 9.99989 13.1039 9.99989 11.9993C9.99989 10.8947 10.8953 9.99929 11.9999 9.99929C13.1045 9.99929 13.9999 10.8947 13.9999 11.9993C13.9999 13.1039 13.1045 13.9993 11.9999 13.9993Z" stroke="#141C25" stroke-width="1.5" stroke-linecap="round" stroke-linejoin="round"/>
</svg>
