<svg width="24" height="24" viewBox="0 0 24 24" fill="none" xmlns="http://www.w3.org/2000/svg">
<path d="M16.5829 9.66667C15.8095 8.09697 14.043 7 11.9876 7C9.38853 7 7.25148 8.75408 7 11M17.0001 7.5V9.12222C17.0001 9.45359 16.7315 9.72222 16.4001 9.72222H14.4939M7.41707 13.6667C8.19054 15.6288 9.95698 17 12.0124 17C14.6115 17 16.7485 14.8074 17 12M6.99992 16.4V14.2222C6.99992 13.8909 7.26855 13.6222 7.59992 13.6222H9.5061M22 12C22 17.5228 17.5228 22 12 22C6.47715 22 2 17.5228 2 12C2 6.47715 6.47715 2 12 2C17.5228 2 22 6.47715 22 12Z" stroke="#141C25" stroke-width="1.5" stroke-linecap="round" stroke-linejoin="round"/>
</svg>
