<svg width="24" height="24" viewBox="0 0 24 24" fill="none" xmlns="http://www.w3.org/2000/svg">
<path d="M19.9951 16.772H21.4001C21.7314 16.772 22.0001 16.5034 22.0001 16.172V14.5498" stroke="#141C25" stroke-width="1.5" stroke-linecap="round" stroke-linejoin="round"/>
<path d="M11 21H4C2.89543 21 2 20.1046 2 19V5C2 3.89543 2.89543 3 4 3H20C21.1046 3 22 3.89543 22 5V12M2 7H22M5 5.01L5.01 4.99889M8 5.01L8.01 4.99889M11 5.01L11.01 4.99889M21.6665 16.6667C21.0477 15.097 19.6346 14 17.9903 14C16.2319 14 14.7378 15.2545 14.1969 17M14.3337 19.3333C14.9525 20.903 16.3657 22 18.01 22C19.7684 22 21.2624 20.7455 21.8033 19M14.0001 21.45V19.8277C14.0001 19.4964 14.2687 19.2277 14.6001 19.2277H16.005" stroke="#141C25" stroke-width="1.5" stroke-linecap="round" stroke-linejoin="round"/>
</svg>
