<svg width="24" height="24" viewBox="0 0 24 24" fill="none" xmlns="http://www.w3.org/2000/svg">
<path d="M7.75 10C7.75 10.4142 8.08579 10.75 8.5 10.75C8.91421 10.75 9.25 10.4142 9.25 10H8.5H7.75ZM5.51817 18.0705L6.24308 17.8781L6.24308 17.8781L5.51817 18.0705ZM15.5945 21.3514L15.0416 20.8447L15.0416 20.8447L15.5945 21.3514ZM19.3784 17.2236L19.9313 17.7304L19.9313 17.7304L19.3784 17.2236ZM19.5041 14.6721L18.9041 15.1221L18.9041 15.1221L19.5041 14.6721ZM10.75 9.99998C10.75 10.4142 11.0858 10.75 11.5 10.75C11.9142 10.75 12.25 10.4142 12.25 9.99998H11.5H10.75ZM13.75 10.0001C13.75 10.4143 14.0858 10.7501 14.5 10.7501C14.9142 10.7501 15.25 10.4143 15.25 10.0001H14.5H13.75ZM16.75 15C16.75 15.4142 17.0858 15.75 17.5 15.75C17.9142 15.75 18.25 15.4142 18.25 15H17.5H16.75ZM8.5 9.42857H7.75V10H8.5H9.25V9.42857H8.5ZM8.5 9.42857H9.25C9.25 8.68601 9.00215 8.06006 8.56574 7.61672C8.1355 7.17965 7.56425 6.96429 7 6.96429C6.43575 6.96429 5.8645 7.17965 5.43426 7.61672C4.99785 8.06006 4.75 8.68601 4.75 9.42857H5.5H6.25C6.25 9.02828 6.37715 8.79708 6.50324 8.669C6.6355 8.53463 6.81425 8.46429 7 8.46429C7.18575 8.46429 7.3645 8.53463 7.49676 8.669C7.62285 8.79708 7.75 9.02828 7.75 9.42857H8.5ZM5.5 9.42857H4.75V17.9272H5.5H6.25V9.42857H5.5ZM5.51817 18.0705L4.79326 18.2629C4.99325 19.0165 5.43925 20.1009 6.17566 21.014C6.91624 21.9323 8.01595 22.75 9.5 22.75V22V21.25C8.62564 21.25 7.91414 20.7802 7.34326 20.0723C6.76821 19.3593 6.4025 18.4789 6.24308 17.8781L5.51817 18.0705ZM9.5 22V22.75H14.1211V22V21.25H9.5V22ZM15.5945 21.3514L16.1474 21.8582L19.9313 17.7304L19.3784 17.2236L18.8255 16.7168L15.0416 20.8447L15.5945 21.3514ZM19.5041 14.6721L20.1041 14.2221L18.1 11.55L17.5 12L16.9 12.45L18.9041 15.1221L19.5041 14.6721ZM19.3784 17.2236L19.9313 17.7304C20.8255 16.7549 20.8981 15.2808 20.1041 14.2221L19.5041 14.6721L18.9041 15.1221C19.265 15.6033 19.232 16.2734 18.8255 16.7168L19.3784 17.2236ZM14.1211 22V22.75C14.8923 22.75 15.6267 22.4262 16.1474 21.8582L15.5945 21.3514L15.0416 20.8447C14.8046 21.1032 14.4711 21.25 14.1211 21.25V22ZM5.5 17.9272H4.75C4.75 18.0357 4.76266 18.1476 4.79326 18.2629L5.51817 18.0705L6.24308 17.8781C6.24553 17.8874 6.2474 17.897 6.24858 17.9065C6.24975 17.9158 6.25 17.923 6.25 17.9272H5.5ZM8.5 8.2857H7.75V9.42857H8.5H9.25V8.2857H8.5ZM11.5 8.2857H10.75V9.99998H11.5H12.25V8.2857H11.5ZM11.5 8.2857H12.25C12.25 7.54313 12.0022 6.91719 11.5657 6.47384C11.1355 6.03678 10.5642 5.82141 10 5.82141C9.43575 5.82141 8.8645 6.03678 8.43426 6.47384C7.99785 6.91719 7.75 7.54313 7.75 8.2857H8.5H9.25C9.25 7.8854 9.37715 7.65421 9.50324 7.52612C9.6355 7.39176 9.81425 7.32141 10 7.32141C10.1858 7.32141 10.3645 7.39176 10.4968 7.52612C10.6228 7.65421 10.75 7.8854 10.75 8.2857H11.5ZM14.5 7.50005H13.75V10.0001H14.5H15.25V7.50005H14.5ZM14.5 7.50005H15.25C15.25 6.75749 15.0022 6.13154 14.5657 5.6882C14.1355 5.25113 13.5642 5.03577 13 5.03577C12.4358 5.03577 11.8645 5.25113 11.4343 5.6882C10.9978 6.13154 10.75 6.75749 10.75 7.50005H11.5H12.25C12.25 7.09976 12.3772 6.86856 12.5032 6.74048C12.6355 6.60611 12.8142 6.53577 13 6.53577C13.1858 6.53577 13.3645 6.60611 13.4968 6.74048C13.6228 6.86856 13.75 7.09976 13.75 7.50005H14.5ZM11.5 7.50005H10.75V8.2857H11.5H12.25V7.50005H11.5ZM17.5 12H18.25V3.5H17.5H16.75V12H17.5ZM14.5 3.49899H13.75V7.50005H14.5H15.25V3.49899H14.5ZM17.5 12H16.75V15H17.5H18.25V12H17.5ZM16 2V1.25C14.758 1.25 13.75 2.25569 13.75 3.49899H14.5H15.25C15.25 3.08543 15.5851 2.75 16 2.75V2ZM17.5 3.5H18.25C18.25 2.25736 17.2426 1.25 16 1.25V2V2.75C16.4142 2.75 16.75 3.08579 16.75 3.5H17.5ZM11 5.25H10.25V5.5H11H11.75V5.25H11ZM19.625 6.5V5.75H17.5625V6.5V7.25H19.625V6.5ZM21 5.25H20.25C20.25 5.50961 20.1768 5.59436 20.1415 5.62583C20.0917 5.67024 19.9533 5.75 19.625 5.75V6.5V7.25C20.1717 7.25 20.7208 7.11898 21.1397 6.74549C21.5732 6.35907 21.75 5.81881 21.75 5.25H21ZM19.625 4V4.75C19.9533 4.75 20.0917 4.82976 20.1415 4.87417C20.1768 4.90564 20.25 4.99039 20.25 5.25H21H21.75C21.75 4.68119 21.5732 4.14093 21.1397 3.75451C20.7208 3.38102 20.1717 3.25 19.625 3.25V4ZM11 5.5H10.25C10.25 6.4665 11.0335 7.25 12 7.25V6.5V5.75C11.8619 5.75 11.75 5.63807 11.75 5.5H11ZM12.25 4V3.25C11.1454 3.25 10.25 4.14543 10.25 5.25H11H11.75C11.75 4.97386 11.9739 4.75 12.25 4.75V4ZM19.625 4V3.25H12.25V4V4.75H19.625V4Z" fill="#141C25"/>
</svg>
