<svg width="24" height="24" viewBox="0 0 24 24" fill="none" xmlns="http://www.w3.org/2000/svg">
<path d="M16.8787 21.1213L19 19M19 19L21.1213 16.8787M19 19L16.8787 16.8787M19 19L21.1213 21.1213M13 21H3.6C3.26863 21 3 20.7314 3 20.4V3.6C3 3.26863 3.26863 3 3.6 3H20.4C20.7314 3 21 3.26863 21 3.6V13M15.0883 12.5209L9.89768 15.487C9.49769 15.7156 9 15.4268 9 14.9661V9.03391C9 8.57321 9.49769 8.28439 9.89768 8.51296L15.0883 11.4791C15.4914 11.7094 15.4914 12.2906 15.0883 12.5209Z" stroke="#141C25" stroke-width="1.5" stroke-linecap="round" stroke-linejoin="round"/>
</svg>
