<svg width="24" height="24" viewBox="0 0 24 24" fill="none" xmlns="http://www.w3.org/2000/svg">
<path d="M16.75 12L17.2803 12.5303C17.5732 12.2374 17.5732 11.7626 17.2803 11.4697L16.75 12ZM13.4697 14.2197C13.1768 14.5126 13.1768 14.9874 13.4697 15.2803C13.7626 15.5732 14.2374 15.5732 14.5303 15.2803L14 14.75L13.4697 14.2197ZM14.5303 8.71967C14.2374 8.42678 13.7626 8.42678 13.4697 8.71967C13.1768 9.01256 13.1768 9.48744 13.4697 9.78033L14 9.25L14.5303 8.71967ZM6.75 12V12.75H16.75V12V11.25H6.75V12ZM16.75 12L16.2197 11.4697L13.4697 14.2197L14 14.75L14.5303 15.2803L17.2803 12.5303L16.75 12ZM16.75 12L17.2803 11.4697L14.5303 8.71967L14 9.25L13.4697 9.78033L16.2197 12.5303L16.75 12ZM2 9H1.25V15H2H2.75V9H2ZM6 19V19.75H18V19V18.25H6V19ZM22 15H22.75V9H22H21.25V15H22ZM18 5V4.25H6V5V5.75H18V5ZM22 9H22.75C22.75 6.37665 20.6234 4.25 18 4.25V5V5.75C19.7949 5.75 21.25 7.20507 21.25 9H22ZM18 19V19.75C20.6234 19.75 22.75 17.6234 22.75 15H22H21.25C21.25 16.7949 19.7949 18.25 18 18.25V19ZM2 15H1.25C1.25 17.6234 3.37665 19.75 6 19.75V19V18.25C4.20507 18.25 2.75 16.7949 2.75 15H2ZM2 9H2.75C2.75 7.20507 4.20507 5.75 6 5.75V5V4.25C3.37665 4.25 1.25 6.37665 1.25 9H2Z" fill="#141C25"/>
</svg>
