<svg width="24" height="24" viewBox="0 0 24 24" fill="none" xmlns="http://www.w3.org/2000/svg">
<path d="M10 16.9999L14 16.9999L16.0614 10.4036C16.6492 8.52265 16.2759 6.47299 15.0627 4.92008L12.4729 1.60513C12.2326 1.29764 11.7674 1.29764 11.5272 1.60513L8.93742 4.92008C7.72421 6.47299 7.35089 8.52265 7.93869 10.4036L10 16.9999ZM10 16.9999L7.00004 18.9999C7.00004 18.9999 5.00004 14.9999 8.50004 12.4999M14 19.9999C14 21.9999 12 22.9999 12 22.9999C12 22.9999 10 21.9999 10 19.9999M14.4312 16.9999L17.4312 18.9999C17.4312 18.9999 19.4312 14.9999 15.9312 12.4999M10 8.99992C10 10.1045 10.8955 10.9999 12 10.9999C13.1046 10.9999 14 10.1045 14 8.99992C14 7.89535 13.1046 6.99992 12 6.99992C10.8955 6.99992 10 7.89535 10 8.99992Z" stroke="#141C25" stroke-width="1.5" stroke-linecap="round" stroke-linejoin="round"/>
</svg>
