<svg width="24" height="24" viewBox="0 0 24 24" fill="none" xmlns="http://www.w3.org/2000/svg">
<path d="M7.00014 16H17.0001M9.00014 11H15.0001M10.0001 4V6M14.0001 4V6M6.60014 9H17.4001C17.7315 9 18.0001 8.73137 18.0001 8.4V4.6C18.0001 4.26863 17.7315 4 17.4001 4H6.60014C6.26877 4 6.00014 4.26863 6.00014 4.6V8.4C6.00014 8.73137 6.26877 9 6.60014 9ZM6.09914 21H17.9011C18.3758 21 18.6683 20.4737 18.4225 20.0676C17.2078 18.061 14.5001 13.3271 14.5001 11V9.59965C14.5001 9.26828 14.2315 9 13.9001 9H10.1001C9.76877 9 9.50014 9.26828 9.50014 9.59965V11C9.50014 13.3271 6.79244 18.061 5.57777 20.0676C5.33194 20.4737 5.62444 21 6.09914 21Z" stroke="#141C25" stroke-width="1.5" stroke-linecap="round"/>
</svg>
