<svg width="24" height="24" viewBox="0 0 24 24" fill="none" xmlns="http://www.w3.org/2000/svg">
<path d="M22.0028 3V7.49704C22.0028 7.77482 21.7776 8 21.4998 8C21.2999 8 21.12 7.88104 21.034 7.70059C19.4262 4.32948 15.9866 2 12.0028 2C6.81746 2 2.55391 5.94668 2.05219 11M2.05078 21V16.503C2.05078 16.2252 2.27597 16 2.55375 16C2.75366 16 2.93357 16.119 3.01963 16.2994C4.62737 19.6705 8.06704 22 12.0508 22C17.2361 22 21.4997 18.0533 22.0014 13M6 9.39365V16.4C6 16.7314 6.26863 17 6.6 17H17.4C17.7314 17 18 16.7314 18 16.4V9.39365C18 9.06228 17.7314 8.79365 17.4 8.79365H16.2272C16.0232 8.79365 15.8333 8.69006 15.7228 8.51863L14.2772 6.27502C14.1667 6.10359 13.9768 6 13.7728 6H10.2272C10.0232 6 9.83326 6.10359 9.7228 6.27502L8.2772 8.51863C8.16674 8.69006 7.97677 8.79365 7.77283 8.79365H6.6C6.26863 8.79365 6 9.06228 6 9.39365ZM14 12C14 13.1046 13.1046 14 12 14C10.8954 14 10 13.1046 10 12C10 10.8954 10.8954 10 12 10C13.1046 10 14 10.8954 14 12Z" stroke="#141C25" stroke-width="1.5" stroke-linecap="round" stroke-linejoin="round"/>
</svg>
