<svg width="24" height="24" viewBox="0 0 24 24" fill="none" xmlns="http://www.w3.org/2000/svg">
<path d="M19 15.7501C19.4142 15.7501 19.75 15.4143 19.75 15.0001C19.75 14.5859 19.4142 14.2501 19 14.2501V15.0001V15.7501ZM16 4.75013C16.4142 4.75013 16.75 4.41435 16.75 4.00013C16.75 3.58592 16.4142 3.25013 16 3.25013V4.00013V4.75013ZM8 3.25013C7.58579 3.25013 7.25 3.58592 7.25 4.00013C7.25 4.41435 7.58579 4.75013 8 4.75013V4.00013V3.25013ZM4.32535 19.8L3.60419 20.006L4.32535 19.8ZM19.6747 19.8L20.3958 20.006L20.3958 20.006L19.6747 19.8ZM7.92172 10.6242L7.50324 10.0018L7.50324 10.0018L7.92172 10.6242ZM16.0783 10.6242L15.6598 11.2466L15.6598 11.2466L16.0783 10.6242ZM15.75 4.50013C15.75 4.08592 15.4142 3.75013 15 3.75013C14.5858 3.75013 14.25 4.08592 14.25 4.50013H15H15.75ZM9.75 4.50013C9.75 4.08592 9.41421 3.75013 9 3.75013C8.58579 3.75013 8.25 4.08592 8.25 4.50013H9H9.75ZM12.4425 6.50841C12.1654 6.81629 12.1904 7.29051 12.4983 7.5676C12.8062 7.8447 13.2804 7.81974 13.5575 7.51186L13 7.01013L12.4425 6.50841ZM13.5675 7.50075C13.8446 7.19287 13.8196 6.71865 13.5117 6.44156C13.2038 6.16446 12.7296 6.18942 12.4525 6.4973L13.01 6.99902L13.5675 7.50075ZM10.4425 1.5084C10.1654 1.81628 10.1904 2.2905 10.4983 2.5676C10.8061 2.8447 11.2804 2.81974 11.5575 2.51186L11 2.01013L10.4425 1.5084ZM11.5675 2.50075C11.8446 2.19287 11.8196 1.71866 11.5117 1.44156C11.2039 1.16446 10.7296 1.18941 10.4525 1.49729L11.01 1.99902L11.5675 2.50075ZM19 15.0001V14.2501H5V15.0001V15.7501H19V15.0001ZM16 4.00013V3.25013H8V4.00013V4.75013H16V4.00013ZM4.32535 19.8L5.04651 19.594C4.85376 18.9191 4.75 18.2037 4.75 17.4618H4H3.25C3.25 18.3441 3.37348 19.1982 3.60419 20.006L4.32535 19.8ZM20 17.4618H19.25C19.25 18.2037 19.1462 18.9191 18.9535 19.594L19.6747 19.8L20.3958 20.006C20.6265 19.1982 20.75 18.3441 20.75 17.4618H20ZM6.05096 21.0001V21.7501H17.949V21.0001V20.2501H6.05096V21.0001ZM4 17.4618H4.75C4.75 14.9243 6.28667 12.6273 8.34019 11.2466L7.92172 10.6242L7.50324 10.0018C5.14014 11.5907 3.25 14.3105 3.25 17.4618H4ZM16.0783 10.6242L15.6598 11.2466C17.7133 12.6273 19.25 14.9243 19.25 17.4618H20H20.75C20.75 14.3105 18.8599 11.5907 16.4968 10.0018L16.0783 10.6242ZM15 8.75323H15.75V4.50013H15H14.25V8.75323H15ZM9 8.75323H9.75V4.50013H9H8.25V8.75323H9ZM16.0783 10.6242L16.4968 10.0018C16.023 9.68324 15.75 9.21423 15.75 8.75323H15H14.25C14.25 9.81859 14.8669 10.7135 15.6598 11.2466L16.0783 10.6242ZM7.92172 10.6242L8.34019 11.2466C9.13307 10.7135 9.75 9.81859 9.75 8.75323H9H8.25C8.25 9.21423 7.97704 9.68324 7.50324 10.0018L7.92172 10.6242ZM19.6747 19.8L18.9535 19.594C18.8492 19.9592 18.4662 20.2501 17.949 20.2501V21.0001V21.7501C18.9936 21.7501 20.0712 21.1424 20.3958 20.006L19.6747 19.8ZM4.32535 19.8L3.60419 20.006C3.92877 21.1424 5.00643 21.7501 6.05096 21.7501V21.0001V20.2501C5.53382 20.2501 5.1508 19.9592 5.04651 19.594L4.32535 19.8ZM13 7.01013L13.5575 7.51186L13.5675 7.50075L13.01 6.99902L12.4525 6.4973L12.4425 6.50841L13 7.01013ZM11 2.01013L11.5575 2.51186L11.5675 2.50075L11.01 1.99902L10.4525 1.49729L10.4425 1.5084L11 2.01013Z" fill="#141C25"/>
</svg>
