<svg width="24" height="24" viewBox="0 0 24 24" fill="none" xmlns="http://www.w3.org/2000/svg">
<path d="M21.9999 7C21.9999 7 22.4999 3 17.9999 3C13.4998 3 13.9999 7 13.9999 7M21.9999 7H13.9999M21.9999 7L21.7856 10M13.9999 7L14.2141 10M21.7856 10L21.1989 18.2137C21.0867 19.7837 19.7804 21 18.2065 21H17.7932C16.2193 21 14.913 19.7837 14.8008 18.2137L14.2141 10M21.7856 10H14.2141M9.99993 7C9.99993 7 10.5 3 5.99993 3C1.49986 3 1.99993 7 1.99993 7M9.99993 7H1.99993M9.99993 7L9.78565 10M1.99993 7L2.21422 10M9.78565 10L9.19895 18.2137C9.08681 19.7837 7.78049 21 6.20658 21H5.79329C4.21938 21 2.91305 19.7837 2.80091 18.2137L2.21422 10M9.78565 10H2.21422" stroke="#141C25" stroke-width="1.5" stroke-linecap="round" stroke-linejoin="round"/>
</svg>
