<svg width="24" height="24" viewBox="0 0 24 24" fill="none" xmlns="http://www.w3.org/2000/svg">
<path d="M3 18V21H5.5M3 9.5V14.5M3 6V3H6M9.5 3H14.5M18 3H21V5.5M21 8.5V10M10 14.3937V21.4C10 21.7314 10.2686 22 10.6 22H21.4C21.7314 22 22 21.7314 22 21.4V14.3937C22 14.0623 21.7314 13.7937 21.4 13.7937H20.2272C20.0232 13.7937 19.8333 13.6901 19.7228 13.5186L18.2772 11.275C18.1667 11.1036 17.9768 11 17.7728 11H14.2272C14.0232 11 13.8333 11.1036 13.7228 11.275L12.2772 13.5186C12.1667 13.6901 11.9768 13.7937 11.7728 13.7937H10.6C10.2686 13.7937 10 14.0623 10 14.3937ZM18 17C18 18.1046 17.1046 19 16 19C14.8954 19 14 18.1046 14 17C14 15.8954 14.8954 15 16 15C17.1046 15 18 15.8954 18 17Z" stroke="#141C25" stroke-width="1.5" stroke-linecap="round" stroke-linejoin="round"/>
</svg>
