<svg width="24" height="24" viewBox="0 0 24 24" fill="none" xmlns="http://www.w3.org/2000/svg">
<path d="M13.8562 13.8497C14.4747 13.2295 14.8571 12.3737 14.8571 11.4286C14.8571 9.53502 13.3221 8 11.4286 8C9.53502 8 8 9.53502 8 11.4286C8 13.3221 9.53502 14.8571 11.4286 14.8571C12.377 14.8571 13.2355 14.4721 13.8562 13.8497ZM13.8562 13.8497L16 16M3 5V19C3 20.1046 3.89543 21 5 21H19C20.1046 21 21 20.1046 21 19V5C21 3.89543 20.1046 3 19 3H5C3.89543 3 3 3.89543 3 5Z" stroke="#141C25" stroke-width="1.5" stroke-linecap="round" stroke-linejoin="round"/>
</svg>
