<svg width="24" height="24" viewBox="0 0 24 24" fill="none" xmlns="http://www.w3.org/2000/svg">
<path d="M13 21H4C2.89543 21 2 20.1046 2 19V5C2 3.89543 2.89543 3 4 3H20C21.1046 3 22 3.89543 22 5V12M2 7H22M5 5.01L5.01 4.99889M8 5.01L8.01 4.99889M11 5.01L11.01 4.99889M21.5477 14.774L18.9923 14.125C18.6692 14.043 18.3308 14.043 18.0077 14.125L15.4523 14.774C15.1863 14.8416 14.9987 15.0833 15.0069 15.3576C15.1786 21.1159 18.5 22 18.5 22C18.5 22 21.8214 21.1159 21.9931 15.3576C22.0013 15.0833 21.8137 14.8416 21.5477 14.774Z" stroke="#141C25" stroke-width="1.5" stroke-linecap="round" stroke-linejoin="round"/>
</svg>
