<svg width="24" height="24" viewBox="0 0 24 24" fill="none" xmlns="http://www.w3.org/2000/svg">
<path d="M14 21.75C14.4142 21.75 14.75 21.4142 14.75 21C14.75 20.5858 14.4142 20.25 14 20.25V21V21.75ZM2 6.25C1.58579 6.25 1.25 6.58579 1.25 7C1.25 7.41421 1.58579 7.75 2 7.75V7V6.25ZM22 7.75C22.4142 7.75 22.75 7.41421 22.75 7C22.75 6.58579 22.4142 6.25 22 6.25V7V7.75ZM4.44253 4.50828C4.16543 4.81616 4.19039 5.29038 4.49828 5.56747C4.80616 5.84457 5.28038 5.81961 5.55747 5.51172L5 5.01L4.44253 4.50828ZM5.56747 5.50061C5.84457 5.19273 5.81961 4.71851 5.51172 4.44142C5.20384 4.16432 4.72962 4.18928 4.45253 4.49717L5.01 4.99889L5.56747 5.50061ZM7.44253 4.50827C7.16544 4.81615 7.19039 5.29037 7.49827 5.56747C7.80615 5.84456 8.28037 5.81961 8.55747 5.51173L8 5.01L7.44253 4.50827ZM8.56747 5.50062C8.84456 5.19274 8.81961 4.71852 8.51173 4.44142C8.20385 4.16433 7.72963 4.18928 7.45253 4.49716L8.01 4.99889L8.56747 5.50062ZM10.4425 4.50827C10.1654 4.81615 10.1904 5.29037 10.4983 5.56747C10.8062 5.84456 11.2804 5.81961 11.5575 5.51173L11 5.01L10.4425 4.50827ZM11.5675 5.50062C11.8446 5.19274 11.8196 4.71852 11.5117 4.44142C11.2038 4.16433 10.7296 4.18928 10.4525 4.49716L11.01 4.99889L11.5675 5.50062ZM22.0371 19.4658L22.1215 20.211L22.1215 20.211L22.0371 19.4658ZM22.0822 18.3651L21.6893 19.0039L21.6893 19.0039L22.0822 18.3651ZM19.4705 19.7568L19.386 19.0115L18.9808 19.0575L18.7991 19.4225L19.4705 19.7568ZM18.3193 22.0691L17.6479 21.7348L17.6479 21.7348L18.3193 22.0691ZM17.2695 21.735L18.0042 21.5842L18.0042 21.5842L17.2695 21.735ZM16.0142 15.619L16.7489 15.4682L16.7489 15.4682L16.0142 15.619ZM16.7644 15.0937L16.3714 15.7325L16.3714 15.7325L16.7644 15.0937ZM2 5H1.25V19H2H2.75V5H2ZM20 3V2.25H4V3V3.75H20V3ZM4 21V21.75H14V21V20.25H4V21ZM22 15H22.75V5H22H21.25V15H22ZM20 3V3.75C20.6904 3.75 21.25 4.30964 21.25 5H22H22.75C22.75 3.48122 21.5188 2.25 20 2.25V3ZM2 19H1.25C1.25 20.5188 2.48122 21.75 4 21.75V21V20.25C3.30964 20.25 2.75 19.6904 2.75 19H2ZM2 5H2.75C2.75 4.30964 3.30964 3.75 4 3.75V3V2.25C2.48122 2.25 1.25 3.48122 1.25 5H2ZM2 7V7.75H22V7V6.25H2V7ZM5 5.01L5.55747 5.51172L5.56747 5.50061L5.01 4.99889L4.45253 4.49717L4.44253 4.50828L5 5.01ZM8 5.01L8.55747 5.51173L8.56747 5.50062L8.01 4.99889L7.45253 4.49716L7.44253 4.50827L8 5.01ZM11 5.01L11.5575 5.51173L11.5675 5.50062L11.01 4.99889L10.4525 4.49716L10.4425 4.50827L11 5.01ZM22.0371 19.4658L22.1215 20.211C22.8286 20.1309 23.1641 19.5452 23.1849 19.0385C23.205 18.5491 22.9632 18.0265 22.4752 17.7263L22.0822 18.3651L21.6893 19.0039C21.695 19.0075 21.685 19.0064 21.6862 18.977C21.6869 18.9591 21.694 18.9035 21.7457 18.8397C21.8057 18.7658 21.8889 18.7278 21.9526 18.7206L22.0371 19.4658ZM19.4705 19.7568L19.555 20.502L22.1215 20.211L22.0371 19.4658L21.9526 18.7206L19.386 19.0115L19.4705 19.7568ZM18.3193 22.0691L18.9907 22.4033L20.1419 20.091L19.4705 19.7568L18.7991 19.4225L17.6479 21.7348L18.3193 22.0691ZM17.2695 21.735L16.5348 21.8858C16.65 22.4471 17.0584 22.853 17.5251 23.0015C18.0084 23.1553 18.6735 23.0403 18.9907 22.4033L18.3193 22.0691L17.6479 21.7348C17.6765 21.6774 17.7406 21.6122 17.8306 21.5811C17.9082 21.5543 17.9629 21.5667 17.9799 21.5721C18.008 21.5811 18.0055 21.5909 18.0042 21.5842L17.2695 21.735ZM16.0142 15.619L15.2795 15.7698L16.5348 21.8858L17.2695 21.735L18.0042 21.5842L16.7489 15.4682L16.0142 15.619ZM16.7644 15.0937L17.1574 14.4549C16.7281 14.1908 16.1895 14.169 15.7657 14.4657C15.3418 14.7625 15.1782 15.2761 15.2795 15.7698L16.0142 15.619L16.7489 15.4682C16.7493 15.4703 16.7548 15.5027 16.7367 15.5528C16.7187 15.6028 16.6821 15.6553 16.626 15.6945C16.57 15.7337 16.5082 15.7502 16.4551 15.75C16.4018 15.7498 16.3732 15.7336 16.3714 15.7325L16.7644 15.0937ZM22.0822 18.3651L22.4752 17.7263L17.1574 14.4549L16.7644 15.0937L16.3714 15.7325L21.6893 19.0039L22.0822 18.3651Z" fill="#141C25"/>
</svg>
