<svg width="24" height="24" viewBox="0 0 24 24" fill="none" xmlns="http://www.w3.org/2000/svg">
<path d="M8.99977 12.9995L10.9998 14.9995L15.9998 9.99954M9.21233 4.17878L6.64119 3.95464C6.34336 3.92868 6.07185 4.12594 6.00451 4.41722L5.42315 6.93178C5.38652 7.09023 5.28713 7.22703 5.14775 7.31083L2.93592 8.64077C2.6797 8.79483 2.57599 9.11401 2.69272 9.38924L3.70042 11.7653C3.76392 11.915 3.76392 12.0841 3.70042 12.2338L2.69272 14.6098C2.57599 14.8851 2.6797 15.2043 2.93592 15.3583L5.14775 16.6883C5.28713 16.7721 5.38652 16.9089 5.42315 17.0673L6.00451 19.5819C6.07185 19.8731 6.34336 20.0704 6.64119 20.0444L9.21233 19.8203C9.37435 19.8062 9.53516 19.8584 9.65793 19.9651L11.6063 21.6577C11.832 21.8538 12.1676 21.8538 12.3933 21.6577L14.3416 19.9651C14.4644 19.8584 14.6252 19.8062 14.7872 19.8203L17.3583 20.0444C17.6562 20.0704 17.9277 19.8731 17.995 19.5819L18.5764 17.0673C18.613 16.9089 18.7124 16.7721 18.8518 16.6883L21.0636 15.3583C21.3198 15.2043 21.4235 14.8851 21.3068 14.6098L20.2991 12.2338C20.2356 12.0841 20.2356 11.915 20.2991 11.7653L21.3068 9.38924C21.4235 9.11401 21.3198 8.79483 21.0636 8.64077L18.8518 7.31083C18.7124 7.22703 18.613 7.09023 18.5764 6.93178L17.995 4.41722C17.9277 4.12594 17.6562 3.92868 17.3583 3.95464L14.7872 4.17878C14.6252 4.1929 14.4644 4.14065 14.3416 4.034L12.3933 2.34139C12.1676 2.14532 11.832 2.14532 11.6063 2.34139L9.65793 4.034C9.53516 4.14065 9.37435 4.1929 9.21233 4.17878Z" stroke="#141C25" stroke-width="1.5" stroke-linecap="round" stroke-linejoin="round"/>
</svg>
