<svg width="24" height="24" viewBox="0 0 24 24" fill="none" xmlns="http://www.w3.org/2000/svg">
<path d="M3.0001 9V19C3.0001 20.1046 3.89553 21 5.0001 21H19.0001C20.1047 21 21.0001 20.1046 21.0001 19V9M16.4934 3H20.4851C20.7784 3 21.0287 3.21205 21.0769 3.50136L21.7815 7.72861C21.8102 7.90091 21.7624 8.07782 21.6317 8.1937C21.3037 8.48445 20.5704 9 19.4934 9C17.9934 9 16.9934 8 16.9934 8M16.4934 3L16.9934 8M16.4934 3H11.9934M16.9934 8C16.9934 8 15.9934 9 14.4934 9C12.9934 9 11.9934 8 11.9934 8M11.9934 3V8M11.9934 3H7.49339M11.9934 8C11.9934 8 10.9934 9 9.49339 9C7.99339 9 6.99339 8 6.99339 8M7.49339 3L6.99339 8M7.49339 3H3.50168C3.20838 3 2.95807 3.21205 2.90985 3.50136L2.2053 7.72862C2.17659 7.90091 2.22442 8.07782 2.35512 8.1937C2.68304 8.48445 3.41636 9 4.49339 9C5.99339 9 6.99339 8 6.99339 8" stroke="#141C25" stroke-width="1.5"/>
</svg>
