<svg width="24" height="24" viewBox="0 0 24 24" fill="none" xmlns="http://www.w3.org/2000/svg">
<path d="M4.00004 9.5H5.50004C6.60461 9.5 7.50004 8.60457 7.50004 7.5V5M20.5 9.5H18.5C17.3955 9.5 16.5 8.60457 16.5 7.5V5M11.4263 12.4742L9.55852 18.5756C9.48133 18.8278 9.24852 19 8.9848 19H4.83318C4.52307 19 4.26405 18.7637 4.23569 18.4549L3.06018 5.65487C3.0279 5.30331 3.30463 5 3.65767 5H20.3424C20.6955 5 20.9722 5.30331 20.9399 5.65487L19.7644 18.4549C19.736 18.7637 19.477 19 19.1669 19H15.0153C14.7516 19 14.5188 18.8278 14.4416 18.5756L12.5738 12.4742C12.4005 11.9083 11.5995 11.9083 11.4263 12.4742Z" stroke="#141C25" stroke-width="1.5"/>
</svg>
