<svg width="24" height="24" viewBox="0 0 24 24" fill="none" xmlns="http://www.w3.org/2000/svg">
<path d="M5 19L7.33333 20L16.6667 20L19 19M8 22.01L8.01 21.9989M16 22.01L16.01 21.9989M7 7.8335L10 6.3335C12 5.3335 14.2705 6.90111 14.2705 6.90111L9.96227 10.0363L14 13.3335V17.3335M9.54875 13.3445L8.30818 14.1716H5M15.1653 9.20935H17.887M19 4C19 5.10457 18.1046 6 17 6C15.8954 6 15 5.10457 15 4C15 2.89543 15.8954 2 17 2C18.1046 2 19 2.89543 19 4Z" stroke="#141C25" stroke-width="1.5" stroke-linecap="round" stroke-linejoin="round"/>
</svg>
