<svg width="24" height="24" viewBox="0 0 24 24" fill="none" xmlns="http://www.w3.org/2000/svg">
<path d="M12 15L12 17M12 17C8.97372 17 8.23705 19.2896 8.05773 20.4043C8.00509 20.7315 8.26866 21 8.60003 21H15.4C15.7314 21 15.995 20.7315 15.9423 20.4043C15.763 19.2896 15.0263 17 12 17ZM4.23175 12.2276L6.87175 3.42759C6.94789 3.1738 7.18148 3 7.44645 3H16.5536C16.8186 3 17.0522 3.1738 17.1283 3.42759L19.7683 12.2276C19.8838 12.6126 19.5955 13 19.1936 13H4.80645C4.40453 13 4.11626 12.6126 4.23175 12.2276Z" stroke="#141C25" stroke-width="1.5" stroke-linecap="round" stroke-linejoin="round"/>
</svg>
