<svg width="24" height="24" viewBox="0 0 24 24" fill="none" xmlns="http://www.w3.org/2000/svg">
<path d="M2.99983 10V19C2.99983 20.1046 3.89526 21 4.99983 21H18.9998C20.1044 21 20.9998 20.1046 20.9998 19V10M8.83315 21V15C8.83315 13.8954 9.72858 13 10.8331 13H12.8331C13.9377 13 14.8331 13.8954 14.8331 15V21M15.4998 3H19.5473C19.8151 3 20.0506 3.17759 20.1242 3.43517L21.8182 9.36418C21.9155 9.7049 21.698 10.0526 21.3463 10.0958C20.5007 10.1998 19.0156 10.3125 17.9998 10C17.4051 9.81699 16.6423 9.38698 16.2531 9.15495C16.0922 9.05904 15.9907 8.89043 15.9751 8.70377L15.4998 3ZM15.4998 3L15.9698 8.63904C15.9883 8.86103 15.8826 9.07486 15.6908 9.18807C15.2878 9.42589 14.5673 9.82538 13.9998 10C12.5068 10.4594 11.4929 10.4594 9.99983 10C9.43233 9.82538 8.7119 9.42589 8.30889 9.18807C8.11706 9.07486 8.01141 8.86103 8.02991 8.63904L8.49983 3M15.4998 3H8.49983M8.49983 3H4.45241C4.18452 3 3.94909 3.17759 3.8755 3.43517L2.18149 9.36418C2.08415 9.7049 2.30164 10.0526 2.65334 10.0958C3.49899 10.1998 4.98407 10.3125 5.99983 10C6.5946 9.81699 7.35734 9.38698 7.74661 9.15495C7.9075 9.05904 8.00896 8.89043 8.02452 8.70377L8.49983 3Z" stroke="#141C25" stroke-width="1.5"/>
</svg>
