<svg width="24" height="24" viewBox="0 0 24 24" fill="none" xmlns="http://www.w3.org/2000/svg">
<path d="M6 11.9999H2M22 11.9999H17M3 20.0099L3.01 19.9988M6 16.0099L6.01 15.9988M9 20.0099L9.01 19.9988M12 16.0099L12.01 15.9988M15 20.0099L15.01 19.9988M18 16.0099L18.01 15.9988M21 20.0099L21.01 19.9988M12 6.99992C9.9 9.25874 9 12.9999 9 12.9999M16.5601 6.1305L16.1857 2.24125C16.1587 1.96099 15.9096 1.75567 15.6293 1.78266L11.4826 2.18195C9.00691 2.42032 7.19324 4.62047 7.43162 7.09612C7.67 9.57176 9.91266 11.3813 12.3883 11.143C14.9114 10.9 16.8031 8.65356 16.5601 6.1305Z" stroke="#141C25" stroke-width="1.5" stroke-linecap="round" stroke-linejoin="round"/>
</svg>
