<svg width="24" height="24" viewBox="0 0 24 24" fill="none" xmlns="http://www.w3.org/2000/svg">
<path d="M22 4L2 4M3 8.01L3.01 7.99889M3 16.01L3.01 15.9989M6 12.01L6.01 11.9989M6 20.01L6.01 19.9989M9 8.01L9.01 7.99889M9 16.01L9.01 15.9989M12 12.01L12.01 11.9989M12 20.01L12.01 19.9989M15 8.01L15.01 7.99889M15 16.01L15.01 15.9989M18 12.01L18.01 11.9989M18 20.01L18.01 19.9989M21 8.01L21.01 7.99889M21 16.01L21.01 15.9989" stroke="#141C25" stroke-width="1.5" stroke-linecap="round" stroke-linejoin="round"/>
</svg>
