<svg width="24" height="24" viewBox="0 0 24 24" fill="none" xmlns="http://www.w3.org/2000/svg">
<path d="M18 14L20.0005 12M20.0005 12L22 9.99999M20.0005 12L18 9.99999M20.0005 12L22 14M2 10.1429V13.8571C2 14.9617 2.89543 15.8571 4 15.8571H6.9C7.09569 15.8571 7.28708 15.9146 7.45046 16.0223L13.4495 19.9777C14.1144 20.4161 15 19.9392 15 19.1428V4.85714C15 4.06074 14.1144 3.58389 13.4495 4.02227L7.45046 7.97771C7.28708 8.08543 7.09569 8.14285 6.9 8.14285H4C2.89543 8.14285 2 9.03828 2 10.1429Z" stroke="#141C25" stroke-width="1.5" stroke-linecap="round" stroke-linejoin="round"/>
</svg>
