<svg width="24" height="24" viewBox="0 0 24 24" fill="none" xmlns="http://www.w3.org/2000/svg">
<path d="M17.5 7.49999C17.5 7.49999 19 8.99999 19 11.5C19 14 17.5 15.5 17.5 15.5M20.5 4.49999C20.5 4.49999 23 6.99999 23 11.5C23 16 20.5 18.5 20.5 18.5M1 10.1429V13.8571C1 14.9617 1.89543 15.8571 3 15.8571H5.9C6.09569 15.8571 6.28708 15.9146 6.45046 16.0223L12.4495 19.9777C13.1144 20.4161 14 19.9392 14 19.1428V4.85714C14 4.06074 13.1144 3.58389 12.4495 4.02227L6.45046 7.97771C6.28708 8.08543 6.09569 8.14285 5.9 8.14285H3C1.89543 8.14285 1 9.03828 1 10.1429Z" stroke="#141C25" stroke-width="1.5" stroke-linecap="round" stroke-linejoin="round"/>
</svg>
