<svg width="24" height="24" viewBox="0 0 24 24" fill="none" xmlns="http://www.w3.org/2000/svg">
<path d="M12 14.5L12.624 14.084C12.4849 13.8753 12.2508 13.75 12 13.75C11.7492 13.75 11.5151 13.8753 11.376 14.084L12 14.5ZM12 2L12.5303 1.46967C12.2374 1.17678 11.7626 1.17678 11.4697 1.46967L12 2ZM8.47059 21.1176L7.80882 20.7647L7.80882 20.7647L8.47059 21.1176ZM11.4706 15.4926L12.1324 15.8456L12.1324 15.8456L11.4706 15.4926ZM12.5294 15.4926L13.1912 15.1397L13.1912 15.1397L12.5294 15.4926ZM15.5294 21.1176L16.1912 20.7647L16.1912 20.7647L15.5294 21.1176ZM21 14H20.25C20.25 15.0881 19.9251 15.8217 19.476 16.2871C19.0239 16.7555 18.3765 17.0245 17.5985 17.0519C16.0251 17.1075 14.0044 16.1545 12.624 14.084L12 14.5L11.376 14.916C12.9956 17.3455 15.4749 18.6278 17.6515 18.551C18.7485 18.5123 19.7886 18.1232 20.5553 17.3287C21.3249 16.5313 21.75 15.3972 21.75 14H21ZM12 14.5L11.376 14.084C9.99558 16.1545 7.97487 17.1075 6.40146 17.0519C5.62345 17.0245 4.97609 16.7555 4.52405 16.2871C4.0749 15.8217 3.75 15.0881 3.75 14H3H2.25C2.25 15.3972 2.6751 16.5313 3.4447 17.3287C4.21141 18.1232 5.25155 18.5123 6.34854 18.551C8.52513 18.6278 11.0044 17.3455 12.624 14.916L12 14.5ZM3 14H3.75C3.75 12.2725 4.60598 10.696 6.19177 8.8662C7.79539 7.01586 9.98217 5.07849 12.5303 2.53033L12 2L11.4697 1.46967C9.01783 3.92151 6.70461 5.98414 5.05823 7.8838C3.39402 9.80404 2.25 11.7275 2.25 14H3ZM12 2L11.4697 2.53033C14.0178 5.07849 16.2046 7.01586 17.8082 8.8662C19.394 10.696 20.25 12.2725 20.25 14H21H21.75C21.75 11.7275 20.606 9.80404 18.9418 7.8838C17.2954 5.98414 14.9822 3.92151 12.5303 1.46967L12 2ZM8.47059 21.1176L9.13235 21.4706L12.1324 15.8456L11.4706 15.4926L10.8088 15.1397L7.80882 20.7647L8.47059 21.1176ZM12.5294 15.4926L11.8676 15.8456L14.8676 21.4706L15.5294 21.1176L16.1912 20.7647L13.1912 15.1397L12.5294 15.4926ZM9 22V22.75H15V22V21.25H9V22ZM11.4706 15.4926L12.1324 15.8456C12.0759 15.9515 11.9241 15.9515 11.8676 15.8456L12.5294 15.4926L13.1912 15.1397C12.6829 14.1868 11.3171 14.1868 10.8088 15.1397L11.4706 15.4926ZM15.5294 21.1176L14.8676 21.4706C14.8144 21.3707 14.8868 21.25 15 21.25V22V22.75C16.0191 22.75 16.6708 21.6639 16.1912 20.7647L15.5294 21.1176ZM8.47059 21.1176L7.80882 20.7647C7.32923 21.6639 7.98086 22.75 9 22.75V22V21.25C9.11324 21.25 9.18564 21.3707 9.13235 21.4706L8.47059 21.1176Z" fill="#141C25"/>
</svg>
