<svg width="24" height="24" viewBox="0 0 24 24" fill="none" xmlns="http://www.w3.org/2000/svg">
<path d="M11.5 9C6.35714 9 3.5 7.80795 3.5 6.00398C3.5 4.2 6.35714 3 11.5 3C18.5 3 19.5 6.00398 19.5 6.00398C19.5 6.00398 18.5 9 11.5 9ZM11.5 9C6.35715 9 3.5 10.2 3.5 12.004C3.5 13.808 6.35714 15 11.5 15M11.5 9C18.5 9 19.5 12.004 19.5 12.004C19.5 12.004 18.5 15 11.5 15M11.5 15C6.35715 15 3.5 16.2 3.5 18.004C3.5 19.808 6.35714 21 11.5 21C18.5 21 19.5 18.004 19.5 18.004C19.5 18.004 18.5 15 11.5 15ZM20.5 4C20.5 5.35 19.5 6 19.5 6C19.5 6 20.5 6.975 20.5 9C20.5 11.025 19.5 12 19.5 12C19.5 12 20.5 12.975 20.5 15C20.5 17.025 19.5 18 19.5 18C19.5 18 20.5 18.65 20.5 20" stroke="#141C25" stroke-width="1.5" stroke-linecap="round" stroke-linejoin="round"/>
</svg>
