<svg width="24" height="24" viewBox="0 0 24 24" fill="none" xmlns="http://www.w3.org/2000/svg">
<path d="M17.9998 7.49985L18.9185 7.65296C20.0495 7.84146 20.7908 8.94031 20.542 10.0596L20.014 12.4356C20.0046 12.4783 19.9998 12.5221 19.9998 12.5659V17.4998C19.9998 19.4998 18.3998 21.4998 15.9998 21.4998H9.41955C8.8357 21.4998 8.28108 21.2447 7.90112 20.8014L3.35264 15.4949C2.85788 14.9176 2.84352 14.0702 3.31844 13.4765C3.93414 12.7069 5.096 12.6813 5.74502 13.423L7.99976 15.9998V12.5839C7.99976 12.5281 7.99199 12.4727 7.97668 12.419L6.61518 7.6538C6.28716 6.50572 7.03166 5.32786 8.20943 5.13157L8.99976 4.99985M17.9998 7.49985L16.9998 12.4998M17.9998 7.49985L18.2472 6.015C18.3867 5.1782 17.8214 4.38679 16.9846 4.24732C16.1597 4.10984 15.3765 4.65747 15.2223 5.4794L13.9998 11.9998L11.8511 3.83511C11.6521 3.07857 10.9095 2.59823 10.1378 2.72684C9.25863 2.87337 8.69555 3.74385 8.92239 4.60583L10.9998 12.4998" stroke="#141C25" stroke-width="1.5" stroke-linecap="round" stroke-linejoin="round"/>
</svg>
