<svg width="24" height="24" viewBox="0 0 24 24" fill="none" xmlns="http://www.w3.org/2000/svg">
<path d="M4.28755 16C3.4716 14.695 3 13.1526 3 11.5C3 6.80558 6.80558 3 11.5 3V12M18.7125 16C19.5284 14.695 20 13.1526 20 11.5V9.5H22.5M3.5 12H19.5M6 19C6 20.1046 6.89543 21 8 21C9.10457 21 10 20.1046 10 19C10 17.8954 9.10457 17 8 17C6.89543 17 6 17.8954 6 19ZM13 19C13 20.1046 13.8954 21 15 21C16.1046 21 17 20.1046 17 19C17 17.8954 16.1046 17 15 17C13.8954 17 13 17.8954 13 19Z" stroke="#141C25" stroke-width="1.5" stroke-linecap="round" stroke-linejoin="round"/>
</svg>
