<svg width="24" height="24" viewBox="0 0 24 24" fill="none" xmlns="http://www.w3.org/2000/svg">
<path d="M13.5 21H16.5M21 16.5V13.5M21 19.5V20.4C21 20.7314 20.7314 21 20.4 21H19.5M10.5 21H9.6C9.26863 21 9 20.7314 9 20.4V19.5M19.5 9H20.4C20.7314 9 21 9.26863 21 9.6V10.5M9 16.5V9.6C9 9.26863 9.26863 9 9.6 9H16.5M15 14.4V3.6C15 3.26863 14.7314 3 14.4 3H3.6C3.26863 3 3 3.26863 3 3.6V14.4C3 14.7314 3.26863 15 3.6 15H14.4C14.7314 15 15 14.7314 15 14.4Z" stroke="#141C25" stroke-width="1.5" stroke-linecap="round" stroke-linejoin="round"/>
</svg>
