<svg width="24" height="24" viewBox="0 0 24 24" fill="none" xmlns="http://www.w3.org/2000/svg">
<path d="M7.5 9H6C5.17157 9 4.5 9.67157 4.5 10.5C4.5 11.3284 5.17157 12 6 12H6.5C7.32843 12 8 12.6716 8 13.5C8 14.3284 7.32843 15 6.5 15H4.5M10.5 9L12 15L13.5 9M19.5 9H16.5V15H19.5V12.6M4 6V3.6C4 3.26863 4.26863 3 4.6 3H19.4C19.7314 3 20 3.26863 20 3.6V6M4 18V20.4C4 20.7314 4.26863 21 4.6 21H19.4C19.7314 21 20 20.7314 20 20.4V18" stroke="#141C25" stroke-width="1.5" stroke-linecap="round" stroke-linejoin="round"/>
</svg>
