<svg width="24" height="24" viewBox="0 0 24 24" fill="none" xmlns="http://www.w3.org/2000/svg">
<path d="M17.4 20H6.6C6.26863 20 6 19.7314 6 19.4V11H3.40615C3.1608 11 2.94018 10.8506 2.84906 10.6228L1.22276 6.55709C1.09969 6.24942 1.24934 5.90023 1.55701 5.77717L6 4H9C9 4 9 7 12 7C15 7 15 4 15 4H18L22.4429 5.77717C22.7506 5.90023 22.9002 6.24942 22.7772 6.55709L21.1509 10.6228C21.0597 10.8506 20.8391 11 20.5938 11H18V19.4C18 19.7314 17.7314 20 17.4 20Z" stroke="#141C25" stroke-width="1.5" stroke-linecap="round" stroke-linejoin="round"/>
</svg>
