<svg width="24" height="24" viewBox="0 0 24 24" fill="none" xmlns="http://www.w3.org/2000/svg">
<path d="M12 3H6V11.9996C4.78555 12.9118 4 14.3642 4 16C4 18.7614 6.23858 21 9 21C11.7614 21 14 18.7614 14 16C14 14.3642 13.2144 12.9118 12 11.9996V3ZM12 3H14M12 6H14M12 9H14M9 14C7.89543 14 7 14.8954 7 16C7 17.1046 7.89543 18 9 18C10.1046 18 11 17.1046 11 16C11 14.8954 10.1046 14 9 14ZM9 14V11M21 5C21 6.10457 20.1046 7 19 7C17.8954 7 17 6.10457 17 5C17 3.89543 17.8954 3 19 3C20.1046 3 21 3.89543 21 5Z" stroke="#141C25" stroke-width="1.5" stroke-linecap="round" stroke-linejoin="round"/>
</svg>
