<svg width="24" height="24" viewBox="0 0 24 24" fill="none" xmlns="http://www.w3.org/2000/svg">
<path d="M11.25 16C11.25 16.4142 11.5858 16.75 12 16.75C12.4142 16.75 12.75 16.4142 12.75 16L12 16L11.25 16ZM8 7.25C7.58579 7.25 7.25 7.58579 7.25 8C7.25 8.41421 7.58579 8.75 8 8.75V8V7.25ZM16 8.75C16.4142 8.75 16.75 8.41421 16.75 8C16.75 7.58579 16.4142 7.25 16 7.25V8V8.75ZM19.5 10.5V9.75C19.0858 9.75 18.75 10.0858 18.75 10.5H19.5ZM19.5 13.5H18.75C18.75 13.9142 19.0858 14.25 19.5 14.25V13.5ZM22.5 13.5V14.25C22.9142 14.25 23.25 13.9142 23.25 13.5H22.5ZM22.5 10.5H23.25C23.25 10.0858 22.9142 9.75 22.5 9.75V10.5ZM1.5 10.5V9.75C1.08579 9.75 0.75 10.0858 0.75 10.5H1.5ZM1.5 13.5H0.75C0.75 13.9142 1.08579 14.25 1.5 14.25L1.5 13.5ZM4.5 13.5V14.25C4.91421 14.25 5.25 13.9142 5.25 13.5H4.5ZM4.5 10.5H5.25C5.25 10.0858 4.91421 9.75 4.5 9.75V10.5ZM12 8L11.25 8L11.25 16L12 16L12.75 16L12.75 8L12 8ZM12 8V7.25H8V8V8.75H12V8ZM12 8V8.75H16V8V7.25H12V8ZM5 21V21.75H19V21V20.25H5V21ZM19 3V2.25H5V3V3.75H19V3ZM21 10.5H21.75V5H21H20.25V10.5H21ZM21 19H21.75V13.5H21H20.25V19H21ZM3 13.5H2.25V19H3H3.75V13.5H3ZM3 5H2.25V10.5H3H3.75V5H3ZM19 3V3.75C19.6904 3.75 20.25 4.30964 20.25 5H21H21.75C21.75 3.48122 20.5188 2.25 19 2.25V3ZM19 21V21.75C20.5188 21.75 21.75 20.5188 21.75 19H21H20.25C20.25 19.6904 19.6904 20.25 19 20.25V21ZM5 21V20.25C4.30964 20.25 3.75 19.6904 3.75 19H3H2.25C2.25 20.5188 3.48122 21.75 5 21.75V21ZM5 3V2.25C3.48122 2.25 2.25 3.48122 2.25 5H3H3.75C3.75 4.30964 4.30964 3.75 5 3.75V3ZM19.5 10.5H18.75V13.5H19.5H20.25V10.5H19.5ZM19.5 13.5V14.25H22.5V13.5V12.75H19.5V13.5ZM22.5 13.5H23.25V10.5H22.5H21.75V13.5H22.5ZM22.5 10.5V9.75H19.5V10.5V11.25H22.5V10.5ZM1.5 10.5H0.75V13.5H1.5H2.25V10.5H1.5ZM1.5 13.5V14.25H4.5V13.5V12.75H1.5V13.5ZM4.5 13.5H5.25V10.5H4.5H3.75V13.5H4.5ZM4.5 10.5V9.75H1.5V10.5V11.25H4.5V10.5Z" fill="#141C25"/>
</svg>
