<svg width="24" height="24" viewBox="0 0 24 24" fill="none" xmlns="http://www.w3.org/2000/svg">
<path d="M7 20.0001V9.00011M4.1 20.0001H16.4724C17.3743 20.0001 18.1646 19.3965 18.4019 18.5263L20.311 11.5263C20.658 10.2541 19.7002 9.00011 18.3815 9.00011H13.8064C13.4045 9.00011 13.1162 8.61267 13.2317 8.2277L14.2541 4.81967C14.4081 4.30646 14.3002 3.75036 13.9655 3.33197C13.2554 2.44434 11.8779 2.53699 11.293 3.51172L8.5826 8.0291C8.22116 8.63151 7.57015 9.00011 6.86762 9.00011H4.1C3.76863 9.00011 3.5 9.26874 3.5 9.60011V19.4001C3.5 19.7315 3.76863 20.0001 4.1 20.0001Z" stroke="#141C25" stroke-width="1.5" stroke-linecap="round" stroke-linejoin="round"/>
</svg>
