<svg width="24" height="24" viewBox="0 0 24 24" fill="none" xmlns="http://www.w3.org/2000/svg">
<path d="M12 22C6.47715 22 2 17.5228 2 12C2 6.47715 6.47715 2 12 2C17.5228 2 22 6.47715 22 12M13 2.04932C13 2.04932 16 5.99994 16 11.9999M11 21.9506C11 21.9506 8 17.9999 8 11.9999C8 5.99994 11 2.04932 11 2.04932M2.62964 15.5H12M2.62964 8.5H21.3704M19 17.5V19H20.5M23 19C23 21.2091 21.2091 23 19 23C16.7909 23 15 21.2091 15 19C15 16.7909 16.7909 15 19 15C21.2091 15 23 16.7909 23 19Z" stroke="#141C25" stroke-width="1.5" stroke-linecap="round" stroke-linejoin="round"/>
</svg>
