<svg width="24" height="24" viewBox="0 0 24 24" fill="none" xmlns="http://www.w3.org/2000/svg">
<path d="M17.1929 13.7994L21.0712 17.6777C21.8522 18.4587 21.8522 19.725 21.0712 20.5061C20.2901 21.2871 19.0238 21.2871 18.2428 20.5061L12.0343 14.2976M6.73272 5.90377L4.6114 6.61088L2.49008 3.07535L3.9043 1.66113L7.43983 3.78245L6.73272 5.90377ZM6.73272 5.90377L9.56295 8.734M2.97934 17.6777L9.77277 10.8842C9.94141 10.7156 9.99197 10.4638 9.91769 10.2372C9.23013 8.1392 9.46943 5.53073 11.1111 3.88906C12.8506 2.14954 16.0608 1.76774 17.8286 2.8284L14.7879 5.86907L14.5053 8.98011L17.6164 8.6975L20.657 5.65682C21.7177 7.42459 21.3359 10.6348 19.5964 12.3743C17.8569 14.1139 15.0319 14.2788 12.8788 13.435L5.80777 20.5061C5.02672 21.2871 3.76039 21.2871 2.97934 20.5061C2.19829 19.725 2.19829 18.4587 2.97934 17.6777Z" stroke="#141C25" stroke-width="1.5" stroke-linecap="round" stroke-linejoin="round"/>
</svg>
