<svg width="24" height="24" viewBox="0 0 24 24" fill="none" xmlns="http://www.w3.org/2000/svg">
<path d="M10.6133 7.26692L7.30505 11.4022L11.4403 15.5374L9.37266 20.0861M10.6133 7.26692L7.79728 5.19931L4.4104 8.5075M10.6133 7.26692L13.508 10.5752H15.2297M6.89152 14.7103L5.65095 15.5374H2.34277M18.651 19.5374L3.34277 21.5374M18.651 19.5374V7.99999M18.651 19.5374L20.8914 21.7103M18.651 7.99999L20.8915 6M18.651 7.99999L17 9.5M15 4C15 5.10457 14.1046 6 13 6C11.8954 6 11 5.10457 11 4C11 2.89543 11.8954 2 13 2C14.1046 2 15 2.89543 15 4Z" stroke="#141C25" stroke-width="1.5" stroke-linecap="round" stroke-linejoin="round"/>
</svg>
