<svg width="24" height="24" viewBox="0 0 24 24" fill="none" xmlns="http://www.w3.org/2000/svg">
<path d="M15 14C15 15.1046 15.8954 16 17 16C18.1046 16 19 15.1046 19 14C19 12.8954 18.1046 12 17 12C15.8954 12 15 12.8954 15 14ZM15 14H14M14 14V3.6C14 3.26863 13.7314 3 13.4 3H2.6C2.26863 3 2 3.26863 2 3.6V13.4C2 13.7314 2.26863 14 2.6 14H4.65M14 14H9.05005M14 6H19.6101C19.8472 6 20.0621 6.13964 20.1584 6.35632L21.9483 10.3836C21.9824 10.4604 22 10.5434 22 10.6273V13.4C22 13.7314 21.7314 14 21.4 14H19.5M3 20H20.75M3 20L4.75 21.75M3 20L4.75 18.25M20.75 20L19 21.75M20.75 20L19 18.25M9 14C9 15.1046 8.10457 16 7 16C5.89543 16 5 15.1046 5 14C5 12.8954 5.89543 12 7 12C8.10457 12 9 12.8954 9 14Z" stroke="#141C25" stroke-width="1.5" stroke-linecap="round" stroke-linejoin="round"/>
</svg>
