<svg width="24" height="24" viewBox="0 0 24 24" fill="none" xmlns="http://www.w3.org/2000/svg">
<path d="M4.65 17.75C5.06421 17.75 5.4 17.4142 5.4 17C5.4 16.5858 5.06421 16.25 4.65 16.25V17V17.75ZM9.05005 16.25C8.63584 16.25 8.30005 16.5858 8.30005 17C8.30005 17.4142 8.63584 17.75 9.05005 17.75V17V16.25ZM14 8.25C13.5858 8.25 13.25 8.58579 13.25 9C13.25 9.41421 13.5858 9.75 14 9.75V9V8.25ZM21.9483 13.3836L22.6336 13.079L22.6336 13.079L21.9483 13.3836ZM20.1584 9.35632L19.473 9.66092L19.473 9.66092L20.1584 9.35632ZM19.5 16.25C19.0858 16.25 18.75 16.5858 18.75 17C18.75 17.4142 19.0858 17.75 19.5 17.75V17V16.25ZM9 17H8.25C8.25 17.6904 7.69036 18.25 7 18.25V19V19.75C8.51878 19.75 9.75 18.5188 9.75 17H9ZM7 19V18.25C6.30964 18.25 5.75 17.6904 5.75 17H5H4.25C4.25 18.5188 5.48122 19.75 7 19.75V19ZM5 17H5.75C5.75 16.3096 6.30964 15.75 7 15.75V15V14.25C5.48122 14.25 4.25 15.4812 4.25 17H5ZM7 15V15.75C7.69036 15.75 8.25 16.3096 8.25 17H9H9.75C9.75 15.4812 8.51878 14.25 7 14.25V15ZM19 17H18.25C18.25 17.6904 17.6904 18.25 17 18.25V19V19.75C18.5188 19.75 19.75 18.5188 19.75 17H19ZM17 19V18.25C16.3096 18.25 15.75 17.6904 15.75 17H15H14.25C14.25 18.5188 15.4812 19.75 17 19.75V19ZM15 17H15.75C15.75 16.3096 16.3096 15.75 17 15.75V15V14.25C15.4812 14.25 14.25 15.4812 14.25 17H15ZM17 15V15.75C17.6904 15.75 18.25 16.3096 18.25 17H19H19.75C19.75 15.4812 18.5188 14.25 17 14.25V15ZM14 17H14.75V6.6H14H13.25V17H14ZM2 6.6H1.25V16.4H2H2.75V6.6H2ZM13.4 6V5.25H2.6V6V6.75H13.4V6ZM2.6 17V17.75H4.65V17V16.25H2.6V17ZM2 16.4H1.25C1.25 17.1456 1.85442 17.75 2.6 17.75V17V16.25C2.68284 16.25 2.75 16.3172 2.75 16.4H2ZM2 6.6H2.75C2.75 6.68284 2.68284 6.75 2.6 6.75V6V5.25C1.85442 5.25 1.25 5.85442 1.25 6.6H2ZM14 6.6H14.75C14.75 5.85442 14.1456 5.25 13.4 5.25V6V6.75C13.3172 6.75 13.25 6.68284 13.25 6.6H14ZM9.05005 17V17.75H14V17V16.25H9.05005V17ZM19.6101 9V8.25H14V9V9.75H19.6101V9ZM22 16.4H22.75V13.6273H22H21.25V16.4H22ZM21.9483 13.3836L22.6336 13.079L20.8437 9.05171L20.1584 9.35632L19.473 9.66092L21.2629 13.6882L21.9483 13.3836ZM19.5 17V17.75H21.4V17V16.25H19.5V17ZM22 13.6273H22.75C22.75 13.4384 22.7104 13.2517 22.6336 13.079L21.9483 13.3836L21.2629 13.6882C21.2544 13.6691 21.25 13.6483 21.25 13.6273H22ZM19.6101 9V9.75C19.5508 9.75 19.4971 9.71509 19.473 9.66092L20.1584 9.35632L20.8437 9.05171C20.627 8.56419 20.1436 8.25 19.6101 8.25V9ZM22 16.4H21.25C21.25 16.3172 21.3172 16.25 21.4 16.25V17V17.75C22.1456 17.75 22.75 17.1456 22.75 16.4H22ZM14 17V17.75H15V17V16.25H14V17Z" fill="#141C25"/>
</svg>
