<svg width="24" height="24" viewBox="0 0 24 24" fill="none" xmlns="http://www.w3.org/2000/svg">
<path d="M13.6569 12.8284L10.8284 15.6569M13.6569 12.8284C14.4379 13.6095 15.7042 13.6095 16.4853 12.8284M13.6569 12.8284C12.8758 12.0474 12.8758 10.781 13.6569 10M10.8284 15.6569C11.6095 16.4379 11.6094 17.7043 10.8284 18.4853M10.8284 15.6569C10.0474 14.8758 8.78102 14.8758 7.99997 15.6569M8.5 2.5L12 6L15.5 2.5M2 9V20C2 21.1046 2.89543 22 4 22H20C21.1046 22 22 21.1046 22 20V9C22 7.89543 21.1046 7 20 7H4C2.89543 7 2 7.89543 2 9Z" stroke="#141C25" stroke-width="1.5" stroke-linecap="round" stroke-linejoin="round"/>
</svg>
