<svg width="24" height="24" viewBox="0 0 24 24" fill="none" xmlns="http://www.w3.org/2000/svg">
<path d="M14 10.4L12 6L10 10.4M14 10.4L14.5 11.5M14 10.4H10M9.5 11.5L10 10.4M21 11.7515V4C21 2.89543 20.1046 2 19 2H5C3.89543 2 3 2.89543 3 4V11.7515C3 11.9106 3.06321 12.0632 3.17574 12.1757L6.82426 15.8243C6.93679 15.9368 7 16.0894 7 16.2485V20C7 21.1046 7.89543 22 9 22H15C16.1046 22 17 21.1046 17 20V16.2485C17 16.0894 17.0632 15.9368 17.1757 15.8243L20.8243 12.1757C20.9368 12.0632 21 11.9106 21 11.7515Z" stroke="#141C25" stroke-width="1.5" stroke-linecap="round" stroke-linejoin="round"/>
</svg>
