<svg width="24" height="24" viewBox="0 0 24 24" fill="none" xmlns="http://www.w3.org/2000/svg">
<g clip-path="url(#clip0_1030_31483)">
<path d="M19.7781 4.04337L19.2631 4.58856L19.2631 4.58858L19.7781 4.04337ZM4.2217 4.04337L3.70669 3.49815L3.70663 3.49821L4.2217 4.04337ZM6.82219 12L6.82219 12.75L6.82219 12ZM12 20L12.75 20L12.75 20L12 20ZM6.75 20C6.75 19.5858 6.41421 19.25 6 19.25C5.58578 19.25 5.25 19.5858 5.25 20L6 20L6.75 20ZM19.7781 4.04337L20.2932 3.49819C18.0722 1.39995 15.1237 0.25 12 0.25V1V1.75C14.7527 1.75 17.3292 2.76152 19.2631 4.58856L19.7781 4.04337ZM12 1V0.25C8.87624 0.25 5.92783 1.40013 3.70669 3.49815L4.2217 4.04337L4.7367 4.5886C6.67085 2.76166 9.24736 1.75 12 1.75V1ZM4.2217 4.04337L3.70663 3.49821C1.48426 5.59791 0.25 8.40242 0.25 11.3911H1H1.75C1.75 8.82872 2.8042 6.41443 4.73677 4.58854L4.2217 4.04337ZM1 11.3911H0.25C0.25 12.1812 0.914998 12.75 1.64437 12.75V12V11.25C1.6598 11.25 1.68251 11.2564 1.70382 11.2765C1.72588 11.2974 1.75 11.338 1.75 11.3911H1ZM1.64437 12V12.75C2.37379 12.75 3.03891 12.1813 3.03891 11.3911H2.28891H1.53891C1.53891 11.338 1.56304 11.2973 1.58512 11.2765C1.60645 11.2563 1.62912 11.25 1.64437 11.25V12ZM2.28891 11.3911H3.03891C3.03891 10.8323 3.53463 10.3044 4.23328 10.3044V9.55439V8.80439C2.78782 8.80439 1.53891 9.92454 1.53891 11.3911H2.28891ZM19.7667 9.55439V10.3044C20.4654 10.3044 20.9611 10.8323 20.9611 11.3911H21.7111H22.4611C22.4611 9.92454 21.2122 8.80439 19.7667 8.80439V9.55439ZM21.7111 11.3911H20.9611C20.9611 12.1813 21.6262 12.75 22.3556 12.75V12V11.25C22.3709 11.25 22.3935 11.2563 22.4149 11.2765C22.437 11.2973 22.4611 11.338 22.4611 11.3911H21.7111ZM22.3556 12V12.75C23.085 12.75 23.75 12.1812 23.75 11.3911H23H22.25C22.25 11.338 22.2741 11.2974 22.2962 11.2765C22.3175 11.2564 22.3402 11.25 22.3556 11.25V12ZM23 11.3911H23.75C23.75 8.40244 22.5159 5.5979 20.2932 3.49817L19.7781 4.04337L19.2631 4.58858C21.196 6.41444 22.25 8.82869 22.25 11.3911H23ZM9.41109 9.55439V10.3044C9.99098 10.3044 10.4405 10.6712 10.7926 11.1954C10.9625 11.4483 11.0867 11.7066 11.1686 11.9046C11.2091 12.0025 11.2381 12.0827 11.2563 12.1364C11.2654 12.1631 11.2718 12.1831 11.2755 12.195C11.2773 12.201 11.2785 12.2049 11.279 12.2067C11.2793 12.2076 11.2794 12.208 11.2793 12.2077C11.2793 12.2076 11.2792 12.2074 11.2791 12.207C11.2791 12.2068 11.279 12.2066 11.2789 12.2063C11.2789 12.2062 11.2788 12.206 11.2788 12.2059C11.2788 12.2057 11.2787 12.2054 12 12C12.7213 11.7946 12.7212 11.7943 12.7212 11.794C12.7211 11.7939 12.7211 11.7936 12.721 11.7934C12.7209 11.793 12.7207 11.7926 12.7206 11.7921C12.7203 11.7911 12.72 11.79 12.7196 11.7887C12.7189 11.7862 12.718 11.783 12.7168 11.7793C12.7146 11.7718 12.7117 11.762 12.708 11.7501C12.7005 11.7262 12.6901 11.6936 12.6764 11.6534C12.6492 11.5733 12.609 11.4625 12.5546 11.3311C12.4468 11.0706 12.2786 10.7175 12.0378 10.359C11.5685 9.66042 10.7236 8.80439 9.41109 8.80439V9.55439ZM12 12C12.7213 12.2054 12.7212 12.2057 12.7212 12.2059C12.7212 12.206 12.7211 12.2062 12.7211 12.2063C12.721 12.2066 12.7209 12.2068 12.7209 12.207C12.7208 12.2074 12.7207 12.2076 12.7207 12.2077C12.7206 12.208 12.7207 12.2076 12.721 12.2067C12.7215 12.2049 12.7227 12.201 12.7245 12.195C12.7282 12.1831 12.7346 12.1631 12.7437 12.1364C12.7619 12.0827 12.7909 12.0025 12.8314 11.9046C12.9133 11.7066 13.0375 11.4483 13.2074 11.1954C13.5595 10.6712 14.009 10.3044 14.5889 10.3044V9.55439V8.80439C13.2764 8.80439 12.4315 9.66042 11.9622 10.359C11.7214 10.7175 11.5532 11.0706 11.4454 11.3311C11.391 11.4625 11.3508 11.5733 11.3236 11.6534C11.3099 11.6936 11.2995 11.7262 11.292 11.7501C11.2883 11.762 11.2854 11.7718 11.2832 11.7793C11.282 11.783 11.2811 11.7861 11.2804 11.7887C11.28 11.79 11.2797 11.7911 11.2794 11.7921C11.2793 11.7926 11.2791 11.793 11.279 11.7934C11.2789 11.7936 11.2789 11.7939 11.2788 11.794C11.2788 11.7943 11.2787 11.7946 12 12ZM14.5889 9.55439V10.3044C14.8769 10.3044 15.012 10.3881 15.1046 10.4772C15.2269 10.5947 15.3316 10.779 15.4574 11.0726C15.5584 11.3082 15.7115 11.7267 15.9106 12.0297C16.149 12.3925 16.5473 12.75 17.1778 12.75V12V11.25C17.1674 11.25 17.1866 11.2502 17.208 11.2639C17.2199 11.2716 17.2033 11.2654 17.1643 11.206C17.0621 11.0505 16.9972 10.8576 16.8362 10.4818C16.7 10.164 16.4989 9.73684 16.1443 9.39588C15.7599 9.02636 15.2471 8.80439 14.5889 8.80439V9.55439ZM17.1778 12V12.75C17.8084 12.75 18.2066 12.3925 18.445 12.0297C18.6441 11.7267 18.7972 11.3082 18.8982 11.0725C19.024 10.779 19.1287 10.5947 19.251 10.4772C19.3436 10.3881 19.4787 10.3044 19.7667 10.3044V9.55439V8.80439C19.1085 8.80439 18.5957 9.02636 18.2113 9.39588C17.8567 9.73684 17.6556 10.164 17.5194 10.4818C17.3584 10.8576 17.2935 11.0505 17.1914 11.206C17.1524 11.2654 17.1357 11.2716 17.1476 11.2639C17.169 11.2502 17.1883 11.25 17.1778 11.25V12ZM6.82219 12L6.82219 12.75C7.11143 12.75 7.38277 12.6849 7.62534 12.5472C7.86388 12.4118 8.03587 12.2283 8.1623 12.0472C8.3892 11.7222 8.53275 11.2938 8.62791 11.0481C8.74608 10.743 8.83552 10.5685 8.94173 10.4591C9.01247 10.3863 9.12463 10.3044 9.41109 10.3044V9.55439V8.80439C8.75136 8.80439 8.24066 9.02815 7.86589 9.41389C7.52658 9.76312 7.34784 10.2 7.22918 10.5063C7.08751 10.872 7.02559 11.055 6.93237 11.1886C6.91539 11.2129 6.90269 11.2268 6.89493 11.2343C6.89113 11.238 6.8885 11.2401 6.88704 11.2412C6.88563 11.2423 6.88496 11.2426 6.88491 11.2427C6.88488 11.2427 6.88473 11.2428 6.88414 11.243C6.88355 11.2432 6.88167 11.244 6.87807 11.2449C6.87119 11.2466 6.85384 11.25 6.82219 11.25L6.82219 12ZM4.23328 9.55439V10.3044C4.51977 10.3044 4.63193 10.3863 4.70268 10.4592C4.80889 10.5685 4.89832 10.743 5.01648 11.0481C5.11163 11.2937 5.25518 11.7222 5.48208 12.0472C5.6085 12.2283 5.78049 12.4118 6.01903 12.5472C6.2616 12.6849 6.53294 12.75 6.82219 12.75L6.82219 12L6.82219 11.25C6.79054 11.25 6.77318 11.2466 6.7663 11.2449C6.7627 11.244 6.76083 11.2432 6.76024 11.243C6.75965 11.2428 6.7595 11.2427 6.75947 11.2427C6.75942 11.2426 6.75876 11.2423 6.75734 11.2412C6.75589 11.2401 6.75325 11.238 6.74945 11.2343C6.7417 11.2268 6.72899 11.2129 6.71202 11.1886C6.61881 11.055 6.55689 10.872 6.41522 10.5063C6.29657 10.2 6.11782 9.76312 5.77851 9.41388C5.40373 9.02815 4.89302 8.80439 4.23328 8.80439V9.55439ZM12 12L11.25 12L11.25 20L12 20L12.75 20L12.75 12L12 12ZM12 20L11.25 20C11.25 20.7965 10.9588 21.3387 10.5642 21.6894C10.1559 22.0524 9.5902 22.25 9 22.25C8.4098 22.25 7.84412 22.0524 7.43577 21.6894C7.04122 21.3387 6.75 20.7965 6.75 20L6 20L5.25 20C5.25 21.2035 5.70878 22.1613 6.43923 22.8106C7.15587 23.4476 8.0902 23.75 9 23.75C9.9098 23.75 10.8441 23.4476 11.5608 22.8106C12.2912 22.1613 12.75 21.2035 12.75 20L12 20Z" fill="#141C25"/>
</g>
<defs>
<clipPath id="clip0_1030_31483">
<rect width="24" height="24" fill="white"/>
</clipPath>
</defs>
</svg>
