<svg width="24" height="24" viewBox="0 0 24 24" fill="none" xmlns="http://www.w3.org/2000/svg">
<path d="M14.4999 6H9.99989L9.49989 11C10.0186 10.1033 10.9881 9.5 12.0985 9.5C13.7554 9.5 15.0985 10.8431 15.0985 12.5C15.0985 13.327 14.7639 14.0758 14.2227 14.6185C13.6796 15.163 12.9284 15.5 12.0985 15.5C10.9881 15.5 10.0186 14.8967 9.49989 14M2.14456 14.032L5.65071 3.4119C5.73187 3.16606 5.96157 3 6.22046 3H17.716C17.9737 3 18.2027 3.16462 18.2847 3.40896L21.8522 14.0304C21.9392 14.2894 21.8402 14.5745 21.6115 14.7239L12.3279 20.7858C12.1286 20.916 11.8712 20.916 11.6719 20.7858L2.38627 14.7225C2.15847 14.5738 2.05927 14.2904 2.14456 14.032Z" stroke="#141C25" stroke-width="1.5" stroke-linecap="round" stroke-linejoin="round"/>
</svg>
