<svg width="24" height="24" viewBox="0 0 24 24" fill="none" xmlns="http://www.w3.org/2000/svg">
<path d="M9 11C11.2091 11 13 9.20914 13 7C13 4.79086 11.2091 3 9 3C6.79086 3 5 4.79086 5 7C5 9.20914 6.79086 11 9 11ZM9 11C5.13401 11 2 14.134 2 18M9 11C10.635 11 12.1391 11.5606 13.3306 12.5M17 13H19M21.6603 18.7069L21.364 16.7069C21.2187 15.7262 20.3769 15 19.3856 15H16.6144C15.6231 15 14.7813 15.7262 14.636 16.7069L14.3397 18.7069C14.1607 19.915 15.0968 21 16.3181 21H19.6819C20.9032 21 21.8393 19.915 21.6603 18.7069Z" stroke="#141C25" stroke-width="1.5" stroke-linecap="round" stroke-linejoin="round"/>
</svg>
