<svg width="24" height="24" viewBox="0 0 24 24" fill="none" xmlns="http://www.w3.org/2000/svg">
<path d="M6.25 18C6.25 18.4142 6.58579 18.75 7 18.75C7.41421 18.75 7.75 18.4142 7.75 18H7H6.25ZM16.25 18C16.25 18.4142 16.5858 18.75 17 18.75C17.4142 18.75 17.75 18.4142 17.75 18H17H16.25ZM7 17H6.25V18H7H7.75V17H7ZM17 18H17.75V17H17H16.25V18H17ZM17 17H17.75C17.75 13.8244 15.1756 11.25 12 11.25V12V12.75C14.3472 12.75 16.25 14.6528 16.25 17H17ZM7 17H7.75C7.75 14.6528 9.65279 12.75 12 12.75V12V11.25C8.82436 11.25 6.25 13.8244 6.25 17H7ZM15 9H14.25C14.25 10.2426 13.2426 11.25 12 11.25V12V12.75C14.0711 12.75 15.75 11.0711 15.75 9H15ZM12 12V11.25C10.7574 11.25 9.75 10.2426 9.75 9H9H8.25C8.25 11.0711 9.92893 12.75 12 12.75V12ZM9 9H9.75C9.75 7.75736 10.7574 6.75 12 6.75V6V5.25C9.92893 5.25 8.25 6.92893 8.25 9H9ZM12 6V6.75C13.2426 6.75 14.25 7.75736 14.25 9H15H15.75C15.75 6.92893 14.0711 5.25 12 5.25V6ZM22 12H21.25C21.25 17.1086 17.1086 21.25 12 21.25V22V22.75C17.9371 22.75 22.75 17.9371 22.75 12H22ZM12 22V21.25C6.89137 21.25 2.75 17.1086 2.75 12H2H1.25C1.25 17.9371 6.06294 22.75 12 22.75V22ZM2 12H2.75C2.75 6.89137 6.89137 2.75 12 2.75V2V1.25C6.06294 1.25 1.25 6.06294 1.25 12H2ZM12 2V2.75C17.1086 2.75 21.25 6.89137 21.25 12H22H22.75C22.75 6.06294 17.9371 1.25 12 1.25V2Z" fill="#141C25"/>
</svg>
