<svg width="24" height="24" viewBox="0 0 24 24" fill="none" xmlns="http://www.w3.org/2000/svg">
<path d="M14.5 10.5C12.75 12.3824 11 17 11 17C11 17 8.5 10.5 6 9M21 20.4V3.6C21 3.26863 20.7314 3 20.4 3H3.6C3.26863 3 3 3.26863 3 3.6V20.4C3 20.7314 3.26863 21 3.6 21H20.4C20.7314 21 21 20.7314 21 20.4ZM18.3121 9.81003L18.0155 6.73006C17.9941 6.50812 17.7969 6.34552 17.5749 6.36689L14.291 6.68309C12.3305 6.87187 10.8942 8.61421 11.083 10.5747C11.2718 12.5352 13.0478 13.9683 15.0083 13.7795C17.0064 13.5871 18.5045 11.8081 18.3121 9.81003Z" stroke="#141C25" stroke-width="1.5" stroke-linecap="round" stroke-linejoin="round"/>
</svg>
