<svg width="24" height="24" viewBox="0 0 24 24" fill="none" xmlns="http://www.w3.org/2000/svg">
<path d="M14.5 11.5C12.75 13.3824 11 18 11 18C11 18 8.5 11.5 6 10M18.3121 10.81L18.0155 7.73006C17.9941 7.50812 17.7969 7.34552 17.5749 7.36689L14.291 7.68309C12.3305 7.87187 10.8942 9.61421 11.083 11.5747C11.2718 13.5352 13.0478 14.9683 15.0083 14.7795C17.0064 14.5871 18.5045 12.8081 18.3121 10.81ZM22 12C22 17.5228 17.5228 22 12 22C6.47715 22 2 17.5228 2 12C2 6.47715 6.47715 2 12 2C17.5228 2 22 6.47715 22 12Z" stroke="#141C25" stroke-width="1.5" stroke-linecap="round" stroke-linejoin="round"/>
</svg>
