<svg width="24" height="24" viewBox="0 0 24 24" fill="none" xmlns="http://www.w3.org/2000/svg">
<path d="M4 19H6M18 19H20M5 10.01L5.01 9.99889M8 10.01L8.01 9.99889M11 10.01L11.01 9.99889M5 14.01L5.01 13.9989M8 14.01L8.01 13.9989M11 14.01L11.01 13.9989M2 7.6V16.4C2 16.7314 2.26863 17 2.6 17H21.4C21.7314 17 22 16.7314 22 16.4V7.6C22 7.26863 21.7314 7 21.4 7H2.6C2.26863 7 2 7.26863 2 7.6ZM19 12C19 13.1046 18.1046 14 17 14C15.8954 14 15 13.1046 15 12C15 10.8954 15.8954 10 17 10C18.1046 10 19 10.8954 19 12Z" stroke="#141C25" stroke-width="1.5" stroke-linecap="round" stroke-linejoin="round"/>
</svg>
