<svg width="24" height="24" viewBox="0 0 24 24" fill="none" xmlns="http://www.w3.org/2000/svg">
<path d="M18 5.01L18.01 4.99889M12 16C10.3431 16 9 14.6569 9 13M21 20L20.9999 3.99999C20.9999 2.89543 20.1045 2 18.9999 2H5C3.89543 2 3 2.89543 3 4V20C3 21.1046 3.89543 22 5 22H19C20.1046 22 21 21.1046 21 20ZM18 13C18 16.3137 15.3137 19 12 19C8.68629 19 6 16.3137 6 13C6 9.68629 8.68629 7 12 7C15.3137 7 18 9.68629 18 13Z" stroke="#141C25" stroke-width="1.5" stroke-linecap="round" stroke-linejoin="round"/>
</svg>
