<svg width="24" height="24" viewBox="0 0 24 24" fill="none" xmlns="http://www.w3.org/2000/svg">
<path d="M4 11.9998H2M22 11.9998H20M3 20.0098L3.01 19.9987M6 16.0098L6.01 15.9987M9 20.0098L9.01 19.9987M15 20.0098L15.01 19.9987M18 16.0098L18.01 15.9987M21 20.0098L21.01 19.9987M15.5 6.49984L12.3962 3.39606C12.1774 3.17723 11.8226 3.17723 11.6038 3.39606L8.50001 6.49983C6.56701 8.43283 6.56701 11.5668 8.50001 13.4998C10.433 15.4328 13.567 15.4328 15.5 13.4998C17.433 11.5668 17.433 8.43284 15.5 6.49984Z" stroke="#141C25" stroke-width="1.5" stroke-linecap="round" stroke-linejoin="round"/>
</svg>
