<svg width="24" height="24" viewBox="0 0 24 24" fill="none" xmlns="http://www.w3.org/2000/svg">
<path d="M4 6V3.6C4 3.26863 4.26863 3 4.6 3H19.4C19.7314 3 20 3.26863 20 3.6V6M4 18V20.4C4 20.7314 4.26863 21 4.6 21H19.4C19.7314 21 20 20.7314 20 20.4V18M13.5 12V9H15.9C16.2314 9 16.5 9.26863 16.5 9.6V10.5C16.5 11.3284 15.8284 12 15 12M13.5 12V15H15.9C16.2314 15 16.5 14.7314 16.5 14.4V13.5C16.5 12.6716 15.8284 12 15 12M13.5 12H15M19.5 12V9H22.5V12H19.5ZM19.5 12V15M1.5 9V15L3 12L4.5 15V9M10.5 9H7.5V15H10.5M7.5 12H9.5" stroke="#141C25" stroke-width="1.5" stroke-linecap="round" stroke-linejoin="round"/>
</svg>
