<svg width="24" height="24" viewBox="0 0 24 24" fill="none" xmlns="http://www.w3.org/2000/svg">
<path d="M16.5 6.00003C16.5 6.00003 17.2702 7.15756 17.5 8.00003C18.0239 9.92116 16.6005 11.0113 16.5 13C16.3396 16.1746 18 21 18 21H6C6 21 7.66042 16.1746 7.5 13C7.3995 11.0113 5.97606 9.92116 6.5 8.00003C6.72976 7.15756 7.5 6.00003 7.5 6.00003M16.5 6.00003C16.5 6.00003 15 7.00003 12 7.00003C9 7.00003 7.5 6.00003 7.5 6.00003M16.5 6.00003L16.5 3.00003M7.5 6.00003L7.49988 3" stroke="#141C25" stroke-width="1.5" stroke-linecap="round" stroke-linejoin="round"/>
</svg>
