<svg width="24" height="24" viewBox="0 0 24 24" fill="none" xmlns="http://www.w3.org/2000/svg">
<path d="M3.33782 17C5.06687 19.989 8.29859 22 12 22C15.7014 22 18.9331 19.989 20.6622 17M3.33789 7C5.06694 4.01099 8.29866 2 12.0001 2C15.7015 2 18.9332 4.01099 20.6622 7M15.2947 16.9999C14.4079 20.0966 13 21.9506 13 21.9506M13 2.04932C13 2.04932 14.4079 3.90328 15.2947 7M11 21.9506C11 21.9506 9.59215 20.0966 8.70532 16.9999M8.70532 7C9.59215 3.90328 11 2.04932 11 2.04932M9 10L10.5 15L12 10L13.5 15L15 10M1 10L2.5 15L4 10L5.5 15L7 10M17 10L18.5 15L20 10L21.5 15L23 10" stroke="#141C25" stroke-width="1.5" stroke-linecap="round" stroke-linejoin="round"/>
</svg>
