<svg width="24" height="24" viewBox="0 0 24 24" fill="none" xmlns="http://www.w3.org/2000/svg">
<path d="M14.5714 15.0036L15.4286 16.8486C15.4286 16.8486 19.2857 17.6678 19.2857 19.6162C19.2857 21 17.5714 21 17.5714 21H13L10.75 19.75M10.75 19.75L8.5 21H6.42857C6.42857 21 4.71429 21 4.71429 19.6162C4.71429 17.6678 8.57143 16.8486 8.57143 16.8486L9.42857 15.0036M10.75 19.75L13.5 18M3 15.9261C3 15.9261 5.14286 15.4649 6.42857 15.0036C7.71429 8.54595 11.5714 9.00721 12 9.00721C12.4286 9.00721 16.2857 8.54595 17.5714 15.0036C18.8571 15.4649 21 15.9261 21 15.9261M14 5C14 6.10457 13.1046 7 12 7C10.8954 7 10 6.10457 10 5C10 3.89543 10.8954 3 12 3C13.1046 3 14 3.89543 14 5Z" stroke="#141C25" stroke-width="1.5" stroke-linecap="round" stroke-linejoin="round"/>
</svg>
